<svg width="16" height="12" viewBox="0 0 16 12" fill="none" xmlns="http://www.w3.org/2000/svg">
<path fill-rule="evenodd" clip-rule="evenodd" d="M9.64419 11.7077C9.77393 11.8375 9.93828 11.898 10.1026 11.898C10.267 11.898 10.4313 11.8375 10.5611 11.7077L15.8115 6.45734C16.0623 6.2065 16.0623 5.79131 15.8115 5.54047L10.5611 0.290061C10.3102 0.0392179 9.89503 0.0392179 9.64419 0.290061C9.39334 0.540904 9.39334 0.956093 9.64419 1.20694L13.7873 5.35007H0.648732C0.294092 5.35007 0 5.64416 0 5.9988C0 6.35344 0.294092 6.64753 0.648732 6.64753H13.7875L9.64419 10.7909C9.39334 11.0417 9.39334 11.4569 9.64419 11.7077Z" fill="white"/>
</svg>
