<svg width="17" height="17" viewBox="0 0 17 17" fill="none" xmlns="http://www.w3.org/2000/svg">
<g clip-path="url(#clip0_995_5938)">
<path d="M11.0851 16.8281C10.9082 16.8282 10.733 16.7912 10.5699 16.7195C10.4068 16.6477 10.2591 16.5426 10.1353 16.4102L3.81077 9.79247C3.56217 9.52773 3.42285 9.17133 3.42285 8.80006C3.42285 8.42879 3.56217 8.07239 3.81077 7.80765L10.1363 1.18151C10.3924 0.944186 10.7253 0.818116 11.0672 0.829022C11.409 0.839928 11.734 0.986989 11.9759 1.2402C12.2177 1.49341 12.3582 1.8337 12.3686 2.19163C12.379 2.54956 12.2586 2.89816 12.0319 3.16632L6.65925 8.79797L12.0349 14.4265C12.2835 14.6912 12.4229 15.0476 12.4229 15.4189C12.4229 15.7902 12.2835 16.1466 12.0349 16.4113C11.9131 16.5463 11.7657 16.6531 11.6021 16.7248C11.4385 16.7966 11.2624 16.8318 11.0851 16.8281Z" fill="white"/>
</g>
<defs>
<clipPath id="clip0_995_5938">
<rect width="16" height="16" fill="white" transform="translate(0.422852 0.828369)"/>
</clipPath>
</defs>
</svg>
