<svg width="174" height="183" viewBox="0 0 174 183" fill="none" xmlns="http://www.w3.org/2000/svg">
<g filter="url(#filter0_d_1491_5568)">
<g clip-path="url(#clip0_1491_5568)">
<rect x="10" y="8" width="163" height="163" rx="8" fill="url(#paint0_linear_1491_5568)"/>
<rect x="26" y="24" width="60" height="60" rx="8" fill="#040405"/>
<path fill-rule="evenodd" clip-rule="evenodd" d="M55.2714 41.1982L35.5564 53.0737C35.5456 53.0803 35.5348 53.087 35.5242 53.0937L35.5084 53.1041L35.4927 53.1146L35.4775 53.1253L35.4623 53.1361L35.4472 53.1473L35.4325 53.1585L35.418 53.1699L35.4037 53.1816L35.3896 53.1934L35.3758 53.2054L35.3621 53.2176L35.3486 53.2297L35.3354 53.2423L35.3225 53.2549L35.3098 53.2677L35.2973 53.2806L35.285 53.2937L35.273 53.307L35.2612 53.3204L35.2497 53.334L35.2384 53.3476L35.2273 53.3614L35.2165 53.3754L35.2059 53.3895L35.1955 53.4037L35.1854 53.4181L35.1756 53.4325L35.1661 53.4472L35.1567 53.4619L35.1476 53.4768L35.1388 53.4918L35.1302 53.5068L35.1219 53.5221L35.1137 53.5374L35.106 53.5528L35.0985 53.5682L35.0912 53.5839L35.0843 53.5996L35.0775 53.6154L35.0711 53.6314L35.0648 53.6474L35.0588 53.6634L35.0533 53.6796L35.0479 53.696L35.0428 53.7122L35.038 53.7286L35.0334 53.7451L35.0291 53.7617L35.0252 53.7784L35.0215 53.7951L35.0181 53.8119L35.0149 53.8287L35.0122 53.8456L35.0096 53.8625L35.0074 53.8796L35.0054 53.8966L35.0038 53.9138L35.0025 53.931L35.0014 53.9482L35.0006 53.9654L35.0001 53.9827L35 54.0001L35.0001 54.0173L35.0006 54.0346L35.0014 54.0519L35.0025 54.0692L35.0038 54.0863L35.0054 54.1033L35.0074 54.1204L35.0096 54.1375L35.0122 54.1544L35.0149 54.1713L35.0181 54.1881L35.0215 54.205L35.0252 54.2217L35.0291 54.2383L35.0334 54.2548L35.038 54.2714L35.0428 54.2878L35.0479 54.3042L35.0533 54.3204L35.0588 54.3366L35.0648 54.3526L35.0711 54.3686L35.0775 54.3846L35.0843 54.4003L35.0912 54.4162L35.0985 54.4318L35.106 54.4474L35.1137 54.4627L35.1219 54.478L35.1302 54.4932L35.1388 54.5083L35.1476 54.5232L35.1567 54.5381L35.1661 54.5528L35.1756 54.5675L35.1854 54.582L35.1955 54.5963L35.2059 54.6106L35.2165 54.6246L35.2273 54.6386L35.2384 54.6525L35.2497 54.6661L35.2612 54.6797L35.273 54.693L35.285 54.7063L35.2973 54.7194L35.3098 54.7323L35.3225 54.7451L35.3354 54.7577L35.3486 54.7702L35.3621 54.7825L35.3758 54.7946L35.3896 54.8066L35.4037 54.8184L35.418 54.8301L35.4325 54.8415L35.4472 54.8527L35.4623 54.8638L35.4775 54.8747L35.4927 54.8854L35.5084 54.8959L35.5242 54.9063L35.5402 54.9164L35.5564 54.9264L55.2714 66.8018C55.7102 67.0661 56.29 67.0661 56.7288 66.8018L76.4436 54.9264L76.4598 54.9164L76.4757 54.9063L76.4917 54.8959L76.5072 54.8854L76.5227 54.8747L76.5378 54.8638L76.5528 54.8527L76.5675 54.8415L76.582 54.8301L76.5964 54.8184L76.6104 54.8066L76.6243 54.7946L76.6379 54.7825L76.6513 54.7702L76.6645 54.7577L76.6775 54.7451L76.6902 54.7323L76.7027 54.7194L76.715 54.7063L76.727 54.693L76.7388 54.6797L76.7503 54.6661L76.7617 54.6525L76.7728 54.6386L76.7836 54.6246L76.7942 54.6106L76.8045 54.5963L76.8146 54.582L76.8244 54.5675L76.834 54.5528L76.8433 54.5381L76.8525 54.5232L76.8613 54.5083L76.8699 54.4932L76.8782 54.478L76.8862 54.4627L76.894 54.4474L76.9015 54.4318L76.9088 54.4162L76.9158 54.4003L76.9225 54.3846L76.9291 54.3686L76.9352 54.3526L76.9411 54.3366L76.9468 54.3204L76.9521 54.3042L76.9573 54.2878L76.9621 54.2714L76.9665 54.2548L76.9709 54.2383L76.9748 54.2217L76.9785 54.205L76.982 54.1881L76.9851 54.1713L76.9879 54.1544L76.9904 54.1375L76.9926 54.1204L76.9946 54.1033L76.9963 54.0863L76.9977 54.0692L76.9986 54.0519L76.9994 54.0346L76.9999 54.0173L77 54.0001L76.9999 53.9827L76.9994 53.9654L76.9986 53.9482L76.9977 53.931L76.9963 53.9138L76.9946 53.8966L76.9926 53.8796L76.9915 53.8711C76.9893 53.8532 76.9863 53.8354 76.983 53.8177L76.982 53.8119L76.9785 53.7951L76.9748 53.7784L76.9709 53.7617L76.9665 53.7451L76.9621 53.7286L76.9573 53.7122L76.9521 53.696L76.9468 53.6796L76.9411 53.6634L76.9352 53.6474L76.9291 53.6314L76.9225 53.6154L76.9158 53.5996L76.9088 53.5839L76.9015 53.5682L76.894 53.5528L76.8862 53.5374L76.8782 53.5221L76.8699 53.5068L76.8613 53.4918L76.8525 53.4768L76.8433 53.4619L76.834 53.4472L76.8244 53.4325L76.8146 53.4181L76.8045 53.4037L76.7942 53.3895L76.7836 53.3754L76.7728 53.3614L76.7617 53.3476L76.7503 53.334L76.7388 53.3204L76.727 53.307L76.715 53.2937L76.7027 53.2806L76.6902 53.2677L76.6775 53.2549L76.6645 53.2423L76.6513 53.2297L76.6379 53.2176L76.6243 53.2054L76.6104 53.1934L76.5964 53.1816L76.582 53.1699L76.5675 53.1585L76.5528 53.1473L76.5378 53.1361L76.5227 53.1253L76.5072 53.1146L76.4917 53.1041L76.4757 53.0937L76.4598 53.0836L76.4436 53.0737L56.7288 41.1982C56.29 40.9339 55.7102 40.9339 55.2714 41.1982ZM63.591 59.9377L56 55.3653L48.4091 59.9377L56 64.5103L63.591 59.9377ZM65.8575 49.4276L73.4484 54.0001L65.8575 58.5725L58.2665 54.0001L65.8575 49.4276ZM46.1425 49.4276L45.1701 50.0134L38.5516 54.0001L46.1425 58.5725L53.7335 54.0001L46.1425 49.4276Z" fill="#2479FA"/>
<path d="M34.7646 106.924L29.6987 122H26.1465L32.7871 104.227H35.0576L34.7646 106.924ZM39.0005 122L33.9102 106.924L33.605 104.227H35.8877L42.5649 122H39.0005ZM38.7686 115.396V118.045H29.2349V115.396H38.7686ZM47.3745 111.49V122H44.1519V108.792H47.2036L47.3745 111.49ZM51.3906 108.707L51.3418 111.709C51.1628 111.677 50.9593 111.653 50.7314 111.636C50.5117 111.62 50.3042 111.612 50.1089 111.612C49.6125 111.612 49.1771 111.681 48.8027 111.819C48.4284 111.95 48.1151 112.141 47.8628 112.393C47.6187 112.645 47.4315 112.955 47.3013 113.321C47.1711 113.679 47.0978 114.086 47.0815 114.542L46.3857 114.456C46.3857 113.618 46.4712 112.841 46.6421 112.125C46.813 111.408 47.0612 110.782 47.3867 110.245C47.7122 109.708 48.1191 109.292 48.6074 109C49.1038 108.698 49.6735 108.548 50.3164 108.548C50.4954 108.548 50.6867 108.564 50.8901 108.597C51.1017 108.621 51.2686 108.658 51.3906 108.707ZM60.021 108.792V111.111H52.4526V108.792H60.021ZM54.479 105.545H57.7139V118.191C57.7139 118.582 57.7668 118.883 57.8726 119.095C57.9784 119.306 58.137 119.449 58.3486 119.522C58.5602 119.595 58.8125 119.632 59.1055 119.632C59.3171 119.632 59.5124 119.62 59.6914 119.595C59.8704 119.571 60.021 119.546 60.1431 119.522L60.1553 121.939C59.8867 122.028 59.5815 122.102 59.2397 122.159C58.9061 122.216 58.5277 122.244 58.1045 122.244C57.3802 122.244 56.7454 122.122 56.2002 121.878C55.6549 121.626 55.2318 121.223 54.9307 120.669C54.6296 120.108 54.479 119.367 54.479 118.448V105.545ZM65.5874 108.792V122H62.3525V108.792H65.5874ZM62.1328 105.337C62.1328 104.857 62.2956 104.458 62.6211 104.141C62.9548 103.824 63.4023 103.665 63.9639 103.665C64.5254 103.665 64.9689 103.824 65.2944 104.141C65.6281 104.458 65.7949 104.857 65.7949 105.337C65.7949 105.809 65.6281 106.204 65.2944 106.521C64.9689 106.839 64.5254 106.998 63.9639 106.998C63.4023 106.998 62.9548 106.839 62.6211 106.521C62.2956 106.204 62.1328 105.809 62.1328 105.337ZM68.0898 115.53V115.274C68.0898 114.306 68.2282 113.414 68.5049 112.601C68.7816 111.779 69.1844 111.067 69.7134 110.464C70.2424 109.862 70.8893 109.394 71.6543 109.061C72.4193 108.719 73.29 108.548 74.2666 108.548C75.2594 108.548 76.1383 108.719 76.9033 109.061C77.6764 109.394 78.3275 109.862 78.8564 110.464C79.3854 111.067 79.7882 111.779 80.0649 112.601C80.3416 113.414 80.48 114.306 80.48 115.274V115.53C80.48 116.491 80.3416 117.382 80.0649 118.204C79.7882 119.017 79.3854 119.729 78.8564 120.34C78.3275 120.942 77.6805 121.41 76.9155 121.744C76.1506 122.077 75.2757 122.244 74.291 122.244C73.3145 122.244 72.4396 122.077 71.6665 121.744C70.8934 121.41 70.2424 120.942 69.7134 120.34C69.1844 119.729 68.7816 119.017 68.5049 118.204C68.2282 117.382 68.0898 116.491 68.0898 115.53ZM71.3125 115.274V115.53C71.3125 116.108 71.3695 116.649 71.4834 117.154C71.5973 117.658 71.7723 118.102 72.0083 118.484C72.2443 118.867 72.5495 119.168 72.9238 119.388C73.3063 119.599 73.762 119.705 74.291 119.705C74.8118 119.705 75.2594 119.599 75.6338 119.388C76.0081 119.168 76.3133 118.867 76.5493 118.484C76.7935 118.102 76.9725 117.658 77.0864 117.154C77.2004 116.649 77.2573 116.108 77.2573 115.53V115.274C77.2573 114.704 77.2004 114.171 77.0864 113.675C76.9725 113.17 76.7935 112.727 76.5493 112.344C76.3133 111.954 76.0041 111.648 75.6216 111.429C75.2472 111.201 74.7956 111.087 74.2666 111.087C73.7458 111.087 73.2982 111.201 72.9238 111.429C72.5495 111.648 72.2443 111.954 72.0083 112.344C71.7723 112.727 71.5973 113.17 71.4834 113.675C71.3695 114.171 71.3125 114.704 71.3125 115.274ZM85.9854 111.612V122H82.7627V108.792H85.79L85.9854 111.612ZM85.4727 114.92H84.5205C84.5286 113.96 84.6589 113.089 84.9111 112.308C85.1634 111.526 85.5174 110.855 85.9731 110.293C86.437 109.732 86.9863 109.301 87.6211 109C88.2559 108.698 88.9639 108.548 89.7451 108.548C90.3799 108.548 90.9536 108.637 91.4663 108.816C91.979 108.995 92.4185 109.28 92.7847 109.671C93.159 110.062 93.4438 110.574 93.6392 111.209C93.8426 111.836 93.9443 112.609 93.9443 113.528V122H90.6973V113.504C90.6973 112.902 90.6077 112.426 90.4287 112.076C90.2578 111.726 90.0055 111.478 89.6719 111.331C89.3464 111.185 88.9435 111.111 88.4634 111.111C87.967 111.111 87.5316 111.213 87.1572 111.417C86.791 111.612 86.4818 111.884 86.2295 112.234C85.9854 112.584 85.7982 112.987 85.668 113.443C85.5378 113.899 85.4727 114.391 85.4727 114.92Z" fill="#0B0514"/>
<path d="M31.3252 150.735V146.928C31.3252 146.636 31.266 146.383 31.1475 146.169C31.0335 145.95 30.8604 145.782 30.6279 145.663C30.3955 145.545 30.1084 145.485 29.7666 145.485C29.4476 145.485 29.1673 145.54 28.9258 145.649C28.6888 145.759 28.502 145.902 28.3652 146.08C28.2331 146.258 28.167 146.449 28.167 146.654H26.9023C26.9023 146.39 26.9707 146.128 27.1074 145.868C27.2441 145.608 27.4401 145.374 27.6953 145.164C27.9551 144.95 28.265 144.781 28.625 144.658C28.9896 144.531 29.3952 144.467 29.8418 144.467C30.3796 144.467 30.8535 144.558 31.2637 144.74C31.6784 144.923 32.002 145.198 32.2344 145.567C32.4714 145.932 32.5898 146.39 32.5898 146.941V150.387C32.5898 150.633 32.6104 150.895 32.6514 151.173C32.6969 151.451 32.763 151.69 32.8496 151.891V152H31.5303C31.4665 151.854 31.4163 151.66 31.3799 151.419C31.3434 151.173 31.3252 150.945 31.3252 150.735ZM31.5439 147.516L31.5576 148.404H30.2793C29.9193 148.404 29.598 148.434 29.3154 148.493C29.0329 148.548 28.7959 148.632 28.6045 148.746C28.4131 148.86 28.2673 149.004 28.167 149.177C28.0667 149.345 28.0166 149.544 28.0166 149.771C28.0166 150.004 28.069 150.216 28.1738 150.407C28.2786 150.599 28.4359 150.751 28.6455 150.865C28.8597 150.975 29.1217 151.029 29.4316 151.029C29.819 151.029 30.1608 150.947 30.457 150.783C30.7533 150.619 30.988 150.419 31.1611 150.182C31.3389 149.945 31.4346 149.715 31.4482 149.491L31.9883 150.1C31.9564 150.291 31.8698 150.503 31.7285 150.735C31.5872 150.968 31.3981 151.191 31.1611 151.405C30.9287 151.615 30.6507 151.79 30.3271 151.932C30.0081 152.068 29.6481 152.137 29.2471 152.137C28.7458 152.137 28.306 152.039 27.9277 151.843C27.554 151.647 27.2624 151.385 27.0527 151.057C26.8477 150.724 26.7451 150.353 26.7451 149.942C26.7451 149.546 26.8226 149.197 26.9775 148.896C27.1325 148.591 27.3558 148.338 27.6475 148.138C27.9391 147.933 28.29 147.778 28.7002 147.673C29.1104 147.568 29.5684 147.516 30.0742 147.516H31.5439ZM35.8438 145.766V152H34.5791V144.604H35.8096L35.8438 145.766ZM38.1543 144.562L38.1475 145.738C38.0426 145.715 37.9424 145.702 37.8467 145.697C37.7555 145.688 37.6507 145.684 37.5322 145.684C37.2406 145.684 36.9831 145.729 36.7598 145.82C36.5365 145.911 36.3473 146.039 36.1924 146.203C36.0374 146.367 35.9144 146.563 35.8232 146.791C35.7367 147.014 35.6797 147.26 35.6523 147.529L35.2969 147.734C35.2969 147.288 35.3402 146.868 35.4268 146.477C35.5179 146.085 35.6569 145.738 35.8438 145.438C36.0306 145.132 36.2676 144.895 36.5547 144.727C36.8464 144.553 37.1927 144.467 37.5938 144.467C37.6849 144.467 37.7897 144.478 37.9082 144.501C38.0267 144.519 38.1087 144.54 38.1543 144.562ZM42.7617 144.604V145.574H38.7627V144.604H42.7617ZM40.1162 142.806H41.3809V150.168C41.3809 150.419 41.4196 150.608 41.4971 150.735C41.5745 150.863 41.6748 150.947 41.7979 150.988C41.9209 151.029 42.0531 151.05 42.1943 151.05C42.2992 151.05 42.4085 151.041 42.5225 151.022C42.641 151 42.7298 150.981 42.7891 150.968L42.7959 152C42.6956 152.032 42.5635 152.062 42.3994 152.089C42.2399 152.121 42.0462 152.137 41.8184 152.137C41.5085 152.137 41.2236 152.075 40.9639 151.952C40.7041 151.829 40.4967 151.624 40.3418 151.337C40.1914 151.045 40.1162 150.653 40.1162 150.161V142.806ZM45.6191 144.604V152H44.3477V144.604H45.6191ZM44.252 142.642C44.252 142.437 44.3135 142.263 44.4365 142.122C44.5641 141.981 44.751 141.91 44.9971 141.91C45.2386 141.91 45.4232 141.981 45.5508 142.122C45.6829 142.263 45.749 142.437 45.749 142.642C45.749 142.838 45.6829 143.006 45.5508 143.147C45.4232 143.284 45.2386 143.353 44.9971 143.353C44.751 143.353 44.5641 143.284 44.4365 143.147C44.3135 143.006 44.252 142.838 44.252 142.642ZM47.3145 148.384V148.227C47.3145 147.693 47.3919 147.199 47.5469 146.743C47.7018 146.283 47.9251 145.884 48.2168 145.547C48.5085 145.205 48.8617 144.941 49.2764 144.754C49.6911 144.562 50.1559 144.467 50.6709 144.467C51.1904 144.467 51.6576 144.562 52.0723 144.754C52.4915 144.941 52.847 145.205 53.1387 145.547C53.4349 145.884 53.6605 146.283 53.8154 146.743C53.9704 147.199 54.0479 147.693 54.0479 148.227V148.384C54.0479 148.917 53.9704 149.411 53.8154 149.867C53.6605 150.323 53.4349 150.722 53.1387 151.063C52.847 151.401 52.4938 151.665 52.0791 151.856C51.6689 152.043 51.2041 152.137 50.6846 152.137C50.165 152.137 49.6979 152.043 49.2832 151.856C48.8685 151.665 48.513 151.401 48.2168 151.063C47.9251 150.722 47.7018 150.323 47.5469 149.867C47.3919 149.411 47.3145 148.917 47.3145 148.384ZM48.5791 148.227V148.384C48.5791 148.753 48.6224 149.102 48.709 149.43C48.7956 149.753 48.9255 150.04 49.0986 150.291C49.2764 150.542 49.4974 150.74 49.7617 150.886C50.026 151.027 50.3337 151.098 50.6846 151.098C51.0309 151.098 51.334 151.027 51.5938 150.886C51.8581 150.74 52.0768 150.542 52.25 150.291C52.4232 150.04 52.5531 149.753 52.6396 149.43C52.7308 149.102 52.7764 148.753 52.7764 148.384V148.227C52.7764 147.862 52.7308 147.518 52.6396 147.194C52.5531 146.866 52.4209 146.577 52.2432 146.326C52.07 146.071 51.8512 145.87 51.5869 145.725C51.3271 145.579 51.0218 145.506 50.6709 145.506C50.3245 145.506 50.0192 145.579 49.7549 145.725C49.4951 145.87 49.2764 146.071 49.0986 146.326C48.9255 146.577 48.7956 146.866 48.709 147.194C48.6224 147.518 48.5791 147.862 48.5791 148.227ZM56.8984 146.183V152H55.6338V144.604H56.8301L56.8984 146.183ZM56.5977 148.021L56.0713 148.001C56.0758 147.495 56.151 147.028 56.2969 146.6C56.4427 146.167 56.6478 145.791 56.9121 145.472C57.1764 145.153 57.4909 144.907 57.8555 144.733C58.2246 144.556 58.6325 144.467 59.0791 144.467C59.4437 144.467 59.7718 144.517 60.0635 144.617C60.3551 144.713 60.6035 144.868 60.8086 145.082C61.0182 145.296 61.1777 145.574 61.2871 145.916C61.3965 146.253 61.4512 146.666 61.4512 147.153V152H60.1797V147.14C60.1797 146.752 60.1227 146.442 60.0088 146.21C59.8949 145.973 59.7285 145.802 59.5098 145.697C59.291 145.588 59.0221 145.533 58.7031 145.533C58.3887 145.533 58.1016 145.599 57.8418 145.731C57.5866 145.864 57.3656 146.046 57.1787 146.278C56.9964 146.511 56.8529 146.777 56.748 147.078C56.6478 147.374 56.5977 147.689 56.5977 148.021ZM63.3926 151.33C63.3926 151.116 63.4587 150.936 63.5908 150.79C63.7275 150.64 63.9235 150.564 64.1787 150.564C64.4339 150.564 64.6276 150.64 64.7598 150.79C64.8965 150.936 64.9648 151.116 64.9648 151.33C64.9648 151.54 64.8965 151.717 64.7598 151.863C64.6276 152.009 64.4339 152.082 64.1787 152.082C63.9235 152.082 63.7275 152.009 63.5908 151.863C63.4587 151.717 63.3926 151.54 63.3926 151.33ZM68.4375 144.604V152H67.166V144.604H68.4375ZM67.0703 142.642C67.0703 142.437 67.1318 142.263 67.2549 142.122C67.3825 141.981 67.5693 141.91 67.8154 141.91C68.057 141.91 68.2415 141.981 68.3691 142.122C68.5013 142.263 68.5674 142.437 68.5674 142.642C68.5674 142.838 68.5013 143.006 68.3691 143.147C68.2415 143.284 68.057 143.353 67.8154 143.353C67.5693 143.353 67.3825 143.284 67.2549 143.147C67.1318 143.006 67.0703 142.838 67.0703 142.642ZM70.1328 148.384V148.227C70.1328 147.693 70.2103 147.199 70.3652 146.743C70.5202 146.283 70.7435 145.884 71.0352 145.547C71.3268 145.205 71.68 144.941 72.0947 144.754C72.5094 144.562 72.9743 144.467 73.4893 144.467C74.0088 144.467 74.4759 144.562 74.8906 144.754C75.3099 144.941 75.6654 145.205 75.957 145.547C76.2533 145.884 76.4788 146.283 76.6338 146.743C76.7887 147.199 76.8662 147.693 76.8662 148.227V148.384C76.8662 148.917 76.7887 149.411 76.6338 149.867C76.4788 150.323 76.2533 150.722 75.957 151.063C75.6654 151.401 75.3122 151.665 74.8975 151.856C74.4873 152.043 74.0225 152.137 73.5029 152.137C72.9834 152.137 72.5163 152.043 72.1016 151.856C71.6868 151.665 71.3314 151.401 71.0352 151.063C70.7435 150.722 70.5202 150.323 70.3652 149.867C70.2103 149.411 70.1328 148.917 70.1328 148.384ZM71.3975 148.227V148.384C71.3975 148.753 71.4408 149.102 71.5273 149.43C71.6139 149.753 71.7438 150.04 71.917 150.291C72.0947 150.542 72.3158 150.74 72.5801 150.886C72.8444 151.027 73.152 151.098 73.5029 151.098C73.8493 151.098 74.1523 151.027 74.4121 150.886C74.6764 150.74 74.8952 150.542 75.0684 150.291C75.2415 150.04 75.3714 149.753 75.458 149.43C75.5492 149.102 75.5947 148.753 75.5947 148.384V148.227C75.5947 147.862 75.5492 147.518 75.458 147.194C75.3714 146.866 75.2393 146.577 75.0615 146.326C74.8883 146.071 74.6696 145.87 74.4053 145.725C74.1455 145.579 73.8402 145.506 73.4893 145.506C73.1429 145.506 72.8376 145.579 72.5732 145.725C72.3135 145.87 72.0947 146.071 71.917 146.326C71.7438 146.577 71.6139 146.866 71.5273 147.194C71.4408 147.518 71.3975 147.862 71.3975 148.227Z" fill="#0B0514"/>
</g>
</g>
<defs>
<filter id="filter0_d_1491_5568" x="0" y="0" width="183" height="183" filterUnits="userSpaceOnUse" color-interpolation-filters="sRGB">
<feFlood flood-opacity="0" result="BackgroundImageFix"/>
<feColorMatrix in="SourceAlpha" type="matrix" values="0 0 0 0 0 0 0 0 0 0 0 0 0 0 0 0 0 0 127 0" result="hardAlpha"/>
<feOffset dy="2"/>
<feGaussianBlur stdDeviation="5"/>
<feComposite in2="hardAlpha" operator="out"/>
<feColorMatrix type="matrix" values="0 0 0 0 0 0 0 0 0 0 0 0 0 0 0 0 0 0 0.1 0"/>
<feBlend mode="normal" in2="BackgroundImageFix" result="effect1_dropShadow_1491_5568"/>
<feBlend mode="normal" in="SourceGraphic" in2="effect1_dropShadow_1491_5568" result="shape"/>
</filter>
<linearGradient id="paint0_linear_1491_5568" x1="10" y1="45.2571" x2="181.15" y2="165.761" gradientUnits="userSpaceOnUse">
<stop stop-color="#2479FA"/>
<stop offset="1" stop-color="#71A9FF"/>
</linearGradient>
<clipPath id="clip0_1491_5568">
<rect x="10" y="8" width="163" height="163" rx="8" fill="white"/>
</clipPath>
</defs>
</svg>
