<svg width="174" height="183" viewBox="0 0 174 183" fill="none" xmlns="http://www.w3.org/2000/svg">
<g filter="url(#filter0_d_1491_5571)">
<rect x="10" y="8" width="163" height="163" rx="8" fill="url(#paint0_linear_1491_5571)"/>
<rect x="26" y="24" width="60" height="60" rx="8" fill="#040405"/>
<path d="M63.7379 37H48.2857C43.1683 37 39.0244 41.1439 39.0244 46.2613V61.7135C39.0244 66.831 43.1683 70.7751 48.2857 70.7751H63.7379C68.8554 70.7751 72.9993 66.831 72.9993 61.7135V46.2613C73.0242 41.1439 68.8803 37 63.7379 37Z" fill="#165366"/>
<path d="M63.7379 37H48.2857C43.1683 37 39.0244 41.1439 39.0244 46.2613V61.7135C39.0244 66.831 43.1683 70.9749 48.2857 70.9749H63.7379C68.8554 70.9749 72.9993 66.831 72.9993 61.7135V46.2613C73.0242 41.1439 68.8803 37 63.7379 37Z" fill="url(#paint1_linear_1491_5571)"/>
<path d="M63.7385 37C50.0836 37 39 48.0587 39 61.7385C39 66.8559 43.1439 70.9998 48.2613 70.9998H63.7135C68.831 70.9998 72.9748 66.8559 72.9748 61.7385V46.2613C73.0248 41.1439 68.8809 37 63.7385 37Z" fill="#7FD0B3"/>
<path d="M63.7385 37C50.0836 37 39 48.0587 39 61.7385C39 66.8559 43.1439 70.9998 48.2613 70.9998H63.7135C68.831 70.9998 72.9748 66.8559 72.9748 61.7385V46.2613C73.0248 41.1439 68.8809 37 63.7385 37Z" fill="url(#paint2_linear_1491_5571)"/>
<path d="M63.7385 37C50.0836 37 39 48.0587 39 61.7385C39 66.8559 43.1439 70.9998 48.2613 70.9998H63.7135C68.831 70.9998 72.9748 66.8559 72.9748 61.7385V46.2613C73.0248 41.1439 68.8809 37 63.7385 37Z" fill="url(#paint3_linear_1491_5571)"/>
<path d="M56.0244 64.2099C61.6632 64.2099 66.2343 59.6388 66.2343 54C66.2343 48.3612 61.6632 43.79 56.0244 43.79C50.3856 43.79 45.8145 48.3612 45.8145 54C45.8145 59.6388 50.3856 64.2099 56.0244 64.2099Z" fill="#165366"/>
<path d="M56.0249 57.395C57.8999 57.395 59.4199 55.875 59.4199 54C59.4199 52.125 57.8999 50.605 56.0249 50.605C54.1499 50.605 52.6299 52.125 52.6299 54C52.6299 55.875 54.1499 57.395 56.0249 57.395Z" fill="white"/>
<path d="M41.125 122H27.25V121.588L36.125 106.825H27.875V104H41.3375V104.425L32.5125 119.162H41.125V122ZM50.2896 122.375C48.9563 122.375 47.7813 122.075 46.7646 121.475C45.748 120.867 44.9605 120.025 44.4021 118.95C43.8521 117.867 43.5771 116.633 43.5771 115.25C43.5771 113.85 43.8563 112.612 44.4146 111.537C44.9813 110.454 45.773 109.617 46.7896 109.025C47.8063 108.425 48.973 108.125 50.2896 108.125C51.6313 108.125 52.8105 108.429 53.8271 109.037C54.8438 109.637 55.6313 110.479 56.1896 111.562C56.748 112.637 57.0271 113.867 57.0271 115.25C57.0271 116.642 56.7438 117.879 56.1771 118.962C55.6188 120.037 54.8271 120.875 53.8021 121.475C52.7855 122.075 51.6146 122.375 50.2896 122.375ZM50.2896 119.55C51.448 119.55 52.3271 119.162 52.9271 118.387C53.5355 117.612 53.8396 116.567 53.8396 115.25C53.8396 113.917 53.5355 112.867 52.9271 112.1C52.3271 111.333 51.448 110.95 50.2896 110.95C49.1146 110.95 48.2313 111.337 47.6396 112.112C47.0563 112.879 46.7646 113.925 46.7646 115.25C46.7646 116.592 47.0646 117.646 47.6646 118.412C48.273 119.171 49.148 119.55 50.2896 119.55ZM65.7438 122.375C64.4104 122.375 63.2354 122.075 62.2188 121.475C61.2021 120.867 60.4146 120.025 59.8563 118.95C59.3063 117.867 59.0313 116.633 59.0313 115.25C59.0313 113.85 59.3104 112.612 59.8687 111.537C60.4354 110.454 61.2271 109.617 62.2438 109.025C63.2604 108.425 64.4271 108.125 65.7438 108.125C67.0854 108.125 68.2646 108.429 69.2813 109.037C70.2979 109.637 71.0854 110.479 71.6438 111.562C72.2021 112.637 72.4813 113.867 72.4813 115.25C72.4813 116.642 72.1979 117.879 71.6313 118.962C71.0729 120.037 70.2813 120.875 69.2563 121.475C68.2396 122.075 67.0688 122.375 65.7438 122.375ZM65.7438 119.55C66.9021 119.55 67.7813 119.162 68.3813 118.387C68.9896 117.612 69.2938 116.567 69.2938 115.25C69.2938 113.917 68.9896 112.867 68.3813 112.1C67.7813 111.333 66.9021 110.95 65.7438 110.95C64.5688 110.95 63.6854 111.337 63.0938 112.112C62.5104 112.879 62.2188 113.925 62.2188 115.25C62.2188 116.592 62.5188 117.646 63.1188 118.412C63.7271 119.171 64.6021 119.55 65.7438 119.55ZM75.2354 122V104H82.6729C83.2229 104 83.702 104.033 84.1104 104.1C85.627 104.333 86.7687 104.967 87.5354 106C88.3104 107.025 88.6979 108.312 88.6979 109.862C88.6979 110.871 88.527 111.779 88.1854 112.587C87.852 113.396 87.3395 114.062 86.6479 114.587C85.9645 115.112 85.1187 115.454 84.1104 115.612C83.702 115.679 83.2229 115.712 82.6729 115.712H78.2479V122H75.2354ZM82.5479 112.9C83.0145 112.9 83.3937 112.858 83.6854 112.775C84.377 112.6 84.877 112.237 85.1854 111.687C85.502 111.137 85.6604 110.529 85.6604 109.862C85.6604 109.196 85.502 108.587 85.1854 108.037C84.877 107.479 84.377 107.112 83.6854 106.937C83.3854 106.862 83.0062 106.825 82.5479 106.825H78.2479V112.9H82.5479ZM93.4574 116.087C93.5741 117.204 93.9283 118.062 94.5199 118.662C95.1199 119.254 95.9283 119.55 96.9449 119.55C97.6783 119.55 98.3158 119.387 98.8574 119.062C99.3991 118.729 99.8158 118.25 100.107 117.625L103.082 118.525C102.741 119.325 102.266 120.017 101.657 120.6C101.057 121.175 100.366 121.617 99.5824 121.925C98.8074 122.225 97.9866 122.375 97.1199 122.375C95.7699 122.375 94.5741 122.079 93.5324 121.487C92.4908 120.896 91.6783 120.071 91.0949 119.012C90.5199 117.954 90.2324 116.75 90.2324 115.4C90.2324 113.942 90.5116 112.667 91.0699 111.575C91.6366 110.475 92.4283 109.625 93.4449 109.025C94.4616 108.425 95.6283 108.125 96.9449 108.125C98.2449 108.125 99.3699 108.412 100.32 108.987C101.27 109.562 101.999 110.383 102.507 111.45C103.016 112.508 103.27 113.754 103.27 115.187C103.27 115.471 103.257 115.771 103.232 116.087H93.4574ZM97.0699 110.762C95.0699 110.762 93.8908 111.779 93.5324 113.812H100.182C100.049 112.762 99.7283 111.992 99.2199 111.5C98.7199 111.008 98.0033 110.762 97.0699 110.762ZM109.971 110.862V116.312V117.025C109.971 117.458 109.988 117.808 110.021 118.075C110.055 118.342 110.13 118.562 110.246 118.737C110.438 119.054 110.705 119.279 111.046 119.412C111.396 119.546 111.826 119.612 112.334 119.612C112.801 119.612 113.334 119.567 113.934 119.475V122C113.117 122.158 112.355 122.238 111.646 122.238C110.68 122.238 109.834 122.088 109.109 121.787C108.384 121.479 107.842 120.996 107.484 120.337C107.267 119.946 107.126 119.542 107.059 119.125C106.992 118.708 106.959 118.212 106.959 117.637L106.971 116.487V110.862H104.521V108.5H106.971V104.75H109.971V108.5H113.934V110.862H109.971Z" fill="#0B0514"/>
<path d="M28.352 145.742C28.814 144.93 29.822 144.202 31.222 144.202C33.28 144.202 34.862 145.742 34.862 148.136C34.862 150.516 33.28 152.126 31.222 152.126C29.822 152.126 28.828 151.37 28.352 150.586V155.64H27.078V144.328H28.352V145.742ZM33.56 148.136C33.56 146.33 32.37 145.308 30.956 145.308C29.57 145.308 28.352 146.372 28.352 148.15C28.352 149.956 29.57 151.006 30.956 151.006C32.37 151.006 33.56 149.942 33.56 148.136ZM39.8009 145.28C38.5549 145.28 37.5189 146.106 37.3789 147.604H42.2229C42.2369 146.106 41.1169 145.28 39.8009 145.28ZM43.3849 149.634C42.9929 151.034 41.7609 152.126 39.8569 152.126C37.6729 152.126 36.0629 150.586 36.0629 148.15C36.0629 145.728 37.6169 144.202 39.8569 144.202C42.0829 144.202 43.5389 145.77 43.5389 147.87C43.5389 148.15 43.5249 148.374 43.4969 148.64H37.3649C37.4629 150.194 38.5549 151.048 39.8569 151.048C41.0049 151.048 41.7329 150.46 42.0129 149.634H43.3849ZM45.5006 149.9V145.378H44.5066V144.328H45.5006V142.396H46.7746V144.328H48.7766V145.378H46.7746V149.9C46.7746 150.656 47.0546 150.922 47.8386 150.922H48.7766V152H47.6286C46.2706 152 45.5006 151.44 45.5006 149.9ZM51.5662 151.216C51.5662 151.706 51.1882 152.084 50.7262 152.084C50.2362 152.084 49.8582 151.706 49.8582 151.216C49.8582 150.726 50.2362 150.348 50.7262 150.348C51.1882 150.348 51.5662 150.726 51.5662 151.216ZM57.9496 144.328V145.364L54.2116 150.95H57.9776V152H52.7556V150.95L56.4796 145.364H52.7836V144.328H57.9496ZM66.9107 148.15C66.9107 150.586 65.1607 152.126 62.9767 152.126C60.8067 152.126 59.1547 150.586 59.1547 148.15C59.1547 145.728 60.8627 144.202 63.0327 144.202C65.2167 144.202 66.9107 145.728 66.9107 148.15ZM60.4567 148.15C60.4567 150.096 61.6467 151.006 62.9767 151.006C64.3067 151.006 65.6087 150.096 65.6087 148.15C65.6087 146.218 64.3347 145.308 63.0187 145.308C61.6747 145.308 60.4567 146.218 60.4567 148.15ZM75.8658 148.15C75.8658 150.586 74.1158 152.126 71.9318 152.126C69.7618 152.126 68.1098 150.586 68.1098 148.15C68.1098 145.728 69.8178 144.202 71.9878 144.202C74.1718 144.202 75.8658 145.728 75.8658 148.15ZM69.4118 148.15C69.4118 150.096 70.6018 151.006 71.9318 151.006C73.2618 151.006 74.5638 150.096 74.5638 148.15C74.5638 146.218 73.2898 145.308 71.9738 145.308C70.6298 145.308 69.4118 146.218 69.4118 148.15ZM77.0649 148.15C77.0649 145.742 78.6189 144.202 80.8029 144.202C82.7069 144.202 83.9529 145.182 84.3449 146.792H82.9729C82.7069 145.868 81.9369 145.28 80.8029 145.28C79.4029 145.28 78.3669 146.274 78.3669 148.15C78.3669 150.054 79.4029 151.048 80.8029 151.048C81.9369 151.048 82.6929 150.502 82.9729 149.536H84.3449C83.9529 151.062 82.7069 152.126 80.8029 152.126C78.6189 152.126 77.0649 150.586 77.0649 148.15ZM93.3248 148.15C93.3248 150.586 91.5748 152.126 89.3908 152.126C87.2208 152.126 85.5688 150.586 85.5688 148.15C85.5688 145.728 87.2768 144.202 89.4468 144.202C91.6308 144.202 93.3248 145.728 93.3248 148.15ZM86.8708 148.15C86.8708 150.096 88.0608 151.006 89.3908 151.006C90.7208 151.006 92.0228 150.096 92.0228 148.15C92.0228 146.218 90.7488 145.308 89.4328 145.308C88.0888 145.308 86.8708 146.218 86.8708 148.15ZM94.9999 152V144.328H96.2739V152H94.9999ZM95.6579 143.082C95.1679 143.082 94.7899 142.704 94.7899 142.214C94.7899 141.724 95.1679 141.346 95.6579 141.346C96.1199 141.346 96.4979 141.724 96.4979 142.214C96.4979 142.704 96.1199 143.082 95.6579 143.082ZM104.059 152V147.66C104.059 146.092 103.205 145.294 101.917 145.294C100.615 145.294 99.7192 146.106 99.7192 147.758V152H98.4452V144.328H99.7192V145.42C100.223 144.622 101.147 144.188 102.183 144.188C103.961 144.188 105.319 145.28 105.319 147.478V152H104.059ZM108.646 151.216C108.646 151.706 108.268 152.084 107.806 152.084C107.316 152.084 106.938 151.706 106.938 151.216C106.938 150.726 107.316 150.348 107.806 150.348C108.268 150.348 108.646 150.726 108.646 151.216ZM109.864 148.15C109.864 145.742 111.418 144.202 113.602 144.202C115.506 144.202 116.752 145.182 117.144 146.792H115.772C115.506 145.868 114.736 145.28 113.602 145.28C112.202 145.28 111.166 146.274 111.166 148.15C111.166 150.054 112.202 151.048 113.602 151.048C114.736 151.048 115.492 150.502 115.772 149.536H117.144C116.752 151.062 115.506 152.126 113.602 152.126C111.418 152.126 109.864 150.586 109.864 148.15ZM118.368 148.136C118.368 145.742 119.95 144.202 122.008 144.202C123.436 144.202 124.416 144.93 124.864 145.728V144.328H126.152V152H124.864V150.572C124.402 151.398 123.408 152.126 121.994 152.126C119.95 152.126 118.368 150.516 118.368 148.136ZM124.864 148.15C124.864 146.372 123.66 145.308 122.26 145.308C120.86 145.308 119.67 146.33 119.67 148.136C119.67 149.942 120.86 151.006 122.26 151.006C123.66 151.006 124.864 149.956 124.864 148.15ZM133.821 149.914C133.821 151.174 132.715 152.126 131.021 152.126C129.229 152.126 127.969 151.146 127.885 149.746H129.201C129.271 150.488 129.929 151.048 131.007 151.048C132.015 151.048 132.575 150.544 132.575 149.914C132.575 148.206 128.039 149.2 128.039 146.344C128.039 145.168 129.145 144.202 130.853 144.202C132.547 144.202 133.667 145.112 133.751 146.61H132.477C132.421 145.84 131.833 145.28 130.811 145.28C129.873 145.28 129.313 145.728 129.313 146.344C129.313 148.164 133.765 147.17 133.821 149.914ZM135.619 152V141.64H136.893V145.434C137.397 144.622 138.349 144.188 139.427 144.188C141.135 144.188 142.493 145.28 142.493 147.478V152H141.233V147.66C141.233 146.092 140.379 145.294 139.091 145.294C137.789 145.294 136.893 146.106 136.893 147.758V152H135.619Z" fill="#0B0514"/>
</g>
<defs>
<filter id="filter0_d_1491_5571" x="0" y="0" width="183" height="183" filterUnits="userSpaceOnUse" color-interpolation-filters="sRGB">
<feFlood flood-opacity="0" result="BackgroundImageFix"/>
<feColorMatrix in="SourceAlpha" type="matrix" values="0 0 0 0 0 0 0 0 0 0 0 0 0 0 0 0 0 0 127 0" result="hardAlpha"/>
<feOffset dy="2"/>
<feGaussianBlur stdDeviation="5"/>
<feComposite in2="hardAlpha" operator="out"/>
<feColorMatrix type="matrix" values="0 0 0 0 0 0 0 0 0 0 0 0 0 0 0 0 0 0 0.1 0"/>
<feBlend mode="normal" in2="BackgroundImageFix" result="effect1_dropShadow_1491_5571"/>
<feBlend mode="normal" in="SourceGraphic" in2="effect1_dropShadow_1491_5571" result="shape"/>
</filter>
<linearGradient id="paint0_linear_1491_5571" x1="10" y1="45.2571" x2="181.15" y2="165.761" gradientUnits="userSpaceOnUse">
<stop stop-color="#02B7A3"/>
<stop offset="1" stop-color="#28B9A9"/>
</linearGradient>
<linearGradient id="paint1_linear_1491_5571" x1="38.8487" y1="63.9081" x2="73.1955" y2="44.078" gradientUnits="userSpaceOnUse">
<stop stop-color="#00273C" stop-opacity="0.7"/>
<stop offset="0.604" stop-color="#165366" stop-opacity="0"/>
</linearGradient>
<linearGradient id="paint2_linear_1491_5571" x1="40.2628" y1="66.3564" x2="74.6096" y2="46.5263" gradientUnits="userSpaceOnUse">
<stop stop-color="#00897C" stop-opacity="0.5"/>
<stop offset="0.4501" stop-color="#00897C" stop-opacity="0"/>
</linearGradient>
<linearGradient id="paint3_linear_1491_5571" x1="74.6096" y1="46.5263" x2="40.2628" y2="66.3564" gradientUnits="userSpaceOnUse">
<stop stop-color="#7FE7DE" stop-opacity="0.7"/>
<stop offset="0.5043" stop-color="#7FD0B3" stop-opacity="0"/>
</linearGradient>
</defs>
</svg>
