<svg width="173" height="183" viewBox="0 0 173 183" fill="none" xmlns="http://www.w3.org/2000/svg">
<g filter="url(#filter0_d_1491_5570)">
<g clip-path="url(#clip0_1491_5570)">
<rect y="8" width="163" height="163" rx="8" fill="url(#paint0_linear_1491_5570)"/>
<rect x="16" y="24" width="60" height="60" rx="8" fill="#040405"/>
<path d="M28 54C28 49.0255 28 46.5383 28.6895 44.5358C29.9579 40.8521 32.8521 37.9579 36.5358 36.6895C38.5383 36 41.0255 36 46 36C50.9745 36 53.4617 36 55.4642 36.6895C59.1479 37.9579 62.0421 40.8521 63.3105 44.5358C64 46.5383 64 49.0255 64 54C64 58.9745 64 61.4617 63.3105 63.4642C62.0421 67.1479 59.1479 70.0421 55.4642 71.3105C53.4617 72 50.9745 72 46 72C41.0255 72 38.5383 72 36.5358 71.3105C32.8521 70.0421 29.9579 67.1479 28.6895 63.4642C28 61.4617 28 58.9745 28 54Z" fill="url(#paint1_linear_1491_5570)"/>
<g filter="url(#filter1_f_1491_5570)">
<path d="M46.3516 65.6719C51.128 65.6719 55 64.5071 55 63.0703C55 61.6335 51.128 60.4688 46.3516 60.4688C41.5752 60.4688 37.7031 61.6335 37.7031 63.0703C37.7031 64.5071 41.5752 65.6719 46.3516 65.6719Z" fill="#0525BF" fill-opacity="0.82"/>
</g>
<g filter="url(#filter2_f_1491_5570)">
<path d="M46.3516 68.3438C51.128 68.3438 55 66.8957 55 65.1094C55 63.3231 51.128 61.875 46.3516 61.875C41.5752 61.875 37.7031 63.3231 37.7031 65.1094C37.7031 66.8957 41.5752 68.3438 46.3516 68.3438Z" fill="#0525BF" fill-opacity="0.2"/>
</g>
<g filter="url(#filter3_f_1491_5570)">
<path d="M44.8047 69.6094C51.2897 69.6094 56.5469 67.3113 56.5469 64.4766C56.5469 61.6418 51.2897 59.3438 44.8047 59.3438C38.3197 59.3438 33.0625 61.6418 33.0625 64.4766C33.0625 67.3113 38.3197 69.6094 44.8047 69.6094Z" fill="#2749EB" fill-opacity="0.2"/>
</g>
<path d="M40.6711 44.8016C43.0083 40.7536 48.8509 40.7536 51.1881 44.8016L58.0766 55.2337C60.4138 59.2816 57.4925 64.3416 52.8183 64.3416H39.041C34.3668 64.3416 31.4454 59.2816 33.7825 55.2337L40.6711 44.8016Z" fill="url(#paint2_linear_1491_5570)"/>
<g style="mix-blend-mode:overlay" opacity="0.16">
<path d="M51.0715 44.8791L57.9577 55.3077C60.2368 59.2612 57.3836 64.2009 52.819 64.2009H39.0418C34.4772 64.2009 31.6238 59.2612 33.903 55.3077L40.7892 44.8791L40.7916 44.8756L40.7937 44.8719C43.0767 40.9177 48.7841 40.9177 51.0671 44.8719L51.0692 44.8756L51.0715 44.8791Z" stroke="white" stroke-width="2"/>
</g>
<g style="mix-blend-mode:overlay" opacity="0.6" filter="url(#filter4_f_1491_5570)">
<path d="M51.1257 44.8427L58.0131 55.2728C60.3192 59.2705 57.4341 64.2664 52.8184 64.2664H39.0411C34.4254 64.2664 31.5402 59.2705 33.8464 55.2728L40.7338 44.8427L40.735 44.8408L40.7362 44.8388C43.0444 40.8408 48.8151 40.8408 51.1233 44.8388L51.1244 44.8408L51.1257 44.8427Z" stroke="white" stroke-width="1.06623"/>
</g>
<path d="M41.526 60.7806C43.5381 60.7806 45.1692 58.7961 45.1692 56.3481C45.1692 53.9 43.5381 51.9155 41.526 51.9155C39.5139 51.9155 37.8828 53.9 37.8828 56.3481C37.8828 58.7961 39.5139 60.7806 41.526 60.7806Z" fill="#1F1C3E"/>
<path d="M41.1287 56.7374C42.0341 56.7374 42.7681 56.0034 42.7681 55.0979C42.7681 54.1925 42.0341 53.4585 41.1287 53.4585C40.2233 53.4585 39.4893 54.1925 39.4893 55.0979C39.4893 56.0034 40.2233 56.7374 41.1287 56.7374Z" fill="white"/>
<path d="M50.0621 60.7806C52.0742 60.7806 53.7053 58.7961 53.7053 56.3481C53.7053 53.9 52.0742 51.9155 50.0621 51.9155C48.0501 51.9155 46.4189 53.9 46.4189 56.3481C46.4189 58.7961 48.0501 60.7806 50.0621 60.7806Z" fill="#1F1C3E"/>
<path d="M49.5164 56.7374C50.4218 56.7374 51.1558 56.0034 51.1558 55.0979C51.1558 54.1925 50.4218 53.4585 49.5164 53.4585C48.611 53.4585 47.877 54.1925 47.877 55.0979C47.877 56.0034 48.611 56.7374 49.5164 56.7374Z" fill="white"/>
<path d="M20.9027 123H16.6186L23.1463 104.091H28.2983L34.8168 123H30.5327L25.7962 108.412H25.6484L20.9027 123ZM20.6349 115.567H30.7543V118.688H20.6349V115.567ZM37.095 123V108.818H41.0282V123H37.095ZM39.0708 106.99C38.4861 106.99 37.9844 106.796 37.5659 106.408C37.1535 106.014 36.9473 105.544 36.9473 104.996C36.9473 104.454 37.1535 103.989 37.5659 103.602C37.9844 103.208 38.4861 103.011 39.0708 103.011C39.6556 103.011 40.1542 103.208 40.5666 103.602C40.9851 103.989 41.1944 104.454 41.1944 104.996C41.1944 105.544 40.9851 106.014 40.5666 106.408C40.1542 106.796 39.6556 106.99 39.0708 106.99ZM44.179 123V108.818H47.9922V111.293H48.1399C48.3984 110.412 48.8324 109.748 49.4418 109.298C50.0511 108.843 50.7528 108.615 51.5469 108.615C51.7438 108.615 51.9562 108.627 52.1839 108.652C52.4117 108.677 52.6117 108.71 52.7841 108.754V112.244C52.5994 112.188 52.344 112.139 52.0178 112.096C51.6915 112.053 51.393 112.031 51.1222 112.031C50.5436 112.031 50.0265 112.157 49.571 112.41C49.1217 112.656 48.7647 113.001 48.5 113.444C48.2415 113.887 48.1122 114.398 48.1122 114.977V123H44.179ZM70.7076 104.091V123H67.2544L59.0279 111.099H58.8894V123H54.8915V104.091H58.4L66.562 115.983H66.7282V104.091H70.7076ZM74.0107 123V104.091H86.5305V107.387H78.0085V111.893H85.6996V115.189H78.0085V123H74.0107ZM88.4995 107.387V104.091H104.029V107.387H98.2402V123H94.2885V107.387H88.4995ZM116.383 112.862L112.782 113.084C112.721 112.776 112.588 112.499 112.385 112.253C112.182 112 111.914 111.8 111.582 111.653C111.256 111.499 110.865 111.422 110.409 111.422C109.8 111.422 109.286 111.551 108.867 111.81C108.449 112.062 108.24 112.401 108.24 112.825C108.24 113.164 108.375 113.45 108.646 113.684C108.917 113.918 109.381 114.106 110.04 114.247L112.607 114.764C113.985 115.047 115.013 115.503 115.691 116.131C116.368 116.759 116.706 117.583 116.706 118.605C116.706 119.535 116.432 120.35 115.884 121.052C115.343 121.754 114.598 122.301 113.65 122.695C112.708 123.083 111.622 123.277 110.391 123.277C108.513 123.277 107.018 122.886 105.904 122.104C104.796 121.317 104.146 120.246 103.955 118.891L107.824 118.688C107.941 119.261 108.224 119.698 108.673 119.999C109.123 120.295 109.698 120.442 110.4 120.442C111.089 120.442 111.643 120.31 112.062 120.045C112.487 119.775 112.702 119.427 112.708 119.002C112.702 118.645 112.551 118.353 112.256 118.125C111.96 117.891 111.505 117.713 110.889 117.589L108.433 117.1C107.048 116.823 106.017 116.343 105.34 115.66C104.669 114.977 104.334 114.106 104.334 113.047C104.334 112.136 104.58 111.351 105.073 110.692C105.571 110.034 106.27 109.526 107.169 109.169C108.073 108.812 109.132 108.634 110.345 108.634C112.136 108.634 113.545 109.012 114.573 109.769C115.607 110.526 116.211 111.557 116.383 112.862Z" fill="#0B0514"/>
<path d="M19.321 153.179C18.8371 153.179 18.398 153.088 18.0036 152.906C17.6091 152.72 17.2959 152.453 17.0639 152.105C16.8319 151.754 16.7159 151.33 16.7159 150.832C16.7159 150.395 16.8021 150.04 16.9744 149.768C17.1468 149.493 17.3771 149.278 17.6655 149.122C17.9538 148.966 18.272 148.85 18.62 148.774C18.9714 148.695 19.3243 148.632 19.679 148.585C20.143 148.526 20.5192 148.481 20.8075 148.451C21.0992 148.418 21.3113 148.363 21.4439 148.287C21.5798 148.211 21.6477 148.078 21.6477 147.889V147.849C21.6477 147.359 21.5135 146.978 21.245 146.706C20.9799 146.434 20.5772 146.298 20.0369 146.298C19.4768 146.298 19.0376 146.421 18.7195 146.666C18.4013 146.911 18.1776 147.173 18.0483 147.452L16.9347 147.054C17.1335 146.59 17.3987 146.229 17.7301 145.97C18.0649 145.708 18.4295 145.526 18.8239 145.423C19.2216 145.317 19.6127 145.264 19.9972 145.264C20.2424 145.264 20.5241 145.294 20.8423 145.354C21.1638 145.41 21.4737 145.528 21.772 145.707C22.0736 145.886 22.3239 146.156 22.5227 146.517C22.7216 146.878 22.821 147.362 22.821 147.969V153H21.6477V151.966H21.5881C21.5085 152.132 21.3759 152.309 21.1903 152.498C21.0047 152.687 20.7578 152.848 20.4496 152.98C20.1413 153.113 19.7652 153.179 19.321 153.179ZM19.5 152.125C19.964 152.125 20.3551 152.034 20.6733 151.852C20.9948 151.669 21.2367 151.434 21.3991 151.146C21.5649 150.857 21.6477 150.554 21.6477 150.236V149.162C21.598 149.222 21.4886 149.276 21.3196 149.326C21.1539 149.372 20.9616 149.414 20.7429 149.45C20.5275 149.483 20.317 149.513 20.1115 149.54C19.9093 149.563 19.7453 149.583 19.6193 149.599C19.3144 149.639 19.0294 149.704 18.7642 149.793C18.5024 149.879 18.2902 150.01 18.1278 150.186C17.9688 150.358 17.8892 150.594 17.8892 150.892C17.8892 151.3 18.04 151.608 18.3416 151.817C18.6465 152.022 19.0327 152.125 19.5 152.125ZM24.9625 153V145.364H26.1358V153H24.9625ZM25.5591 144.091C25.3304 144.091 25.1332 144.013 24.9675 143.857C24.8051 143.701 24.7239 143.514 24.7239 143.295C24.7239 143.077 24.8051 142.889 24.9675 142.734C25.1332 142.578 25.3304 142.5 25.5591 142.5C25.7878 142.5 25.9834 142.578 26.1458 142.734C26.3115 142.889 26.3944 143.077 26.3944 143.295C26.3944 143.514 26.3115 143.701 26.1458 143.857C25.9834 144.013 25.7878 144.091 25.5591 144.091ZM28.2848 153V145.364H29.4183V146.517H29.4979C29.6371 146.139 29.889 145.833 30.2536 145.597C30.6181 145.362 31.0291 145.244 31.4865 145.244C31.5727 145.244 31.6804 145.246 31.8097 145.249C31.9389 145.253 32.0367 145.258 32.103 145.264V146.457C32.0632 146.447 31.9721 146.433 31.8295 146.413C31.6903 146.389 31.5429 146.378 31.3871 146.378C31.0159 146.378 30.6844 146.456 30.3928 146.612C30.1044 146.764 29.8757 146.976 29.7067 147.248C29.541 147.516 29.4581 147.823 29.4581 148.168V153H28.2848ZM34.6671 148.406V153H33.4938V145.364H34.6273V146.557H34.7267C34.9057 146.169 35.1775 145.857 35.5421 145.622C35.9067 145.384 36.3773 145.264 36.954 145.264C37.4711 145.264 37.9235 145.37 38.3113 145.582C38.699 145.791 39.0007 146.109 39.2161 146.537C39.4315 146.961 39.5392 147.498 39.5392 148.148V153H38.3659V148.227C38.3659 147.627 38.2102 147.16 37.8986 146.825C37.5871 146.487 37.1595 146.318 36.6159 146.318C36.2414 146.318 35.9067 146.399 35.6117 146.562C35.32 146.724 35.0897 146.961 34.9206 147.273C34.7516 147.584 34.6671 147.962 34.6671 148.406ZM45.0838 145.364V146.358H40.9673V145.364H45.0838ZM42.2003 153V144.31C42.2003 143.872 42.303 143.508 42.5085 143.216C42.714 142.924 42.9808 142.705 43.3089 142.56C43.6371 142.414 43.9834 142.341 44.348 142.341C44.6364 142.341 44.8717 142.364 45.054 142.411C45.2363 142.457 45.3722 142.5 45.4616 142.54L45.1236 143.554C45.0639 143.534 44.9811 143.509 44.875 143.479C44.7723 143.45 44.6364 143.435 44.4673 143.435C44.0795 143.435 43.7995 143.532 43.6271 143.728C43.4581 143.924 43.3736 144.21 43.3736 144.588V153H42.2003ZM50.0492 145.364V146.358H46.0918V145.364H50.0492ZM47.2452 143.534H48.4185V150.812C48.4185 151.144 48.4666 151.393 48.5627 151.558C48.6621 151.721 48.7881 151.83 48.9405 151.886C49.0963 151.939 49.2604 151.966 49.4327 151.966C49.562 151.966 49.668 151.959 49.7509 151.946C49.8337 151.929 49.9 151.916 49.9498 151.906L50.1884 152.96C50.1088 152.99 49.9978 153.02 49.8553 153.05C49.7128 153.083 49.5321 153.099 49.3134 153.099C48.9819 153.099 48.6571 153.028 48.339 152.886C48.0241 152.743 47.7623 152.526 47.5534 152.234C47.348 151.943 47.2452 151.575 47.2452 151.131V143.534ZM57.0865 147.074L56.0325 147.372C55.9662 147.196 55.8684 147.026 55.7392 146.86C55.6132 146.691 55.4409 146.552 55.2221 146.442C55.0034 146.333 54.7233 146.278 54.3819 146.278C53.9146 146.278 53.5252 146.386 53.2136 146.602C52.9054 146.814 52.7512 147.084 52.7512 147.412C52.7512 147.704 52.8573 147.934 53.0694 148.103C53.2815 148.272 53.613 148.413 54.0637 148.526L55.1973 148.804C55.88 148.97 56.3888 149.223 56.7235 149.565C57.0583 149.903 57.2257 150.339 57.2257 150.872C57.2257 151.31 57.0997 151.701 56.8478 152.045C56.5993 152.39 56.2512 152.662 55.8038 152.861C55.3564 153.06 54.836 153.159 54.2427 153.159C53.4638 153.159 52.8192 152.99 52.3088 152.652C51.7984 152.314 51.4752 151.82 51.3393 151.17L52.4529 150.892C52.559 151.303 52.7595 151.611 53.0545 151.817C53.3528 152.022 53.7422 152.125 54.2228 152.125C54.7697 152.125 55.2039 152.009 55.5254 151.777C55.8502 151.542 56.0126 151.26 56.0126 150.932C56.0126 150.667 55.9198 150.445 55.7342 150.266C55.5486 150.083 55.2636 149.947 54.8791 149.858L53.6064 149.56C52.907 149.394 52.3933 149.137 52.0652 148.789C51.7404 148.438 51.5779 147.999 51.5779 147.472C51.5779 147.041 51.6989 146.66 51.9409 146.328C52.1861 145.997 52.5192 145.737 52.9402 145.548C53.3644 145.359 53.845 145.264 54.3819 145.264C55.1376 145.264 55.7309 145.43 56.1618 145.761C56.5959 146.093 56.9042 146.53 57.0865 147.074ZM59.8469 153.08C59.6017 153.08 59.3912 152.992 59.2156 152.816C59.0399 152.64 58.9521 152.43 58.9521 152.185C58.9521 151.939 59.0399 151.729 59.2156 151.553C59.3912 151.378 59.6017 151.29 59.8469 151.29C60.0922 151.29 60.3027 151.378 60.4783 151.553C60.654 151.729 60.7418 151.939 60.7418 152.185C60.7418 152.347 60.7004 152.496 60.6175 152.632C60.538 152.768 60.4303 152.877 60.2944 152.96C60.1618 153.04 60.0127 153.08 59.8469 153.08ZM65.9496 153.159C65.2337 153.159 64.6172 152.99 64.1001 152.652C63.5831 152.314 63.1854 151.848 62.907 151.255C62.6286 150.662 62.4893 149.984 62.4893 149.222C62.4893 148.446 62.6319 147.762 62.9169 147.168C63.2053 146.572 63.6063 146.106 64.12 145.771C64.6371 145.433 65.2403 145.264 65.9297 145.264C66.4666 145.264 66.9505 145.364 67.3814 145.562C67.8123 145.761 68.1652 146.04 68.4403 146.398C68.7154 146.756 68.8861 147.173 68.9524 147.651H67.7791C67.6896 147.303 67.4908 146.994 67.1825 146.726C66.8776 146.454 66.4666 146.318 65.9496 146.318C65.4922 146.318 65.0911 146.437 64.7464 146.676C64.4051 146.911 64.1383 147.245 63.946 147.675C63.7571 148.103 63.6626 148.605 63.6626 149.182C63.6626 149.772 63.7554 150.286 63.9411 150.723C64.13 151.161 64.3951 151.5 64.7365 151.742C65.0812 151.984 65.4856 152.105 65.9496 152.105C66.2545 152.105 66.5312 152.052 66.7798 151.946C67.0284 151.84 67.2389 151.688 67.4112 151.489C67.5836 151.29 67.7062 151.051 67.7791 150.773H68.9524C68.8861 151.223 68.7221 151.629 68.4602 151.991C68.2017 152.349 67.8587 152.634 67.4311 152.846C67.0069 153.055 66.513 153.159 65.9496 153.159ZM73.7699 153.159C73.0805 153.159 72.4756 152.995 71.9553 152.667C71.4382 152.339 71.0339 151.88 70.7422 151.29C70.4538 150.7 70.3097 150.01 70.3097 149.222C70.3097 148.426 70.4538 147.732 70.7422 147.138C71.0339 146.545 71.4382 146.085 71.9553 145.756C72.4756 145.428 73.0805 145.264 73.7699 145.264C74.4593 145.264 75.0625 145.428 75.5795 145.756C76.0999 146.085 76.5043 146.545 76.7926 147.138C77.0843 147.732 77.2301 148.426 77.2301 149.222C77.2301 150.01 77.0843 150.7 76.7926 151.29C76.5043 151.88 76.0999 152.339 75.5795 152.667C75.0625 152.995 74.4593 153.159 73.7699 153.159ZM73.7699 152.105C74.2936 152.105 74.7244 151.971 75.0625 151.702C75.4006 151.434 75.6508 151.081 75.8132 150.643C75.9756 150.206 76.0568 149.732 76.0568 149.222C76.0568 148.711 75.9756 148.236 75.8132 147.795C75.6508 147.354 75.4006 146.998 75.0625 146.726C74.7244 146.454 74.2936 146.318 73.7699 146.318C73.2462 146.318 72.8153 146.454 72.4773 146.726C72.1392 146.998 71.889 147.354 71.7266 147.795C71.5642 148.236 71.483 148.711 71.483 149.222C71.483 149.732 71.5642 150.206 71.7266 150.643C71.889 151.081 72.1392 151.434 72.4773 151.702C72.8153 151.971 73.2462 152.105 73.7699 152.105ZM79.0211 153V145.364H80.1547V146.557H80.2541C80.4132 146.149 80.67 145.833 81.0247 145.607C81.3793 145.379 81.8052 145.264 82.3024 145.264C82.8062 145.264 83.2254 145.379 83.5602 145.607C83.8983 145.833 84.1618 146.149 84.3507 146.557H84.4302C84.6258 146.162 84.9191 145.849 85.3102 145.617C85.7013 145.382 86.1703 145.264 86.7172 145.264C87.3999 145.264 87.9584 145.478 88.3926 145.906C88.8268 146.33 89.0439 146.991 89.0439 147.889V153H87.8706V147.889C87.8706 147.326 87.7164 146.923 87.4082 146.681C87.1 146.439 86.737 146.318 86.3194 146.318C85.7825 146.318 85.3665 146.481 85.0716 146.805C84.7766 147.127 84.6291 147.535 84.6291 148.028V153H83.4359V147.77C83.4359 147.336 83.295 146.986 83.0133 146.721C82.7316 146.452 82.3687 146.318 81.9245 146.318C81.6196 146.318 81.3346 146.399 81.0694 146.562C80.8076 146.724 80.5955 146.95 80.4331 147.238C80.274 147.523 80.1944 147.853 80.1944 148.227V153H79.0211Z" fill="#0B0514"/>
</g>
</g>
<defs>
<filter id="filter0_d_1491_5570" x="-10" y="0" width="183" height="183" filterUnits="userSpaceOnUse" color-interpolation-filters="sRGB">
<feFlood flood-opacity="0" result="BackgroundImageFix"/>
<feColorMatrix in="SourceAlpha" type="matrix" values="0 0 0 0 0 0 0 0 0 0 0 0 0 0 0 0 0 0 127 0" result="hardAlpha"/>
<feOffset dy="2"/>
<feGaussianBlur stdDeviation="5"/>
<feComposite in2="hardAlpha" operator="out"/>
<feColorMatrix type="matrix" values="0 0 0 0 0 0 0 0 0 0 0 0 0 0 0 0 0 0 0.1 0"/>
<feBlend mode="normal" in2="BackgroundImageFix" result="effect1_dropShadow_1491_5570"/>
<feBlend mode="normal" in="SourceGraphic" in2="effect1_dropShadow_1491_5570" result="shape"/>
</filter>
<filter id="filter1_f_1491_5570" x="3.70312" y="26.4688" width="85.2969" height="73.2031" filterUnits="userSpaceOnUse" color-interpolation-filters="sRGB">
<feFlood flood-opacity="0" result="BackgroundImageFix"/>
<feBlend mode="normal" in="SourceGraphic" in2="BackgroundImageFix" result="shape"/>
<feGaussianBlur stdDeviation="17" result="effect1_foregroundBlur_1491_5570"/>
</filter>
<filter id="filter2_f_1491_5570" x="3.70312" y="27.875" width="85.2969" height="74.4688" filterUnits="userSpaceOnUse" color-interpolation-filters="sRGB">
<feFlood flood-opacity="0" result="BackgroundImageFix"/>
<feBlend mode="normal" in="SourceGraphic" in2="BackgroundImageFix" result="shape"/>
<feGaussianBlur stdDeviation="17" result="effect1_foregroundBlur_1491_5570"/>
</filter>
<filter id="filter3_f_1491_5570" x="-0.9375" y="25.3438" width="91.4844" height="78.2656" filterUnits="userSpaceOnUse" color-interpolation-filters="sRGB">
<feFlood flood-opacity="0" result="BackgroundImageFix"/>
<feBlend mode="normal" in="SourceGraphic" in2="BackgroundImageFix" result="shape"/>
<feGaussianBlur stdDeviation="17" result="effect1_foregroundBlur_1491_5570"/>
</filter>
<filter id="filter4_f_1491_5570" x="26.1036" y="34.9098" width="39.6521" height="36.2869" filterUnits="userSpaceOnUse" color-interpolation-filters="sRGB">
<feFlood flood-opacity="0" result="BackgroundImageFix"/>
<feBlend mode="normal" in="SourceGraphic" in2="BackgroundImageFix" result="shape"/>
<feGaussianBlur stdDeviation="3.19868" result="effect1_foregroundBlur_1491_5570"/>
</filter>
<linearGradient id="paint0_linear_1491_5570" x1="1.86777e-06" y1="45.2571" x2="171.15" y2="165.761" gradientUnits="userSpaceOnUse">
<stop stop-color="#00E0F9"/>
<stop offset="1" stop-color="#F38FDE"/>
</linearGradient>
<linearGradient id="paint1_linear_1491_5570" x1="29.6875" y1="38.7422" x2="50.7582" y2="73.9586" gradientUnits="userSpaceOnUse">
<stop stop-color="#2CF9F9"/>
<stop offset="0.354167" stop-color="#4A88FF"/>
<stop offset="0.557292" stop-color="#3858FF"/>
<stop offset="0.791667" stop-color="#B14FFF"/>
<stop offset="1" stop-color="#FFBEE5"/>
</linearGradient>
<linearGradient id="paint2_linear_1491_5570" x1="38.1249" y1="43.5937" x2="56.1952" y2="62.8594" gradientUnits="userSpaceOnUse">
<stop stop-color="white"/>
<stop offset="0.679441" stop-color="white" stop-opacity="0.9"/>
<stop offset="1" stop-color="white" stop-opacity="0.61"/>
</linearGradient>
<clipPath id="clip0_1491_5570">
<rect y="8" width="163" height="163" rx="8" fill="white"/>
</clipPath>
</defs>
</svg>
