<svg width="40" height="40" viewBox="0 0 40 40" fill="none" xmlns="http://www.w3.org/2000/svg">
<rect width="40" height="40" rx="4" fill="#7000FF"/>
<path d="M16.2 11.95C16.8467 11.95 17.4233 12.0067 17.93 12.12C18.4433 12.2267 18.9167 12.3733 19.35 12.56L18.69 14.11C18.3367 13.9633 17.9667 13.8567 17.58 13.79C17.2 13.7233 16.8133 13.69 16.42 13.69C15.7267 13.69 15.2133 13.8233 14.88 14.09C14.5467 14.35 14.38 14.7633 14.38 15.33V17.2H17.91L17.67 18.85H14.38V27H12.15V18.85H9.75V17.2H12.15V15.31C12.15 14.6433 12.3167 14.06 12.65 13.56C12.99 13.0533 13.4633 12.66 14.07 12.38C14.6767 12.0933 15.3867 11.95 16.2 11.95ZM20.7522 13.2H23.3222L25.9922 18.17L28.6922 13.2H31.1622L27.3422 19.54L31.5822 27H29.0122L25.9522 21.13L22.8822 27H20.4022L24.5822 19.65L20.7522 13.2Z" fill="white"/>
</svg>
