<svg width="183" height="183" viewBox="0 0 183 183" fill="none" xmlns="http://www.w3.org/2000/svg">
<g filter="url(#filter0_d_1633_7578)">
<rect x="10" y="8" width="163" height="163" rx="8" fill="url(#paint0_linear_1633_7578)"/>
<rect x="26" y="24" width="60" height="60" rx="8" fill="black"/>
<g clip-path="url(#clip0_1633_7578)">
<path d="M56.1677 34.8007C45.4313 34.7111 36.7109 43.4315 36.8005 54.1679C36.8901 64.5939 45.4089 73.1127 55.8317 73.1991C66.5681 73.2919 75.2917 64.5683 75.1989 53.8319C75.1125 43.4091 66.5937 34.8903 56.1677 34.8007Z" fill="#2081E2"/>
<path d="M50.7623 45.0557C51.8907 46.4897 52.5667 48.3029 52.5667 50.2721C52.5667 51.9765 52.0611 53.5637 51.1915 54.8889H45.0791L50.7627 45.0561L50.7623 45.0557Z" fill="white"/>
<path d="M69.4 57.0659C69.4 57.1483 69.356 57.2187 69.2796 57.2511C68.8652 57.4275 67.4988 58.0623 66.9284 58.8527C65.462 60.8951 64.3424 64.1043 61.8384 64.1043H51.3912C47.6912 64.1043 44.5968 61.1683 44.5996 57.2571C44.5996 57.1603 44.682 57.0807 44.7788 57.0807H49.7304C49.9008 57.0807 50.036 57.2187 50.036 57.3863V58.3415C50.036 58.8499 50.4472 59.2615 50.956 59.2615H54.7116V57.0751H52.146C53.6212 55.2059 54.5 52.8463 54.5 50.2779C54.5 47.4127 53.4008 44.7999 51.6024 42.8459C52.6896 42.9723 53.73 43.1899 54.7116 43.4779V42.8695C54.7116 42.2375 55.2228 41.7263 55.8548 41.7263C56.4868 41.7263 56.998 42.2375 56.998 42.8695V44.3359C60.504 45.9727 62.7992 48.6883 62.7992 51.7591C62.7992 53.5607 62.0116 55.2387 60.6512 56.6491C60.3896 56.9195 60.028 57.0723 59.6492 57.0723H56.9984V59.2559H60.3252C61.0424 59.2559 62.3292 57.8955 62.9408 57.0755C62.9408 57.0755 62.9672 57.0343 63.038 57.0139C63.1084 56.9935 69.1476 55.6063 69.1476 55.6063C69.274 55.5711 69.4004 55.6679 69.4004 55.7971V57.0667L69.4 57.0659Z" fill="white"/>
</g>
<path d="M35.062 120.161C33.544 120.161 32.1487 119.808 30.876 119.103C29.6187 118.398 28.6143 117.416 27.863 116.159C27.127 114.886 26.759 113.46 26.759 111.881C26.759 110.302 27.127 108.883 27.863 107.626C28.6143 106.369 29.6187 105.387 30.876 104.682C32.1487 103.977 33.544 103.624 35.062 103.624C36.58 103.624 37.9677 103.977 39.225 104.682C40.4977 105.387 41.4943 106.369 42.215 107.626C42.951 108.883 43.319 110.302 43.319 111.881C43.319 113.46 42.951 114.886 42.215 116.159C41.479 117.416 40.4823 118.398 39.225 119.103C37.9677 119.808 36.58 120.161 35.062 120.161ZM35.062 116.573C36.35 116.573 37.3773 116.144 38.144 115.285C38.926 114.426 39.317 113.292 39.317 111.881C39.317 110.455 38.926 109.32 38.144 108.477C37.3773 107.618 36.35 107.189 35.062 107.189C33.7587 107.189 32.716 107.611 31.934 108.454C31.1673 109.297 30.784 110.44 30.784 111.881C30.784 113.307 31.1673 114.449 31.934 115.308C32.716 116.151 33.7587 116.573 35.062 116.573ZM49.4401 108.983C49.8234 108.385 50.3524 107.902 51.0271 107.534C51.7017 107.166 52.4914 106.982 53.3961 106.982C54.4541 106.982 55.4124 107.25 56.2711 107.787C57.1297 108.324 57.8044 109.09 58.2951 110.087C58.8011 111.084 59.0541 112.241 59.0541 113.56C59.0541 114.879 58.8011 116.044 58.2951 117.056C57.8044 118.053 57.1297 118.827 56.2711 119.379C55.4124 119.916 54.4541 120.184 53.3961 120.184C52.5067 120.184 51.7171 120 51.0271 119.632C50.3524 119.264 49.8234 118.789 49.4401 118.206V126.118H45.5071V107.166H49.4401V108.983ZM55.0521 113.56C55.0521 112.579 54.7761 111.812 54.2241 111.26C53.6874 110.693 53.0204 110.409 52.2231 110.409C51.4411 110.409 50.7741 110.693 50.2221 111.26C49.6854 111.827 49.4171 112.602 49.4171 113.583C49.4171 114.564 49.6854 115.339 50.2221 115.906C50.7741 116.473 51.4411 116.757 52.2231 116.757C53.0051 116.757 53.6721 116.473 54.2241 115.906C54.7761 115.323 55.0521 114.541 55.0521 113.56ZM73.2154 113.376C73.2154 113.744 73.1924 114.127 73.1464 114.526H64.2454C64.3067 115.323 64.5597 115.937 65.0044 116.366C65.4644 116.78 66.0241 116.987 66.6834 116.987C67.6647 116.987 68.3471 116.573 68.7304 115.745H72.9164C72.7017 116.588 72.3107 117.347 71.7434 118.022C71.1914 118.697 70.4937 119.226 69.6504 119.609C68.8071 119.992 67.8641 120.184 66.8214 120.184C65.5641 120.184 64.4447 119.916 63.4634 119.379C62.4821 118.842 61.7154 118.076 61.1634 117.079C60.6114 116.082 60.3354 114.917 60.3354 113.583C60.3354 112.249 60.6037 111.084 61.1404 110.087C61.6924 109.09 62.4591 108.324 63.4404 107.787C64.4217 107.25 65.5487 106.982 66.8214 106.982C68.0634 106.982 69.1674 107.243 70.1334 107.764C71.0994 108.285 71.8507 109.029 72.3874 109.995C72.9394 110.961 73.2154 112.088 73.2154 113.376ZM69.1904 112.341C69.1904 111.666 68.9604 111.13 68.5004 110.731C68.0404 110.332 67.4654 110.133 66.7754 110.133C66.1161 110.133 65.5564 110.325 65.0964 110.708C64.6517 111.091 64.3757 111.636 64.2684 112.341H69.1904ZM83.1103 107.028C84.6129 107.028 85.8089 107.519 86.6983 108.5C87.6029 109.466 88.0553 110.8 88.0553 112.502V120H84.1453V113.031C84.1453 112.172 83.9229 111.505 83.4783 111.03C83.0336 110.555 82.4356 110.317 81.6843 110.317C80.9329 110.317 80.3349 110.555 79.8903 111.03C79.4456 111.505 79.2233 112.172 79.2233 113.031V120H75.2903V107.166H79.2233V108.868C79.6219 108.301 80.1586 107.856 80.8333 107.534C81.5079 107.197 82.2669 107.028 83.1103 107.028ZM96.6303 120.161C95.4496 120.161 94.3916 119.969 93.4563 119.586C92.521 119.203 91.7696 118.635 91.2023 117.884C90.6503 117.133 90.359 116.228 90.3283 115.17H94.5143C94.5756 115.768 94.7826 116.228 95.1353 116.55C95.488 116.857 95.948 117.01 96.5153 117.01C97.098 117.01 97.558 116.88 97.8953 116.619C98.2326 116.343 98.4013 115.967 98.4013 115.492C98.4013 115.093 98.2633 114.764 97.9873 114.503C97.7266 114.242 97.397 114.028 96.9983 113.859C96.615 113.69 96.063 113.499 95.3423 113.284C94.2996 112.962 93.4486 112.64 92.7893 112.318C92.13 111.996 91.5626 111.521 91.0873 110.892C90.612 110.263 90.3743 109.443 90.3743 108.431C90.3743 106.928 90.9186 105.755 92.0073 104.912C93.096 104.053 94.5143 103.624 96.2623 103.624C98.041 103.624 99.4746 104.053 100.563 104.912C101.652 105.755 102.235 106.936 102.311 108.454H98.0563C98.0256 107.933 97.834 107.526 97.4813 107.235C97.1286 106.928 96.6763 106.775 96.1243 106.775C95.649 106.775 95.2656 106.905 94.9743 107.166C94.683 107.411 94.5373 107.772 94.5373 108.247C94.5373 108.768 94.7826 109.175 95.2733 109.466C95.764 109.757 96.5306 110.072 97.5733 110.409C98.616 110.762 99.4593 111.099 100.103 111.421C100.763 111.743 101.33 112.211 101.805 112.824C102.281 113.437 102.518 114.227 102.518 115.193C102.518 116.113 102.281 116.949 101.805 117.7C101.345 118.451 100.671 119.049 99.7813 119.494C98.892 119.939 97.8416 120.161 96.6303 120.161ZM117.037 113.376C117.037 113.744 117.014 114.127 116.968 114.526H108.067C108.128 115.323 108.381 115.937 108.826 116.366C109.286 116.78 109.845 116.987 110.505 116.987C111.486 116.987 112.168 116.573 112.552 115.745H116.738C116.523 116.588 116.132 117.347 115.565 118.022C115.013 118.697 114.315 119.226 113.472 119.609C112.628 119.992 111.685 120.184 110.643 120.184C109.385 120.184 108.266 119.916 107.285 119.379C106.303 118.842 105.537 118.076 104.985 117.079C104.433 116.082 104.157 114.917 104.157 113.583C104.157 112.249 104.425 111.084 104.962 110.087C105.514 109.09 106.28 108.324 107.262 107.787C108.243 107.25 109.37 106.982 110.643 106.982C111.885 106.982 112.989 107.243 113.955 107.764C114.921 108.285 115.672 109.029 116.209 109.995C116.761 110.961 117.037 112.088 117.037 113.376ZM113.012 112.341C113.012 111.666 112.782 111.13 112.322 110.731C111.862 110.332 111.287 110.133 110.597 110.133C109.937 110.133 109.378 110.325 108.918 110.708C108.473 111.091 108.197 111.636 108.09 112.341H113.012ZM118.33 113.56C118.33 112.241 118.575 111.084 119.066 110.087C119.572 109.09 120.254 108.324 121.113 107.787C121.971 107.25 122.93 106.982 123.988 106.982C124.892 106.982 125.682 107.166 126.357 107.534C127.047 107.902 127.576 108.385 127.944 108.983V107.166H131.877V120H127.944V118.183C127.56 118.781 127.024 119.264 126.334 119.632C125.659 120 124.869 120.184 123.965 120.184C122.922 120.184 121.971 119.916 121.113 119.379C120.254 118.827 119.572 118.053 119.066 117.056C118.575 116.044 118.33 114.879 118.33 113.56ZM127.944 113.583C127.944 112.602 127.668 111.827 127.116 111.26C126.579 110.693 125.92 110.409 125.138 110.409C124.356 110.409 123.689 110.693 123.137 111.26C122.6 111.812 122.332 112.579 122.332 113.56C122.332 114.541 122.6 115.323 123.137 115.906C123.689 116.473 124.356 116.757 125.138 116.757C125.92 116.757 126.579 116.473 127.116 115.906C127.668 115.339 127.944 114.564 127.944 113.583Z" fill="#0B0514"/>
<path d="M29.892 150.126C29.2293 150.126 28.6553 149.981 28.17 149.692C27.6847 149.403 27.3067 148.997 27.036 148.474C26.7747 147.942 26.644 147.317 26.644 146.598C26.644 146.057 26.7187 145.571 26.868 145.142C27.0173 144.703 27.2367 144.33 27.526 144.022C27.8153 143.714 28.156 143.481 28.548 143.322C28.9493 143.154 29.3973 143.07 29.892 143.07C30.5547 143.07 31.1287 143.215 31.614 143.504C32.0993 143.793 32.4727 144.204 32.734 144.736C33.0047 145.259 33.14 145.879 33.14 146.598C33.14 147.139 33.0653 147.625 32.916 148.054C32.7667 148.483 32.5473 148.857 32.258 149.174C31.9687 149.482 31.6233 149.72 31.222 149.888C30.83 150.047 30.3867 150.126 29.892 150.126ZM29.892 149.216C30.312 149.216 30.6807 149.113 30.998 148.908C31.3153 148.703 31.558 148.404 31.726 148.012C31.9033 147.62 31.992 147.149 31.992 146.598C31.992 145.749 31.8007 145.1 31.418 144.652C31.0447 144.204 30.536 143.98 29.892 143.98C29.4627 143.98 29.0893 144.083 28.772 144.288C28.464 144.484 28.2213 144.778 28.044 145.17C27.876 145.553 27.792 146.029 27.792 146.598C27.792 147.438 27.9833 148.087 28.366 148.544C28.7487 148.992 29.2573 149.216 29.892 149.216ZM35.4033 152.618C35.2166 152.618 35.0766 152.567 34.9833 152.464C34.89 152.371 34.8433 152.231 34.8433 152.044V143.672C34.8433 143.485 34.89 143.345 34.9833 143.252C35.0766 143.149 35.212 143.098 35.3893 143.098C35.576 143.098 35.716 143.149 35.8093 143.252C35.912 143.345 35.9633 143.485 35.9633 143.672V145.002L35.8093 144.806C35.9586 144.274 36.2526 143.854 36.6913 143.546C37.1393 143.229 37.6713 143.07 38.2873 143.07C38.894 143.07 39.4213 143.215 39.8693 143.504C40.3266 143.784 40.6766 144.19 40.9193 144.722C41.1713 145.245 41.2973 145.87 41.2973 146.598C41.2973 147.317 41.1713 147.942 40.9193 148.474C40.6766 148.997 40.3313 149.403 39.8833 149.692C39.4353 149.981 38.9033 150.126 38.2873 150.126C37.6713 150.126 37.144 149.972 36.7053 149.664C36.2666 149.347 35.968 148.927 35.8093 148.404H35.9773V152.044C35.9773 152.231 35.926 152.371 35.8233 152.464C35.7206 152.567 35.5806 152.618 35.4033 152.618ZM38.0493 149.216C38.4786 149.216 38.8473 149.113 39.1553 148.908C39.4726 148.703 39.7153 148.404 39.8833 148.012C40.0606 147.62 40.1493 147.149 40.1493 146.598C40.1493 145.749 39.958 145.1 39.5753 144.652C39.202 144.204 38.6933 143.98 38.0493 143.98C37.6293 143.98 37.2606 144.083 36.9433 144.288C36.626 144.484 36.3786 144.778 36.2013 145.17C36.0333 145.553 35.9493 146.029 35.9493 146.598C35.9493 147.438 36.1406 148.087 36.5233 148.544C36.906 148.992 37.4146 149.216 38.0493 149.216ZM46.0714 150.126C45.3527 150.126 44.7321 149.986 44.2094 149.706C43.6961 149.417 43.2947 149.011 43.0054 148.488C42.7254 147.965 42.5854 147.34 42.5854 146.612C42.5854 145.903 42.7254 145.287 43.0054 144.764C43.2854 144.232 43.6681 143.817 44.1534 143.518C44.6481 143.219 45.2174 143.07 45.8614 143.07C46.3187 143.07 46.7294 143.149 47.0934 143.308C47.4574 143.457 47.7654 143.677 48.0174 143.966C48.2787 144.255 48.4747 144.605 48.6054 145.016C48.7454 145.427 48.8154 145.889 48.8154 146.402C48.8154 146.551 48.7734 146.663 48.6894 146.738C48.6054 146.803 48.4841 146.836 48.3254 146.836H43.4534V146.094H48.0594L47.8354 146.276C47.8354 145.772 47.7607 145.347 47.6114 145.002C47.4621 144.647 47.2427 144.377 46.9534 144.19C46.6734 144.003 46.3187 143.91 45.8894 143.91C45.4134 143.91 45.0074 144.022 44.6714 144.246C44.3447 144.461 44.0974 144.764 43.9294 145.156C43.7614 145.539 43.6774 145.987 43.6774 146.5V146.584C43.6774 147.443 43.8827 148.096 44.2934 148.544C44.7134 148.992 45.3061 149.216 46.0714 149.216C46.3887 149.216 46.7014 149.174 47.0094 149.09C47.3267 149.006 47.6347 148.866 47.9334 148.67C48.0641 148.586 48.1807 148.549 48.2834 148.558C48.3954 148.558 48.4841 148.591 48.5494 148.656C48.6147 148.712 48.6567 148.787 48.6754 148.88C48.7034 148.964 48.6941 149.057 48.6474 149.16C48.6101 149.263 48.5307 149.351 48.4094 149.426C48.1014 149.65 47.7374 149.823 47.3174 149.944C46.8974 150.065 46.4821 150.126 46.0714 150.126ZM51.0166 150.098C50.8299 150.098 50.6899 150.047 50.5966 149.944C50.5032 149.841 50.4566 149.697 50.4566 149.51V143.672C50.4566 143.485 50.5032 143.345 50.5966 143.252C50.6899 143.149 50.8252 143.098 51.0026 143.098C51.1799 143.098 51.3152 143.149 51.4086 143.252C51.5112 143.345 51.5626 143.485 51.5626 143.672V144.876L51.4086 144.708C51.6046 144.167 51.9219 143.761 52.3606 143.49C52.8086 143.21 53.3219 143.07 53.9006 143.07C54.4419 143.07 54.8899 143.168 55.2446 143.364C55.6086 143.56 55.8792 143.859 56.0566 144.26C56.2339 144.652 56.3226 145.151 56.3226 145.758V149.51C56.3226 149.697 56.2712 149.841 56.1686 149.944C56.0752 150.047 55.9399 150.098 55.7626 150.098C55.5759 150.098 55.4312 150.047 55.3286 149.944C55.2352 149.841 55.1886 149.697 55.1886 149.51V145.828C55.1886 145.193 55.0626 144.731 54.8106 144.442C54.5679 144.143 54.1759 143.994 53.6346 143.994C53.0092 143.994 52.5099 144.19 52.1366 144.582C51.7726 144.965 51.5906 145.478 51.5906 146.122V149.51C51.5906 149.902 51.3992 150.098 51.0166 150.098ZM60.7096 150.126C60.2896 150.126 59.8649 150.075 59.4356 149.972C59.0156 149.869 58.6236 149.692 58.2596 149.44C58.1663 149.375 58.1009 149.3 58.0636 149.216C58.0263 149.123 58.0123 149.034 58.0216 148.95C58.0403 148.857 58.0776 148.777 58.1336 148.712C58.1989 148.647 58.2736 148.609 58.3576 148.6C58.4509 148.581 58.5536 148.6 58.6656 148.656C59.0296 148.88 59.3796 149.039 59.7156 149.132C60.0609 149.216 60.4016 149.258 60.7376 149.258C61.2696 149.258 61.6709 149.16 61.9416 148.964C62.2123 148.768 62.3476 148.502 62.3476 148.166C62.3476 147.905 62.2589 147.699 62.0816 147.55C61.9043 147.391 61.6243 147.27 61.2416 147.186L59.9676 146.906C59.3796 146.785 58.9409 146.575 58.6516 146.276C58.3716 145.977 58.2316 145.59 58.2316 145.114C58.2316 144.694 58.3389 144.335 58.5536 144.036C58.7776 143.728 59.0903 143.49 59.4916 143.322C59.8929 143.154 60.3596 143.07 60.8916 143.07C61.3023 143.07 61.6896 143.126 62.0536 143.238C62.4269 143.341 62.7629 143.509 63.0616 143.742C63.1549 143.807 63.2156 143.887 63.2436 143.98C63.2809 144.064 63.2856 144.153 63.2576 144.246C63.2389 144.33 63.1969 144.405 63.1316 144.47C63.0663 144.526 62.9869 144.559 62.8936 144.568C62.8003 144.577 62.7023 144.549 62.5996 144.484C62.3196 144.297 62.0349 144.162 61.7456 144.078C61.4563 143.985 61.1716 143.938 60.8916 143.938C60.3689 143.938 59.9723 144.041 59.7016 144.246C59.4309 144.451 59.2956 144.722 59.2956 145.058C59.2956 145.319 59.3796 145.534 59.5476 145.702C59.7156 145.87 59.9769 145.991 60.3316 146.066L61.6056 146.332C62.2123 146.463 62.6649 146.673 62.9636 146.962C63.2716 147.242 63.4256 147.625 63.4256 148.11C63.4256 148.726 63.1783 149.216 62.6836 149.58C62.1889 149.944 61.5309 150.126 60.7096 150.126ZM68.2198 150.126C67.5012 150.126 66.8805 149.986 66.3578 149.706C65.8445 149.417 65.4432 149.011 65.1538 148.488C64.8738 147.965 64.7338 147.34 64.7338 146.612C64.7338 145.903 64.8738 145.287 65.1538 144.764C65.4338 144.232 65.8165 143.817 66.3018 143.518C66.7965 143.219 67.3658 143.07 68.0098 143.07C68.4672 143.07 68.8778 143.149 69.2418 143.308C69.6058 143.457 69.9138 143.677 70.1658 143.966C70.4272 144.255 70.6232 144.605 70.7538 145.016C70.8938 145.427 70.9638 145.889 70.9638 146.402C70.9638 146.551 70.9218 146.663 70.8378 146.738C70.7538 146.803 70.6325 146.836 70.4738 146.836H65.6018V146.094H70.2078L69.9838 146.276C69.9838 145.772 69.9092 145.347 69.7598 145.002C69.6105 144.647 69.3912 144.377 69.1018 144.19C68.8218 144.003 68.4672 143.91 68.0378 143.91C67.5618 143.91 67.1558 144.022 66.8198 144.246C66.4932 144.461 66.2458 144.764 66.0778 145.156C65.9098 145.539 65.8258 145.987 65.8258 146.5V146.584C65.8258 147.443 66.0312 148.096 66.4418 148.544C66.8618 148.992 67.4545 149.216 68.2198 149.216C68.5372 149.216 68.8498 149.174 69.1578 149.09C69.4752 149.006 69.7832 148.866 70.0818 148.67C70.2125 148.586 70.3292 148.549 70.4318 148.558C70.5438 148.558 70.6325 148.591 70.6978 148.656C70.7632 148.712 70.8052 148.787 70.8238 148.88C70.8518 148.964 70.8425 149.057 70.7958 149.16C70.7585 149.263 70.6792 149.351 70.5578 149.426C70.2498 149.65 69.8858 149.823 69.4658 149.944C69.0458 150.065 68.6305 150.126 68.2198 150.126ZM74.747 150.126C74.2803 150.126 73.8603 150.037 73.487 149.86C73.123 149.673 72.8337 149.421 72.619 149.104C72.4043 148.787 72.297 148.432 72.297 148.04C72.297 147.536 72.423 147.139 72.675 146.85C72.9363 146.561 73.361 146.355 73.949 146.234C74.5463 146.113 75.3583 146.052 76.385 146.052H77.015V146.794H76.399C75.643 146.794 75.0457 146.831 74.607 146.906C74.1777 146.971 73.8743 147.088 73.697 147.256C73.529 147.424 73.445 147.662 73.445 147.97C73.445 148.353 73.5757 148.665 73.837 148.908C74.1077 149.151 74.4717 149.272 74.929 149.272C75.3023 149.272 75.629 149.183 75.909 149.006C76.1983 148.829 76.4223 148.586 76.581 148.278C76.749 147.97 76.833 147.615 76.833 147.214V145.618C76.833 145.039 76.7163 144.624 76.483 144.372C76.2497 144.111 75.867 143.98 75.335 143.98C75.0083 143.98 74.6817 144.022 74.355 144.106C74.0283 144.19 73.683 144.325 73.319 144.512C73.1883 144.577 73.0763 144.601 72.983 144.582C72.8897 144.554 72.815 144.503 72.759 144.428C72.703 144.353 72.6703 144.269 72.661 144.176C72.6517 144.073 72.6703 143.975 72.717 143.882C72.773 143.789 72.857 143.714 72.969 143.658C73.3797 143.453 73.7857 143.303 74.187 143.21C74.5883 143.117 74.971 143.07 75.335 143.07C75.923 143.07 76.4083 143.168 76.791 143.364C77.1737 143.551 77.4583 143.84 77.645 144.232C77.8317 144.615 77.925 145.109 77.925 145.716V149.51C77.925 149.697 77.8783 149.841 77.785 149.944C77.701 150.047 77.575 150.098 77.407 150.098C77.2297 150.098 77.0943 150.047 77.001 149.944C76.9077 149.841 76.861 149.697 76.861 149.51V148.418H76.987C76.9123 148.773 76.7677 149.076 76.553 149.328C76.3477 149.58 76.091 149.776 75.783 149.916C75.475 150.056 75.1297 150.126 74.747 150.126ZM80.5748 150.056C80.3415 150.056 80.1548 149.986 80.0148 149.846C79.8748 149.697 79.8048 149.51 79.8048 149.286C79.8048 149.062 79.8748 148.88 80.0148 148.74C80.1548 148.591 80.3415 148.516 80.5748 148.516C80.8082 148.516 80.9902 148.591 81.1208 148.74C81.2608 148.88 81.3308 149.062 81.3308 149.286C81.3308 149.51 81.2608 149.697 81.1208 149.846C80.9902 149.986 80.8082 150.056 80.5748 150.056ZM83.7744 150.07C83.5877 150.07 83.4477 150.019 83.3544 149.916C83.2611 149.804 83.2144 149.65 83.2144 149.454V143.728C83.2144 143.532 83.2611 143.383 83.3544 143.28C83.4477 143.177 83.5877 143.126 83.7744 143.126C83.9517 143.126 84.0917 143.177 84.1944 143.28C84.2971 143.383 84.3484 143.532 84.3484 143.728V149.454C84.3484 149.65 84.2971 149.804 84.1944 149.916C84.1011 150.019 83.9611 150.07 83.7744 150.07ZM83.7744 141.558C83.5411 141.558 83.3591 141.497 83.2284 141.376C83.0977 141.245 83.0324 141.073 83.0324 140.858C83.0324 140.634 83.0977 140.466 83.2284 140.354C83.3591 140.233 83.5411 140.172 83.7744 140.172C84.0171 140.172 84.1991 140.233 84.3204 140.354C84.4511 140.466 84.5164 140.634 84.5164 140.858C84.5164 141.073 84.4511 141.245 84.3204 141.376C84.1991 141.497 84.0171 141.558 83.7744 141.558ZM89.2963 150.126C88.6336 150.126 88.0596 149.981 87.5743 149.692C87.089 149.403 86.711 148.997 86.4403 148.474C86.179 147.942 86.0483 147.317 86.0483 146.598C86.0483 146.057 86.123 145.571 86.2723 145.142C86.4216 144.703 86.641 144.33 86.9303 144.022C87.2196 143.714 87.5603 143.481 87.9523 143.322C88.3536 143.154 88.8016 143.07 89.2963 143.07C89.959 143.07 90.533 143.215 91.0183 143.504C91.5036 143.793 91.877 144.204 92.1383 144.736C92.409 145.259 92.5443 145.879 92.5443 146.598C92.5443 147.139 92.4696 147.625 92.3203 148.054C92.171 148.483 91.9516 148.857 91.6623 149.174C91.373 149.482 91.0276 149.72 90.6263 149.888C90.2343 150.047 89.791 150.126 89.2963 150.126ZM89.2963 149.216C89.7163 149.216 90.085 149.113 90.4023 148.908C90.7196 148.703 90.9623 148.404 91.1303 148.012C91.3076 147.62 91.3963 147.149 91.3963 146.598C91.3963 145.749 91.205 145.1 90.8223 144.652C90.449 144.204 89.9403 143.98 89.2963 143.98C88.867 143.98 88.4936 144.083 88.1763 144.288C87.8683 144.484 87.6256 144.778 87.4483 145.17C87.2803 145.553 87.1963 146.029 87.1963 146.598C87.1963 147.438 87.3876 148.087 87.7703 148.544C88.153 148.992 88.6616 149.216 89.2963 149.216Z" fill="#0B0514"/>
</g>
<defs>
<filter id="filter0_d_1633_7578" x="0" y="0" width="183" height="183" filterUnits="userSpaceOnUse" color-interpolation-filters="sRGB">
<feFlood flood-opacity="0" result="BackgroundImageFix"/>
<feColorMatrix in="SourceAlpha" type="matrix" values="0 0 0 0 0 0 0 0 0 0 0 0 0 0 0 0 0 0 127 0" result="hardAlpha"/>
<feOffset dy="2"/>
<feGaussianBlur stdDeviation="5"/>
<feComposite in2="hardAlpha" operator="out"/>
<feColorMatrix type="matrix" values="0 0 0 0 0 0 0 0 0 0 0 0 0 0 0 0 0 0 0.1 0"/>
<feBlend mode="normal" in2="BackgroundImageFix" result="effect1_dropShadow_1633_7578"/>
<feBlend mode="normal" in="SourceGraphic" in2="effect1_dropShadow_1633_7578" result="shape"/>
</filter>
<linearGradient id="paint0_linear_1633_7578" x1="10" y1="45.2571" x2="181.15" y2="165.761" gradientUnits="userSpaceOnUse">
<stop stop-color="#007AFF"/>
<stop offset="1" stop-color="#5BA7FB"/>
</linearGradient>
<clipPath id="clip0_1633_7578">
<rect width="40" height="40" fill="white" transform="translate(36 34)"/>
</clipPath>
</defs>
</svg>
