<svg width="183" height="183" viewBox="0 0 183 183" fill="none" xmlns="http://www.w3.org/2000/svg">
<g filter="url(#filter0_d_1633_7581)">
<rect x="10" y="8" width="163" height="163" rx="8" fill="url(#paint0_linear_1633_7581)"/>
<rect x="26" y="24" width="60" height="60" rx="8" fill="black"/>
<path d="M71.0704 53.9513V46.2872C71.0704 46.272 71.0659 46.2584 71.0644 46.2447C71.0613 46.1157 71.0477 45.9881 71.0143 45.8636C71.0127 45.8591 71.0112 45.856 71.0097 45.853C70.9763 45.7346 70.9277 45.6222 70.8685 45.5129C70.8518 45.481 70.8321 45.4522 70.8123 45.4218C70.7607 45.3414 70.703 45.2654 70.6377 45.1941C70.6134 45.1683 70.5907 45.1409 70.5649 45.1167C70.4723 45.0271 70.372 44.9451 70.2551 44.8783L56.8141 37.1185C56.3101 36.827 55.6891 36.827 55.185 37.1185L41.744 44.8752C41.24 45.1668 40.9287 45.7042 40.9287 46.2872V65.5917C40.9287 66.1732 41.24 66.7122 41.744 67.0022L48.3818 70.8342C48.4015 70.8448 48.4228 70.8494 48.441 70.8585C48.5275 70.904 48.6186 70.942 48.7143 70.9708C48.7492 70.9815 48.7826 70.9951 48.8175 71.0027C48.9344 71.0301 49.0544 71.0483 49.1789 71.0498C49.1834 71.0498 49.188 71.0513 49.194 71.0513H49.1971C49.3277 71.0513 49.4537 71.0316 49.5751 71.0027C49.61 70.9951 49.6419 70.9815 49.6753 70.9724C49.7664 70.9435 49.853 70.9086 49.9365 70.8661C49.9714 70.8494 50.0048 70.8327 50.0382 70.813C50.1338 70.7537 50.2249 70.6885 50.3054 70.611C50.3175 70.6004 50.3312 70.5928 50.3418 70.5807C50.4345 70.4896 50.5119 70.3848 50.5802 70.2725C50.5878 70.2603 50.5984 70.2512 50.606 70.2391C50.6212 70.2117 50.6303 70.1829 50.644 70.1556C50.6698 70.1024 50.6956 70.0508 50.7168 69.9946C50.7351 69.9445 50.7502 69.8944 50.7639 69.8443C50.7776 69.7942 50.7897 69.7441 50.7988 69.691C50.8079 69.6318 50.814 69.5741 50.8171 69.5148C50.8186 69.4845 50.8262 69.4556 50.8262 69.4238V51.0591L62.6381 44.2391L66.1832 46.2857L55.185 52.6365C54.681 52.928 54.3697 53.4655 54.3697 54.047V61.7126C54.3697 61.7278 54.3743 61.7414 54.3758 61.7551C54.3788 61.8841 54.3925 62.0117 54.4259 62.1362C54.4274 62.1407 54.4289 62.1438 54.4305 62.1468C54.4639 62.2652 54.5124 62.3776 54.5717 62.4869C54.5884 62.5188 54.6081 62.5476 54.6278 62.578C54.6795 62.6585 54.7371 62.7344 54.8024 62.8057C54.8267 62.8315 54.848 62.8589 54.8753 62.8832C54.9679 62.9727 55.0681 63.0547 55.185 63.1215L68.6261 70.8813C68.8781 71.027 69.159 71.0999 69.4414 71.0999C69.7222 71.0999 70.0046 71.027 70.2567 70.8813C70.7607 70.5898 71.072 70.0523 71.072 69.4708V61.9692C71.072 61.289 70.7061 60.6544 70.1155 60.3128L65.8978 57.8775L70.2567 55.3602C70.7592 55.0718 71.0704 54.5328 71.0704 53.9513ZM47.5665 66.6029L44.1869 64.6519V54.8926L47.5665 52.9417V66.6029ZM44.1869 51.1289V47.227L55.9988 40.4071L59.3784 42.358L44.1869 51.1289ZM67.8108 62.748V66.6499L59.257 61.7111L62.6366 59.7601L67.8108 62.748ZM67.8108 53.0115L57.6279 58.8902V54.9883L67.8108 49.1096V53.0115Z" fill="white"/>
<path d="M27.817 121V104.233H36.097C38.0597 104.233 39.524 104.647 40.49 105.475C41.456 106.303 41.939 107.491 41.939 109.04C41.939 110.037 41.6783 110.903 41.157 111.639C40.651 112.36 39.9457 112.827 39.041 113.042V113.203C40.697 113.525 41.525 114.606 41.525 116.446V119.068C41.525 119.375 41.5327 119.697 41.548 120.034C41.5787 120.356 41.6707 120.678 41.824 121H38.213C38.1057 120.785 38.029 120.517 37.983 120.195C37.9523 119.858 37.937 119.482 37.937 119.068V117.067C37.937 116.346 37.7607 115.794 37.408 115.411C37.0707 115.028 36.396 114.836 35.384 114.836H31.405V121H27.817ZM31.405 111.984H35.568C36.5493 111.984 37.247 111.754 37.661 111.294C38.075 110.819 38.282 110.228 38.282 109.523C38.282 108.68 38.029 108.082 37.523 107.729C37.0323 107.376 36.3807 107.2 35.568 107.2H31.405V111.984ZM49.4976 121.207C48.2096 121.207 47.1056 120.946 46.1856 120.425C45.2809 119.904 44.5832 119.175 44.0926 118.24C43.6019 117.289 43.3566 116.185 43.3566 114.928C43.3566 113.594 43.6019 112.444 44.0926 111.478C44.5986 110.512 45.3039 109.768 46.2086 109.247C47.1132 108.71 48.1712 108.442 49.3826 108.442C50.8086 108.442 51.9816 108.756 52.9016 109.385C53.8216 109.998 54.4809 110.849 54.8796 111.938C55.2782 113.011 55.4086 114.23 55.2706 115.595H46.6916C46.6762 116.576 46.9292 117.335 47.4506 117.872C47.9719 118.393 48.6542 118.654 49.4976 118.654C50.1416 118.654 50.6859 118.516 51.1306 118.24C51.5906 117.949 51.8819 117.565 52.0046 117.09H55.2016C55.0942 117.918 54.7799 118.639 54.2586 119.252C53.7526 119.865 53.0932 120.348 52.2806 120.701C51.4679 121.038 50.5402 121.207 49.4976 121.207ZM49.3826 110.995C48.6159 110.995 47.9949 111.217 47.5196 111.662C47.0442 112.091 46.7759 112.682 46.7146 113.433H51.9586C51.9126 112.605 51.6442 111.992 51.1536 111.593C50.6782 111.194 50.0879 110.995 49.3826 110.995ZM58.3533 121V111.386H56.3293V108.672H58.3533V107.361C58.3533 106.349 58.6676 105.575 59.2963 105.038C59.9249 104.501 60.8143 104.233 61.9643 104.233H64.4483V106.51H62.9533C62.4779 106.51 62.1559 106.61 61.9873 106.809C61.8186 107.008 61.7343 107.261 61.7343 107.568V108.672H64.2413V111.386H61.7343V121H58.3533ZM66.0144 107.085V104.233H69.3954V107.085H66.0144ZM66.0144 121V108.672H69.3954V121H66.0144ZM72.3035 121V108.672H75.5465L75.6845 110.903H75.8225C76.1598 110.09 76.6812 109.477 77.3865 109.063C78.0918 108.649 78.8815 108.442 79.7555 108.442C80.5835 108.442 81.3195 108.611 81.9635 108.948C82.6228 109.285 83.1442 109.83 83.5275 110.581C83.9108 111.317 84.1025 112.306 84.1025 113.548V121H80.7215V114.284C80.7215 113.241 80.5375 112.467 80.1695 111.961C79.8015 111.455 79.2112 111.202 78.3985 111.202C77.5245 111.202 76.8498 111.501 76.3745 112.099C75.9145 112.682 75.6845 113.364 75.6845 114.146V121H72.3035ZM91.0666 121.207C89.5946 121.207 88.4063 120.678 87.5016 119.62C86.597 118.547 86.1446 116.952 86.1446 114.836C86.1446 112.705 86.597 111.11 87.5016 110.052C88.4063 108.979 89.5946 108.442 91.0666 108.442C92.0173 108.442 92.83 108.657 93.5046 109.086C94.1946 109.515 94.6853 110.09 94.9766 110.811H95.1606L95.2986 108.672H98.5416V121H95.1606V118.838H94.9766C94.6853 119.543 94.1946 120.118 93.5046 120.563C92.83 120.992 92.0173 121.207 91.0666 121.207ZM92.3546 118.47C92.9833 118.47 93.497 118.324 93.8956 118.033C94.3096 117.742 94.6163 117.366 94.8156 116.906C95.015 116.431 95.1146 115.932 95.1146 115.411V114.238C95.1146 113.701 95.015 113.203 94.8156 112.743C94.6163 112.283 94.3096 111.907 93.8956 111.616C93.497 111.325 92.9833 111.179 92.3546 111.179C91.5266 111.179 90.8596 111.478 90.3536 112.076C89.8476 112.659 89.5946 113.579 89.5946 114.836C89.5946 116.078 89.8476 116.998 90.3536 117.596C90.8596 118.179 91.5266 118.47 92.3546 118.47ZM108.91 121.23C107.96 121.23 107.139 121.015 106.449 120.586C105.775 120.141 105.292 119.566 105 118.861H104.816L104.678 121H101.435V104.233H104.816V110.811H105C105.292 110.09 105.775 109.515 106.449 109.086C107.139 108.657 107.96 108.442 108.91 108.442C110.382 108.442 111.571 108.979 112.475 110.052C113.38 111.11 113.832 112.705 113.832 114.836C113.832 116.952 113.38 118.547 112.475 119.62C111.571 120.693 110.382 121.23 108.91 121.23ZM107.622 118.493C108.45 118.493 109.117 118.202 109.623 117.619C110.129 117.021 110.382 116.093 110.382 114.836C110.382 113.579 110.129 112.659 109.623 112.076C109.117 111.478 108.45 111.179 107.622 111.179C106.994 111.179 106.472 111.325 106.058 111.616C105.644 111.907 105.338 112.291 105.138 112.766C104.939 113.226 104.839 113.717 104.839 114.238V115.434C104.839 115.955 104.939 116.454 105.138 116.929C105.338 117.389 105.644 117.765 106.058 118.056C106.472 118.347 106.994 118.493 107.622 118.493ZM115.99 121V104.233H119.371V121H115.99ZM127.684 121.207C126.396 121.207 125.292 120.946 124.372 120.425C123.467 119.904 122.77 119.175 122.279 118.24C121.788 117.289 121.543 116.185 121.543 114.928C121.543 113.594 121.788 112.444 122.279 111.478C122.785 110.512 123.49 109.768 124.395 109.247C125.3 108.71 126.358 108.442 127.569 108.442C128.995 108.442 130.168 108.756 131.088 109.385C132.008 109.998 132.667 110.849 133.066 111.938C133.465 113.011 133.595 114.23 133.457 115.595H124.878C124.863 116.576 125.116 117.335 125.637 117.872C126.158 118.393 126.841 118.654 127.684 118.654C128.328 118.654 128.872 118.516 129.317 118.24C129.777 117.949 130.068 117.565 130.191 117.09H133.388C133.281 117.918 132.966 118.639 132.445 119.252C131.939 119.865 131.28 120.348 130.467 120.701C129.654 121.038 128.727 121.207 127.684 121.207ZM127.569 110.995C126.802 110.995 126.181 111.217 125.706 111.662C125.231 112.091 124.962 112.682 124.901 113.433H130.145C130.099 112.605 129.831 111.992 129.34 111.593C128.865 111.194 128.274 110.995 127.569 110.995Z" fill="#0B0514"/>
<path d="M27.638 151.098C27.4513 151.098 27.3067 151.047 27.204 150.944C27.1107 150.841 27.064 150.697 27.064 150.51V144.672C27.064 144.485 27.1107 144.345 27.204 144.252C27.2973 144.149 27.4327 144.098 27.61 144.098C27.7873 144.098 27.9227 144.149 28.016 144.252C28.1187 144.345 28.17 144.485 28.17 144.672V145.806H28.03C28.1793 145.255 28.464 144.831 28.884 144.532C29.304 144.233 29.822 144.075 30.438 144.056C30.578 144.047 30.69 144.079 30.774 144.154C30.858 144.219 30.9047 144.336 30.914 144.504C30.9233 144.663 30.886 144.789 30.802 144.882C30.718 144.975 30.5873 145.031 30.41 145.05L30.186 145.078C29.5513 145.134 29.0613 145.339 28.716 145.694C28.38 146.039 28.212 146.515 28.212 147.122V150.51C28.212 150.697 28.1607 150.841 28.058 150.944C27.9647 151.047 27.8247 151.098 27.638 151.098ZM35.0655 151.126C34.3469 151.126 33.7262 150.986 33.2035 150.706C32.6902 150.417 32.2889 150.011 31.9995 149.488C31.7195 148.965 31.5795 148.34 31.5795 147.612C31.5795 146.903 31.7195 146.287 31.9995 145.764C32.2795 145.232 32.6622 144.817 33.1475 144.518C33.6422 144.219 34.2115 144.07 34.8555 144.07C35.3129 144.07 35.7235 144.149 36.0875 144.308C36.4515 144.457 36.7595 144.677 37.0115 144.966C37.2729 145.255 37.4689 145.605 37.5995 146.016C37.7395 146.427 37.8095 146.889 37.8095 147.402C37.8095 147.551 37.7675 147.663 37.6835 147.738C37.5995 147.803 37.4782 147.836 37.3195 147.836H32.4475V147.094H37.0535L36.8295 147.276C36.8295 146.772 36.7549 146.347 36.6055 146.002C36.4562 145.647 36.2369 145.377 35.9475 145.19C35.6675 145.003 35.3129 144.91 34.8835 144.91C34.4075 144.91 34.0015 145.022 33.6655 145.246C33.3389 145.461 33.0915 145.764 32.9235 146.156C32.7555 146.539 32.6715 146.987 32.6715 147.5V147.584C32.6715 148.443 32.8769 149.096 33.2875 149.544C33.7075 149.992 34.3002 150.216 35.0655 150.216C35.3829 150.216 35.6955 150.174 36.0035 150.09C36.3209 150.006 36.6289 149.866 36.9275 149.67C37.0582 149.586 37.1749 149.549 37.2775 149.558C37.3895 149.558 37.4782 149.591 37.5435 149.656C37.6089 149.712 37.6509 149.787 37.6695 149.88C37.6975 149.964 37.6882 150.057 37.6415 150.16C37.6042 150.263 37.5249 150.351 37.4035 150.426C37.0955 150.65 36.7315 150.823 36.3115 150.944C35.8915 151.065 35.4762 151.126 35.0655 151.126ZM40.3747 151.098C40.1974 151.098 40.0574 151.047 39.9547 150.944C39.8614 150.841 39.8147 150.697 39.8147 150.51V145.078H38.9187C38.7694 145.078 38.6481 145.041 38.5547 144.966C38.4707 144.882 38.4287 144.77 38.4287 144.63C38.4287 144.49 38.4707 144.383 38.5547 144.308C38.6481 144.233 38.7694 144.196 38.9187 144.196H40.1227L39.8147 144.49V143.958C39.8147 143.081 40.0247 142.409 40.4447 141.942C40.8741 141.475 41.5041 141.209 42.3347 141.144L42.7547 141.102C42.8947 141.093 43.0067 141.116 43.0907 141.172C43.1747 141.219 43.2261 141.284 43.2447 141.368C43.2727 141.452 43.2774 141.541 43.2587 141.634C43.2401 141.727 43.1981 141.807 43.1327 141.872C43.0767 141.937 43.0067 141.975 42.9227 141.984L42.5027 142.012C41.9521 142.049 41.5554 142.222 41.3127 142.53C41.0701 142.829 40.9487 143.258 40.9487 143.818V144.406L40.7807 144.196H44.5887C44.7661 144.196 44.9014 144.247 44.9947 144.35C45.0974 144.453 45.1487 144.602 45.1487 144.798V150.454C45.1487 150.65 45.1021 150.804 45.0087 150.916C44.9154 151.019 44.7754 151.07 44.5887 151.07C44.4021 151.07 44.2574 151.019 44.1547 150.916C44.0614 150.804 44.0147 150.65 44.0147 150.454V145.078H40.9487V150.51C40.9487 150.902 40.7574 151.098 40.3747 151.098ZM44.6027 142.558C44.3694 142.558 44.1874 142.497 44.0567 142.376C43.9354 142.245 43.8747 142.073 43.8747 141.858C43.8747 141.634 43.9354 141.466 44.0567 141.354C44.1874 141.233 44.3694 141.172 44.6027 141.172C44.8361 141.172 45.0134 141.233 45.1347 141.354C45.2654 141.466 45.3307 141.634 45.3307 141.858C45.3307 142.073 45.2654 142.245 45.1347 142.376C45.0134 142.497 44.8361 142.558 44.6027 142.558ZM47.831 151.098C47.6444 151.098 47.5044 151.047 47.411 150.944C47.3177 150.841 47.271 150.697 47.271 150.51V144.672C47.271 144.485 47.3177 144.345 47.411 144.252C47.5044 144.149 47.6397 144.098 47.817 144.098C47.9944 144.098 48.1297 144.149 48.223 144.252C48.3257 144.345 48.377 144.485 48.377 144.672V145.876L48.223 145.708C48.419 145.167 48.7364 144.761 49.175 144.49C49.623 144.21 50.1364 144.07 50.715 144.07C51.2564 144.07 51.7044 144.168 52.059 144.364C52.423 144.56 52.6937 144.859 52.871 145.26C53.0484 145.652 53.137 146.151 53.137 146.758V150.51C53.137 150.697 53.0857 150.841 52.983 150.944C52.8897 151.047 52.7544 151.098 52.577 151.098C52.3904 151.098 52.2457 151.047 52.143 150.944C52.0497 150.841 52.003 150.697 52.003 150.51V146.828C52.003 146.193 51.877 145.731 51.625 145.442C51.3824 145.143 50.9904 144.994 50.449 144.994C49.8237 144.994 49.3244 145.19 48.951 145.582C48.587 145.965 48.405 146.478 48.405 147.122V150.51C48.405 150.902 48.2137 151.098 47.831 151.098ZM57.3701 151.126C56.9034 151.126 56.4834 151.037 56.1101 150.86C55.7461 150.673 55.4567 150.421 55.2421 150.104C55.0274 149.787 54.9201 149.432 54.9201 149.04C54.9201 148.536 55.0461 148.139 55.2981 147.85C55.5594 147.561 55.9841 147.355 56.5721 147.234C57.1694 147.113 57.9814 147.052 59.0081 147.052H59.6381V147.794H59.0221C58.2661 147.794 57.6687 147.831 57.2301 147.906C56.8007 147.971 56.4974 148.088 56.3201 148.256C56.1521 148.424 56.0681 148.662 56.0681 148.97C56.0681 149.353 56.1987 149.665 56.4601 149.908C56.7307 150.151 57.0947 150.272 57.5521 150.272C57.9254 150.272 58.2521 150.183 58.5321 150.006C58.8214 149.829 59.0454 149.586 59.2041 149.278C59.3721 148.97 59.4561 148.615 59.4561 148.214V146.618C59.4561 146.039 59.3394 145.624 59.1061 145.372C58.8727 145.111 58.4901 144.98 57.9581 144.98C57.6314 144.98 57.3047 145.022 56.9781 145.106C56.6514 145.19 56.3061 145.325 55.9421 145.512C55.8114 145.577 55.6994 145.601 55.6061 145.582C55.5127 145.554 55.4381 145.503 55.3821 145.428C55.3261 145.353 55.2934 145.269 55.2841 145.176C55.2747 145.073 55.2934 144.975 55.3401 144.882C55.3961 144.789 55.4801 144.714 55.5921 144.658C56.0027 144.453 56.4087 144.303 56.8101 144.21C57.2114 144.117 57.5941 144.07 57.9581 144.07C58.5461 144.07 59.0314 144.168 59.4141 144.364C59.7967 144.551 60.0814 144.84 60.2681 145.232C60.4547 145.615 60.5481 146.109 60.5481 146.716V150.51C60.5481 150.697 60.5014 150.841 60.4081 150.944C60.3241 151.047 60.1981 151.098 60.0301 151.098C59.8527 151.098 59.7174 151.047 59.6241 150.944C59.5307 150.841 59.4841 150.697 59.4841 150.51V149.418H59.6101C59.5354 149.773 59.3907 150.076 59.1761 150.328C58.9707 150.58 58.7141 150.776 58.4061 150.916C58.0981 151.056 57.7527 151.126 57.3701 151.126ZM66.0959 151.126C65.4799 151.126 64.9479 150.967 64.4999 150.65C64.0612 150.333 63.7672 149.908 63.6179 149.376L63.7719 149.222V150.51C63.7719 150.697 63.7206 150.841 63.6179 150.944C63.5246 151.047 63.3892 151.098 63.2119 151.098C63.0252 151.098 62.8852 151.047 62.7919 150.944C62.6986 150.841 62.6519 150.697 62.6519 150.51V141.606C62.6519 141.419 62.6986 141.279 62.7919 141.186C62.8852 141.083 63.0252 141.032 63.2119 141.032C63.3892 141.032 63.5292 141.083 63.6319 141.186C63.7346 141.279 63.7859 141.419 63.7859 141.606V145.778H63.6179C63.7766 145.255 64.0752 144.84 64.5139 144.532C64.9526 144.224 65.4799 144.07 66.0959 144.07C66.7119 144.07 67.2439 144.215 67.6919 144.504C68.1399 144.784 68.4852 145.19 68.7279 145.722C68.9799 146.245 69.1059 146.87 69.1059 147.598C69.1059 148.317 68.9799 148.942 68.7279 149.474C68.4852 149.997 68.1352 150.403 67.6779 150.692C67.2299 150.981 66.7026 151.126 66.0959 151.126ZM65.8579 150.216C66.2872 150.216 66.6559 150.113 66.9639 149.908C67.2812 149.703 67.5239 149.404 67.6919 149.012C67.8692 148.62 67.9579 148.149 67.9579 147.598C67.9579 146.749 67.7666 146.1 67.3839 145.652C67.0106 145.204 66.5019 144.98 65.8579 144.98C65.4379 144.98 65.0692 145.083 64.7519 145.288C64.4346 145.484 64.1872 145.778 64.0099 146.17C63.8419 146.553 63.7579 147.029 63.7579 147.598C63.7579 148.438 63.9492 149.087 64.3319 149.544C64.7146 149.992 65.2232 150.216 65.8579 150.216ZM72.886 151.126C72.214 151.126 71.7007 150.921 71.346 150.51C70.9913 150.099 70.814 149.511 70.814 148.746V141.606C70.814 141.419 70.8607 141.279 70.954 141.186C71.0473 141.083 71.1873 141.032 71.374 141.032C71.5513 141.032 71.6913 141.083 71.794 141.186C71.8967 141.279 71.948 141.419 71.948 141.606V148.662C71.948 149.166 72.046 149.544 72.242 149.796C72.4473 150.039 72.746 150.16 73.138 150.16C73.222 150.16 73.2967 150.155 73.362 150.146C73.4273 150.137 73.4927 150.132 73.558 150.132C73.6607 150.123 73.7307 150.146 73.768 150.202C73.8147 150.258 73.838 150.37 73.838 150.538C73.838 150.706 73.8007 150.832 73.726 150.916C73.6513 151 73.53 151.056 73.362 151.084C73.2873 151.093 73.208 151.103 73.124 151.112C73.04 151.121 72.9607 151.126 72.886 151.126ZM77.9542 151.126C77.2356 151.126 76.6149 150.986 76.0922 150.706C75.5789 150.417 75.1776 150.011 74.8882 149.488C74.6082 148.965 74.4682 148.34 74.4682 147.612C74.4682 146.903 74.6082 146.287 74.8882 145.764C75.1682 145.232 75.5509 144.817 76.0362 144.518C76.5309 144.219 77.1002 144.07 77.7442 144.07C78.2016 144.07 78.6122 144.149 78.9762 144.308C79.3402 144.457 79.6482 144.677 79.9002 144.966C80.1616 145.255 80.3576 145.605 80.4882 146.016C80.6282 146.427 80.6982 146.889 80.6982 147.402C80.6982 147.551 80.6562 147.663 80.5722 147.738C80.4882 147.803 80.3669 147.836 80.2082 147.836H75.3362V147.094H79.9422L79.7182 147.276C79.7182 146.772 79.6436 146.347 79.4942 146.002C79.3449 145.647 79.1256 145.377 78.8362 145.19C78.5562 145.003 78.2016 144.91 77.7722 144.91C77.2962 144.91 76.8902 145.022 76.5542 145.246C76.2276 145.461 75.9802 145.764 75.8122 146.156C75.6442 146.539 75.5602 146.987 75.5602 147.5V147.584C75.5602 148.443 75.7656 149.096 76.1762 149.544C76.5962 149.992 77.1889 150.216 77.9542 150.216C78.2716 150.216 78.5842 150.174 78.8922 150.09C79.2096 150.006 79.5176 149.866 79.8162 149.67C79.9469 149.586 80.0636 149.549 80.1662 149.558C80.2782 149.558 80.3669 149.591 80.4322 149.656C80.4976 149.712 80.5396 149.787 80.5582 149.88C80.5862 149.964 80.5769 150.057 80.5302 150.16C80.4929 150.263 80.4136 150.351 80.2922 150.426C79.9842 150.65 79.6202 150.823 79.2002 150.944C78.7802 151.065 78.3649 151.126 77.9542 151.126ZM82.8854 151.056C82.6521 151.056 82.4654 150.986 82.3254 150.846C82.1854 150.697 82.1154 150.51 82.1154 150.286C82.1154 150.062 82.1854 149.88 82.3254 149.74C82.4654 149.591 82.6521 149.516 82.8854 149.516C83.1187 149.516 83.3007 149.591 83.4314 149.74C83.5714 149.88 83.6414 150.062 83.6414 150.286C83.6414 150.51 83.5714 150.697 83.4314 150.846C83.3007 150.986 83.1187 151.056 82.8854 151.056ZM88.0945 151.126C87.4132 151.126 86.8252 150.977 86.3305 150.678C85.8358 150.379 85.4532 149.964 85.1825 149.432C84.9212 148.891 84.7905 148.265 84.7905 147.556C84.7905 147.015 84.8652 146.529 85.0145 146.1C85.1638 145.671 85.3832 145.307 85.6725 145.008C85.9618 144.7 86.3072 144.467 86.7085 144.308C87.1192 144.149 87.5812 144.07 88.0945 144.07C88.4305 144.07 88.7805 144.121 89.1445 144.224C89.5085 144.327 89.8398 144.504 90.1385 144.756C90.2318 144.821 90.2925 144.901 90.3205 144.994C90.3485 145.087 90.3485 145.181 90.3205 145.274C90.2925 145.358 90.2458 145.433 90.1805 145.498C90.1152 145.554 90.0312 145.587 89.9285 145.596C89.8352 145.605 89.7372 145.573 89.6345 145.498C89.3918 145.311 89.1445 145.181 88.8925 145.106C88.6405 145.031 88.3978 144.994 88.1645 144.994C87.8005 144.994 87.4832 145.055 87.2125 145.176C86.9418 145.288 86.7132 145.451 86.5265 145.666C86.3398 145.881 86.1952 146.147 86.0925 146.464C85.9992 146.781 85.9525 147.15 85.9525 147.57C85.9525 148.382 86.1438 149.026 86.5265 149.502C86.9092 149.969 87.4552 150.202 88.1645 150.202C88.3978 150.202 88.6358 150.165 88.8785 150.09C89.1305 150.015 89.3825 149.885 89.6345 149.698C89.7372 149.623 89.8352 149.591 89.9285 149.6C90.0218 149.609 90.1012 149.647 90.1665 149.712C90.2318 149.768 90.2738 149.843 90.2925 149.936C90.3205 150.029 90.3205 150.123 90.2925 150.216C90.2645 150.3 90.2038 150.375 90.1105 150.44C89.8118 150.683 89.4852 150.86 89.1305 150.972C88.7758 151.075 88.4305 151.126 88.0945 151.126ZM94.3822 151.126C93.7196 151.126 93.1456 150.981 92.6602 150.692C92.1749 150.403 91.7969 149.997 91.5262 149.474C91.2649 148.942 91.1342 148.317 91.1342 147.598C91.1342 147.057 91.2089 146.571 91.3582 146.142C91.5076 145.703 91.7269 145.33 92.0162 145.022C92.3056 144.714 92.6462 144.481 93.0382 144.322C93.4396 144.154 93.8876 144.07 94.3822 144.07C95.0449 144.07 95.6189 144.215 96.1042 144.504C96.5896 144.793 96.9629 145.204 97.2242 145.736C97.4949 146.259 97.6302 146.879 97.6302 147.598C97.6302 148.139 97.5556 148.625 97.4062 149.054C97.2569 149.483 97.0376 149.857 96.7482 150.174C96.4589 150.482 96.1136 150.72 95.7122 150.888C95.3202 151.047 94.8769 151.126 94.3822 151.126ZM94.3822 150.216C94.8022 150.216 95.1709 150.113 95.4882 149.908C95.8056 149.703 96.0482 149.404 96.2162 149.012C96.3936 148.62 96.4822 148.149 96.4822 147.598C96.4822 146.749 96.2909 146.1 95.9082 145.652C95.5349 145.204 95.0262 144.98 94.3822 144.98C93.9529 144.98 93.5796 145.083 93.2622 145.288C92.9542 145.484 92.7116 145.778 92.5342 146.17C92.3662 146.553 92.2822 147.029 92.2822 147.598C92.2822 148.438 92.4736 149.087 92.8562 149.544C93.2389 149.992 93.7476 150.216 94.3822 150.216ZM99.9215 151.098C99.7349 151.098 99.5949 151.047 99.5015 150.944C99.4082 150.841 99.3615 150.697 99.3615 150.51V144.672C99.3615 144.485 99.4082 144.345 99.5015 144.252C99.5949 144.149 99.7302 144.098 99.9075 144.098C100.085 144.098 100.22 144.149 100.314 144.252C100.416 144.345 100.468 144.485 100.468 144.672V145.904L100.314 145.708C100.491 145.185 100.776 144.784 101.168 144.504C101.569 144.215 102.045 144.07 102.596 144.07C103.174 144.07 103.641 144.21 103.996 144.49C104.36 144.761 104.602 145.185 104.724 145.764H104.514C104.682 145.241 104.98 144.831 105.41 144.532C105.848 144.224 106.357 144.07 106.936 144.07C107.449 144.07 107.869 144.168 108.196 144.364C108.532 144.56 108.784 144.859 108.952 145.26C109.12 145.652 109.204 146.151 109.204 146.758V150.51C109.204 150.697 109.152 150.841 109.05 150.944C108.956 151.047 108.816 151.098 108.63 151.098C108.452 151.098 108.312 151.047 108.21 150.944C108.116 150.841 108.07 150.697 108.07 150.51V146.814C108.07 146.189 107.962 145.731 107.748 145.442C107.533 145.143 107.169 144.994 106.656 144.994C106.096 144.994 105.652 145.19 105.326 145.582C105.008 145.965 104.85 146.487 104.85 147.15V150.51C104.85 150.697 104.798 150.841 104.696 150.944C104.602 151.047 104.462 151.098 104.276 151.098C104.098 151.098 103.958 151.047 103.856 150.944C103.762 150.841 103.716 150.697 103.716 150.51V146.814C103.716 146.189 103.604 145.731 103.38 145.442C103.165 145.143 102.806 144.994 102.302 144.994C101.742 144.994 101.298 145.19 100.972 145.582C100.654 145.965 100.496 146.487 100.496 147.15V150.51C100.496 150.902 100.304 151.098 99.9215 151.098Z" fill="#0B0514"/>
</g>
<defs>
<filter id="filter0_d_1633_7581" x="0" y="0" width="183" height="183" filterUnits="userSpaceOnUse" color-interpolation-filters="sRGB">
<feFlood flood-opacity="0" result="BackgroundImageFix"/>
<feColorMatrix in="SourceAlpha" type="matrix" values="0 0 0 0 0 0 0 0 0 0 0 0 0 0 0 0 0 0 127 0" result="hardAlpha"/>
<feOffset dy="2"/>
<feGaussianBlur stdDeviation="5"/>
<feComposite in2="hardAlpha" operator="out"/>
<feColorMatrix type="matrix" values="0 0 0 0 0 0 0 0 0 0 0 0 0 0 0 0 0 0 0.1 0"/>
<feBlend mode="normal" in2="BackgroundImageFix" result="effect1_dropShadow_1633_7581"/>
<feBlend mode="normal" in="SourceGraphic" in2="effect1_dropShadow_1633_7581" result="shape"/>
</filter>
<linearGradient id="paint0_linear_1633_7581" x1="10" y1="45.2571" x2="181.15" y2="165.761" gradientUnits="userSpaceOnUse">
<stop stop-color="#19D0E9"/>
<stop offset="1" stop-color="#4E45BC"/>
</linearGradient>
</defs>
</svg>
