<svg width="40" height="40" viewBox="0 0 40 40" fill="none" xmlns="http://www.w3.org/2000/svg">
<rect width="40" height="40" rx="4" fill="black"/>
<path d="M32.4987 19.9606V13.7579C32.4987 13.7456 32.4949 13.7346 32.4937 13.7235C32.4911 13.6191 32.4798 13.5159 32.4521 13.4151C32.4508 13.4114 32.4496 13.409 32.4483 13.4065C32.4206 13.3107 32.3803 13.2197 32.3312 13.1313C32.3174 13.1055 32.301 13.0821 32.2846 13.0576C32.2418 12.9924 32.194 12.931 32.1398 12.8732C32.1197 12.8524 32.1008 12.8302 32.0794 12.8106C32.0026 12.7381 31.9194 12.6717 31.8225 12.6177L20.6749 6.33758C20.2569 6.10167 19.7419 6.10167 19.3238 6.33758L8.17619 12.6152C7.75813 12.8511 7.5 13.2861 7.5 13.7579V29.3813C7.5 29.852 7.75813 30.2882 8.17619 30.5229L13.6814 33.6242C13.6977 33.6328 13.7154 33.6365 13.7305 33.6438C13.8022 33.6807 13.8778 33.7114 13.9571 33.7347C13.9861 33.7434 14.0138 33.7544 14.0428 33.7605C14.1397 33.7827 14.2392 33.7975 14.3424 33.7987C14.3462 33.7987 14.35 33.7999 14.355 33.7999H14.3576C14.4658 33.7999 14.5704 33.7839 14.6711 33.7605C14.7 33.7544 14.7265 33.7434 14.7542 33.736C14.8297 33.7126 14.9015 33.6844 14.9708 33.65C14.9997 33.6365 15.0274 33.623 15.0551 33.607C15.1345 33.559 15.21 33.5063 15.2768 33.4435C15.2868 33.435 15.2982 33.4288 15.307 33.419C15.3838 33.3453 15.448 33.2605 15.5047 33.1696C15.511 33.1597 15.5198 33.1523 15.5261 33.1426C15.5387 33.1204 15.5462 33.0971 15.5576 33.075C15.579 33.0319 15.6004 32.9902 15.618 32.9447C15.6331 32.9041 15.6457 32.8636 15.657 32.823C15.6684 32.7825 15.6784 32.7419 15.686 32.699C15.6936 32.6511 15.6986 32.6044 15.7011 32.5564C15.7024 32.5318 15.7087 32.5085 15.7087 32.4827V17.6199L25.5052 12.1004L28.4454 13.7567L19.3238 18.8965C18.9058 19.1324 18.6476 19.5674 18.6476 20.038V26.2419C18.6476 26.2542 18.6514 26.2652 18.6526 26.2763C18.6551 26.3807 18.6665 26.484 18.6942 26.5848C18.6954 26.5884 18.6967 26.5909 18.698 26.5933C18.7257 26.6892 18.7659 26.7801 18.8151 26.8686C18.829 26.8944 18.8453 26.9177 18.8616 26.9423C18.9045 27.0075 18.9523 27.0689 19.0065 27.1266C19.0266 27.1475 19.0443 27.1696 19.0669 27.1893C19.1437 27.2617 19.2268 27.3281 19.3238 27.3822L30.4714 33.6623C30.6804 33.7802 30.9134 33.8392 31.1476 33.8392C31.3805 33.8392 31.6147 33.7802 31.8238 33.6623C32.2418 33.4264 32.5 32.9914 32.5 32.5208V26.4496C32.5 25.8991 32.1965 25.3855 31.7067 25.1091L28.2087 23.1381L31.8238 21.1008C32.2406 20.8674 32.4987 20.4312 32.4987 19.9606ZM13.0052 30.1997L10.2022 28.6208V20.7224L13.0052 19.1435V30.1997ZM10.2022 17.6764V14.5185L19.9987 8.99903L22.8017 10.578L10.2022 17.6764ZM29.7953 27.0799V30.2378L22.701 26.2407L25.5039 24.6617L29.7953 27.0799ZM29.7953 19.2L21.3498 23.9577V20.7999L29.7953 16.0421V19.2Z" fill="white"/>
</svg>
