<svg width="92" height="30" viewBox="0 0 92 30" fill="none" xmlns="http://www.w3.org/2000/svg">
<rect width="92" height="30" rx="4" fill="#F1EDF7"/>
<path d="M19.8794 17.8595L23.6745 15.6947C23.8757 15.5797 24 15.3664 24 15.1375V10.8078C24 10.5789 23.8757 10.3657 23.6745 10.2507L19.8794 8.08583C19.6782 7.97083 19.4284 7.97195 19.2284 8.08583L15.4332 10.2507C15.2321 10.3657 15.1077 10.5789 15.1077 10.8078V18.545L12.4461 20.0623L9.78456 18.545V15.5093L12.4461 13.992L14.2013 14.9935V12.957L12.7716 12.1409C12.6733 12.0851 12.5603 12.0549 12.4461 12.0549C12.332 12.0549 12.219 12.0851 12.1207 12.1409L8.3255 14.3057C8.12432 14.4207 8 14.634 8 14.8629V19.1926C8 19.4215 8.12432 19.6347 8.3255 19.7497L12.1207 21.9146C12.3218 22.0285 12.5705 22.0285 12.7716 21.9146L16.5668 19.7497C16.768 19.6347 16.8922 19.4215 16.8922 19.1926V11.4543L16.9397 11.4275L19.5527 9.93696L22.2143 11.4543V14.49L19.5527 16.0073L17.7998 15.008V17.0445L19.2272 17.8584C19.4284 17.9723 19.6782 17.9723 19.8782 17.8584L19.8794 17.8595Z" fill="url(#paint0_linear_1804_7678)"/>
<path d="M33.792 20.098C33.6053 20.098 33.4607 20.0467 33.358 19.944C33.2647 19.832 33.218 19.6827 33.218 19.496V10.718C33.218 10.522 33.2693 10.3773 33.372 10.284C33.4747 10.1813 33.6193 10.13 33.806 10.13H37.124C38.1787 10.13 38.9907 10.3913 39.56 10.914C40.1293 11.4273 40.414 12.1553 40.414 13.098C40.414 14.0313 40.1293 14.7593 39.56 15.282C38.9907 15.8047 38.1787 16.066 37.124 16.066H34.366V19.496C34.366 19.6827 34.3193 19.832 34.226 19.944C34.1327 20.0467 33.988 20.098 33.792 20.098ZM34.366 15.1H36.984C37.74 15.1 38.3093 14.932 38.692 14.596C39.084 14.2507 39.28 13.7513 39.28 13.098C39.28 12.4353 39.084 11.936 38.692 11.6C38.3093 11.2547 37.74 11.082 36.984 11.082H34.366V15.1ZM44.4369 20.126C43.7743 20.126 43.2003 19.9813 42.7149 19.692C42.2296 19.4027 41.8516 18.9967 41.5809 18.474C41.3196 17.942 41.1889 17.3167 41.1889 16.598C41.1889 16.0567 41.2636 15.5713 41.4129 15.142C41.5623 14.7033 41.7816 14.33 42.0709 14.022C42.3603 13.714 42.7009 13.4807 43.0929 13.322C43.4943 13.154 43.9423 13.07 44.4369 13.07C45.0996 13.07 45.6736 13.2147 46.1589 13.504C46.6443 13.7933 47.0176 14.204 47.2789 14.736C47.5496 15.2587 47.6849 15.8793 47.6849 16.598C47.6849 17.1393 47.6103 17.6247 47.4609 18.054C47.3116 18.4833 47.0923 18.8567 46.8029 19.174C46.5136 19.482 46.1683 19.72 45.7669 19.888C45.3749 20.0467 44.9316 20.126 44.4369 20.126ZM44.4369 19.216C44.8569 19.216 45.2256 19.1133 45.5429 18.908C45.8603 18.7027 46.1029 18.404 46.2709 18.012C46.4483 17.62 46.5369 17.1487 46.5369 16.598C46.5369 15.7487 46.3456 15.1 45.9629 14.652C45.5896 14.204 45.0809 13.98 44.4369 13.98C44.0076 13.98 43.6343 14.0827 43.3169 14.288C43.0089 14.484 42.7663 14.778 42.5889 15.17C42.4209 15.5527 42.3369 16.0287 42.3369 16.598C42.3369 17.438 42.5283 18.0867 42.9109 18.544C43.2936 18.992 43.8023 19.216 44.4369 19.216ZM51.4602 20.126C50.7882 20.126 50.2749 19.9207 49.9202 19.51C49.5656 19.0993 49.3882 18.5113 49.3882 17.746V10.606C49.3882 10.4193 49.4349 10.2793 49.5282 10.186C49.6216 10.0833 49.7616 10.032 49.9482 10.032C50.1256 10.032 50.2656 10.0833 50.3682 10.186C50.4709 10.2793 50.5222 10.4193 50.5222 10.606V17.662C50.5222 18.166 50.6202 18.544 50.8162 18.796C51.0216 19.0387 51.3202 19.16 51.7122 19.16C51.7962 19.16 51.8709 19.1553 51.9362 19.146C52.0016 19.1367 52.0669 19.132 52.1322 19.132C52.2349 19.1227 52.3049 19.146 52.3422 19.202C52.3889 19.258 52.4122 19.37 52.4122 19.538C52.4122 19.706 52.3749 19.832 52.3002 19.916C52.2256 20 52.1042 20.056 51.9362 20.084C51.8616 20.0933 51.7822 20.1027 51.6982 20.112C51.6142 20.1213 51.5349 20.126 51.4602 20.126ZM54.8924 22.618C54.7524 22.618 54.6404 22.5807 54.5564 22.506C54.4724 22.4313 54.4211 22.3287 54.4024 22.198C54.3931 22.0767 54.4164 21.9507 54.4724 21.82L55.4384 19.65V20.14L52.7504 13.896C52.6944 13.756 52.6757 13.6253 52.6944 13.504C52.7131 13.3827 52.7691 13.2847 52.8624 13.21C52.9557 13.1353 53.0864 13.098 53.2544 13.098C53.4037 13.098 53.5204 13.1307 53.6044 13.196C53.6884 13.2613 53.7631 13.378 53.8284 13.546L56.1244 19.174H55.7464L58.0704 13.546C58.1451 13.378 58.2244 13.2613 58.3084 13.196C58.3924 13.1307 58.5137 13.098 58.6724 13.098C58.8217 13.098 58.9337 13.1353 59.0084 13.21C59.0924 13.2847 59.1391 13.3827 59.1484 13.504C59.1671 13.616 59.1484 13.742 59.0924 13.882L55.5084 22.17C55.4337 22.338 55.3497 22.4547 55.2564 22.52C55.1724 22.5853 55.0511 22.618 54.8924 22.618ZM63.4861 22.646C62.9914 22.646 62.5061 22.5853 62.0301 22.464C61.5634 22.352 61.1388 22.17 60.7561 21.918C60.6441 21.8527 60.5694 21.7733 60.5321 21.68C60.5041 21.5867 60.4994 21.4933 60.5181 21.4C60.5368 21.316 60.5788 21.2367 60.6441 21.162C60.7094 21.0967 60.7841 21.0547 60.8681 21.036C60.9614 21.0173 61.0548 21.0313 61.1481 21.078C61.5588 21.33 61.9508 21.5027 62.3241 21.596C62.6974 21.6893 63.0661 21.736 63.4301 21.736C64.0928 21.736 64.5921 21.5587 64.9281 21.204C65.2734 20.8493 65.4461 20.336 65.4461 19.664V18.082H65.5861C65.4461 18.6233 65.1474 19.0527 64.6901 19.37C64.2421 19.6873 63.7148 19.846 63.1081 19.846C62.4828 19.846 61.9414 19.706 61.4841 19.426C61.0268 19.1367 60.6721 18.7353 60.4201 18.222C60.1774 17.7087 60.0561 17.116 60.0561 16.444C60.0561 15.94 60.1261 15.4827 60.2661 15.072C60.4061 14.652 60.6068 14.2973 60.8681 14.008C61.1388 13.7093 61.4608 13.4807 61.8341 13.322C62.2168 13.154 62.6414 13.07 63.1081 13.07C63.7241 13.07 64.2561 13.2287 64.7041 13.546C65.1521 13.854 65.4414 14.274 65.5721 14.806L65.4321 14.974V13.672C65.4321 13.4853 65.4788 13.3453 65.5721 13.252C65.6748 13.1493 65.8148 13.098 65.9921 13.098C66.1788 13.098 66.3188 13.1493 66.4121 13.252C66.5054 13.3453 66.5521 13.4853 66.5521 13.672V19.51C66.5521 20.546 66.2908 21.3253 65.7681 21.848C65.2548 22.38 64.4941 22.646 63.4861 22.646ZM63.3181 18.922C63.7568 18.922 64.1348 18.824 64.4521 18.628C64.7694 18.4227 65.0121 18.1333 65.1801 17.76C65.3574 17.3867 65.4461 16.948 65.4461 16.444C65.4461 15.688 65.2548 15.0907 64.8721 14.652C64.4894 14.204 63.9714 13.98 63.3181 13.98C62.8888 13.98 62.5154 14.0827 62.1981 14.288C61.8808 14.484 61.6334 14.7687 61.4561 15.142C61.2881 15.506 61.2041 15.94 61.2041 16.444C61.2041 17.2 61.3954 17.802 61.7781 18.25C62.1608 18.698 62.6741 18.922 63.3181 18.922ZM71.5072 20.126C70.8446 20.126 70.2706 19.9813 69.7852 19.692C69.2999 19.4027 68.9219 18.9967 68.6512 18.474C68.3899 17.942 68.2592 17.3167 68.2592 16.598C68.2592 16.0567 68.3339 15.5713 68.4832 15.142C68.6326 14.7033 68.8519 14.33 69.1412 14.022C69.4306 13.714 69.7712 13.4807 70.1632 13.322C70.5646 13.154 71.0126 13.07 71.5072 13.07C72.1699 13.07 72.7439 13.2147 73.2292 13.504C73.7146 13.7933 74.0879 14.204 74.3492 14.736C74.6199 15.2587 74.7552 15.8793 74.7552 16.598C74.7552 17.1393 74.6806 17.6247 74.5312 18.054C74.3819 18.4833 74.1626 18.8567 73.8732 19.174C73.5839 19.482 73.2386 19.72 72.8372 19.888C72.4452 20.0467 72.0019 20.126 71.5072 20.126ZM71.5072 19.216C71.9272 19.216 72.2959 19.1133 72.6132 18.908C72.9306 18.7027 73.1732 18.404 73.3412 18.012C73.5186 17.62 73.6072 17.1487 73.6072 16.598C73.6072 15.7487 73.4159 15.1 73.0332 14.652C72.6599 14.204 72.1512 13.98 71.5072 13.98C71.0779 13.98 70.7046 14.0827 70.3872 14.288C70.0792 14.484 69.8366 14.778 69.6592 15.17C69.4912 15.5527 69.4072 16.0287 69.4072 16.598C69.4072 17.438 69.5986 18.0867 69.9812 18.544C70.3639 18.992 70.8726 19.216 71.5072 19.216ZM77.0185 20.098C76.8319 20.098 76.6919 20.0467 76.5985 19.944C76.5052 19.8413 76.4585 19.6967 76.4585 19.51V13.672C76.4585 13.4853 76.5052 13.3453 76.5985 13.252C76.6919 13.1493 76.8272 13.098 77.0045 13.098C77.1819 13.098 77.3172 13.1493 77.4105 13.252C77.5132 13.3453 77.5645 13.4853 77.5645 13.672V14.876L77.4105 14.708C77.6065 14.1667 77.9239 13.7607 78.3625 13.49C78.8105 13.21 79.3239 13.07 79.9025 13.07C80.4439 13.07 80.8919 13.168 81.2465 13.364C81.6105 13.56 81.8812 13.8587 82.0585 14.26C82.2359 14.652 82.3245 15.1513 82.3245 15.758V19.51C82.3245 19.6967 82.2732 19.8413 82.1705 19.944C82.0772 20.0467 81.9419 20.098 81.7645 20.098C81.5779 20.098 81.4332 20.0467 81.3305 19.944C81.2372 19.8413 81.1905 19.6967 81.1905 19.51V15.828C81.1905 15.1933 81.0645 14.7313 80.8125 14.442C80.5699 14.1433 80.1779 13.994 79.6365 13.994C79.0112 13.994 78.5119 14.19 78.1385 14.582C77.7745 14.9647 77.5925 15.478 77.5925 16.122V19.51C77.5925 19.902 77.4012 20.098 77.0185 20.098Z" fill="#0B0514"/>
<defs>
<linearGradient id="paint0_linear_1804_7678" x1="7.94801" y1="19.6168" x2="23.2178" y2="10.645" gradientUnits="userSpaceOnUse">
<stop stop-color="#A726C1"/>
<stop offset="0.88" stop-color="#803BDF"/>
<stop offset="1" stop-color="#7B3FE4"/>
</linearGradient>
</defs>
</svg>
