<svg width="40" height="40" viewBox="0 0 40 40" fill="none" xmlns="http://www.w3.org/2000/svg">
<rect width="40" height="40" rx="4" fill="black"/>
<path d="M11.86 23.664C11.628 23.812 11.35 23.932 11.026 24.024C10.702 24.116 10.364 24.162 10.012 24.162C9.276 24.162 8.716 23.972 8.332 23.592C7.952 23.208 7.762 22.704 7.762 22.08V18.642H6.352V17.664H7.762V16.248L9.106 16.086V17.664H11.242L11.092 18.642H9.106V22.068C9.106 22.408 9.19 22.662 9.358 22.83C9.53 22.994 9.81 23.076 10.198 23.076C10.43 23.076 10.644 23.048 10.84 22.992C11.036 22.936 11.214 22.864 11.374 22.776L11.86 23.664ZM14.8793 21.264C14.9073 21.696 14.9993 22.05 15.1553 22.326C15.3113 22.598 15.5153 22.798 15.7673 22.926C16.0233 23.054 16.3033 23.118 16.6073 23.118C16.9193 23.118 17.2073 23.07 17.4713 22.974C17.7353 22.878 18.0013 22.742 18.2693 22.566L18.8513 23.37C18.5553 23.61 18.2093 23.802 17.8133 23.946C17.4173 24.09 16.9933 24.162 16.5413 24.162C15.8853 24.162 15.3293 24.022 14.8733 23.742C14.4213 23.462 14.0773 23.072 13.8413 22.572C13.6053 22.072 13.4873 21.494 13.4873 20.838C13.4873 20.202 13.6033 19.634 13.8353 19.134C14.0673 18.63 14.3993 18.232 14.8313 17.94C15.2633 17.644 15.7793 17.496 16.3793 17.496C16.9433 17.496 17.4273 17.624 17.8313 17.88C18.2393 18.136 18.5533 18.5 18.7733 18.972C18.9973 19.44 19.1093 20.004 19.1093 20.664C19.1093 20.772 19.1053 20.88 19.0973 20.988C19.0933 21.092 19.0873 21.184 19.0793 21.264H14.8793ZM16.3913 18.492C15.9713 18.492 15.6233 18.642 15.3473 18.942C15.0753 19.242 14.9173 19.71 14.8733 20.346H17.8073C17.7953 19.75 17.6673 19.292 17.4233 18.972C17.1833 18.652 16.8393 18.492 16.3913 18.492ZM24.4206 17.664V23.016H26.1426V24H21.1806V23.016H23.0766V18.648H21.2406V17.664H24.4206ZM23.4846 14.562C23.7486 14.562 23.9606 14.642 24.1206 14.802C24.2846 14.962 24.3666 15.162 24.3666 15.402C24.3666 15.642 24.2846 15.844 24.1206 16.008C23.9606 16.172 23.7486 16.254 23.4846 16.254C23.2286 16.254 23.0186 16.172 22.8546 16.008C22.6906 15.844 22.6086 15.642 22.6086 15.402C22.6086 15.162 22.6906 14.962 22.8546 14.802C23.0186 14.642 23.2286 14.562 23.4846 14.562ZM32.9959 22.446C32.9959 22.694 33.0339 22.876 33.1099 22.992C33.1859 23.104 33.3079 23.188 33.4759 23.244L33.1759 24.156C32.8639 24.12 32.5959 24.034 32.3719 23.898C32.1479 23.762 31.9779 23.556 31.8619 23.28C31.6299 23.572 31.3359 23.792 30.9799 23.94C30.6239 24.088 30.2439 24.162 29.8399 24.162C29.1999 24.162 28.6919 23.982 28.3159 23.622C27.9439 23.258 27.7579 22.782 27.7579 22.194C27.7579 21.526 28.0179 21.012 28.5379 20.652C29.0579 20.292 29.8019 20.112 30.7699 20.112H31.6759V19.698C31.6759 19.29 31.5519 18.996 31.3039 18.816C31.0599 18.636 30.7139 18.546 30.2659 18.546C30.0579 18.546 29.8059 18.574 29.5099 18.63C29.2139 18.682 28.9039 18.764 28.5799 18.876L28.2499 17.928C28.6459 17.78 29.0339 17.672 29.4139 17.604C29.7939 17.532 30.1459 17.496 30.4699 17.496C31.3179 17.496 31.9499 17.684 32.3659 18.06C32.7859 18.436 32.9959 18.956 32.9959 19.62V22.446ZM30.2479 23.172C30.5199 23.172 30.7859 23.1 31.0459 22.956C31.3059 22.812 31.5159 22.61 31.6759 22.35V20.952H30.9319C30.2999 20.952 29.8479 21.058 29.5759 21.27C29.3039 21.478 29.1679 21.766 29.1679 22.134C29.1679 22.47 29.2579 22.728 29.4379 22.908C29.6219 23.084 29.8919 23.172 30.2479 23.172Z" fill="white"/>
</svg>
