<svg width="174" height="183" viewBox="0 0 174 183" fill="none" xmlns="http://www.w3.org/2000/svg">
<g filter="url(#filter0_d_1491_5556)">
<g clip-path="url(#clip0_1491_5556)">
<rect x="10" y="8" width="163" height="163" rx="8" fill="url(#paint0_linear_1491_5556)"/>
<rect x="26" y="24" width="60" height="60" rx="8" fill="#040405"/>
<path d="M48.8 41.425C49.77 41.425 50.635 41.51 51.395 41.68C52.165 41.84 52.875 42.06 53.525 42.34L52.535 44.665C52.005 44.445 51.45 44.285 50.87 44.185C50.3 44.085 49.72 44.035 49.13 44.035C48.09 44.035 47.32 44.235 46.82 44.635C46.32 45.025 46.07 45.645 46.07 46.495V49.3H51.365L51.005 51.775H46.07V64H42.725V51.775H39.125V49.3H42.725V46.465C42.725 45.465 42.975 44.59 43.475 43.84C43.985 43.08 44.695 42.49 45.605 42.07C46.515 41.64 47.58 41.425 48.8 41.425ZM55.6283 43.3H59.4833L63.4883 50.755L67.5383 43.3H71.2433L65.5133 52.81L71.8733 64H68.0183L63.4283 55.195L58.8233 64H55.1033L61.3733 52.975L55.6283 43.3Z" fill="#F70165"/>
<path d="M36.25 102.187C37.0583 102.187 37.7792 102.258 38.4125 102.4C39.0542 102.533 39.6458 102.717 40.1875 102.95L39.3625 104.887C38.9208 104.704 38.4583 104.571 37.975 104.487C37.5 104.404 37.0167 104.362 36.525 104.362C35.6583 104.362 35.0167 104.529 34.6 104.862C34.1833 105.187 33.975 105.704 33.975 106.412V108.75H38.3875L38.0875 110.812H33.975V121H31.1875V110.812H28.1875V108.75H31.1875V106.387C31.1875 105.554 31.3958 104.825 31.8125 104.2C32.2375 103.567 32.8292 103.075 33.5875 102.725C34.3458 102.367 35.2333 102.187 36.25 102.187ZM45.1652 121H42.0652L46.8027 114.037L42.5902 107.8H45.8152L48.5152 112.45L51.2152 107.8H54.2902L50.1652 113.925L54.9152 121H51.6277L48.3902 115.612L45.1652 121ZM61.0055 102.225V109.412C61.5388 108.762 62.1638 108.275 62.8805 107.95C63.5971 107.617 64.3346 107.45 65.093 107.45C66.3346 107.45 67.2596 107.796 67.868 108.487C68.4763 109.171 68.7805 110.133 68.7805 111.375V121H65.9805V111.812C65.9805 111.021 65.8305 110.454 65.5305 110.112C65.2305 109.762 64.7471 109.587 64.0805 109.587C63.6638 109.587 63.2638 109.683 62.8805 109.875C62.5055 110.058 62.1555 110.3 61.8305 110.6C61.5138 110.9 61.2388 111.221 61.0055 111.562V121H58.2055V102.525L61.0055 102.225ZM83.2832 117.762C83.2832 118.279 83.3624 118.658 83.5207 118.9C83.679 119.133 83.9332 119.308 84.2832 119.425L83.6582 121.325C83.0082 121.25 82.4499 121.071 81.9832 120.787C81.5165 120.504 81.1624 120.075 80.9207 119.5C80.4374 120.108 79.8249 120.567 79.0832 120.875C78.3415 121.183 77.5499 121.338 76.7082 121.338C75.3749 121.338 74.3165 120.963 73.5332 120.212C72.7582 119.454 72.3707 118.462 72.3707 117.237C72.3707 115.846 72.9124 114.775 73.9957 114.025C75.079 113.275 76.629 112.9 78.6457 112.9H80.5332V112.037C80.5332 111.187 80.2749 110.575 79.7582 110.2C79.2499 109.825 78.529 109.637 77.5957 109.637C77.1624 109.637 76.6374 109.696 76.0207 109.812C75.404 109.921 74.7582 110.092 74.0832 110.325L73.3957 108.35C74.2207 108.042 75.029 107.817 75.8207 107.675C76.6124 107.525 77.3457 107.45 78.0207 107.45C79.7874 107.45 81.104 107.842 81.9707 108.625C82.8457 109.408 83.2832 110.492 83.2832 111.875V117.762ZM77.5582 119.275C78.1249 119.275 78.679 119.125 79.2207 118.825C79.7624 118.525 80.1999 118.104 80.5332 117.562V114.65H78.9832C77.6665 114.65 76.7249 114.871 76.1582 115.312C75.5915 115.746 75.3082 116.346 75.3082 117.112C75.3082 117.812 75.4957 118.35 75.8707 118.725C76.254 119.092 76.8165 119.275 77.5582 119.275ZM92.9859 119.187C93.8609 119.187 94.5568 119.033 95.0734 118.725C95.5901 118.408 95.8484 117.975 95.8484 117.425C95.8484 117.067 95.7734 116.762 95.6234 116.512C95.4734 116.254 95.1734 116.021 94.7234 115.812C94.2734 115.596 93.5901 115.371 92.6734 115.137C91.8068 114.912 91.0443 114.646 90.3859 114.337C89.7359 114.029 89.2318 113.629 88.8734 113.137C88.5151 112.646 88.3359 112.012 88.3359 111.237C88.3359 110.479 88.5484 109.817 88.9734 109.25C89.3984 108.683 90.0068 108.242 90.7984 107.925C91.5984 107.608 92.5359 107.45 93.6109 107.45C94.7193 107.45 95.6859 107.596 96.5109 107.887C97.3359 108.179 98.0401 108.542 98.6234 108.975L97.4484 110.737C96.9318 110.396 96.3651 110.117 95.7484 109.9C95.1401 109.683 94.4526 109.575 93.6859 109.575C92.7943 109.575 92.1526 109.708 91.7609 109.975C91.3776 110.242 91.1859 110.596 91.1859 111.037C91.1859 111.362 91.2818 111.637 91.4734 111.862C91.6734 112.079 92.0151 112.283 92.4984 112.475C92.9818 112.658 93.6651 112.875 94.5484 113.125C95.4068 113.358 96.1526 113.633 96.7859 113.95C97.4276 114.267 97.9234 114.687 98.2734 115.212C98.6318 115.729 98.8109 116.404 98.8109 117.237C98.8109 118.187 98.5359 118.967 97.9859 119.575C97.4443 120.175 96.7276 120.621 95.8359 120.912C94.9526 121.196 94.0026 121.338 92.9859 121.338C91.7609 121.338 90.7026 121.163 89.8109 120.812C88.9193 120.454 88.1693 120.008 87.5609 119.475L89.0484 117.775C89.5651 118.192 90.1568 118.533 90.8234 118.8C91.4901 119.058 92.2109 119.187 92.9859 119.187ZM105.976 102.225V109.412C106.51 108.762 107.135 108.275 107.851 107.95C108.568 107.617 109.305 107.45 110.064 107.45C111.305 107.45 112.23 107.796 112.839 108.487C113.447 109.171 113.751 110.133 113.751 111.375V121H110.951V111.812C110.951 111.021 110.801 110.454 110.501 110.112C110.201 109.762 109.718 109.587 109.051 109.587C108.635 109.587 108.235 109.683 107.851 109.875C107.476 110.058 107.126 110.3 106.801 110.6C106.485 110.9 106.21 111.221 105.976 111.562V121H103.176V102.525L105.976 102.225Z" fill="#0B0514"/>
<path d="M31.761 140.514C32.1577 140.514 32.517 140.549 32.839 140.619C33.161 140.689 33.4667 140.787 33.756 140.913L33.378 141.788C33.14 141.685 32.888 141.608 32.622 141.557C32.356 141.506 32.0807 141.48 31.796 141.48C31.2827 141.48 30.8953 141.58 30.634 141.781C30.3773 141.982 30.249 142.29 30.249 142.705V144.203H32.748L32.622 145.127H30.249V151H29.073V145.127H27.316V144.203H29.073V142.733C29.073 142.276 29.1897 141.881 29.423 141.55C29.661 141.219 29.983 140.964 30.389 140.787C30.795 140.605 31.2523 140.514 31.761 140.514ZM36.5155 151H35.1715L37.8945 147.108L35.5075 143.629H36.9005L38.6085 146.373L40.3375 143.629H41.6815L39.3015 147.059L42.0175 151H40.5755L38.5595 147.836L36.5155 151ZM45.3721 140.549V144.637C45.6614 144.25 46.0161 143.96 46.4361 143.769C46.8607 143.573 47.2901 143.475 47.7241 143.475C48.4427 143.475 48.9677 143.666 49.2991 144.049C49.6304 144.432 49.7961 144.964 49.7961 145.645V151H48.6201V145.673C48.6201 145.23 48.5174 144.908 48.3121 144.707C48.1067 144.502 47.7847 144.399 47.3461 144.399C47.0661 144.399 46.8001 144.462 46.5481 144.588C46.2961 144.714 46.0697 144.87 45.8691 145.057C45.6684 145.244 45.5027 145.435 45.3721 145.631V151H44.1961V140.675L45.3721 140.549ZM57.8686 149.39C57.8686 149.684 57.9176 149.899 58.0156 150.034C58.1136 150.169 58.2653 150.27 58.4706 150.335L58.1836 151.161C57.8663 151.119 57.5886 151.019 57.3506 150.86C57.1126 150.697 56.9399 150.452 56.8326 150.125C56.5666 150.466 56.2353 150.725 55.8386 150.902C55.4419 151.075 55.0033 151.161 54.5226 151.161C53.7853 151.161 53.2043 150.953 52.7796 150.538C52.3549 150.123 52.1426 149.572 52.1426 148.886C52.1426 148.125 52.4389 147.542 53.0316 147.136C53.6243 146.73 54.4806 146.527 55.6006 146.527H56.6856V145.911C56.6856 145.379 56.5293 145.003 56.2166 144.784C55.9086 144.56 55.4793 144.448 54.9286 144.448C54.6859 144.448 54.4013 144.478 54.0746 144.539C53.7479 144.595 53.3933 144.691 53.0106 144.826L52.7026 143.937C53.1553 143.769 53.5799 143.65 53.9766 143.58C54.3733 143.51 54.7513 143.475 55.1106 143.475C56.0299 143.475 56.7183 143.69 57.1756 144.119C57.6376 144.544 57.8686 145.122 57.8686 145.855V149.39ZM54.8236 150.265C55.1876 150.265 55.5353 150.174 55.8666 149.992C56.1979 149.805 56.4709 149.549 56.6856 149.222V147.325H55.6216C54.8096 147.325 54.2356 147.465 53.8996 147.745C53.5683 148.025 53.4026 148.401 53.4026 148.872C53.4026 149.329 53.5193 149.677 53.7526 149.915C53.9906 150.148 54.3476 150.265 54.8236 150.265ZM63.4911 150.188C64.0558 150.188 64.5015 150.083 64.8281 149.873C65.1595 149.658 65.3251 149.374 65.3251 149.019C65.3251 148.795 65.2831 148.601 65.1991 148.438C65.1198 148.275 64.9541 148.128 64.7021 147.997C64.4501 147.866 64.0628 147.736 63.5401 147.605C63.0315 147.479 62.5881 147.334 62.2101 147.171C61.8368 147.003 61.5451 146.786 61.3351 146.52C61.1298 146.254 61.0271 145.909 61.0271 145.484C61.0271 145.069 61.1438 144.712 61.3771 144.413C61.6151 144.11 61.9441 143.879 62.3641 143.72C62.7841 143.557 63.2718 143.475 63.8271 143.475C64.4198 143.475 64.9355 143.554 65.3741 143.713C65.8175 143.867 66.1931 144.058 66.5011 144.287L65.9831 145.085C65.7031 144.894 65.3951 144.737 65.0591 144.616C64.7231 144.49 64.3171 144.427 63.8411 144.427C63.2625 144.427 62.8518 144.518 62.6091 144.7C62.3665 144.877 62.2451 145.108 62.2451 145.393C62.2451 145.608 62.3035 145.787 62.4201 145.932C62.5415 146.072 62.7445 146.2 63.0291 146.317C63.3138 146.429 63.7058 146.553 64.2051 146.688C64.6858 146.814 65.1035 146.966 65.4581 147.143C65.8175 147.32 66.0975 147.554 66.2981 147.843C66.4988 148.132 66.5991 148.506 66.5991 148.963C66.5991 149.486 66.4498 149.91 66.1511 150.237C65.8525 150.559 65.4651 150.795 64.9891 150.944C64.5178 151.089 64.0185 151.161 63.4911 151.161C62.8238 151.161 62.2545 151.065 61.7831 150.874C61.3165 150.678 60.9245 150.442 60.6071 150.167L61.2791 149.39C61.5685 149.628 61.8998 149.822 62.2731 149.971C62.6511 150.116 63.0571 150.188 63.4911 150.188ZM70.5557 140.549V144.637C70.845 144.25 71.1997 143.96 71.6197 143.769C72.0443 143.573 72.4737 143.475 72.9077 143.475C73.6263 143.475 74.1513 143.666 74.4827 144.049C74.814 144.432 74.9797 144.964 74.9797 145.645V151H73.8037V145.673C73.8037 145.23 73.701 144.908 73.4957 144.707C73.2903 144.502 72.9683 144.399 72.5297 144.399C72.2497 144.399 71.9837 144.462 71.7317 144.588C71.4797 144.714 71.2533 144.87 71.0527 145.057C70.852 145.244 70.6863 145.435 70.5557 145.631V151H69.3797V140.675L70.5557 140.549ZM79.3282 149.922C79.3282 149.693 79.3819 149.488 79.4892 149.306C79.5965 149.119 79.7412 148.972 79.9232 148.865C80.1099 148.753 80.3199 148.697 80.5532 148.697C80.7912 148.697 81.0035 148.753 81.1902 148.865C81.3769 148.972 81.5239 149.119 81.6312 149.306C81.7385 149.488 81.7922 149.693 81.7922 149.922C81.7922 150.151 81.7385 150.361 81.6312 150.552C81.5239 150.739 81.3769 150.888 81.1902 151C81.0035 151.107 80.7912 151.161 80.5532 151.161C80.3199 151.161 80.1099 151.107 79.9232 151C79.7412 150.888 79.5965 150.739 79.4892 150.552C79.3819 150.361 79.3282 150.151 79.3282 149.922ZM86.8827 151H85.5387L88.2617 147.108L85.8747 143.629H87.2677L88.9757 146.373L90.7047 143.629H92.0487L89.6687 147.059L92.3847 151H90.9427L88.9267 147.836L86.8827 151ZM100.695 143.629L98.1053 151.049C97.9326 151.548 97.7133 152.006 97.4473 152.421C97.1859 152.836 96.8429 153.179 96.4183 153.45C95.9983 153.725 95.4639 153.896 94.8153 153.961L94.6333 153.023C95.1419 152.939 95.5433 152.811 95.8373 152.638C96.1313 152.465 96.3623 152.244 96.5303 151.973C96.7029 151.702 96.8546 151.378 96.9853 151H96.5933L94.0173 143.629H95.2773L97.3913 150.104L99.4773 143.629H100.695ZM104.428 149.999H108.53L108.376 151H102.986V150.111L107.074 144.651H103.308V143.629H108.488V144.539L104.428 149.999Z" fill="#0B0514"/>
</g>
</g>
<defs>
<filter id="filter0_d_1491_5556" x="0" y="0" width="183" height="183" filterUnits="userSpaceOnUse" color-interpolation-filters="sRGB">
<feFlood flood-opacity="0" result="BackgroundImageFix"/>
<feColorMatrix in="SourceAlpha" type="matrix" values="0 0 0 0 0 0 0 0 0 0 0 0 0 0 0 0 0 0 127 0" result="hardAlpha"/>
<feOffset dy="2"/>
<feGaussianBlur stdDeviation="5"/>
<feComposite in2="hardAlpha" operator="out"/>
<feColorMatrix type="matrix" values="0 0 0 0 0 0 0 0 0 0 0 0 0 0 0 0 0 0 0.1 0"/>
<feBlend mode="normal" in2="BackgroundImageFix" result="effect1_dropShadow_1491_5556"/>
<feBlend mode="normal" in="SourceGraphic" in2="effect1_dropShadow_1491_5556" result="shape"/>
</filter>
<linearGradient id="paint0_linear_1491_5556" x1="10" y1="45.2571" x2="181.15" y2="165.761" gradientUnits="userSpaceOnUse">
<stop offset="0.0001" stop-color="#7000FF"/>
<stop offset="1" stop-color="#FF005C"/>
</linearGradient>
<clipPath id="clip0_1491_5556">
<rect x="10" y="8" width="163" height="163" rx="8" fill="white"/>
</clipPath>
</defs>
</svg>
