<svg width="40" height="40" viewBox="0 0 40 40" fill="none" xmlns="http://www.w3.org/2000/svg">
<rect width="40" height="40" rx="4" fill="black"/>
<path d="M34 20C34 12.2678 27.7322 6 20 6C12.2678 6 6 12.2678 6 20C6 27.7322 12.2678 34 20 34C27.7322 34 34 27.7322 34 20Z" fill="white"/>
<path d="M28.8926 13.1904C27.1159 11.45 24.7269 10.4768 22.2398 10.48C16.9821 10.48 12.7198 14.7423 12.7198 20C12.7198 25.2577 16.9821 29.52 22.2398 29.52C24.8291 29.52 27.1762 28.4868 28.8926 26.8096C27.8479 28.1762 26.502 29.2832 24.9596 30.0447C23.4172 30.8062 21.7199 31.2015 19.9998 31.2C13.8139 31.2 8.7998 26.1859 8.7998 20C8.7998 13.8141 13.8139 8.80005 19.9998 8.80005C23.6237 8.80005 26.8458 10.5213 28.8926 13.1904Z" fill="url(#paint0_linear_1696_112445)"/>
<path d="M15.126 25.4474C16.5473 26.8398 18.4584 27.6185 20.4481 27.616C24.6544 27.616 28.0641 24.2063 28.0641 20C28.0641 15.7937 24.6544 12.384 20.4481 12.384C18.4584 12.3815 16.5473 13.1603 15.126 14.5526C15.9617 13.4594 17.0384 12.5738 18.2723 11.9645C19.5062 11.3553 20.864 11.0389 22.2401 11.04C27.1891 11.04 31.2001 15.051 31.2001 20C31.2001 24.949 27.1891 28.96 22.2401 28.96C20.864 28.9611 19.5062 28.6448 18.2723 28.0355C17.0384 27.4263 15.9617 26.5406 15.126 25.4474Z" fill="url(#paint1_linear_1696_112445)"/>
<path fill-rule="evenodd" clip-rule="evenodd" d="M26.7203 20C26.7203 20.8825 26.5465 21.7564 26.2087 22.5717C25.871 23.387 25.376 24.1278 24.752 24.7518C24.128 25.3758 23.3872 25.8708 22.5719 26.2085C21.7566 26.5462 20.8828 26.72 20.0003 26.72C19.1178 26.72 18.2439 26.5462 17.4286 26.2085C16.6133 25.8708 15.8725 25.3758 15.2485 24.7518C14.6245 24.1278 14.1295 23.387 13.7918 22.5717C13.4541 21.7564 13.2803 20.8825 13.2803 20C13.2803 18.2178 13.9883 16.5085 15.2485 15.2483C16.5088 13.988 18.218 13.28 20.0003 13.28C21.7825 13.28 23.4918 13.988 24.752 15.2483C26.0123 16.5085 26.7203 18.2178 26.7203 20ZM24.4803 20C24.4803 21.1882 24.0083 22.3277 23.1681 23.1679C22.3279 24.008 21.1884 24.48 20.0003 24.48C18.8121 24.48 17.6726 24.008 16.8324 23.1679C15.9923 22.3277 15.5203 21.1882 15.5203 20C15.5203 18.8119 15.9923 17.6724 16.8324 16.8322C17.6726 15.992 18.8121 15.52 20.0003 15.52C21.1884 15.52 22.3279 15.992 23.1681 16.8322C24.0083 17.6724 24.4803 18.8119 24.4803 20Z" fill="url(#paint2_linear_1696_112445)"/>
<defs>
<linearGradient id="paint0_linear_1696_112445" x1="8.7998" y1="19.6136" x2="31.1998" y2="19.6136" gradientUnits="userSpaceOnUse">
<stop stop-color="#00E0FF"/>
<stop offset="1" stop-color="#562EC8"/>
</linearGradient>
<linearGradient id="paint1_linear_1696_112445" x1="8.80008" y1="19.6136" x2="31.2001" y2="19.6136" gradientUnits="userSpaceOnUse">
<stop stop-color="#00E0FF"/>
<stop offset="1" stop-color="#562EC8"/>
</linearGradient>
<linearGradient id="paint2_linear_1696_112445" x1="8.80027" y1="19.6136" x2="31.2003" y2="19.6136" gradientUnits="userSpaceOnUse">
<stop stop-color="#00E0FF"/>
<stop offset="1" stop-color="#562EC8"/>
</linearGradient>
</defs>
</svg>
