<svg width="40" height="40" viewBox="0 0 40 40" fill="none" xmlns="http://www.w3.org/2000/svg">
<rect width="40" height="40" rx="4" fill="black"/>
<path d="M26.3726 6.00024H13.6474C9.43308 6.00024 6.02051 9.41281 6.02051 13.6271V26.3523C6.02051 30.5666 9.43308 33.8147 13.6474 33.8147H26.3726C30.5869 33.8147 33.9995 30.5666 33.9995 26.3523V13.6271C34.02 9.41281 30.6074 6.00024 26.3726 6.00024Z" fill="#165366"/>
<path d="M26.3726 6.00024H13.6474C9.43308 6.00024 6.02051 9.41281 6.02051 13.6271V26.3523C6.02051 30.5666 9.43308 33.9792 13.6474 33.9792H26.3726C30.5869 33.9792 33.9995 30.5666 33.9995 26.3523V13.6271C34.02 9.41281 30.6074 6.00024 26.3726 6.00024Z" fill="url(#paint0_linear_1694_7991)"/>
<path d="M26.3726 6.00024C15.1276 6.00024 6 15.1073 6 26.3729C6 30.5872 9.41257 33.9998 13.6269 33.9998H26.3521C30.5664 33.9998 33.9789 30.5872 33.9789 26.3729V13.6271C34.0201 9.41281 30.6075 6.00024 26.3726 6.00024Z" fill="#7FD0B3"/>
<path d="M26.3726 6.00024C15.1276 6.00024 6 15.1073 6 26.3729C6 30.5872 9.41257 33.9998 13.6269 33.9998H26.3521C30.5664 33.9998 33.9789 30.5872 33.9789 26.3729V13.6271C34.0201 9.41281 30.6075 6.00024 26.3726 6.00024Z" fill="url(#paint1_linear_1694_7991)"/>
<path d="M26.3726 6.00024C15.1276 6.00024 6 15.1073 6 26.3729C6 30.5872 9.41257 33.9998 13.6269 33.9998H26.3521C30.5664 33.9998 33.9789 30.5872 33.9789 26.3729V13.6271C34.0201 9.41281 30.6075 6.00024 26.3726 6.00024Z" fill="url(#paint2_linear_1694_7991)"/>
<path d="M20.0214 28.4082C24.665 28.4082 28.4294 24.6438 28.4294 20.0001C28.4294 15.3565 24.665 11.592 20.0214 11.592C15.3777 11.592 11.6133 15.3565 11.6133 20.0001C11.6133 24.6438 15.3777 28.4082 20.0214 28.4082Z" fill="#165366"/>
<path d="M20.0195 22.7958C21.5636 22.7958 22.8153 21.544 22.8153 19.9999C22.8153 18.4558 21.5636 17.2041 20.0195 17.2041C18.4754 17.2041 17.2236 18.4558 17.2236 19.9999C17.2236 21.544 18.4754 22.7958 20.0195 22.7958Z" fill="white"/>
<defs>
<linearGradient id="paint0_linear_1694_7991" x1="5.87584" y1="28.1596" x2="34.161" y2="11.8291" gradientUnits="userSpaceOnUse">
<stop stop-color="#00273C" stop-opacity="0.7"/>
<stop offset="0.604" stop-color="#165366" stop-opacity="0"/>
</linearGradient>
<linearGradient id="paint1_linear_1694_7991" x1="7.03997" y1="30.1758" x2="35.3252" y2="13.8454" gradientUnits="userSpaceOnUse">
<stop stop-color="#00897C" stop-opacity="0.5"/>
<stop offset="0.4501" stop-color="#00897C" stop-opacity="0"/>
</linearGradient>
<linearGradient id="paint2_linear_1694_7991" x1="35.3252" y1="13.8453" x2="7.03997" y2="30.1758" gradientUnits="userSpaceOnUse">
<stop stop-color="#7FE7DE" stop-opacity="0.7"/>
<stop offset="0.5043" stop-color="#7FD0B3" stop-opacity="0"/>
</linearGradient>
</defs>
</svg>
