<svg width="40" height="40" viewBox="0 0 40 40" fill="none" xmlns="http://www.w3.org/2000/svg">
<rect width="40" height="40" rx="4" fill="black"/>
<path fill-rule="evenodd" clip-rule="evenodd" d="M19.5142 11.1372L6.37094 19.3587C6.3637 19.3633 6.35655 19.3679 6.34947 19.3726L6.33895 19.3798L6.3285 19.387L6.3183 19.3944L6.30818 19.4019L6.29815 19.4097L6.28836 19.4174L6.27866 19.4253L6.26912 19.4334L6.25974 19.4416L6.25053 19.4499L6.2414 19.4583L6.23243 19.4667L6.22363 19.4754L6.215 19.4842L6.20652 19.493L6.19822 19.502L6.18999 19.511L6.18201 19.5202L6.17412 19.5295L6.16647 19.5389L6.1589 19.5483L6.1515 19.5579L6.14435 19.5676L6.13727 19.5773L6.13036 19.5872L6.12362 19.5971L6.11704 19.6071L6.1107 19.6173L6.10445 19.6275L6.09837 19.6378L6.09253 19.6482L6.08677 19.6586L6.08126 19.6691L6.07583 19.6797L6.07065 19.6904L6.06563 19.7011L6.06078 19.7119L6.05617 19.7228L6.05165 19.7338L6.04737 19.7448L6.04318 19.7559L6.03923 19.767L6.03553 19.7782L6.03191 19.7895L6.02854 19.8008L6.02533 19.8121L6.02229 19.8236L6.01941 19.835L6.01678 19.8466L6.01431 19.8581L6.01209 19.8698L6.00995 19.8814L6.00814 19.8931L6.00642 19.9048L6.00493 19.9166L6.00362 19.9284L6.00255 19.9403L6.00164 19.9522L6.0009 19.9641L6.00041 19.976L6.00008 19.988L6 20.0001L6.00008 20.012L6.00041 20.024L6.0009 20.0359L6.00164 20.0479L6.00255 20.0598L6.00362 20.0715L6.00493 20.0834L6.00642 20.0952L6.00814 20.1069L6.00995 20.1186L6.01209 20.1302L6.01431 20.1419L6.01678 20.1535L6.01941 20.165L6.02229 20.1764L6.02533 20.1879L6.02854 20.1992L6.03191 20.2106L6.03553 20.2218L6.03923 20.233L6.04318 20.2441L6.04737 20.2552L6.05165 20.2663L6.05617 20.2772L6.06078 20.2881L6.06563 20.2989L6.07065 20.3097L6.07583 20.3203L6.08126 20.3309L6.08677 20.3414L6.09253 20.3519L6.09837 20.3622L6.10445 20.3726L6.1107 20.3827L6.11704 20.3929L6.12362 20.4029L6.13036 20.4128L6.13727 20.4227L6.14435 20.4324L6.1515 20.4421L6.1589 20.4517L6.16647 20.4612L6.17412 20.4705L6.18201 20.4798L6.18999 20.489L6.19822 20.498L6.20652 20.507L6.215 20.5158L6.22363 20.5246L6.23243 20.5332L6.2414 20.5418L6.25053 20.5501L6.25974 20.5584L6.26912 20.5666L6.27866 20.5747L6.28836 20.5826L6.29815 20.5904L6.30818 20.598L6.3183 20.6056L6.3285 20.613L6.33895 20.6202L6.34947 20.6274L6.36017 20.6344L6.37094 20.6413L19.5142 28.8628C19.8068 29.0457 20.1933 29.0457 20.4859 28.8628L33.629 20.6413L33.6399 20.6344L33.6505 20.6274L33.6611 20.6202L33.6715 20.613L33.6818 20.6056L33.6919 20.598L33.7019 20.5904L33.7117 20.5826L33.7213 20.5747L33.7309 20.5666L33.7402 20.5584L33.7495 20.5501L33.7586 20.5418L33.7675 20.5332L33.7764 20.5246L33.785 20.5158L33.7934 20.507L33.8018 20.498L33.81 20.489L33.818 20.4798L33.8259 20.4705L33.8335 20.4612L33.8411 20.4517L33.8485 20.4421L33.8557 20.4324L33.8628 20.4227L33.8696 20.4128L33.8764 20.4029L33.8829 20.3929L33.8894 20.3827L33.8955 20.3726L33.9016 20.3622L33.9076 20.3519L33.9132 20.3414L33.9188 20.3309L33.9242 20.3203L33.9293 20.3097L33.9343 20.2989L33.9392 20.2881L33.9439 20.2772L33.9484 20.2663L33.9527 20.2552L33.9568 20.2441L33.9608 20.233L33.9646 20.2218L33.9681 20.2106L33.9715 20.1992L33.9748 20.1879L33.9777 20.1764L33.9806 20.165L33.9832 20.1535L33.9857 20.1419L33.988 20.1302L33.99 20.1186L33.9919 20.1069L33.9936 20.0952L33.9951 20.0834L33.9964 20.0715L33.9975 20.0598L33.9984 20.0479L33.9991 20.0359L33.9996 20.024L33.9999 20.012L34 20.0001L33.9999 19.988L33.9996 19.976L33.9991 19.9641L33.9984 19.9522L33.9975 19.9403L33.9964 19.9284L33.9951 19.9166L33.9943 19.9108C33.9929 19.8984 33.9908 19.886 33.9886 19.8738L33.988 19.8698L33.9857 19.8581L33.9832 19.8466L33.9806 19.835L33.9777 19.8236L33.9748 19.8121L33.9715 19.8008L33.9681 19.7895L33.9646 19.7782L33.9608 19.767L33.9568 19.7559L33.9527 19.7448L33.9484 19.7338L33.9439 19.7228L33.9392 19.7119L33.9343 19.7011L33.9293 19.6904L33.9242 19.6797L33.9188 19.6691L33.9132 19.6586L33.9076 19.6482L33.9016 19.6378L33.8955 19.6275L33.8894 19.6173L33.8829 19.6071L33.8764 19.5971L33.8696 19.5872L33.8628 19.5773L33.8557 19.5676L33.8485 19.5579L33.8411 19.5483L33.8335 19.5389L33.8259 19.5295L33.818 19.5202L33.81 19.511L33.8018 19.502L33.7934 19.493L33.785 19.4842L33.7764 19.4754L33.7675 19.4667L33.7586 19.4583L33.7495 19.4499L33.7402 19.4416L33.7309 19.4334L33.7213 19.4253L33.7117 19.4174L33.7019 19.4097L33.6919 19.4019L33.6818 19.3944L33.6715 19.387L33.6611 19.3798L33.6505 19.3726L33.6399 19.3656L33.629 19.3587L20.4859 11.1372C20.1933 10.9543 19.8068 10.9543 19.5142 11.1372ZM25.0606 24.1107L20 20.9452L14.9394 24.1107L20 27.2763L25.0606 24.1107ZM26.5716 16.8345L31.6322 20.0001L26.5716 23.1656L21.511 20.0001L26.5716 16.8345ZM13.4283 16.8345L12.78 17.24L8.36776 20.0001L13.4283 23.1656L18.489 20.0001L13.4283 16.8345Z" fill="#2479FA"/>
</svg>
