<svg width="183" height="183" viewBox="0 0 183 183" fill="none" xmlns="http://www.w3.org/2000/svg">
<g filter="url(#filter0_d_1633_7632)">
<rect x="10" y="8" width="163" height="163" rx="8" fill="url(#paint0_linear_1633_7632)"/>
<rect x="26" y="24" width="60" height="60" rx="8" fill="black"/>
<g clip-path="url(#clip0_1633_7632)">
<path fill-rule="evenodd" clip-rule="evenodd" d="M55.9053 74.917C49.6499 74.9124 44.6107 73.434 41.0899 70.7785C37.5267 68.0911 35.6367 64.2773 35.6367 59.9619C35.6367 55.8039 37.5227 52.8056 39.6568 50.7789C41.3292 49.1907 43.1747 48.1736 44.4597 47.5884C44.1691 46.7099 43.8066 45.5601 43.4822 44.3723C43.0482 42.783 42.6225 40.9182 42.6225 39.5518C42.6225 37.9345 42.9804 36.31 43.9457 35.0479C44.9658 33.7144 46.5011 33 48.3483 33C49.792 33 51.0176 33.5274 51.9773 34.4373C52.8945 35.3068 53.505 36.4619 53.9264 37.666C54.667 39.7816 54.9552 42.4397 55.0363 45.0924H56.8056C56.8866 42.4397 57.1749 39.7816 57.9156 37.666C58.3371 36.4619 58.9476 35.307 59.8648 34.4373C60.8242 33.5276 62.0498 33 63.4935 33C65.3407 33 66.8762 33.7144 67.8961 35.0479C68.8615 36.31 69.2195 37.9345 69.2195 39.5518C69.2195 40.9182 68.7938 42.783 68.3596 44.3723C68.0353 45.5601 67.6727 46.7099 67.3821 47.5884C68.6672 48.1736 70.5128 49.1907 72.1852 50.7791C74.3191 52.8056 76.2053 55.8039 76.2053 59.9619C76.2053 64.2773 74.3151 68.0911 70.7521 70.7785C67.2313 73.434 62.1922 74.9124 55.9367 74.917H55.9053Z" fill="#633001"/>
<path d="M48.3479 34.5381C45.6425 34.5381 44.3969 36.5465 44.3969 39.3238C44.3969 41.5314 45.844 45.9526 46.4377 47.6737C46.5714 48.061 46.3614 48.485 45.9787 48.6351C43.8104 49.4859 37.4111 52.6006 37.4111 59.7341C37.4111 67.2483 43.9143 72.9141 55.9062 72.9229H55.9348C67.9269 72.9141 74.4297 67.2483 74.4297 59.7341C74.4297 52.6006 68.0306 49.4859 65.8623 48.6351C65.4796 48.4853 65.2696 48.061 65.4033 47.6737C65.997 45.9528 67.4441 41.5314 67.4441 39.3238C67.4441 36.5463 66.1987 34.5381 63.4931 34.5381C59.5986 34.5381 58.6279 40.027 58.5586 45.9182C58.5539 46.3114 58.2344 46.6305 57.839 46.6305H54.0018C53.6066 46.6305 53.2869 46.3114 53.2825 45.9182C53.2133 40.027 52.2424 34.5381 48.3479 34.5381Z" fill="#D1884F"/>
<path d="M55.9346 70.5162C47.1235 70.5162 37.4264 65.8233 37.4111 59.7485V59.7768C37.4111 67.2971 43.9243 72.9659 55.9346 72.9659C67.9449 72.9659 74.4581 67.2971 74.4581 59.7768V59.7485C74.4428 65.8233 64.7457 70.5162 55.9346 70.5162Z" fill="#FEDC90"/>
<path d="M51.0394 57.8826C51.0394 59.9337 50.0651 61.0018 48.8634 61.0018C47.6618 61.0018 46.6875 59.9337 46.6875 57.8826C46.6875 55.8316 47.6618 54.7634 48.8634 54.7634C50.0651 54.7634 51.0394 55.8316 51.0394 57.8826ZM65.1823 57.8826C65.1823 59.9337 64.2083 61.0018 63.0066 61.0018C61.8047 61.0018 60.8307 59.9337 60.8307 57.8826C60.8307 55.8316 61.8047 54.7634 63.0066 54.7634C64.2083 54.7634 65.1823 55.8316 65.1823 57.8826Z" fill="#633001"/>
</g>
<path d="M27.422 117V103.878H33.038C34.466 103.878 35.606 104.256 36.458 105.012C37.31 105.756 37.736 106.812 37.736 108.18C37.736 109.044 37.55 109.806 37.178 110.466C36.806 111.114 36.272 111.624 35.576 111.996C34.88 112.356 34.034 112.536 33.038 112.536L30.23 112.518V117H27.422ZM32.57 106.254H30.23V110.34L32.57 110.358C32.99 110.358 33.374 110.298 33.722 110.178C34.07 110.046 34.352 109.83 34.568 109.53C34.784 109.218 34.892 108.804 34.892 108.288C34.892 107.772 34.784 107.37 34.568 107.082C34.352 106.782 34.07 106.572 33.722 106.452C33.374 106.32 32.99 106.254 32.57 106.254ZM42.4686 117.162C41.3166 117.162 40.3866 116.748 39.6786 115.92C38.9706 115.08 38.6166 113.832 38.6166 112.176C38.6166 110.508 38.9706 109.26 39.6786 108.432C40.3866 107.592 41.3166 107.172 42.4686 107.172C43.2126 107.172 43.8486 107.34 44.3766 107.676C44.9166 108.012 45.3006 108.462 45.5286 109.026H45.6726L45.7806 107.352H48.3186V117H45.6726V115.308H45.5286C45.3006 115.86 44.9166 116.31 44.3766 116.658C43.8486 116.994 43.2126 117.162 42.4686 117.162ZM43.4766 115.02C43.9686 115.02 44.3706 114.906 44.6826 114.678C45.0066 114.45 45.2466 114.156 45.4026 113.796C45.5586 113.424 45.6366 113.034 45.6366 112.626V111.708C45.6366 111.288 45.5586 110.898 45.4026 110.538C45.2466 110.178 45.0066 109.884 44.6826 109.656C44.3706 109.428 43.9686 109.314 43.4766 109.314C42.8286 109.314 42.3066 109.548 41.9106 110.016C41.5146 110.472 41.3166 111.192 41.3166 112.176C41.3166 113.148 41.5146 113.868 41.9106 114.336C42.3066 114.792 42.8286 115.02 43.4766 115.02ZM50.5832 117V107.352H53.1212L53.2292 109.098H53.3372C53.6012 108.462 54.0092 107.982 54.5612 107.658C55.1132 107.334 55.7312 107.172 56.4152 107.172C57.0632 107.172 57.6392 107.304 58.1432 107.568C58.6592 107.832 59.0672 108.258 59.3672 108.846C59.6672 109.422 59.8172 110.196 59.8172 111.168V117H57.1712V111.744C57.1712 110.928 57.0272 110.322 56.7392 109.926C56.4512 109.53 55.9892 109.332 55.3532 109.332C54.6692 109.332 54.1412 109.566 53.7692 110.034C53.4092 110.49 53.2292 111.024 53.2292 111.636V117H50.5832ZM66.2034 117.162C65.2434 117.162 64.4034 116.958 63.6834 116.55C62.9634 116.13 62.4054 115.548 62.0094 114.804C61.6134 114.048 61.4154 113.172 61.4154 112.176C61.4154 111.168 61.6134 110.292 62.0094 109.548C62.4174 108.792 62.9874 108.21 63.7194 107.802C64.4514 107.382 65.3094 107.172 66.2934 107.172C67.1214 107.172 67.8594 107.328 68.5074 107.64C69.1554 107.952 69.6654 108.384 70.0374 108.936C70.4214 109.488 70.6314 110.13 70.6674 110.862H68.0754C67.9914 110.358 67.7814 109.98 67.4454 109.728C67.1094 109.464 66.7014 109.332 66.2214 109.332C65.5254 109.332 64.9974 109.59 64.6374 110.106C64.2774 110.622 64.0974 111.312 64.0974 112.176C64.0974 113.124 64.2894 113.832 64.6734 114.3C65.0694 114.768 65.5794 115.002 66.2034 115.002C66.7674 115.002 67.2114 114.858 67.5354 114.57C67.8714 114.282 68.0634 113.904 68.1114 113.436H70.6854C70.6494 114.192 70.4334 114.852 70.0374 115.416C69.6534 115.968 69.1314 116.4 68.4714 116.712C67.8114 117.012 67.0554 117.162 66.2034 117.162ZM75.5858 117.162C74.4338 117.162 73.5038 116.748 72.7958 115.92C72.0878 115.08 71.7338 113.832 71.7338 112.176C71.7338 110.508 72.0878 109.26 72.7958 108.432C73.5038 107.592 74.4338 107.172 75.5858 107.172C76.3298 107.172 76.9658 107.34 77.4938 107.676C78.0338 108.012 78.4178 108.462 78.6458 109.026H78.7898L78.8978 107.352H81.4358V117H78.7898V115.308H78.6458C78.4178 115.86 78.0338 116.31 77.4938 116.658C76.9658 116.994 76.3298 117.162 75.5858 117.162ZM76.5938 115.02C77.0858 115.02 77.4878 114.906 77.7998 114.678C78.1238 114.45 78.3638 114.156 78.5198 113.796C78.6758 113.424 78.7538 113.034 78.7538 112.626V111.708C78.7538 111.288 78.6758 110.898 78.5198 110.538C78.3638 110.178 78.1238 109.884 77.7998 109.656C77.4878 109.428 77.0858 109.314 76.5938 109.314C75.9458 109.314 75.4238 109.548 75.0278 110.016C74.6318 110.472 74.4338 111.192 74.4338 112.176C74.4338 113.148 74.6318 113.868 75.0278 114.336C75.4238 114.792 75.9458 115.02 76.5938 115.02ZM83.7004 117V103.878H86.3824V111.348L87.1744 110.43L90.0364 107.352H93.2944L89.5864 111.168L93.3664 117H90.2524L88.2904 113.94L87.7144 112.932L86.3824 114.246V117H83.7004ZM98.2136 117.162C97.2056 117.162 96.3416 116.958 95.6216 116.55C94.9136 116.142 94.3676 115.572 93.9836 114.84C93.5996 114.096 93.4076 113.232 93.4076 112.248C93.4076 111.204 93.5996 110.304 93.9836 109.548C94.3796 108.792 94.9316 108.21 95.6396 107.802C96.3476 107.382 97.1756 107.172 98.1236 107.172C99.2396 107.172 100.158 107.418 100.878 107.91C101.598 108.39 102.114 109.056 102.426 109.908C102.738 110.748 102.84 111.702 102.732 112.77H96.0176C96.0056 113.538 96.2036 114.132 96.6116 114.552C97.0196 114.96 97.5536 115.164 98.2136 115.164C98.7176 115.164 99.1436 115.056 99.4916 114.84C99.8516 114.612 100.08 114.312 100.176 113.94H102.678C102.594 114.588 102.348 115.152 101.94 115.632C101.544 116.112 101.028 116.49 100.392 116.766C99.7556 117.03 99.0296 117.162 98.2136 117.162ZM98.1236 109.17C97.5236 109.17 97.0376 109.344 96.6656 109.692C96.2936 110.028 96.0836 110.49 96.0356 111.078H100.14C100.104 110.43 99.8936 109.95 99.5096 109.638C99.1376 109.326 98.6756 109.17 98.1236 109.17ZM109.356 117.162C107.58 117.162 106.23 116.766 105.306 115.974C104.394 115.182 103.938 114.15 103.938 112.878H106.782C106.806 113.526 107.022 114.048 107.43 114.444C107.85 114.828 108.528 115.02 109.464 115.02C110.184 115.02 110.76 114.888 111.192 114.624C111.624 114.36 111.84 113.97 111.84 113.454C111.84 113.034 111.75 112.71 111.57 112.482C111.39 112.242 111.078 112.056 110.634 111.924C110.19 111.792 109.572 111.66 108.78 111.528C107.268 111.288 106.128 110.88 105.36 110.304C104.592 109.716 104.208 108.852 104.208 107.712C104.208 106.476 104.664 105.504 105.576 104.796C106.488 104.076 107.742 103.716 109.338 103.716C110.37 103.716 111.258 103.878 112.002 104.202C112.746 104.526 113.322 104.982 113.73 105.57C114.15 106.158 114.36 106.842 114.36 107.622H111.534C111.51 106.986 111.276 106.53 110.832 106.254C110.4 105.978 109.872 105.84 109.248 105.84C108.588 105.84 108.066 105.978 107.682 106.254C107.31 106.518 107.124 106.884 107.124 107.352C107.124 107.76 107.232 108.066 107.448 108.27C107.664 108.474 108 108.63 108.456 108.738C108.924 108.846 109.536 108.966 110.292 109.098C110.844 109.182 111.384 109.296 111.912 109.44C112.44 109.584 112.914 109.8 113.334 110.088C113.766 110.364 114.108 110.754 114.36 111.258C114.624 111.75 114.756 112.392 114.756 113.184C114.756 114.36 114.3 115.32 113.388 116.064C112.488 116.796 111.144 117.162 109.356 117.162ZM117.656 117L115.352 107.352H118.088L119.582 114.354H119.69L121.058 107.352H123.938L125.306 114.39H125.378L126.89 107.352H129.518L127.196 117H123.74L122.426 110.718H122.336L121.058 117H117.656ZM133.892 117.162C132.74 117.162 131.81 116.748 131.102 115.92C130.394 115.08 130.04 113.832 130.04 112.176C130.04 110.508 130.394 109.26 131.102 108.432C131.81 107.592 132.74 107.172 133.892 107.172C134.636 107.172 135.272 107.34 135.8 107.676C136.34 108.012 136.724 108.462 136.952 109.026H137.096L137.204 107.352H139.742V117H137.096V115.308H136.952C136.724 115.86 136.34 116.31 135.8 116.658C135.272 116.994 134.636 117.162 133.892 117.162ZM134.9 115.02C135.392 115.02 135.794 114.906 136.106 114.678C136.43 114.45 136.67 114.156 136.826 113.796C136.982 113.424 137.06 113.034 137.06 112.626V111.708C137.06 111.288 136.982 110.898 136.826 110.538C136.67 110.178 136.43 109.884 136.106 109.656C135.794 109.428 135.392 109.314 134.9 109.314C134.252 109.314 133.73 109.548 133.334 110.016C132.938 110.472 132.74 111.192 132.74 112.176C132.74 113.148 132.938 113.868 133.334 114.336C133.73 114.792 134.252 115.02 134.9 115.02ZM142.007 120.006V107.352H144.563L144.653 109.026H144.797C145.025 108.462 145.403 108.012 145.931 107.676C146.471 107.34 147.113 107.172 147.857 107.172C149.009 107.172 149.939 107.592 150.647 108.432C151.367 109.26 151.727 110.508 151.727 112.176C151.727 113.832 151.367 115.08 150.647 115.92C149.939 116.76 149.009 117.18 147.857 117.18C147.113 117.18 146.471 117.012 145.931 116.676C145.403 116.328 145.025 115.878 144.797 115.326H144.653V120.006H142.007ZM146.867 115.038C147.515 115.038 148.031 114.81 148.415 114.354C148.811 113.886 149.009 113.16 149.009 112.176C149.009 111.192 148.811 110.472 148.415 110.016C148.031 109.548 147.515 109.314 146.867 109.314C146.375 109.314 145.967 109.428 145.643 109.656C145.319 109.884 145.079 110.184 144.923 110.556C144.767 110.916 144.689 111.3 144.689 111.708V112.644C144.689 113.052 144.767 113.442 144.923 113.814C145.079 114.174 145.319 114.468 145.643 114.696C145.967 114.924 146.375 115.038 146.867 115.038Z" fill="#0B0514"/>
<path d="M27.508 148.431C27.3347 148.431 27.2047 148.383 27.118 148.288C27.0313 148.201 26.988 148.071 26.988 147.898V140.124C26.988 139.951 27.0313 139.821 27.118 139.734C27.2047 139.639 27.3303 139.591 27.495 139.591C27.6683 139.591 27.7983 139.639 27.885 139.734C27.9803 139.821 28.028 139.951 28.028 140.124V141.359L27.885 141.177C28.0237 140.683 28.2967 140.293 28.704 140.007C29.12 139.712 29.614 139.565 30.186 139.565C30.7493 139.565 31.239 139.699 31.655 139.968C32.0797 140.228 32.4047 140.605 32.63 141.099C32.864 141.584 32.981 142.165 32.981 142.841C32.981 143.508 32.864 144.089 32.63 144.583C32.4047 145.068 32.084 145.445 31.668 145.714C31.252 145.983 30.758 146.117 30.186 146.117C29.614 146.117 29.1243 145.974 28.717 145.688C28.3097 145.393 28.0323 145.003 27.885 144.518H28.041V147.898C28.041 148.071 27.9933 148.201 27.898 148.288C27.8027 148.383 27.6727 148.431 27.508 148.431ZM29.965 145.272C30.3637 145.272 30.706 145.177 30.992 144.986C31.2867 144.795 31.512 144.518 31.668 144.154C31.8327 143.79 31.915 143.352 31.915 142.841C31.915 142.052 31.7373 141.45 31.382 141.034C31.0353 140.618 30.563 140.41 29.965 140.41C29.575 140.41 29.2327 140.505 28.938 140.696C28.6433 140.878 28.4137 141.151 28.249 141.515C28.093 141.87 28.015 142.312 28.015 142.841C28.015 143.621 28.1927 144.223 28.548 144.648C28.9033 145.064 29.3757 145.272 29.965 145.272ZM36.5561 146.117C36.1228 146.117 35.7328 146.035 35.3861 145.87C35.0481 145.697 34.7794 145.463 34.5801 145.168C34.3808 144.873 34.2811 144.544 34.2811 144.18C34.2811 143.712 34.3981 143.344 34.6321 143.075C34.8748 142.806 35.2691 142.616 35.8151 142.503C36.3698 142.39 37.1238 142.334 38.0771 142.334H38.6621V143.023H38.0901C37.3881 143.023 36.8334 143.058 36.4261 143.127C36.0274 143.188 35.7458 143.296 35.5811 143.452C35.4251 143.608 35.3471 143.829 35.3471 144.115C35.3471 144.47 35.4684 144.761 35.7111 144.986C35.9624 145.211 36.3004 145.324 36.7251 145.324C37.0718 145.324 37.3751 145.242 37.6351 145.077C37.9038 144.912 38.1118 144.687 38.2591 144.401C38.4151 144.115 38.4931 143.786 38.4931 143.413V141.931C38.4931 141.394 38.3848 141.008 38.1681 140.774C37.9514 140.531 37.5961 140.41 37.1021 140.41C36.7988 140.41 36.4954 140.449 36.1921 140.527C35.8888 140.605 35.5681 140.731 35.2301 140.904C35.1088 140.965 35.0048 140.986 34.9181 140.969C34.8314 140.943 34.7621 140.895 34.7101 140.826C34.6581 140.757 34.6278 140.679 34.6191 140.592C34.6104 140.497 34.6278 140.406 34.6711 140.319C34.7231 140.232 34.8011 140.163 34.9051 140.111C35.2864 139.92 35.6634 139.782 36.0361 139.695C36.4088 139.608 36.7641 139.565 37.1021 139.565C37.6481 139.565 38.0988 139.656 38.4541 139.838C38.8094 140.011 39.0738 140.28 39.2471 140.644C39.4204 140.999 39.5071 141.459 39.5071 142.022V145.545C39.5071 145.718 39.4638 145.853 39.3771 145.948C39.2991 146.043 39.1821 146.091 39.0261 146.091C38.8614 146.091 38.7358 146.043 38.6491 145.948C38.5624 145.853 38.5191 145.718 38.5191 145.545V144.531H38.6361C38.5668 144.86 38.4324 145.142 38.2331 145.376C38.0424 145.61 37.8041 145.792 37.5181 145.922C37.2321 146.052 36.9114 146.117 36.5561 146.117ZM41.9807 146.091C41.8073 146.091 41.6773 146.043 41.5907 145.948C41.504 145.853 41.4607 145.718 41.4607 145.545V140.124C41.4607 139.951 41.504 139.821 41.5907 139.734C41.6773 139.639 41.803 139.591 41.9677 139.591C42.1323 139.591 42.258 139.639 42.3447 139.734C42.44 139.821 42.4877 139.951 42.4877 140.124V141.242L42.3447 141.086C42.5267 140.583 42.8213 140.206 43.2287 139.955C43.6447 139.695 44.1213 139.565 44.6587 139.565C45.1613 139.565 45.5773 139.656 45.9067 139.838C46.2447 140.02 46.496 140.297 46.6607 140.67C46.8253 141.034 46.9077 141.498 46.9077 142.061V145.545C46.9077 145.718 46.86 145.853 46.7647 145.948C46.678 146.043 46.5523 146.091 46.3877 146.091C46.2143 146.091 46.08 146.043 45.9847 145.948C45.898 145.853 45.8547 145.718 45.8547 145.545V142.126C45.8547 141.537 45.7377 141.108 45.5037 140.839C45.2783 140.562 44.9143 140.423 44.4117 140.423C43.831 140.423 43.3673 140.605 43.0207 140.969C42.6827 141.324 42.5137 141.801 42.5137 142.399V145.545C42.5137 145.909 42.336 146.091 41.9807 146.091ZM51.5273 146.117C50.8947 146.117 50.3487 145.978 49.8893 145.701C49.43 145.424 49.0747 145.038 48.8233 144.544C48.5807 144.041 48.4593 143.461 48.4593 142.802C48.4593 142.299 48.5287 141.849 48.6673 141.45C48.806 141.051 49.0097 140.713 49.2783 140.436C49.547 140.15 49.8677 139.933 50.2403 139.786C50.6217 139.639 51.0507 139.565 51.5273 139.565C51.8393 139.565 52.1643 139.613 52.5023 139.708C52.8403 139.803 53.148 139.968 53.4253 140.202C53.512 140.263 53.5683 140.336 53.5943 140.423C53.6203 140.51 53.6203 140.596 53.5943 140.683C53.5683 140.761 53.525 140.83 53.4643 140.891C53.4037 140.943 53.3257 140.973 53.2303 140.982C53.1437 140.991 53.0527 140.96 52.9573 140.891C52.732 140.718 52.5023 140.596 52.2683 140.527C52.0343 140.458 51.809 140.423 51.5923 140.423C51.2543 140.423 50.9597 140.479 50.7083 140.592C50.457 140.696 50.2447 140.848 50.0713 141.047C49.898 141.246 49.7637 141.493 49.6683 141.788C49.5817 142.083 49.5383 142.425 49.5383 142.815C49.5383 143.569 49.716 144.167 50.0713 144.609C50.4267 145.042 50.9337 145.259 51.5923 145.259C51.809 145.259 52.03 145.224 52.2553 145.155C52.4893 145.086 52.7233 144.964 52.9573 144.791C53.0527 144.722 53.1437 144.691 53.2303 144.7C53.317 144.709 53.3907 144.743 53.4513 144.804C53.512 144.856 53.551 144.925 53.5683 145.012C53.5943 145.099 53.5943 145.185 53.5683 145.272C53.5423 145.35 53.486 145.419 53.3993 145.48C53.122 145.705 52.8187 145.87 52.4893 145.974C52.16 146.069 51.8393 146.117 51.5273 146.117ZM56.8051 146.117C56.3718 146.117 55.9818 146.035 55.6351 145.87C55.2971 145.697 55.0285 145.463 54.8291 145.168C54.6298 144.873 54.5301 144.544 54.5301 144.18C54.5301 143.712 54.6471 143.344 54.8811 143.075C55.1238 142.806 55.5181 142.616 56.0641 142.503C56.6188 142.39 57.3728 142.334 58.3261 142.334H58.9111V143.023H58.3391C57.6371 143.023 57.0825 143.058 56.6751 143.127C56.2765 143.188 55.9948 143.296 55.8301 143.452C55.6741 143.608 55.5961 143.829 55.5961 144.115C55.5961 144.47 55.7175 144.761 55.9601 144.986C56.2115 145.211 56.5495 145.324 56.9741 145.324C57.3208 145.324 57.6241 145.242 57.8841 145.077C58.1528 144.912 58.3608 144.687 58.5081 144.401C58.6641 144.115 58.7421 143.786 58.7421 143.413V141.931C58.7421 141.394 58.6338 141.008 58.4171 140.774C58.2005 140.531 57.8451 140.41 57.3511 140.41C57.0478 140.41 56.7445 140.449 56.4411 140.527C56.1378 140.605 55.8171 140.731 55.4791 140.904C55.3578 140.965 55.2538 140.986 55.1671 140.969C55.0805 140.943 55.0111 140.895 54.9591 140.826C54.9071 140.757 54.8768 140.679 54.8681 140.592C54.8595 140.497 54.8768 140.406 54.9201 140.319C54.9721 140.232 55.0501 140.163 55.1541 140.111C55.5355 139.92 55.9125 139.782 56.2851 139.695C56.6578 139.608 57.0131 139.565 57.3511 139.565C57.8971 139.565 58.3478 139.656 58.7031 139.838C59.0585 140.011 59.3228 140.28 59.4961 140.644C59.6695 140.999 59.7561 141.459 59.7561 142.022V145.545C59.7561 145.718 59.7128 145.853 59.6261 145.948C59.5481 146.043 59.4311 146.091 59.2751 146.091C59.1105 146.091 58.9848 146.043 58.8981 145.948C58.8115 145.853 58.7681 145.718 58.7681 145.545V144.531H58.8851C58.8158 144.86 58.6815 145.142 58.4821 145.376C58.2915 145.61 58.0531 145.792 57.7671 145.922C57.4811 146.052 57.1605 146.117 56.8051 146.117ZM62.2297 146.091C62.0563 146.091 61.9263 146.043 61.8397 145.948C61.753 145.853 61.7097 145.718 61.7097 145.545V137.277C61.7097 137.104 61.753 136.974 61.8397 136.887C61.9263 136.792 62.0563 136.744 62.2297 136.744C62.3943 136.744 62.5243 136.792 62.6197 136.887C62.715 136.974 62.7627 137.104 62.7627 137.277V142.49H62.7887L65.4537 139.942C65.575 139.829 65.679 139.743 65.7657 139.682C65.861 139.621 65.9867 139.591 66.1427 139.591C66.2813 139.591 66.3897 139.63 66.4677 139.708C66.5457 139.777 66.5803 139.868 66.5717 139.981C66.5717 140.085 66.5197 140.198 66.4157 140.319L63.5817 143.01V142.438L66.6627 145.337C66.784 145.458 66.8447 145.575 66.8447 145.688C66.8447 145.801 66.8013 145.896 66.7147 145.974C66.6367 146.052 66.5327 146.091 66.4027 146.091C66.2467 146.091 66.121 146.061 66.0257 146C65.9303 145.931 65.8133 145.831 65.6747 145.701L62.7887 143.036H62.7627V145.545C62.7627 145.909 62.585 146.091 62.2297 146.091ZM70.8916 146.117C70.2243 146.117 69.648 145.987 69.1626 145.727C68.686 145.458 68.3133 145.081 68.0446 144.596C67.7846 144.111 67.6546 143.53 67.6546 142.854C67.6546 142.195 67.7846 141.623 68.0446 141.138C68.3046 140.644 68.66 140.258 69.1106 139.981C69.57 139.704 70.0986 139.565 70.6966 139.565C71.1213 139.565 71.5026 139.639 71.8406 139.786C72.1786 139.925 72.4646 140.128 72.6986 140.397C72.9413 140.666 73.1233 140.991 73.2446 141.372C73.3746 141.753 73.4396 142.182 73.4396 142.659C73.4396 142.798 73.4006 142.902 73.3226 142.971C73.2446 143.032 73.132 143.062 72.9846 143.062H68.4606V142.373H72.7376L72.5296 142.542C72.5296 142.074 72.4603 141.68 72.3216 141.359C72.183 141.03 71.9793 140.778 71.7106 140.605C71.4506 140.432 71.1213 140.345 70.7226 140.345C70.2806 140.345 69.9036 140.449 69.5916 140.657C69.2883 140.856 69.0586 141.138 68.9026 141.502C68.7466 141.857 68.6686 142.273 68.6686 142.75V142.828C68.6686 143.625 68.8593 144.232 69.2406 144.648C69.6306 145.064 70.181 145.272 70.8916 145.272C71.1863 145.272 71.4766 145.233 71.7626 145.155C72.0573 145.077 72.3433 144.947 72.6206 144.765C72.742 144.687 72.8503 144.652 72.9456 144.661C73.0496 144.661 73.132 144.691 73.1926 144.752C73.2533 144.804 73.2923 144.873 73.3096 144.96C73.3356 145.038 73.327 145.125 73.2836 145.22C73.249 145.315 73.1753 145.398 73.0626 145.467C72.7766 145.675 72.4386 145.835 72.0486 145.948C71.6586 146.061 71.273 146.117 70.8916 146.117ZM77.0956 146.117C76.7056 146.117 76.3113 146.069 75.9126 145.974C75.5226 145.879 75.1586 145.714 74.8206 145.48C74.7339 145.419 74.6733 145.35 74.6386 145.272C74.6039 145.185 74.5909 145.103 74.5996 145.025C74.6169 144.938 74.6516 144.865 74.7036 144.804C74.7643 144.743 74.8336 144.709 74.9116 144.7C74.9983 144.683 75.0936 144.7 75.1976 144.752C75.5356 144.96 75.8606 145.107 76.1726 145.194C76.4933 145.272 76.8096 145.311 77.1216 145.311C77.6156 145.311 77.9883 145.22 78.2396 145.038C78.4909 144.856 78.6166 144.609 78.6166 144.297C78.6166 144.054 78.5343 143.864 78.3696 143.725C78.2049 143.578 77.9449 143.465 77.5896 143.387L76.4066 143.127C75.8606 143.014 75.4533 142.819 75.1846 142.542C74.9246 142.265 74.7946 141.905 74.7946 141.463C74.7946 141.073 74.8943 140.739 75.0936 140.462C75.3016 140.176 75.5919 139.955 75.9646 139.799C76.3373 139.643 76.7706 139.565 77.2646 139.565C77.6459 139.565 78.0056 139.617 78.3436 139.721C78.6903 139.816 79.0023 139.972 79.2796 140.189C79.3663 140.25 79.4226 140.323 79.4486 140.41C79.4833 140.488 79.4876 140.57 79.4616 140.657C79.4443 140.735 79.4053 140.804 79.3446 140.865C79.2839 140.917 79.2103 140.947 79.1236 140.956C79.0369 140.965 78.9459 140.939 78.8506 140.878C78.5906 140.705 78.3263 140.579 78.0576 140.501C77.7889 140.414 77.5246 140.371 77.2646 140.371C76.7793 140.371 76.4109 140.466 76.1596 140.657C75.9083 140.848 75.7826 141.099 75.7826 141.411C75.7826 141.654 75.8606 141.853 76.0166 142.009C76.1726 142.165 76.4153 142.278 76.7446 142.347L77.9276 142.594C78.4909 142.715 78.9113 142.91 79.1886 143.179C79.4746 143.439 79.6176 143.794 79.6176 144.245C79.6176 144.817 79.3879 145.272 78.9286 145.61C78.4693 145.948 77.8583 146.117 77.0956 146.117ZM83.2794 146.091C83.1321 146.091 83.0021 146.052 82.8894 145.974C82.7768 145.896 82.6858 145.77 82.6164 145.597L80.6794 140.332C80.6274 140.185 80.6101 140.055 80.6274 139.942C80.6534 139.829 80.7098 139.743 80.7964 139.682C80.8831 139.621 80.9914 139.591 81.1214 139.591C81.2514 139.591 81.3554 139.621 81.4334 139.682C81.5201 139.743 81.5894 139.855 81.6414 140.02L83.4614 145.22H83.1494L85.0214 140.02C85.0821 139.864 85.1558 139.756 85.2424 139.695C85.3378 139.626 85.4591 139.591 85.6064 139.591C85.7451 139.591 85.8621 139.626 85.9574 139.695C86.0528 139.764 86.1264 139.873 86.1784 140.02L88.0114 145.22H87.7124L89.5584 139.994C89.6191 139.838 89.6928 139.734 89.7794 139.682C89.8661 139.621 89.9701 139.591 90.0914 139.591C90.2301 139.591 90.3341 139.626 90.4034 139.695C90.4814 139.764 90.5248 139.855 90.5334 139.968C90.5421 140.081 90.5204 140.202 90.4684 140.332L88.5314 145.597C88.4708 145.762 88.3798 145.887 88.2584 145.974C88.1458 146.052 88.0158 146.091 87.8684 146.091C87.7211 146.091 87.5911 146.052 87.4784 145.974C87.3658 145.887 87.2791 145.762 87.2184 145.597L85.2944 140.319H85.8534L83.9424 145.597C83.8818 145.762 83.7951 145.887 83.6824 145.974C83.5698 146.052 83.4354 146.091 83.2794 146.091ZM93.8881 146.117C93.4548 146.117 93.0648 146.035 92.7181 145.87C92.3801 145.697 92.1115 145.463 91.9121 145.168C91.7128 144.873 91.6131 144.544 91.6131 144.18C91.6131 143.712 91.7301 143.344 91.9641 143.075C92.2068 142.806 92.6011 142.616 93.1471 142.503C93.7018 142.39 94.4558 142.334 95.4091 142.334H95.9941V143.023H95.4221C94.7201 143.023 94.1655 143.058 93.7581 143.127C93.3595 143.188 93.0778 143.296 92.9131 143.452C92.7571 143.608 92.6791 143.829 92.6791 144.115C92.6791 144.47 92.8005 144.761 93.0431 144.986C93.2945 145.211 93.6325 145.324 94.0571 145.324C94.4038 145.324 94.7071 145.242 94.9671 145.077C95.2358 144.912 95.4438 144.687 95.5911 144.401C95.7471 144.115 95.8251 143.786 95.8251 143.413V141.931C95.8251 141.394 95.7168 141.008 95.5001 140.774C95.2835 140.531 94.9281 140.41 94.4341 140.41C94.1308 140.41 93.8275 140.449 93.5241 140.527C93.2208 140.605 92.9001 140.731 92.5621 140.904C92.4408 140.965 92.3368 140.986 92.2501 140.969C92.1635 140.943 92.0941 140.895 92.0421 140.826C91.9901 140.757 91.9598 140.679 91.9511 140.592C91.9425 140.497 91.9598 140.406 92.0031 140.319C92.0551 140.232 92.1331 140.163 92.2371 140.111C92.6185 139.92 92.9955 139.782 93.3681 139.695C93.7408 139.608 94.0961 139.565 94.4341 139.565C94.9801 139.565 95.4308 139.656 95.7861 139.838C96.1415 140.011 96.4058 140.28 96.5791 140.644C96.7525 140.999 96.8391 141.459 96.8391 142.022V145.545C96.8391 145.718 96.7958 145.853 96.7091 145.948C96.6311 146.043 96.5141 146.091 96.3581 146.091C96.1935 146.091 96.0678 146.043 95.9811 145.948C95.8945 145.853 95.8511 145.718 95.8511 145.545V144.531H95.9681C95.8988 144.86 95.7645 145.142 95.5651 145.376C95.3745 145.61 95.1361 145.792 94.8501 145.922C94.5641 146.052 94.2435 146.117 93.8881 146.117ZM99.3127 148.431C99.1394 148.431 99.0094 148.383 98.9227 148.288C98.836 148.201 98.7927 148.071 98.7927 147.898V140.124C98.7927 139.951 98.836 139.821 98.9227 139.734C99.0094 139.639 99.135 139.591 99.2997 139.591C99.473 139.591 99.603 139.639 99.6897 139.734C99.785 139.821 99.8327 139.951 99.8327 140.124V141.359L99.6897 141.177C99.8284 140.683 100.101 140.293 100.509 140.007C100.925 139.712 101.419 139.565 101.991 139.565C102.554 139.565 103.044 139.699 103.46 139.968C103.884 140.228 104.209 140.605 104.435 141.099C104.669 141.584 104.786 142.165 104.786 142.841C104.786 143.508 104.669 144.089 104.435 144.583C104.209 145.068 103.889 145.445 103.473 145.714C103.057 145.983 102.563 146.117 101.991 146.117C101.419 146.117 100.929 145.974 100.522 145.688C100.114 145.393 99.837 145.003 99.6897 144.518H99.8457V147.898C99.8457 148.071 99.798 148.201 99.7027 148.288C99.6074 148.383 99.4774 148.431 99.3127 148.431ZM101.77 145.272C102.168 145.272 102.511 145.177 102.797 144.986C103.091 144.795 103.317 144.518 103.473 144.154C103.637 143.79 103.72 143.352 103.72 142.841C103.72 142.052 103.542 141.45 103.187 141.034C102.84 140.618 102.368 140.41 101.77 140.41C101.38 140.41 101.037 140.505 100.743 140.696C100.448 140.878 100.218 141.151 100.054 141.515C99.8977 141.87 99.8197 142.312 99.8197 142.841C99.8197 143.621 99.9974 144.223 100.353 144.648C100.708 145.064 101.18 145.272 101.77 145.272ZM106.587 146.052C106.37 146.052 106.197 145.987 106.067 145.857C105.937 145.718 105.872 145.545 105.872 145.337C105.872 145.129 105.937 144.96 106.067 144.83C106.197 144.691 106.37 144.622 106.587 144.622C106.803 144.622 106.972 144.691 107.094 144.83C107.224 144.96 107.289 145.129 107.289 145.337C107.289 145.545 107.224 145.718 107.094 145.857C106.972 145.987 106.803 146.052 106.587 146.052ZM109.642 146.091C109.477 146.091 109.347 146.043 109.252 145.948C109.165 145.853 109.122 145.718 109.122 145.545V140.501H108.29C108.151 140.501 108.039 140.466 107.952 140.397C107.874 140.319 107.835 140.215 107.835 140.085C107.835 139.955 107.874 139.855 107.952 139.786C108.039 139.717 108.151 139.682 108.29 139.682H109.408L109.122 139.955V139.461C109.122 138.646 109.317 138.022 109.707 137.589C110.106 137.156 110.691 136.909 111.462 136.848L111.852 136.809C111.982 136.8 112.086 136.822 112.164 136.874C112.242 136.917 112.29 136.978 112.307 137.056C112.333 137.134 112.337 137.216 112.32 137.303C112.303 137.39 112.264 137.463 112.203 137.524C112.151 137.585 112.086 137.619 112.008 137.628L111.618 137.654C111.107 137.689 110.738 137.849 110.513 138.135C110.288 138.412 110.175 138.811 110.175 139.331V139.877L110.019 139.682H113.555C113.72 139.682 113.845 139.73 113.932 139.825C114.027 139.92 114.075 140.059 114.075 140.241V145.493C114.075 145.675 114.032 145.818 113.945 145.922C113.858 146.017 113.728 146.065 113.555 146.065C113.382 146.065 113.247 146.017 113.152 145.922C113.065 145.818 113.022 145.675 113.022 145.493V140.501H110.175V145.545C110.175 145.909 109.997 146.091 109.642 146.091ZM113.568 138.161C113.351 138.161 113.182 138.105 113.061 137.992C112.948 137.871 112.892 137.71 112.892 137.511C112.892 137.303 112.948 137.147 113.061 137.043C113.182 136.93 113.351 136.874 113.568 136.874C113.785 136.874 113.949 136.93 114.062 137.043C114.183 137.147 114.244 137.303 114.244 137.511C114.244 137.71 114.183 137.871 114.062 137.992C113.949 138.105 113.785 138.161 113.568 138.161ZM116.566 146.091C116.392 146.091 116.262 146.043 116.176 145.948C116.089 145.853 116.046 145.718 116.046 145.545V140.124C116.046 139.951 116.089 139.821 116.176 139.734C116.262 139.639 116.388 139.591 116.553 139.591C116.717 139.591 116.843 139.639 116.93 139.734C117.025 139.821 117.073 139.951 117.073 140.124V141.242L116.93 141.086C117.112 140.583 117.406 140.206 117.814 139.955C118.23 139.695 118.706 139.565 119.244 139.565C119.746 139.565 120.162 139.656 120.492 139.838C120.83 140.02 121.081 140.297 121.246 140.67C121.41 141.034 121.493 141.498 121.493 142.061V145.545C121.493 145.718 121.445 145.853 121.35 145.948C121.263 146.043 121.137 146.091 120.973 146.091C120.799 146.091 120.665 146.043 120.57 145.948C120.483 145.853 120.44 145.718 120.44 145.545V142.126C120.44 141.537 120.323 141.108 120.089 140.839C119.863 140.562 119.499 140.423 118.997 140.423C118.416 140.423 117.952 140.605 117.606 140.969C117.268 141.324 117.099 141.801 117.099 142.399V145.545C117.099 145.909 116.921 146.091 116.566 146.091ZM125.423 146.117C124.99 146.117 124.6 146.035 124.253 145.87C123.915 145.697 123.647 145.463 123.447 145.168C123.248 144.873 123.148 144.544 123.148 144.18C123.148 143.712 123.265 143.344 123.499 143.075C123.742 142.806 124.136 142.616 124.682 142.503C125.237 142.39 125.991 142.334 126.944 142.334H127.529V143.023H126.957C126.255 143.023 125.701 143.058 125.293 143.127C124.895 143.188 124.613 143.296 124.448 143.452C124.292 143.608 124.214 143.829 124.214 144.115C124.214 144.47 124.336 144.761 124.578 144.986C124.83 145.211 125.168 145.324 125.592 145.324C125.939 145.324 126.242 145.242 126.502 145.077C126.771 144.912 126.979 144.687 127.126 144.401C127.282 144.115 127.36 143.786 127.36 143.413V141.931C127.36 141.394 127.252 141.008 127.035 140.774C126.819 140.531 126.463 140.41 125.969 140.41C125.666 140.41 125.363 140.449 125.059 140.527C124.756 140.605 124.435 140.731 124.097 140.904C123.976 140.965 123.872 140.986 123.785 140.969C123.699 140.943 123.629 140.895 123.577 140.826C123.525 140.757 123.495 140.679 123.486 140.592C123.478 140.497 123.495 140.406 123.538 140.319C123.59 140.232 123.668 140.163 123.772 140.111C124.154 139.92 124.531 139.782 124.903 139.695C125.276 139.608 125.631 139.565 125.969 139.565C126.515 139.565 126.966 139.656 127.321 139.838C127.677 140.011 127.941 140.28 128.114 140.644C128.288 140.999 128.374 141.459 128.374 142.022V145.545C128.374 145.718 128.331 145.853 128.244 145.948C128.166 146.043 128.049 146.091 127.893 146.091C127.729 146.091 127.603 146.043 127.516 145.948C127.43 145.853 127.386 145.718 127.386 145.545V144.531H127.503C127.434 144.86 127.3 145.142 127.1 145.376C126.91 145.61 126.671 145.792 126.385 145.922C126.099 146.052 125.779 146.117 125.423 146.117ZM130.848 146.091C130.675 146.091 130.545 146.043 130.458 145.948C130.371 145.853 130.328 145.718 130.328 145.545V140.124C130.328 139.951 130.371 139.821 130.458 139.734C130.545 139.639 130.67 139.591 130.835 139.591C131 139.591 131.125 139.639 131.212 139.734C131.307 139.821 131.355 139.951 131.355 140.124V141.242L131.212 141.086C131.394 140.583 131.689 140.206 132.096 139.955C132.512 139.695 132.989 139.565 133.526 139.565C134.029 139.565 134.445 139.656 134.774 139.838C135.112 140.02 135.363 140.297 135.528 140.67C135.693 141.034 135.775 141.498 135.775 142.061V145.545C135.775 145.718 135.727 145.853 135.632 145.948C135.545 146.043 135.42 146.091 135.255 146.091C135.082 146.091 134.947 146.043 134.852 145.948C134.765 145.853 134.722 145.718 134.722 145.545V142.126C134.722 141.537 134.605 141.108 134.371 140.839C134.146 140.562 133.782 140.423 133.279 140.423C132.698 140.423 132.235 140.605 131.888 140.969C131.55 141.324 131.381 141.801 131.381 142.399V145.545C131.381 145.909 131.203 146.091 130.848 146.091ZM140.395 146.117C139.762 146.117 139.216 145.978 138.757 145.701C138.297 145.424 137.942 145.038 137.691 144.544C137.448 144.041 137.327 143.461 137.327 142.802C137.327 142.299 137.396 141.849 137.535 141.45C137.673 141.051 137.877 140.713 138.146 140.436C138.414 140.15 138.735 139.933 139.108 139.786C139.489 139.639 139.918 139.565 140.395 139.565C140.707 139.565 141.032 139.613 141.37 139.708C141.708 139.803 142.015 139.968 142.293 140.202C142.379 140.263 142.436 140.336 142.462 140.423C142.488 140.51 142.488 140.596 142.462 140.683C142.436 140.761 142.392 140.83 142.332 140.891C142.271 140.943 142.193 140.973 142.098 140.982C142.011 140.991 141.92 140.96 141.825 140.891C141.599 140.718 141.37 140.596 141.136 140.527C140.902 140.458 140.676 140.423 140.46 140.423C140.122 140.423 139.827 140.479 139.576 140.592C139.324 140.696 139.112 140.848 138.939 141.047C138.765 141.246 138.631 141.493 138.536 141.788C138.449 142.083 138.406 142.425 138.406 142.815C138.406 143.569 138.583 144.167 138.939 144.609C139.294 145.042 139.801 145.259 140.46 145.259C140.676 145.259 140.897 145.224 141.123 145.155C141.357 145.086 141.591 144.964 141.825 144.791C141.92 144.722 142.011 144.691 142.098 144.7C142.184 144.709 142.258 144.743 142.319 144.804C142.379 144.856 142.418 144.925 142.436 145.012C142.462 145.099 142.462 145.185 142.436 145.272C142.41 145.35 142.353 145.419 142.267 145.48C141.989 145.705 141.686 145.87 141.357 145.974C141.027 146.069 140.707 146.117 140.395 146.117ZM146.454 146.117C145.787 146.117 145.21 145.987 144.725 145.727C144.248 145.458 143.876 145.081 143.607 144.596C143.347 144.111 143.217 143.53 143.217 142.854C143.217 142.195 143.347 141.623 143.607 141.138C143.867 140.644 144.222 140.258 144.673 139.981C145.132 139.704 145.661 139.565 146.259 139.565C146.684 139.565 147.065 139.639 147.403 139.786C147.741 139.925 148.027 140.128 148.261 140.397C148.504 140.666 148.686 140.991 148.807 141.372C148.937 141.753 149.002 142.182 149.002 142.659C149.002 142.798 148.963 142.902 148.885 142.971C148.807 143.032 148.694 143.062 148.547 143.062H144.023V142.373H148.3L148.092 142.542C148.092 142.074 148.023 141.68 147.884 141.359C147.745 141.03 147.542 140.778 147.273 140.605C147.013 140.432 146.684 140.345 146.285 140.345C145.843 140.345 145.466 140.449 145.154 140.657C144.851 140.856 144.621 141.138 144.465 141.502C144.309 141.857 144.231 142.273 144.231 142.75V142.828C144.231 143.625 144.422 144.232 144.803 144.648C145.193 145.064 145.743 145.272 146.454 145.272C146.749 145.272 147.039 145.233 147.325 145.155C147.62 145.077 147.906 144.947 148.183 144.765C148.304 144.687 148.413 144.652 148.508 144.661C148.612 144.661 148.694 144.691 148.755 144.752C148.816 144.804 148.855 144.873 148.872 144.96C148.898 145.038 148.889 145.125 148.846 145.22C148.811 145.315 148.738 145.398 148.625 145.467C148.339 145.675 148.001 145.835 147.611 145.948C147.221 146.061 146.835 146.117 146.454 146.117Z" fill="#0B0514"/>
</g>
<defs>
<filter id="filter0_d_1633_7632" x="0" y="0" width="183" height="183" filterUnits="userSpaceOnUse" color-interpolation-filters="sRGB">
<feFlood flood-opacity="0" result="BackgroundImageFix"/>
<feColorMatrix in="SourceAlpha" type="matrix" values="0 0 0 0 0 0 0 0 0 0 0 0 0 0 0 0 0 0 127 0" result="hardAlpha"/>
<feOffset dy="2"/>
<feGaussianBlur stdDeviation="5"/>
<feComposite in2="hardAlpha" operator="out"/>
<feColorMatrix type="matrix" values="0 0 0 0 0 0 0 0 0 0 0 0 0 0 0 0 0 0 0.1 0"/>
<feBlend mode="normal" in2="BackgroundImageFix" result="effect1_dropShadow_1633_7632"/>
<feBlend mode="normal" in="SourceGraphic" in2="effect1_dropShadow_1633_7632" result="shape"/>
</filter>
<linearGradient id="paint0_linear_1633_7632" x1="10" y1="45.2571" x2="181.15" y2="165.761" gradientUnits="userSpaceOnUse">
<stop stop-color="#1FC7D4"/>
<stop offset="1" stop-color="#7947CF"/>
</linearGradient>
<clipPath id="clip0_1633_7632">
<rect width="42" height="42" fill="white" transform="translate(35 33)"/>
</clipPath>
</defs>
</svg>
