<svg width="183" height="183" viewBox="0 0 183 183" fill="none" xmlns="http://www.w3.org/2000/svg">
<g filter="url(#filter0_d_1633_7630)">
<rect x="10" y="8" width="163" height="163" rx="8" fill="url(#paint0_linear_1633_7630)"/>
<rect x="26" y="24" width="60" height="60" rx="8" fill="black"/>
<path d="M76 54C76 42.954 67.046 34 56 34C44.954 34 36 42.954 36 54C36 65.046 44.954 74 56 74C67.046 74 76 65.046 76 54Z" fill="white"/>
<path d="M68.704 44.272C66.1658 41.7857 62.753 40.3953 59.2 40.4C51.689 40.4 45.6 46.489 45.6 54C45.6 61.511 51.689 67.6 59.2 67.6C62.899 67.6 66.252 66.124 68.704 63.728C67.2115 65.6801 65.2888 67.2617 63.0854 68.3495C60.882 69.4373 58.4573 70.0021 56 70C47.163 70 40 62.837 40 54C40 45.163 47.163 38 56 38C61.177 38 65.78 40.459 68.704 44.272Z" fill="url(#paint1_linear_1633_7630)"/>
<path d="M49.0371 61.782C51.0675 63.7711 53.7977 64.8835 56.6401 64.88C62.6491 64.88 67.5201 60.009 67.5201 54C67.5201 47.991 62.6491 43.12 56.6401 43.12C53.7977 43.1164 51.0675 44.2288 49.0371 46.218C50.2311 44.6562 51.7692 43.391 53.5319 42.5207C55.2946 41.6503 57.2343 41.1984 59.2001 41.2C66.2701 41.2 72.0001 46.93 72.0001 54C72.0001 61.07 66.2701 66.8 59.2001 66.8C57.2343 66.8015 55.2946 66.3496 53.5319 65.4792C51.7692 64.6089 50.2311 63.3437 49.0371 61.782Z" fill="url(#paint2_linear_1633_7630)"/>
<path fill-rule="evenodd" clip-rule="evenodd" d="M65.6004 53.9999C65.6004 55.2606 65.3521 56.5089 64.8696 57.6737C64.3872 58.8384 63.6801 59.8967 62.7886 60.7881C61.8972 61.6796 60.8389 62.3867 59.6742 62.8691C58.5094 63.3516 57.2611 63.5999 56.0004 63.5999C54.7397 63.5999 53.4914 63.3516 52.3266 62.8691C51.1619 62.3867 50.1036 61.6796 49.2122 60.7881C48.3207 59.8967 47.6136 58.8384 47.1311 57.6737C46.6487 56.5089 46.4004 55.2606 46.4004 53.9999C46.4004 51.4538 47.4118 49.012 49.2122 47.2117C51.0125 45.4113 53.4543 44.3999 56.0004 44.3999C58.5465 44.3999 60.9883 45.4113 62.7886 47.2117C64.589 49.012 65.6004 51.4538 65.6004 53.9999ZM62.4004 53.9999C62.4004 55.6973 61.7261 57.3252 60.5259 58.5254C59.3256 59.7256 57.6978 60.3999 56.0004 60.3999C54.303 60.3999 52.6751 59.7256 51.4749 58.5254C50.2747 57.3252 49.6004 55.6973 49.6004 53.9999C49.6004 52.3025 50.2747 50.6747 51.4749 49.4744C52.6751 48.2742 54.303 47.5999 56.0004 47.5999C57.6978 47.5999 59.3256 48.2742 60.5259 49.4744C61.7261 50.6747 62.4004 52.3025 62.4004 53.9999Z" fill="url(#paint3_linear_1633_7630)"/>
<path d="M37.316 120L34.027 115.055L31.129 120H26.667L31.842 111.789L26.552 103.854H31.129L34.372 108.73L37.224 103.854H41.686L36.557 111.996L41.893 120H37.316ZM43.3384 116.849C43.8597 116.435 44.0974 116.243 44.0514 116.274C45.5541 115.032 46.7347 114.012 47.5934 113.215C48.4674 112.418 49.2034 111.582 49.8014 110.708C50.3994 109.834 50.6984 108.983 50.6984 108.155C50.6984 107.526 50.5527 107.036 50.2614 106.683C49.9701 106.33 49.5331 106.154 48.9504 106.154C48.3677 106.154 47.9077 106.376 47.5704 106.821C47.2484 107.25 47.0874 107.864 47.0874 108.661H43.2924C43.3231 107.358 43.5991 106.269 44.1204 105.395C44.6571 104.521 45.3547 103.877 46.2134 103.463C47.0874 103.049 48.0534 102.842 49.1114 102.842C50.9361 102.842 52.3084 103.31 53.2284 104.245C54.1637 105.18 54.6314 106.399 54.6314 107.902C54.6314 109.543 54.0717 111.068 52.9524 112.479C51.8331 113.874 50.4071 115.239 48.6744 116.573H54.8844V119.77H43.3384V116.849ZM70.8531 103.854L65.2641 114.664V120H61.3311V114.664L55.7421 103.854H60.2041L63.3321 110.616L66.4371 103.854H70.8531ZM71.9087 116.849C72.4301 116.435 72.6677 116.243 72.6217 116.274C74.1244 115.032 75.3051 114.012 76.1637 113.215C77.0377 112.418 77.7737 111.582 78.3717 110.708C78.9697 109.834 79.2687 108.983 79.2687 108.155C79.2687 107.526 79.1231 107.036 78.8317 106.683C78.5404 106.33 78.1034 106.154 77.5207 106.154C76.9381 106.154 76.4781 106.376 76.1407 106.821C75.8187 107.25 75.6577 107.864 75.6577 108.661H71.8627C71.8934 107.358 72.1694 106.269 72.6907 105.395C73.2274 104.521 73.9251 103.877 74.7837 103.463C75.6577 103.049 76.6237 102.842 77.6817 102.842C79.5064 102.842 80.8787 103.31 81.7987 104.245C82.7341 105.18 83.2017 106.399 83.2017 107.902C83.2017 109.543 82.6421 111.068 81.5227 112.479C80.4034 113.874 78.9774 115.239 77.2447 116.573H83.4547V119.77H71.9087V116.849Z" fill="#0B0514"/>
<path d="M27.092 150.084C26.9707 150.084 26.8633 150.047 26.77 149.972C26.6767 149.897 26.6253 149.799 26.616 149.678C26.616 149.547 26.6767 149.412 26.798 149.272L29.248 146.192V146.78L26.952 143.91C26.8307 143.761 26.77 143.625 26.77 143.504C26.7793 143.383 26.8307 143.285 26.924 143.21C27.0173 143.135 27.1247 143.098 27.246 143.098C27.386 143.098 27.5027 143.126 27.596 143.182C27.6987 143.229 27.792 143.308 27.876 143.42L29.878 145.954H29.486L31.502 143.42C31.586 143.308 31.6747 143.229 31.768 143.182C31.8613 143.126 31.978 143.098 32.118 143.098C32.2487 143.098 32.356 143.135 32.44 143.21C32.5333 143.285 32.58 143.387 32.58 143.518C32.5893 143.639 32.5333 143.775 32.412 143.924L30.13 146.752V146.234L32.58 149.272C32.692 149.412 32.7433 149.547 32.734 149.678C32.734 149.799 32.6873 149.897 32.594 149.972C32.5007 150.047 32.3887 150.084 32.258 150.084C32.1273 150.084 32.0107 150.056 31.908 150C31.8147 149.953 31.7213 149.874 31.628 149.762L29.472 147.046H29.878L27.722 149.762C27.638 149.865 27.5447 149.944 27.442 150C27.3487 150.056 27.232 150.084 27.092 150.084ZM35.1615 150C34.9561 150 34.8021 149.953 34.6995 149.86C34.6061 149.757 34.5595 149.622 34.5595 149.454C34.5595 149.351 34.5828 149.253 34.6295 149.16C34.6855 149.057 34.7601 148.955 34.8535 148.852L37.9895 145.492C38.4655 144.979 38.8061 144.507 39.0115 144.078C39.2261 143.639 39.3335 143.196 39.3335 142.748C39.3335 142.188 39.1608 141.763 38.8155 141.474C38.4795 141.175 37.9848 141.026 37.3315 141.026C36.9115 141.026 36.5148 141.091 36.1415 141.222C35.7681 141.353 35.4088 141.553 35.0635 141.824C34.9421 141.917 34.8301 141.959 34.7275 141.95C34.6341 141.941 34.5501 141.903 34.4755 141.838C34.4008 141.773 34.3495 141.689 34.3215 141.586C34.2935 141.483 34.2935 141.381 34.3215 141.278C34.3588 141.175 34.4335 141.082 34.5455 140.998C34.9095 140.699 35.3481 140.461 35.8615 140.284C36.3748 140.097 36.8975 140.004 37.4295 140.004C38.0921 140.004 38.6521 140.107 39.1095 140.312C39.5668 140.517 39.9121 140.821 40.1455 141.222C40.3788 141.614 40.4955 142.095 40.4955 142.664C40.4955 143.056 40.4301 143.443 40.2995 143.826C40.1781 144.199 39.9868 144.582 39.7255 144.974C39.4735 145.366 39.1421 145.772 38.7315 146.192L35.7495 149.342V149.02H40.4675C40.6448 149.02 40.7755 149.062 40.8595 149.146C40.9528 149.221 40.9995 149.337 40.9995 149.496C40.9995 149.664 40.9528 149.79 40.8595 149.874C40.7755 149.958 40.6448 150 40.4675 150H35.1615ZM44.326 152.618C44.186 152.618 44.074 152.581 43.99 152.506C43.906 152.431 43.8547 152.329 43.836 152.198C43.8267 152.077 43.85 151.951 43.906 151.82L44.872 149.65V150.14L42.184 143.896C42.128 143.756 42.1093 143.625 42.128 143.504C42.1467 143.383 42.2027 143.285 42.296 143.21C42.3893 143.135 42.52 143.098 42.688 143.098C42.8373 143.098 42.954 143.131 43.038 143.196C43.122 143.261 43.1967 143.378 43.262 143.546L45.558 149.174H45.18L47.504 143.546C47.5787 143.378 47.658 143.261 47.742 143.196C47.826 143.131 47.9473 143.098 48.106 143.098C48.2553 143.098 48.3673 143.135 48.442 143.21C48.526 143.285 48.5727 143.383 48.582 143.504C48.6007 143.616 48.582 143.742 48.526 143.882L44.942 152.17C44.8673 152.338 44.7833 152.455 44.69 152.52C44.606 152.585 44.4847 152.618 44.326 152.618ZM50.7474 150C50.5421 150 50.3881 149.953 50.2854 149.86C50.1921 149.757 50.1454 149.622 50.1454 149.454C50.1454 149.351 50.1687 149.253 50.2154 149.16C50.2714 149.057 50.3461 148.955 50.4394 148.852L53.5754 145.492C54.0514 144.979 54.3921 144.507 54.5974 144.078C54.8121 143.639 54.9194 143.196 54.9194 142.748C54.9194 142.188 54.7467 141.763 54.4014 141.474C54.0654 141.175 53.5707 141.026 52.9174 141.026C52.4974 141.026 52.1007 141.091 51.7274 141.222C51.3541 141.353 50.9947 141.553 50.6494 141.824C50.5281 141.917 50.4161 141.959 50.3134 141.95C50.2201 141.941 50.1361 141.903 50.0614 141.838C49.9867 141.773 49.9354 141.689 49.9074 141.586C49.8794 141.483 49.8794 141.381 49.9074 141.278C49.9447 141.175 50.0194 141.082 50.1314 140.998C50.4954 140.699 50.9341 140.461 51.4474 140.284C51.9607 140.097 52.4834 140.004 53.0154 140.004C53.6781 140.004 54.2381 140.107 54.6954 140.312C55.1527 140.517 55.4981 140.821 55.7314 141.222C55.9647 141.614 56.0814 142.095 56.0814 142.664C56.0814 143.056 56.0161 143.443 55.8854 143.826C55.7641 144.199 55.5727 144.582 55.3114 144.974C55.0594 145.366 54.7281 145.772 54.3174 146.192L51.3354 149.342V149.02H56.0534C56.2307 149.02 56.3614 149.062 56.4454 149.146C56.5387 149.221 56.5854 149.337 56.5854 149.496C56.5854 149.664 56.5387 149.79 56.4454 149.874C56.3614 149.958 56.2307 150 56.0534 150H50.7474ZM58.9459 150.056C58.7126 150.056 58.5259 149.986 58.3859 149.846C58.2459 149.697 58.1759 149.51 58.1759 149.286C58.1759 149.062 58.2459 148.88 58.3859 148.74C58.5259 148.591 58.7126 148.516 58.9459 148.516C59.1793 148.516 59.3613 148.591 59.4919 148.74C59.6319 148.88 59.7019 149.062 59.7019 149.286C59.7019 149.51 59.6319 149.697 59.4919 149.846C59.3613 149.986 59.1793 150.056 58.9459 150.056ZM62.1455 150.07C61.9588 150.07 61.8188 150.019 61.7255 149.916C61.6322 149.804 61.5855 149.65 61.5855 149.454V143.728C61.5855 143.532 61.6322 143.383 61.7255 143.28C61.8188 143.177 61.9588 143.126 62.1455 143.126C62.3228 143.126 62.4628 143.177 62.5655 143.28C62.6682 143.383 62.7195 143.532 62.7195 143.728V149.454C62.7195 149.65 62.6682 149.804 62.5655 149.916C62.4722 150.019 62.3322 150.07 62.1455 150.07ZM62.1455 141.558C61.9122 141.558 61.7302 141.497 61.5995 141.376C61.4688 141.245 61.4035 141.073 61.4035 140.858C61.4035 140.634 61.4688 140.466 61.5995 140.354C61.7302 140.233 61.9122 140.172 62.1455 140.172C62.3882 140.172 62.5702 140.233 62.6915 140.354C62.8222 140.466 62.8875 140.634 62.8875 140.858C62.8875 141.073 62.8222 141.245 62.6915 141.376C62.5702 141.497 62.3882 141.558 62.1455 141.558ZM67.6674 150.126C67.0047 150.126 66.4307 149.981 65.9454 149.692C65.4601 149.403 65.0821 148.997 64.8114 148.474C64.5501 147.942 64.4194 147.317 64.4194 146.598C64.4194 146.057 64.4941 145.571 64.6434 145.142C64.7927 144.703 65.0121 144.33 65.3014 144.022C65.5907 143.714 65.9314 143.481 66.3234 143.322C66.7247 143.154 67.1727 143.07 67.6674 143.07C68.3301 143.07 68.9041 143.215 69.3894 143.504C69.8747 143.793 70.2481 144.204 70.5094 144.736C70.7801 145.259 70.9154 145.879 70.9154 146.598C70.9154 147.139 70.8407 147.625 70.6914 148.054C70.5421 148.483 70.3227 148.857 70.0334 149.174C69.7441 149.482 69.3987 149.72 68.9974 149.888C68.6054 150.047 68.1621 150.126 67.6674 150.126ZM67.6674 149.216C68.0874 149.216 68.4561 149.113 68.7734 148.908C69.0907 148.703 69.3334 148.404 69.5014 148.012C69.6787 147.62 69.7674 147.149 69.7674 146.598C69.7674 145.749 69.5761 145.1 69.1934 144.652C68.8201 144.204 68.3114 143.98 67.6674 143.98C67.2381 143.98 66.8647 144.083 66.5474 144.288C66.2394 144.484 65.9967 144.778 65.8194 145.17C65.6514 145.553 65.5674 146.029 65.5674 146.598C65.5674 147.438 65.7587 148.087 66.1414 148.544C66.5241 148.992 67.0327 149.216 67.6674 149.216Z" fill="#0B0514"/>
</g>
<defs>
<filter id="filter0_d_1633_7630" x="0" y="0" width="183" height="183" filterUnits="userSpaceOnUse" color-interpolation-filters="sRGB">
<feFlood flood-opacity="0" result="BackgroundImageFix"/>
<feColorMatrix in="SourceAlpha" type="matrix" values="0 0 0 0 0 0 0 0 0 0 0 0 0 0 0 0 0 0 127 0" result="hardAlpha"/>
<feOffset dy="2"/>
<feGaussianBlur stdDeviation="5"/>
<feComposite in2="hardAlpha" operator="out"/>
<feColorMatrix type="matrix" values="0 0 0 0 0 0 0 0 0 0 0 0 0 0 0 0 0 0 0.1 0"/>
<feBlend mode="normal" in2="BackgroundImageFix" result="effect1_dropShadow_1633_7630"/>
<feBlend mode="normal" in="SourceGraphic" in2="effect1_dropShadow_1633_7630" result="shape"/>
</filter>
<linearGradient id="paint0_linear_1633_7630" x1="10" y1="45.2571" x2="173" y2="171" gradientUnits="userSpaceOnUse">
<stop stop-color="#0BCBF9"/>
<stop offset="1" stop-color="#4F3ECD"/>
</linearGradient>
<linearGradient id="paint1_linear_1633_7630" x1="40" y1="53.448" x2="72" y2="53.448" gradientUnits="userSpaceOnUse">
<stop stop-color="#00E0FF"/>
<stop offset="1" stop-color="#562EC8"/>
</linearGradient>
<linearGradient id="paint2_linear_1633_7630" x1="40.0001" y1="53.448" x2="72.0001" y2="53.448" gradientUnits="userSpaceOnUse">
<stop stop-color="#00E0FF"/>
<stop offset="1" stop-color="#562EC8"/>
</linearGradient>
<linearGradient id="paint3_linear_1633_7630" x1="40.0004" y1="53.4479" x2="72.0004" y2="53.4479" gradientUnits="userSpaceOnUse">
<stop stop-color="#00E0FF"/>
<stop offset="1" stop-color="#562EC8"/>
</linearGradient>
</defs>
</svg>
