<svg width="40" height="40" viewBox="0 0 40 40" fill="none" xmlns="http://www.w3.org/2000/svg">
<rect width="40" height="40" rx="4" fill="#04B586"/>
<path d="M20.2494 37.0798L20.0024 37.1877L19.727 37.0698C6.82083 31.4492 8.03012 21.9182 8.03012 21.9182C8.04994 21.398 8.12947 20.8817 8.26715 20.3796C8.31257 20.215 8.35941 20.0475 8.40909 19.8758C8.8647 18.4394 9.67374 16.8142 10.6616 15.1607C10.7539 15.0102 10.8433 14.8569 10.937 14.7065C14.4797 8.91549 20.0024 2.81226 20.0024 2.81226C20.0024 2.81226 22.1612 5.19252 24.6423 8.39175C24.7459 8.53368 24.8523 8.66426 24.9602 8.80336C25.9765 10.1276 27.0367 11.581 28.0132 13.0487C28.1098 13.1906 28.2105 13.3453 28.2971 13.4929C29.168 14.8044 29.955 16.1697 30.6532 17.5807C30.7356 17.7496 30.8136 17.9142 30.886 18.0789C31.5332 19.5067 31.9378 20.8239 31.9662 21.9111C31.9718 21.9182 33.1854 31.4648 20.2494 37.0798Z" fill="white"/>
<path d="M24.9608 8.80346C24.8529 8.66152 24.7465 8.5281 24.6429 8.39185L21.9872 11.0517C21.7489 10.8877 21.4625 10.8083 21.1738 10.8261C20.885 10.8439 20.6106 10.9579 20.3942 11.1499C20.1778 11.342 20.032 11.6009 19.98 11.8855C19.9281 12.1701 19.9729 12.4639 20.1075 12.72C20.242 12.9761 20.4584 13.1798 20.7222 13.2985C20.9861 13.4172 21.282 13.4442 21.563 13.375C21.8439 13.3058 22.0935 13.1445 22.272 12.9169C22.4505 12.6893 22.5477 12.4084 22.5479 12.1191C22.548 11.874 22.4775 11.634 22.3449 11.4278L24.9608 8.80346ZM21.2534 12.8898C21.1001 12.8895 20.9503 12.8437 20.823 12.7583C20.6957 12.6728 20.5966 12.5515 20.5382 12.4097C20.4799 12.2679 20.4649 12.112 20.4952 11.9617C20.5255 11.8114 20.5997 11.6735 20.7084 11.5653C20.8171 11.4572 20.9555 11.3838 21.1059 11.3543C21.2564 11.3248 21.4123 11.3407 21.5537 11.3998C21.6952 11.4589 21.816 11.5587 21.9007 11.6865C21.9855 11.8143 22.0304 11.9643 22.0298 12.1177C22.0296 12.2194 22.0094 12.32 21.9703 12.4139C21.9311 12.5078 21.8739 12.593 21.8018 12.6647C21.7296 12.7364 21.6441 12.7932 21.55 12.8319C21.4559 12.8705 21.3551 12.8902 21.2534 12.8898Z" fill="#04B586"/>
<path d="M28.2974 13.4931C28.2052 13.3512 28.1044 13.1964 28.0135 13.0488L24.6923 16.5674C24.4639 16.3782 24.1769 16.2743 23.8804 16.2736C23.6246 16.2736 23.3746 16.3494 23.1618 16.4914C22.9491 16.6334 22.7832 16.8352 22.685 17.0714C22.5869 17.3076 22.5609 17.5676 22.6104 17.8185C22.6599 18.0695 22.7826 18.3001 22.9631 18.4814C23.1435 18.6626 23.3737 18.7864 23.6244 18.8369C23.8751 18.8875 24.1352 18.8627 24.3718 18.7656C24.6085 18.6685 24.811 18.5035 24.9539 18.2913C25.0968 18.0792 25.1737 17.8295 25.1748 17.5737C25.1743 17.3658 25.1216 17.1613 25.0215 16.979L28.2974 13.4931ZM23.8747 18.343C23.7215 18.3427 23.5719 18.2971 23.4447 18.2118C23.3175 18.1266 23.2184 18.0055 23.1599 17.864C23.1014 17.7224 23.0862 17.5667 23.1161 17.4165C23.1461 17.2663 23.2198 17.1284 23.3281 17.0201C23.4364 16.9118 23.5744 16.838 23.7246 16.8081C23.8748 16.7781 24.0305 16.7933 24.172 16.8518C24.3136 16.9103 24.4346 17.0094 24.5199 17.1366C24.6052 17.2639 24.6508 17.4135 24.6511 17.5666C24.6515 17.7717 24.5706 17.9685 24.4261 18.114C24.2817 18.2596 24.0854 18.3419 23.8804 18.343H23.8747Z" fill="#04B586"/>
<path d="M26.737 22.2333L30.9 18.0817C30.8276 17.917 30.7495 17.7524 30.6672 17.5835L26.3793 21.8572C26.2634 21.7751 26.1349 21.7123 25.9989 21.6712C25.8336 21.6178 25.6592 21.5983 25.4861 21.6137C25.313 21.6291 25.1449 21.6793 24.9916 21.7611C24.8383 21.8429 24.703 21.9547 24.5939 22.0899C24.4848 22.2251 24.4039 22.3809 24.3563 22.548C24.3086 22.7151 24.2951 22.8901 24.3165 23.0625C24.3379 23.2349 24.3938 23.4013 24.4809 23.5516C24.5679 23.702 24.6844 23.8333 24.8232 23.9377C24.9621 24.0421 25.1206 24.1175 25.2892 24.1594C25.4053 24.1942 25.5258 24.2118 25.6469 24.2119C25.9282 24.2098 26.2013 24.1171 26.4258 23.9476C26.6502 23.7781 26.8141 23.5408 26.8931 23.2709C26.9395 23.1074 26.9533 22.9364 26.9335 22.7676C26.9138 22.5988 26.861 22.4356 26.7781 22.2872C26.754 22.2688 26.737 22.2574 26.737 22.2333ZM26.3864 23.1275C26.3619 23.2291 26.3171 23.3246 26.2547 23.4084C26.1923 23.4922 26.1136 23.5626 26.0233 23.6152C25.933 23.6678 25.833 23.7016 25.7294 23.7146C25.6257 23.7275 25.5205 23.7194 25.42 23.6907C25.3195 23.662 25.2259 23.6132 25.1448 23.5474C25.0637 23.4815 24.9967 23.4 24.9479 23.3076C24.8991 23.2152 24.8694 23.1139 24.8608 23.0098C24.8521 22.9057 24.8646 22.8009 24.8975 22.7017C24.9247 22.6035 24.9712 22.5118 25.0343 22.4318C25.0975 22.3519 25.1759 22.2854 25.2651 22.2361C25.3802 22.1725 25.5097 22.1392 25.6412 22.1396C25.7139 22.1399 25.7861 22.1509 25.8556 22.1723C25.9523 22.2003 26.0424 22.2474 26.1206 22.3108C26.1989 22.3741 26.2637 22.4525 26.3112 22.5413C26.3606 22.6297 26.392 22.727 26.4037 22.8276C26.4154 22.9282 26.4071 23.0301 26.3793 23.1275H26.3864Z" fill="#04B586"/>
<path d="M16.1593 18.6935C15.9958 18.3947 15.7205 18.1729 15.3938 18.0769C15.067 17.9808 14.7155 18.0183 14.4163 18.1811L10.9375 14.6995C10.8395 14.8499 10.7544 15.0032 10.6621 15.1608L14.016 18.5104C13.8827 18.6772 13.7927 18.8742 13.7539 19.0841C13.715 19.294 13.7287 19.5103 13.7936 19.7136C13.8585 19.917 13.9726 20.1012 14.1258 20.2498C14.279 20.3985 14.4666 20.507 14.6718 20.5657C14.7883 20.5982 14.9086 20.6149 15.0295 20.6153C15.2494 20.6161 15.4656 20.5594 15.6568 20.4507C15.8063 20.3695 15.938 20.2592 16.0443 20.1264C16.1505 19.9935 16.2292 19.8408 16.2757 19.6771C16.3219 19.5136 16.3355 19.3425 16.3155 19.1737C16.2955 19.005 16.2424 18.8418 16.1593 18.6935ZM15.7732 19.5352C15.7155 19.7322 15.5823 19.8984 15.4025 19.9976C15.2228 20.0968 15.0112 20.1209 14.8137 20.0646C14.6913 20.0295 14.5794 19.9646 14.488 19.8759C14.3966 19.7872 14.3284 19.6773 14.2896 19.556C14.2508 19.4347 14.2424 19.3056 14.2654 19.1803C14.2883 19.055 14.3418 18.9373 14.421 18.8375C14.5003 18.7378 14.603 18.6592 14.7199 18.6086C14.8368 18.558 14.9644 18.537 15.0913 18.5474C15.2183 18.5579 15.3407 18.5995 15.4478 18.6685C15.5548 18.7376 15.6432 18.832 15.7051 18.9433C15.805 19.1239 15.8295 19.3367 15.7732 19.5352Z" fill="#04B586"/>
<path d="M12.047 24.2444C11.8761 24.4437 11.7708 24.6909 11.7454 24.9522C11.72 25.2136 11.7757 25.4764 11.905 25.7049C12.0184 25.9068 12.1832 26.0751 12.3826 26.1927C12.582 26.3104 12.809 26.3732 13.0405 26.3748C13.2596 26.3729 13.4748 26.3163 13.6665 26.2102C13.8901 26.0856 14.0718 25.8976 14.1887 25.6699C14.3055 25.4421 14.3524 25.1849 14.3232 24.9306C14.294 24.6763 14.1902 24.4363 14.0249 24.2409C13.8595 24.0455 13.6399 23.9035 13.3939 23.8328C13.0826 23.743 12.7487 23.775 12.46 23.9222L8.41342 19.8713C8.35948 20.0431 8.31265 20.2106 8.27148 20.3752M13.7828 25.2862C13.7558 25.3844 13.7092 25.4762 13.6458 25.556C13.5824 25.6358 13.5035 25.7019 13.4138 25.7503C13.3249 25.8006 13.2269 25.8325 13.1255 25.8442C13.0241 25.8559 12.9213 25.8471 12.8234 25.8184C12.6261 25.7611 12.4597 25.6279 12.3605 25.448C12.2613 25.2682 12.2373 25.0564 12.2939 24.859C12.3387 24.6957 12.4359 24.5517 12.5706 24.4492C12.7052 24.3466 12.8698 24.2911 13.0391 24.2912C13.1115 24.2917 13.1835 24.3012 13.2534 24.3196C13.3521 24.3482 13.444 24.3962 13.524 24.4606C13.6039 24.5251 13.6702 24.6048 13.7191 24.6952C13.768 24.7855 13.7984 24.8846 13.8086 24.9868C13.8188 25.089 13.8086 25.1922 13.7786 25.2904L13.7828 25.2862Z" fill="#04B586"/>
<path d="M21.1444 26.9968C20.9776 26.6957 20.6981 26.4731 20.3672 26.3781C20.0363 26.283 19.6813 26.3233 19.3801 26.4901C19.079 26.6569 18.8564 26.9364 18.7614 27.2673C18.6663 27.5982 18.7066 27.9532 18.8734 28.2544C18.9554 28.4038 19.0663 28.5354 19.1995 28.6416C19.3328 28.7479 19.4859 28.8266 19.6498 28.8732C19.6753 28.8732 19.6995 28.8732 19.7208 28.8874V37.07L19.9961 37.1878L20.2431 37.0799V28.8973C20.4447 28.8596 20.6344 28.7745 20.7968 28.6491C20.9591 28.5237 21.0893 28.3616 21.1767 28.176C21.2642 27.9905 21.3063 27.7868 21.2997 27.5818C21.2931 27.3768 21.2379 27.1763 21.1387 26.9968H21.1444ZM20.7583 27.8385C20.708 28.0193 20.5938 28.1757 20.4368 28.2787C20.2799 28.3816 20.0909 28.4241 19.905 28.3983C19.7191 28.3725 19.5489 28.28 19.426 28.1382C19.3031 27.9963 19.2359 27.8147 19.2368 27.627C19.2364 27.4873 19.2734 27.35 19.3441 27.2294C19.4147 27.1089 19.5163 27.0094 19.6384 26.9415C19.7541 26.8791 19.8832 26.846 20.0146 26.8449C20.1353 26.8445 20.2545 26.8723 20.3626 26.926C20.4707 26.9797 20.5648 27.0579 20.6374 27.1544C20.71 27.2508 20.7592 27.3629 20.7809 27.4816C20.8026 27.6004 20.7963 27.7226 20.7626 27.8385H20.7583Z" fill="#04B586"/>
</svg>
