<svg width="40" height="40" viewBox="0 0 40 40" fill="none" xmlns="http://www.w3.org/2000/svg">
<rect width="40" height="40" rx="4" fill="black"/>
<path d="M9.99 23.1C9.57667 23.1 9.2 23 8.86 22.8C8.52667 22.5933 8.26333 22.3067 8.07 21.94C7.87667 21.5733 7.78 21.15 7.78 20.67C7.78 20.21 7.87667 19.7967 8.07 19.43C8.26333 19.0633 8.52667 18.7733 8.86 18.56C9.2 18.3467 9.57667 18.24 9.99 18.24C10.41 18.24 10.7867 18.3467 11.12 18.56C11.46 18.7733 11.7267 19.0633 11.92 19.43C12.12 19.7967 12.22 20.21 12.22 20.67C12.22 21.15 12.12 21.5733 11.92 21.94C11.7267 22.3067 11.46 22.5933 11.12 22.8C10.7867 23 10.41 23.1 9.99 23.1ZM9.99 22.2C10.21 22.2 10.4 22.1367 10.56 22.01C10.72 21.8767 10.8467 21.6967 10.94 21.47C11.04 21.2367 11.09 20.97 11.09 20.67C11.09 20.3567 11.04 20.0867 10.94 19.86C10.8467 19.6333 10.72 19.46 10.56 19.34C10.4 19.2133 10.21 19.15 9.99 19.15C9.79 19.15 9.60667 19.2133 9.44 19.34C9.28 19.46 9.15 19.6333 9.05 19.86C8.95667 20.0867 8.91 20.3567 8.91 20.67C8.91 20.97 8.95667 21.2367 9.05 21.47C9.14333 21.6967 9.27 21.8767 9.43 22.01C9.59667 22.1367 9.78333 22.2 9.99 22.2ZM15.29 23.12C15.1233 23.12 14.9633 23.0967 14.81 23.05C14.6567 23.0033 14.5133 22.9333 14.38 22.84C14.2533 22.74 14.1367 22.6233 14.03 22.49L13.84 23H12.98V16.29H14.11H14.21V16.38C14.17 16.42 14.1433 16.4633 14.13 16.51C14.1233 16.5567 14.12 16.6367 14.12 16.75V18.87C14.1933 18.7767 14.2733 18.69 14.36 18.61C14.4467 18.53 14.5433 18.4633 14.65 18.41C14.7567 18.35 14.8667 18.3067 14.98 18.28C15.1 18.2533 15.22 18.24 15.34 18.24C15.6267 18.24 15.8833 18.29 16.11 18.39C16.3433 18.49 16.54 18.64 16.7 18.84C16.8667 19.0333 16.9933 19.2767 17.08 19.57C17.1733 19.8633 17.22 20.2067 17.22 20.6C17.22 21.0267 17.1667 21.4 17.06 21.72C16.96 22.0333 16.82 22.2933 16.64 22.5C16.46 22.7067 16.2533 22.8633 16.02 22.97C15.7933 23.07 15.55 23.12 15.29 23.12ZM15.06 22.24C15.2 22.24 15.3333 22.2133 15.46 22.16C15.5867 22.1 15.6967 22.01 15.79 21.89C15.8833 21.77 15.9567 21.6133 16.01 21.42C16.0633 21.22 16.09 20.98 16.09 20.7C16.09 20.4467 16.0667 20.22 16.02 20.02C15.9733 19.82 15.9067 19.6533 15.82 19.52C15.7333 19.38 15.6267 19.2733 15.5 19.2C15.38 19.1267 15.24 19.09 15.08 19.09C14.8867 19.09 14.7167 19.1533 14.57 19.28C14.43 19.4 14.3233 19.5767 14.25 19.81C14.1767 20.0433 14.1367 20.3233 14.13 20.65C14.13 20.9033 14.1467 21.13 14.18 21.33C14.22 21.5233 14.2767 21.69 14.35 21.83C14.43 21.9633 14.5267 22.0667 14.64 22.14C14.76 22.2067 14.9 22.24 15.06 22.24ZM19.41 24.76C19.0967 24.76 18.81 24.7 18.55 24.58C18.29 24.46 18.0567 24.2833 17.85 24.05L18.46 23.23L18.52 23.16L18.6 23.21C18.6133 23.2633 18.6267 23.3167 18.64 23.37C18.6533 23.4233 18.6967 23.4933 18.77 23.58C18.85 23.6533 18.94 23.71 19.04 23.75C19.1467 23.7967 19.27 23.82 19.41 23.82C19.5767 23.82 19.7167 23.7833 19.83 23.71C19.9433 23.6367 20.0267 23.5233 20.08 23.37C20.1333 23.2233 20.16 23.0367 20.16 22.81V19.24H18.54V18.35H21.31V22.71C21.31 23.1967 21.22 23.59 21.04 23.89C20.86 24.1967 20.6267 24.4167 20.34 24.55C20.0533 24.69 19.7433 24.76 19.41 24.76ZM20.66 17.58C20.4667 17.58 20.3 17.5133 20.16 17.38C20.02 17.2467 19.95 17.0867 19.95 16.9C19.95 16.7 20.0167 16.5367 20.15 16.41C20.2833 16.2833 20.4533 16.22 20.66 16.22C20.8467 16.22 21.01 16.2867 21.15 16.42C21.2967 16.5533 21.37 16.7133 21.37 16.9C21.37 17.0867 21.2967 17.2467 21.15 17.38C21.01 17.5133 20.8467 17.58 20.66 17.58ZM24.54 20.89L24.17 21.26V23H23.02V16.29H24.16H24.25V16.38C24.2167 16.42 24.1933 16.4633 24.18 16.51C24.1733 16.5567 24.17 16.6367 24.17 16.75V20.03L25.95 18.31C26.0033 18.3167 26.06 18.3267 26.12 18.34C26.18 18.3467 26.24 18.3533 26.3 18.36C26.36 18.3667 26.42 18.3733 26.48 18.38C26.54 18.38 26.59 18.38 26.63 18.38H27.17L25.32 20.19L27.42 22.99L26.13 23.04L24.54 20.89ZM30.49 23.1C30.2233 23.1 29.99 23.0567 29.79 22.97C29.5967 22.8833 29.4333 22.7433 29.3 22.55C29.1733 22.3567 29.08 22.1 29.02 21.78C28.9667 21.46 28.95 21.0633 28.97 20.59L29.1 17.25L30.27 17.1L30.36 17.09L30.37 17.18C30.3433 17.2267 30.3167 17.2733 30.29 17.32C30.2633 17.3667 30.2467 17.4467 30.24 17.56L30.13 18.94L30.18 19.01L30.1 20.57C30.08 21.0033 30.0933 21.34 30.14 21.58C30.1933 21.8133 30.27 21.9733 30.37 22.06C30.4767 22.1467 30.6033 22.19 30.75 22.19C30.9633 22.19 31.1533 22.1467 31.32 22.06C31.4933 21.9733 31.6533 21.8733 31.8 21.76L32.04 22.58C31.8133 22.7467 31.57 22.8767 31.31 22.97C31.0567 23.0567 30.7833 23.1 30.49 23.1ZM28.09 18.35H31.67L31.66 19.24H28.07L28.09 18.35Z" fill="white"/>
</svg>
