<svg width="40" height="40" viewBox="0 0 40 40" fill="none" xmlns="http://www.w3.org/2000/svg">
<rect width="40" height="40" rx="4" fill="black"/>
<g clip-path="url(#clip0_1696_113556)">
<path d="M20.1181 6.56054C12.6026 6.49782 6.49831 12.6021 6.56103 20.1176C6.62375 27.4158 12.5869 33.3789 19.8829 33.4394C27.3983 33.5044 33.5049 27.3979 33.4399 19.8824C33.3794 12.5864 27.4163 6.62326 20.1181 6.56054Z" fill="#2081E2"/>
<path d="M16.3337 13.739C17.1236 14.7428 17.5968 16.0121 17.5968 17.3905C17.5968 18.5836 17.2429 19.6946 16.6341 20.6223H12.3555L16.334 13.7393L16.3337 13.739Z" fill="white"/>
<path d="M29.3798 22.1462C29.3798 22.2038 29.349 22.2531 29.2955 22.2758C29.0055 22.3993 28.049 22.8436 27.6497 23.3969C26.6232 24.8266 25.8395 27.073 24.0867 27.073H16.7737C14.1837 27.073 12.0176 25.0178 12.0195 22.28C12.0195 22.2122 12.0772 22.1565 12.145 22.1565H15.6111C15.7304 22.1565 15.825 22.2531 15.825 22.3704V23.0391C15.825 23.395 16.1129 23.6831 16.469 23.6831H19.0979V22.1526H17.302C18.3347 20.8442 18.9498 19.1924 18.9498 17.3946C18.9498 15.3889 18.1804 13.56 16.9215 12.1922C17.6825 12.2806 18.4108 12.433 19.0979 12.6346V12.2087C19.0979 11.7663 19.4558 11.4084 19.8982 11.4084C20.3406 11.4084 20.6984 11.7663 20.6984 12.2087V13.2352C23.1526 14.3809 24.7593 16.2818 24.7593 18.4314C24.7593 19.6925 24.2079 20.8671 23.2557 21.8544C23.0725 22.0437 22.8194 22.1506 22.5543 22.1506H20.6987V23.6792H23.0275C23.5295 23.6792 24.4303 22.7269 24.8584 22.1529C24.8584 22.1529 24.8769 22.124 24.9264 22.1098C24.9757 22.0955 29.2031 21.1244 29.2031 21.1244C29.2916 21.0998 29.3801 21.1676 29.3801 21.258V22.1467L29.3798 22.1462Z" fill="white"/>
</g>
<defs>
<clipPath id="clip0_1696_113556">
<rect width="28" height="28" fill="white" transform="translate(6 6)"/>
</clipPath>
</defs>
</svg>
