<svg width="40" height="40" viewBox="0 0 40 40" fill="none" xmlns="http://www.w3.org/2000/svg">
<rect width="40" height="40" rx="4" fill="black"/>
<g clip-path="url(#clip0_1697_113613)">
<path fill-rule="evenodd" clip-rule="evenodd" d="M19.9362 33.9447C15.7659 33.9416 12.4065 32.956 10.0593 31.1856C7.68383 29.3941 6.42383 26.8516 6.42383 23.9746C6.42383 21.2026 7.68114 19.2038 9.10391 17.8526C10.2188 16.7938 11.4491 16.1157 12.3058 15.7256C12.1121 15.14 11.8704 14.3734 11.6542 13.5815C11.3648 12.522 11.081 11.2788 11.081 10.3679C11.081 9.28965 11.3196 8.20665 11.9632 7.36525C12.6432 6.47628 13.6668 6 14.8982 6C15.8607 6 16.6778 6.35162 17.3175 6.95819C17.929 7.53789 18.336 8.30796 18.617 9.11067C19.1107 10.5211 19.3028 12.2931 19.3569 14.0616H20.5364C20.5904 12.2931 20.7826 10.5211 21.2764 9.11067C21.5574 8.30796 21.9644 7.53803 22.5759 6.95819C23.2155 6.35176 24.0326 6 24.995 6C26.2265 6 27.2502 6.47628 27.9301 7.36525C28.5737 8.20665 28.8124 9.28965 28.8124 10.3679C28.8124 11.2788 28.5286 12.522 28.2391 13.5815C28.0229 14.3734 27.7812 15.14 27.5874 15.7256C28.4441 16.1157 29.6746 16.7938 30.7895 17.8527C32.2121 19.2038 33.4696 21.2026 33.4696 23.9746C33.4696 26.8516 32.2094 29.3941 29.8341 31.1856C27.4869 32.956 24.1275 33.9416 19.9572 33.9447H19.9362Z" fill="#633001"/>
<path d="M14.8986 7.02539C13.095 7.02539 12.2646 8.36433 12.2646 10.2158C12.2646 11.6876 13.2293 14.6351 13.6252 15.7825C13.7143 16.0407 13.5743 16.3234 13.3191 16.4234C11.8736 16.9906 7.60742 19.0671 7.60742 23.8227C7.60742 28.8322 11.9429 32.6094 19.9375 32.6153H19.9566C27.9513 32.6094 32.2865 28.8322 32.2865 23.8227C32.2865 19.0671 28.0204 16.9906 26.5749 16.4234C26.3198 16.3235 26.1798 16.0407 26.2689 15.7825C26.6647 14.6352 27.6294 11.6876 27.6294 10.2158C27.6294 8.36418 26.7992 7.02539 24.9954 7.02539C22.3991 7.02539 21.7519 10.6847 21.7057 14.6121C21.7026 14.8743 21.4896 15.087 21.226 15.087H18.6678C18.4044 15.087 18.1913 14.8743 18.1883 14.6121C18.1422 10.6847 17.495 7.02539 14.8986 7.02539Z" fill="#D1884F"/>
<path d="M19.9564 31.0107C14.0824 31.0107 7.6176 27.8821 7.60742 23.8323V23.8511C7.60742 28.8647 11.9495 32.6438 19.9564 32.6438C27.9633 32.6438 32.3054 28.8647 32.3054 23.8511V23.8323C32.2952 27.8821 25.8305 31.0107 19.9564 31.0107Z" fill="#FEDC90"/>
<path d="M16.6932 22.5885C16.6932 23.9558 16.0437 24.6679 15.2426 24.6679C14.4415 24.6679 13.792 23.9558 13.792 22.5885C13.792 21.2211 14.4415 20.509 15.2426 20.509C16.0437 20.509 16.6932 21.2211 16.6932 22.5885ZM26.1219 22.5885C26.1219 23.9558 25.4725 24.6679 24.6714 24.6679C23.8702 24.6679 23.2208 23.9558 23.2208 22.5885C23.2208 21.2211 23.8702 20.509 24.6714 20.509C25.4725 20.509 26.1219 21.2211 26.1219 22.5885Z" fill="#633001"/>
</g>
<defs>
<clipPath id="clip0_1697_113613">
<rect width="28" height="28" fill="white" transform="translate(6 6)"/>
</clipPath>
</defs>
</svg>
