<svg width="40" height="40" viewBox="0 0 40 40" fill="none" xmlns="http://www.w3.org/2000/svg">
<rect width="40" height="40" rx="4" fill="black"/>
<g clip-path="url(#clip0_1696_113554)">
<path d="M20 6H8.1C6.94007 6 6 6.94007 6 8.1V31.9C6 33.0599 6.94007 34 8.1 34H20C27.7318 34 34 27.7318 34 20C34 12.2681 27.7318 6 20 6ZM12.6191 11.887C13.2339 10.9036 14.5294 10.6044 15.513 11.2191L25.1229 17.2254C24.7646 17.2872 24.4196 17.4165 24.1074 17.6117L20.9619 19.5776L13.287 14.7809C12.3036 14.1661 12.0044 12.8706 12.6191 11.887ZM16.5 27C16.5 28.1596 15.5596 29.1 14.4 29.1C13.2403 29.1 12.3 28.1596 12.3 27V14.877C12.4729 15.0707 12.6751 15.2438 12.9064 15.3883L16.5 17.6343V27ZM26.713 21.7809L17.1041 27.7866C17.1769 27.5366 17.2166 27.273 17.2166 27.0003V22.7634L24.487 18.2194C25.4704 17.6047 26.7659 17.9036 27.3809 18.8873C27.9956 19.8708 27.6966 21.1661 26.713 21.7809Z" fill="white"/>
</g>
<defs>
<clipPath id="clip0_1696_113554">
<rect width="28" height="28" fill="white" transform="translate(6 6)"/>
</clipPath>
</defs>
</svg>
