<svg width="183" height="183" viewBox="0 0 183 183" fill="none" xmlns="http://www.w3.org/2000/svg">
<g filter="url(#filter0_d_1633_7579)">
<rect x="10" y="8" width="163" height="163" rx="8" fill="url(#paint0_linear_1633_7579)"/>
<rect x="26" y="24" width="60" height="60" rx="8" fill="black"/>
<g clip-path="url(#clip0_1633_7579)">
<path d="M56.9385 36.6096C56.0951 36.2831 55.2108 36.1199 54.2857 36.1199C53.3607 36.1199 52.4696 36.2831 51.6126 36.6096C50.7691 36.9225 50.0141 37.385 49.3475 37.9972C48.9743 38.34 48.6437 38.7254 48.3558 39.1534V36.426H36.5V39.7929H40.5199V50.0367H44.3358V39.7929H47.974C47.8972 39.9385 47.8245 40.0881 47.7559 40.2419C47.375 41.1261 47.1845 42.1328 47.1845 43.2619C47.1845 44.391 47.375 45.3977 47.7559 46.282C48.1504 47.1663 48.6809 47.9145 49.3475 48.5267C50.0141 49.1388 50.7691 49.6082 51.6126 49.9347C52.4696 50.2476 53.3607 50.404 54.2857 50.404C55.2108 50.404 56.0951 50.2476 56.9385 49.9347C57.7956 49.6082 58.5574 49.1388 59.224 48.5267C59.8906 47.9145 60.4143 47.1663 60.7952 46.282C61.1897 45.3977 61.387 44.391 61.387 43.2619C61.387 42.1328 61.1897 41.1261 60.7952 40.2419C60.4143 39.3576 59.8906 38.6094 59.224 37.9972C58.5574 37.385 57.7956 36.9225 56.9385 36.6096ZM52.6533 40.1602C53.1294 39.8473 53.6736 39.6909 54.2857 39.6909C54.8979 39.6909 55.4421 39.8473 55.9182 40.1602C56.408 40.4731 56.7889 40.9016 57.0609 41.4458C57.333 41.9764 57.4691 42.5817 57.4691 43.2619C57.4691 43.9421 57.333 44.5543 57.0609 45.0984C56.7889 45.629 56.408 46.0507 55.9182 46.3636C55.4421 46.6765 54.8979 46.833 54.2857 46.833C53.6736 46.833 53.1294 46.6765 52.6533 46.3636C52.1771 46.0507 51.7962 45.629 51.5105 45.0984C51.2385 44.5543 51.1024 43.9421 51.1024 43.2619C51.1024 42.5817 51.2385 41.9764 51.5105 41.4458C51.7962 40.9016 52.1771 40.4731 52.6533 40.1602Z" fill="white"/>
<path d="M60.8561 59.0086V50.7034H57.0402V58.7433C57.0402 59.4507 56.8498 60.0289 56.4689 60.4778C56.088 60.9131 55.4894 61.1376 54.6732 61.1512C53.8569 61.1648 53.2584 60.9471 52.8774 60.4982C52.4965 60.0357 52.3061 59.4507 52.3061 58.7433V50.7034H48.4902V59.0086C48.4902 60.1921 48.7691 61.2124 49.3268 62.0695C49.8846 62.9265 50.6328 63.5863 51.5715 64.0488C52.5101 64.4978 53.544 64.7222 54.6732 64.7222C55.8159 64.7222 56.8498 64.4978 57.7749 64.0488C58.7135 63.5863 59.4617 62.9265 60.0195 62.0695C60.5773 61.2124 60.8561 60.1921 60.8561 59.0086Z" fill="white"/>
<path d="M46.4987 59.8043V56.4373H41.6421V54.1111H47.519V50.7441H37.8262V64.416H41.6421V59.8043H46.4987Z" fill="white"/>
<path d="M69.7805 59.3949H66.4136V54.5383H61.8018V50.7224H75.4738V72.12H72.1068V68.1H61.863V64.2841H72.1068V54.5383H69.7805V59.3949Z" fill="white"/>
<path d="M61.8008 48.9132H75.4744V45.4644H68.4343L75.4744 37.7716V36.4248H61.8008V39.9549H68.3119L61.8008 47.5664V48.9132Z" fill="white"/>
</g>
<path d="M34.9619 103.648V120H31.312V103.648H34.9619ZM39.937 103.648V106.49H26.438V103.648H39.937ZM55.0645 111.465V112.195C55.0645 113.438 54.8923 114.553 54.5479 115.542C54.2109 116.53 53.728 117.372 53.0991 118.068C52.4777 118.765 51.7365 119.3 50.8755 119.674C50.022 120.041 49.0749 120.225 48.0342 120.225C46.9935 120.225 46.0426 120.041 45.1816 119.674C44.3206 119.3 43.5719 118.765 42.9355 118.068C42.3066 117.372 41.82 116.53 41.4756 115.542C41.1312 114.553 40.959 113.438 40.959 112.195V111.465C40.959 110.222 41.1312 109.106 41.4756 108.118C41.82 107.122 42.3029 106.276 42.9243 105.58C43.5532 104.884 44.2982 104.352 45.1592 103.985C46.0202 103.611 46.971 103.424 48.0117 103.424C49.0524 103.424 50.0033 103.611 50.8643 103.985C51.7253 104.352 52.4665 104.884 53.0879 105.58C53.7168 106.276 54.2035 107.122 54.5479 108.118C54.8923 109.106 55.0645 110.222 55.0645 111.465ZM51.3696 112.195V111.442C51.3696 110.611 51.2948 109.878 51.145 109.241C50.9953 108.597 50.7782 108.058 50.4937 107.624C50.2091 107.19 49.8573 106.864 49.438 106.647C49.0187 106.422 48.5433 106.31 48.0117 106.31C47.4577 106.31 46.9748 106.422 46.563 106.647C46.1512 106.864 45.8031 107.19 45.5186 107.624C45.2415 108.058 45.0282 108.597 44.8784 109.241C44.7362 109.878 44.665 110.611 44.665 111.442V112.195C44.665 113.018 44.7362 113.752 44.8784 114.396C45.0282 115.032 45.2453 115.571 45.5298 116.013C45.8143 116.455 46.1624 116.788 46.5742 117.013C46.9935 117.237 47.4801 117.35 48.0342 117.35C48.5658 117.35 49.0374 117.237 49.4492 117.013C49.8685 116.788 50.2204 116.455 50.5049 116.013C50.7894 115.571 51.0028 115.032 51.145 114.396C51.2948 113.752 51.3696 113.018 51.3696 112.195ZM60.9717 103.648V120H57.3105V103.648H60.9717ZM67.4067 110.544V113.374H59.9497V110.544H67.4067ZM68.1255 103.648V106.49H59.9497V103.648H68.1255ZM78.8618 103.648H82.5229V114.385C82.5229 115.658 82.2534 116.728 81.7144 117.597C81.1828 118.465 80.4416 119.12 79.4907 119.562C78.5399 120.004 77.4393 120.225 76.189 120.225C74.9312 120.225 73.8231 120.004 72.8647 119.562C71.9139 119.12 71.1652 118.465 70.6187 117.597C70.0796 116.728 69.8101 115.658 69.8101 114.385V103.648H73.4824V114.385C73.4824 115.089 73.5872 115.665 73.7969 116.114C74.014 116.556 74.3247 116.882 74.729 117.091C75.1333 117.293 75.62 117.395 76.189 117.395C76.758 117.395 77.2409 117.293 77.6377 117.091C78.042 116.882 78.3452 116.556 78.5474 116.114C78.757 115.665 78.8618 115.089 78.8618 114.385V103.648ZM98.6274 103.648V120H94.9775L88.8008 109.432V120H85.1396V103.648H88.8008L94.9888 114.216V103.648H98.6274ZM104.995 103.648V120H101.334V103.648H104.995ZM111.43 110.544V113.374H103.973V110.544H111.43ZM112.149 103.648V106.49H103.973V103.648H112.149ZM121.773 103.648V120H118.124V103.648H121.773ZM126.749 103.648V106.49H113.25V103.648H126.749ZM140.596 117.17V120H128.882V117.17H140.596ZM140.472 105.603L130.601 120H127.995V118.001L137.957 103.648H140.472V105.603ZM139.259 103.648V106.49H127.973V103.648H139.259Z" fill="#0B0514"/>
<path d="M29.794 150.126C29.262 150.126 28.814 150.033 28.45 149.846C28.0953 149.65 27.8293 149.37 27.652 149.006C27.4747 148.633 27.386 148.18 27.386 147.648V144.078H26.448C26.2893 144.078 26.168 144.041 26.084 143.966C26 143.882 25.958 143.77 25.958 143.63C25.958 143.49 26 143.383 26.084 143.308C26.168 143.233 26.2893 143.196 26.448 143.196H27.386V141.586C27.386 141.399 27.4373 141.259 27.54 141.166C27.6427 141.063 27.7827 141.012 27.96 141.012C28.1373 141.012 28.2727 141.063 28.366 141.166C28.4687 141.259 28.52 141.399 28.52 141.586V143.196H30.284C30.4427 143.196 30.564 143.233 30.648 143.308C30.732 143.383 30.774 143.49 30.774 143.63C30.774 143.77 30.732 143.882 30.648 143.966C30.564 144.041 30.4427 144.078 30.284 144.078H28.52V147.536C28.52 148.068 28.632 148.474 28.856 148.754C29.08 149.025 29.444 149.16 29.948 149.16C30.1253 149.16 30.2747 149.141 30.396 149.104C30.5267 149.067 30.634 149.048 30.718 149.048C30.802 149.039 30.872 149.067 30.928 149.132C30.984 149.197 31.012 149.309 31.012 149.468C31.012 149.58 30.9887 149.683 30.942 149.776C30.9047 149.869 30.8347 149.935 30.732 149.972C30.62 150.009 30.4707 150.042 30.284 150.07C30.1067 150.107 29.9433 150.126 29.794 150.126ZM34.7182 150.126C34.0555 150.126 33.4815 149.981 32.9962 149.692C32.5108 149.403 32.1328 148.997 31.8622 148.474C31.6008 147.942 31.4702 147.317 31.4702 146.598C31.4702 146.057 31.5448 145.571 31.6942 145.142C31.8435 144.703 32.0628 144.33 32.3522 144.022C32.6415 143.714 32.9822 143.481 33.3742 143.322C33.7755 143.154 34.2235 143.07 34.7182 143.07C35.3808 143.07 35.9548 143.215 36.4402 143.504C36.9255 143.793 37.2988 144.204 37.5602 144.736C37.8308 145.259 37.9662 145.879 37.9662 146.598C37.9662 147.139 37.8915 147.625 37.7422 148.054C37.5928 148.483 37.3735 148.857 37.0842 149.174C36.7948 149.482 36.4495 149.72 36.0482 149.888C35.6562 150.047 35.2128 150.126 34.7182 150.126ZM34.7182 149.216C35.1382 149.216 35.5068 149.113 35.8242 148.908C36.1415 148.703 36.3842 148.404 36.5522 148.012C36.7295 147.62 36.8182 147.149 36.8182 146.598C36.8182 145.749 36.6268 145.1 36.2442 144.652C35.8708 144.204 35.3622 143.98 34.7182 143.98C34.2888 143.98 33.9155 144.083 33.5982 144.288C33.2902 144.484 33.0475 144.778 32.8702 145.17C32.7022 145.553 32.6182 146.029 32.6182 146.598C32.6182 147.438 32.8095 148.087 33.1922 148.544C33.5748 148.992 34.0835 149.216 34.7182 149.216ZM40.5251 150.098C40.3478 150.098 40.2078 150.047 40.1051 149.944C40.0118 149.841 39.9651 149.697 39.9651 149.51V144.078H39.0691C38.9198 144.078 38.7984 144.041 38.7051 143.966C38.6211 143.882 38.5791 143.77 38.5791 143.63C38.5791 143.49 38.6211 143.383 38.7051 143.308C38.7984 143.233 38.9198 143.196 39.0691 143.196H40.2731L39.9651 143.49V142.958C39.9651 142.071 40.1798 141.395 40.6091 140.928C41.0478 140.461 41.6871 140.191 42.5271 140.116L42.9331 140.074C43.0638 140.065 43.1664 140.088 43.2411 140.144C43.3251 140.2 43.3764 140.27 43.3951 140.354C43.4231 140.438 43.4278 140.527 43.4091 140.62C43.3904 140.704 43.3484 140.779 43.2831 140.844C43.2178 140.909 43.1384 140.947 43.0451 140.956L42.7231 140.984C42.1538 141.031 41.7384 141.203 41.4771 141.502C41.2251 141.801 41.0991 142.239 41.0991 142.818V143.406L40.9311 143.196H42.6111C42.7698 143.196 42.8911 143.233 42.9751 143.308C43.0591 143.383 43.1011 143.49 43.1011 143.63C43.1011 143.77 43.0591 143.882 42.9751 143.966C42.8911 144.041 42.7698 144.078 42.6111 144.078H41.0991V149.51C41.0991 149.902 40.9078 150.098 40.5251 150.098ZM46.6712 150.126C46.1206 150.126 45.6632 150.028 45.2992 149.832C44.9446 149.627 44.6739 149.323 44.4872 148.922C44.3099 148.521 44.2212 148.021 44.2212 147.424V143.672C44.2212 143.476 44.2679 143.331 44.3612 143.238C44.4639 143.145 44.6039 143.098 44.7812 143.098C44.9679 143.098 45.1079 143.145 45.2012 143.238C45.3039 143.331 45.3552 143.476 45.3552 143.672V147.41C45.3552 148.007 45.4766 148.455 45.7192 148.754C45.9712 149.043 46.3632 149.188 46.8952 149.188C47.4739 149.188 47.9452 148.992 48.3092 148.6C48.6732 148.208 48.8552 147.695 48.8552 147.06V143.672C48.8552 143.476 48.9019 143.331 48.9952 143.238C49.0979 143.145 49.2426 143.098 49.4292 143.098C49.6066 143.098 49.7419 143.145 49.8352 143.238C49.9379 143.331 49.9892 143.476 49.9892 143.672V149.51C49.9892 149.902 49.8072 150.098 49.4432 150.098C49.2659 150.098 49.1259 150.047 49.0232 149.944C48.9299 149.841 48.8832 149.697 48.8832 149.51V148.236L49.0652 148.432C48.8786 148.983 48.5706 149.403 48.1412 149.692C47.7212 149.981 47.2312 150.126 46.6712 150.126ZM52.6709 150.098C52.4842 150.098 52.3442 150.047 52.2509 149.944C52.1575 149.841 52.1109 149.697 52.1109 149.51V143.672C52.1109 143.485 52.1575 143.345 52.2509 143.252C52.3442 143.149 52.4795 143.098 52.6569 143.098C52.8342 143.098 52.9695 143.149 53.0629 143.252C53.1655 143.345 53.2169 143.485 53.2169 143.672V144.876L53.0629 144.708C53.2589 144.167 53.5762 143.761 54.0149 143.49C54.4629 143.21 54.9762 143.07 55.5549 143.07C56.0962 143.07 56.5442 143.168 56.8989 143.364C57.2629 143.56 57.5335 143.859 57.7109 144.26C57.8882 144.652 57.9769 145.151 57.9769 145.758V149.51C57.9769 149.697 57.9255 149.841 57.8229 149.944C57.7295 150.047 57.5942 150.098 57.4169 150.098C57.2302 150.098 57.0855 150.047 56.9829 149.944C56.8895 149.841 56.8429 149.697 56.8429 149.51V145.828C56.8429 145.193 56.7169 144.731 56.4649 144.442C56.2222 144.143 55.8302 143.994 55.2889 143.994C54.6635 143.994 54.1642 144.19 53.7909 144.582C53.4269 144.965 53.2449 145.478 53.2449 146.122V149.51C53.2449 149.902 53.0535 150.098 52.6709 150.098ZM60.9919 150.098C60.8146 150.098 60.6746 150.047 60.5719 149.944C60.4786 149.841 60.4319 149.697 60.4319 149.51V144.078H59.5359C59.3866 144.078 59.2652 144.041 59.1719 143.966C59.0879 143.882 59.0459 143.77 59.0459 143.63C59.0459 143.49 59.0879 143.383 59.1719 143.308C59.2652 143.233 59.3866 143.196 59.5359 143.196H60.7399L60.4319 143.49V142.958C60.4319 142.071 60.6466 141.395 61.0759 140.928C61.5146 140.461 62.1539 140.191 62.9939 140.116L63.3999 140.074C63.5306 140.065 63.6332 140.088 63.7079 140.144C63.7919 140.2 63.8432 140.27 63.8619 140.354C63.8899 140.438 63.8946 140.527 63.8759 140.62C63.8572 140.704 63.8152 140.779 63.7499 140.844C63.6846 140.909 63.6052 140.947 63.5119 140.956L63.1899 140.984C62.6206 141.031 62.2052 141.203 61.9439 141.502C61.6919 141.801 61.5659 142.239 61.5659 142.818V143.406L61.3979 143.196H63.0779C63.2366 143.196 63.3579 143.233 63.4419 143.308C63.5259 143.383 63.5679 143.49 63.5679 143.63C63.5679 143.77 63.5259 143.882 63.4419 143.966C63.3579 144.041 63.2366 144.078 63.0779 144.078H61.5659V149.51C61.5659 149.902 61.3746 150.098 60.9919 150.098ZM67.1182 150.126C66.5862 150.126 66.1382 150.033 65.7742 149.846C65.4196 149.65 65.1536 149.37 64.9762 149.006C64.7989 148.633 64.7102 148.18 64.7102 147.648V144.078H63.7722C63.6136 144.078 63.4922 144.041 63.4082 143.966C63.3242 143.882 63.2822 143.77 63.2822 143.63C63.2822 143.49 63.3242 143.383 63.4082 143.308C63.4922 143.233 63.6136 143.196 63.7722 143.196H64.7102V141.586C64.7102 141.399 64.7616 141.259 64.8642 141.166C64.9669 141.063 65.1069 141.012 65.2842 141.012C65.4616 141.012 65.5969 141.063 65.6902 141.166C65.7929 141.259 65.8442 141.399 65.8442 141.586V143.196H67.6082C67.7669 143.196 67.8882 143.233 67.9722 143.308C68.0562 143.383 68.0982 143.49 68.0982 143.63C68.0982 143.77 68.0562 143.882 67.9722 143.966C67.8882 144.041 67.7669 144.078 67.6082 144.078H65.8442V147.536C65.8442 148.068 65.9562 148.474 66.1802 148.754C66.4042 149.025 66.7682 149.16 67.2722 149.16C67.4496 149.16 67.5989 149.141 67.7202 149.104C67.8509 149.067 67.9582 149.048 68.0422 149.048C68.1262 149.039 68.1962 149.067 68.2522 149.132C68.3082 149.197 68.3362 149.309 68.3362 149.468C68.3362 149.58 68.3129 149.683 68.2662 149.776C68.2289 149.869 68.1589 149.935 68.0562 149.972C67.9442 150.009 67.7949 150.042 67.6082 150.07C67.4309 150.107 67.2676 150.126 67.1182 150.126ZM70.0202 150.056C69.7868 150.056 69.6002 149.986 69.4602 149.846C69.3202 149.697 69.2502 149.51 69.2502 149.286C69.2502 149.062 69.3202 148.88 69.4602 148.74C69.6002 148.591 69.7868 148.516 70.0202 148.516C70.2535 148.516 70.4355 148.591 70.5662 148.74C70.7062 148.88 70.7762 149.062 70.7762 149.286C70.7762 149.51 70.7062 149.697 70.5662 149.846C70.4355 149.986 70.2535 150.056 70.0202 150.056ZM75.2293 150.126C74.5479 150.126 73.9599 149.977 73.4653 149.678C72.9706 149.379 72.5879 148.964 72.3173 148.432C72.0559 147.891 71.9253 147.265 71.9253 146.556C71.9253 146.015 71.9999 145.529 72.1493 145.1C72.2986 144.671 72.5179 144.307 72.8073 144.008C73.0966 143.7 73.4419 143.467 73.8433 143.308C74.2539 143.149 74.7159 143.07 75.2293 143.07C75.5653 143.07 75.9153 143.121 76.2793 143.224C76.6433 143.327 76.9746 143.504 77.2733 143.756C77.3666 143.821 77.4273 143.901 77.4553 143.994C77.4833 144.087 77.4833 144.181 77.4553 144.274C77.4273 144.358 77.3806 144.433 77.3153 144.498C77.2499 144.554 77.1659 144.587 77.0633 144.596C76.9699 144.605 76.8719 144.573 76.7693 144.498C76.5266 144.311 76.2793 144.181 76.0273 144.106C75.7753 144.031 75.5326 143.994 75.2993 143.994C74.9353 143.994 74.6179 144.055 74.3473 144.176C74.0766 144.288 73.8479 144.451 73.6613 144.666C73.4746 144.881 73.3299 145.147 73.2273 145.464C73.1339 145.781 73.0873 146.15 73.0873 146.57C73.0873 147.382 73.2786 148.026 73.6613 148.502C74.0439 148.969 74.5899 149.202 75.2993 149.202C75.5326 149.202 75.7706 149.165 76.0133 149.09C76.2653 149.015 76.5173 148.885 76.7693 148.698C76.8719 148.623 76.9699 148.591 77.0633 148.6C77.1566 148.609 77.2359 148.647 77.3013 148.712C77.3666 148.768 77.4086 148.843 77.4273 148.936C77.4553 149.029 77.4553 149.123 77.4273 149.216C77.3993 149.3 77.3386 149.375 77.2453 149.44C76.9466 149.683 76.6199 149.86 76.2653 149.972C75.9106 150.075 75.5653 150.126 75.2293 150.126ZM81.517 150.126C80.8543 150.126 80.2803 149.981 79.795 149.692C79.3097 149.403 78.9317 148.997 78.661 148.474C78.3997 147.942 78.269 147.317 78.269 146.598C78.269 146.057 78.3437 145.571 78.493 145.142C78.6423 144.703 78.8617 144.33 79.151 144.022C79.4403 143.714 79.781 143.481 80.173 143.322C80.5743 143.154 81.0223 143.07 81.517 143.07C82.1797 143.07 82.7537 143.215 83.239 143.504C83.7243 143.793 84.0977 144.204 84.359 144.736C84.6297 145.259 84.765 145.879 84.765 146.598C84.765 147.139 84.6903 147.625 84.541 148.054C84.3917 148.483 84.1723 148.857 83.883 149.174C83.5937 149.482 83.2483 149.72 82.847 149.888C82.455 150.047 82.0117 150.126 81.517 150.126ZM81.517 149.216C81.937 149.216 82.3057 149.113 82.623 148.908C82.9403 148.703 83.183 148.404 83.351 148.012C83.5283 147.62 83.617 147.149 83.617 146.598C83.617 145.749 83.4257 145.1 83.043 144.652C82.6697 144.204 82.161 143.98 81.517 143.98C81.0877 143.98 80.7143 144.083 80.397 144.288C80.089 144.484 79.8463 144.778 79.669 145.17C79.501 145.553 79.417 146.029 79.417 146.598C79.417 147.438 79.6083 148.087 79.991 148.544C80.3737 148.992 80.8823 149.216 81.517 149.216ZM87.0563 150.098C86.8696 150.098 86.7296 150.047 86.6363 149.944C86.543 149.841 86.4963 149.697 86.4963 149.51V143.672C86.4963 143.485 86.543 143.345 86.6363 143.252C86.7296 143.149 86.865 143.098 87.0423 143.098C87.2196 143.098 87.355 143.149 87.4483 143.252C87.551 143.345 87.6023 143.485 87.6023 143.672V144.904L87.4483 144.708C87.6256 144.185 87.9103 143.784 88.3023 143.504C88.7036 143.215 89.1796 143.07 89.7303 143.07C90.309 143.07 90.7756 143.21 91.1303 143.49C91.4943 143.761 91.737 144.185 91.8583 144.764H91.6483C91.8163 144.241 92.115 143.831 92.5443 143.532C92.983 143.224 93.4916 143.07 94.0703 143.07C94.5836 143.07 95.0036 143.168 95.3303 143.364C95.6663 143.56 95.9183 143.859 96.0863 144.26C96.2543 144.652 96.3383 145.151 96.3383 145.758V149.51C96.3383 149.697 96.287 149.841 96.1843 149.944C96.091 150.047 95.951 150.098 95.7643 150.098C95.587 150.098 95.447 150.047 95.3443 149.944C95.251 149.841 95.2043 149.697 95.2043 149.51V145.814C95.2043 145.189 95.097 144.731 94.8823 144.442C94.6676 144.143 94.3036 143.994 93.7903 143.994C93.2303 143.994 92.787 144.19 92.4603 144.582C92.143 144.965 91.9843 145.487 91.9843 146.15V149.51C91.9843 149.697 91.933 149.841 91.8303 149.944C91.737 150.047 91.597 150.098 91.4103 150.098C91.233 150.098 91.093 150.047 90.9903 149.944C90.897 149.841 90.8503 149.697 90.8503 149.51V145.814C90.8503 145.189 90.7383 144.731 90.5143 144.442C90.2996 144.143 89.9403 143.994 89.4363 143.994C88.8763 143.994 88.433 144.19 88.1063 144.582C87.789 144.965 87.6303 145.487 87.6303 146.15V149.51C87.6303 149.902 87.439 150.098 87.0563 150.098Z" fill="#0B0514"/>
</g>
<defs>
<filter id="filter0_d_1633_7579" x="0" y="0" width="183" height="183" filterUnits="userSpaceOnUse" color-interpolation-filters="sRGB">
<feFlood flood-opacity="0" result="BackgroundImageFix"/>
<feColorMatrix in="SourceAlpha" type="matrix" values="0 0 0 0 0 0 0 0 0 0 0 0 0 0 0 0 0 0 127 0" result="hardAlpha"/>
<feOffset dy="2"/>
<feGaussianBlur stdDeviation="5"/>
<feComposite in2="hardAlpha" operator="out"/>
<feColorMatrix type="matrix" values="0 0 0 0 0 0 0 0 0 0 0 0 0 0 0 0 0 0 0.1 0"/>
<feBlend mode="normal" in2="BackgroundImageFix" result="effect1_dropShadow_1633_7579"/>
<feBlend mode="normal" in="SourceGraphic" in2="effect1_dropShadow_1633_7579" result="shape"/>
</filter>
<linearGradient id="paint0_linear_1633_7579" x1="10" y1="45.2571" x2="181.15" y2="165.761" gradientUnits="userSpaceOnUse">
<stop stop-color="#00DBDE"/>
<stop offset="1" stop-color="#FC00FF"/>
</linearGradient>
<clipPath id="clip0_1633_7579">
<rect width="39" height="36" fill="white" transform="translate(36.5 36)"/>
</clipPath>
</defs>
</svg>
