<svg width="183" height="183" viewBox="0 0 183 183" fill="none" xmlns="http://www.w3.org/2000/svg">
<g filter="url(#filter0_d_1633_7580)">
<rect x="10" y="8" width="163" height="163" rx="8" fill="url(#paint0_linear_1633_7580)"/>
<rect x="26" y="24" width="60" height="60" rx="8" fill="black"/>
<g clip-path="url(#clip0_1633_7580)">
<path d="M56 38H42.4C41.0744 38 40 39.0744 40 40.4V67.6C40 68.9256 41.0744 70 42.4 70H56C64.8364 70 72 62.8364 72 54C72 45.1636 64.8364 38 56 38ZM47.5647 44.728C48.2673 43.6042 49.7478 43.2622 50.872 43.9647L61.8548 50.829C61.4453 50.8996 61.051 51.0474 60.6942 51.2705L57.0993 53.5173L48.328 48.0353C47.2042 47.3327 46.8622 45.8522 47.5647 44.728ZM52 62C52 63.3253 50.9253 64.4 49.6 64.4C48.2747 64.4 47.2 63.3253 47.2 62V48.1452C47.3976 48.3665 47.6287 48.5644 47.893 48.7295L52 51.2963V62ZM63.672 56.0353L52.6904 62.899C52.7736 62.6133 52.819 62.312 52.819 62.0003V57.1582L61.128 51.965C62.2519 51.2625 63.7324 51.6041 64.4353 52.7283C65.1378 53.8524 64.7961 55.3327 63.672 56.0353Z" fill="white"/>
</g>
<path d="M39.731 109.052C39.731 109.987 39.5163 110.846 39.087 111.628C38.6577 112.395 37.9983 113.016 37.109 113.491C36.2197 113.966 35.1157 114.204 33.797 114.204H31.359V120H27.426V103.854H33.797C35.085 103.854 36.1737 104.076 37.063 104.521C37.9523 104.966 38.6193 105.579 39.064 106.361C39.5087 107.143 39.731 108.04 39.731 109.052ZM33.498 111.076C34.2493 111.076 34.809 110.9 35.177 110.547C35.545 110.194 35.729 109.696 35.729 109.052C35.729 108.408 35.545 107.91 35.177 107.557C34.809 107.204 34.2493 107.028 33.498 107.028H31.359V111.076H33.498ZM45.7115 102.98V120H41.7785V102.98H45.7115ZM47.7797 113.56C47.7797 112.241 48.0251 111.084 48.5157 110.087C49.0217 109.09 49.7041 108.324 50.5627 107.787C51.4214 107.25 52.3797 106.982 53.4377 106.982C54.3424 106.982 55.1321 107.166 55.8067 107.534C56.4967 107.902 57.0257 108.385 57.3937 108.983V107.166H61.3267V120H57.3937V118.183C57.0104 118.781 56.4737 119.264 55.7837 119.632C55.1091 120 54.3194 120.184 53.4147 120.184C52.3721 120.184 51.4214 119.916 50.5627 119.379C49.7041 118.827 49.0217 118.053 48.5157 117.056C48.0251 116.044 47.7797 114.879 47.7797 113.56ZM57.3937 113.583C57.3937 112.602 57.1177 111.827 56.5657 111.26C56.0291 110.693 55.3697 110.409 54.5877 110.409C53.8057 110.409 53.1387 110.693 52.5867 111.26C52.0501 111.812 51.7817 112.579 51.7817 113.56C51.7817 114.541 52.0501 115.323 52.5867 115.906C53.1387 116.473 53.8057 116.757 54.5877 116.757C55.3697 116.757 56.0291 116.473 56.5657 115.906C57.1177 115.339 57.3937 114.564 57.3937 113.583ZM77.2821 107.166L69.2321 126.095H65.0001L67.9441 119.563L62.7231 107.166H67.1161L70.0831 115.193L73.0271 107.166H77.2821ZM84.7533 103.854C86.4553 103.854 87.9427 104.191 89.2153 104.866C90.488 105.541 91.4693 106.491 92.1593 107.718C92.8647 108.929 93.2173 110.332 93.2173 111.927C93.2173 113.506 92.8647 114.909 92.1593 116.136C91.4693 117.363 90.4803 118.313 89.1923 118.988C87.9197 119.663 86.44 120 84.7533 120H78.7043V103.854H84.7533ZM84.5003 116.596C85.9877 116.596 87.1453 116.19 87.9733 115.377C88.8013 114.564 89.2153 113.414 89.2153 111.927C89.2153 110.44 88.8013 109.282 87.9733 108.454C87.1453 107.626 85.9877 107.212 84.5003 107.212H82.6373V116.596H84.5003ZM94.6333 113.56C94.6333 112.241 94.8786 111.084 95.3693 110.087C95.8753 109.09 96.5576 108.324 97.4163 107.787C98.2749 107.25 99.2333 106.982 100.291 106.982C101.196 106.982 101.986 107.166 102.66 107.534C103.35 107.902 103.879 108.385 104.247 108.983V107.166H108.18V120H104.247V118.183C103.864 118.781 103.327 119.264 102.637 119.632C101.963 120 101.173 120.184 100.268 120.184C99.2256 120.184 98.2749 119.916 97.4163 119.379C96.5576 118.827 95.8753 118.053 95.3693 117.056C94.8786 116.044 94.6333 114.879 94.6333 113.56ZM104.247 113.583C104.247 112.602 103.971 111.827 103.419 111.26C102.883 110.693 102.223 110.409 101.441 110.409C100.659 110.409 99.9923 110.693 99.4403 111.26C98.9036 111.812 98.6353 112.579 98.6353 113.56C98.6353 114.541 98.9036 115.323 99.4403 115.906C99.9923 116.473 100.659 116.757 101.441 116.757C102.223 116.757 102.883 116.473 103.419 115.906C103.971 115.339 104.247 114.564 104.247 113.583ZM114.959 108.983C115.342 108.385 115.871 107.902 116.546 107.534C117.22 107.166 118.01 106.982 118.915 106.982C119.973 106.982 120.931 107.25 121.79 107.787C122.648 108.324 123.323 109.09 123.814 110.087C124.32 111.084 124.573 112.241 124.573 113.56C124.573 114.879 124.32 116.044 123.814 117.056C123.323 118.053 122.648 118.827 121.79 119.379C120.931 119.916 119.973 120.184 118.915 120.184C118.025 120.184 117.236 120 116.546 119.632C115.871 119.264 115.342 118.789 114.959 118.206V126.118H111.026V107.166H114.959V108.983ZM120.571 113.56C120.571 112.579 120.295 111.812 119.743 111.26C119.206 110.693 118.539 110.409 117.742 110.409C116.96 110.409 116.293 110.693 115.741 111.26C115.204 111.827 114.936 112.602 114.936 113.583C114.936 114.564 115.204 115.339 115.741 115.906C116.293 116.473 116.96 116.757 117.742 116.757C118.524 116.757 119.191 116.473 119.743 115.906C120.295 115.323 120.571 114.541 120.571 113.56ZM130.569 108.983C130.952 108.385 131.481 107.902 132.156 107.534C132.831 107.166 133.62 106.982 134.525 106.982C135.583 106.982 136.541 107.25 137.4 107.787C138.259 108.324 138.933 109.09 139.424 110.087C139.93 111.084 140.183 112.241 140.183 113.56C140.183 114.879 139.93 116.044 139.424 117.056C138.933 118.053 138.259 118.827 137.4 119.379C136.541 119.916 135.583 120.184 134.525 120.184C133.636 120.184 132.846 120 132.156 119.632C131.481 119.264 130.952 118.789 130.569 118.206V126.118H126.636V107.166H130.569V108.983ZM136.181 113.56C136.181 112.579 135.905 111.812 135.353 111.26C134.816 110.693 134.149 110.409 133.352 110.409C132.57 110.409 131.903 110.693 131.351 111.26C130.814 111.827 130.546 112.602 130.546 113.583C130.546 114.564 130.814 115.339 131.351 115.906C131.903 116.473 132.57 116.757 133.352 116.757C134.134 116.757 134.801 116.473 135.353 115.906C135.905 115.323 136.181 114.541 136.181 113.56Z" fill="#0B0514"/>
<path d="M27.624 152.618C27.4373 152.618 27.2973 152.567 27.204 152.464C27.1107 152.371 27.064 152.231 27.064 152.044V143.672C27.064 143.485 27.1107 143.345 27.204 143.252C27.2973 143.149 27.4327 143.098 27.61 143.098C27.7967 143.098 27.9367 143.149 28.03 143.252C28.1327 143.345 28.184 143.485 28.184 143.672V145.002L28.03 144.806C28.1793 144.274 28.4733 143.854 28.912 143.546C29.36 143.229 29.892 143.07 30.508 143.07C31.1147 143.07 31.642 143.215 32.09 143.504C32.5473 143.784 32.8973 144.19 33.14 144.722C33.392 145.245 33.518 145.87 33.518 146.598C33.518 147.317 33.392 147.942 33.14 148.474C32.8973 148.997 32.552 149.403 32.104 149.692C31.656 149.981 31.124 150.126 30.508 150.126C29.892 150.126 29.3647 149.972 28.926 149.664C28.4873 149.347 28.1887 148.927 28.03 148.404H28.198V152.044C28.198 152.231 28.1467 152.371 28.044 152.464C27.9413 152.567 27.8013 152.618 27.624 152.618ZM30.27 149.216C30.6993 149.216 31.068 149.113 31.376 148.908C31.6933 148.703 31.936 148.404 32.104 148.012C32.2813 147.62 32.37 147.149 32.37 146.598C32.37 145.749 32.1787 145.1 31.796 144.652C31.4227 144.204 30.914 143.98 30.27 143.98C29.85 143.98 29.4813 144.083 29.164 144.288C28.8467 144.484 28.5993 144.778 28.422 145.17C28.254 145.553 28.17 146.029 28.17 146.598C28.17 147.438 28.3613 148.087 28.744 148.544C29.1267 148.992 29.6353 149.216 30.27 149.216ZM37.2981 150.126C36.6261 150.126 36.1128 149.921 35.7581 149.51C35.4034 149.099 35.2261 148.511 35.2261 147.746V140.606C35.2261 140.419 35.2728 140.279 35.3661 140.186C35.4594 140.083 35.5994 140.032 35.7861 140.032C35.9634 140.032 36.1034 140.083 36.2061 140.186C36.3088 140.279 36.3601 140.419 36.3601 140.606V147.662C36.3601 148.166 36.4581 148.544 36.6541 148.796C36.8594 149.039 37.1581 149.16 37.5501 149.16C37.6341 149.16 37.7088 149.155 37.7741 149.146C37.8394 149.137 37.9048 149.132 37.9701 149.132C38.0728 149.123 38.1428 149.146 38.1801 149.202C38.2268 149.258 38.2501 149.37 38.2501 149.538C38.2501 149.706 38.2128 149.832 38.1381 149.916C38.0634 150 37.9421 150.056 37.7741 150.084C37.6994 150.093 37.6201 150.103 37.5361 150.112C37.4521 150.121 37.3728 150.126 37.2981 150.126ZM41.5107 150.126C41.044 150.126 40.624 150.037 40.2507 149.86C39.8867 149.673 39.5974 149.421 39.3827 149.104C39.168 148.787 39.0607 148.432 39.0607 148.04C39.0607 147.536 39.1867 147.139 39.4387 146.85C39.7 146.561 40.1247 146.355 40.7127 146.234C41.31 146.113 42.122 146.052 43.1487 146.052H43.7787V146.794H43.1627C42.4067 146.794 41.8094 146.831 41.3707 146.906C40.9414 146.971 40.638 147.088 40.4607 147.256C40.2927 147.424 40.2087 147.662 40.2087 147.97C40.2087 148.353 40.3394 148.665 40.6007 148.908C40.8714 149.151 41.2354 149.272 41.6927 149.272C42.066 149.272 42.3927 149.183 42.6727 149.006C42.962 148.829 43.186 148.586 43.3447 148.278C43.5127 147.97 43.5967 147.615 43.5967 147.214V145.618C43.5967 145.039 43.48 144.624 43.2467 144.372C43.0134 144.111 42.6307 143.98 42.0987 143.98C41.772 143.98 41.4454 144.022 41.1187 144.106C40.792 144.19 40.4467 144.325 40.0827 144.512C39.952 144.577 39.84 144.601 39.7467 144.582C39.6534 144.554 39.5787 144.503 39.5227 144.428C39.4667 144.353 39.434 144.269 39.4247 144.176C39.4154 144.073 39.434 143.975 39.4807 143.882C39.5367 143.789 39.6207 143.714 39.7327 143.658C40.1434 143.453 40.5494 143.303 40.9507 143.21C41.352 143.117 41.7347 143.07 42.0987 143.07C42.6867 143.07 43.172 143.168 43.5547 143.364C43.9374 143.551 44.222 143.84 44.4087 144.232C44.5954 144.615 44.6887 145.109 44.6887 145.716V149.51C44.6887 149.697 44.642 149.841 44.5487 149.944C44.4647 150.047 44.3387 150.098 44.1707 150.098C43.9934 150.098 43.858 150.047 43.7647 149.944C43.6714 149.841 43.6247 149.697 43.6247 149.51V148.418H43.7507C43.676 148.773 43.5314 149.076 43.3167 149.328C43.1114 149.58 42.8547 149.776 42.5467 149.916C42.2387 150.056 41.8934 150.126 41.5107 150.126ZM48.2362 152.618C48.0962 152.618 47.9842 152.581 47.9002 152.506C47.8162 152.431 47.7648 152.329 47.7462 152.198C47.7368 152.077 47.7602 151.951 47.8162 151.82L48.7822 149.65V150.14L46.0942 143.896C46.0382 143.756 46.0195 143.625 46.0382 143.504C46.0568 143.383 46.1128 143.285 46.2062 143.21C46.2995 143.135 46.4302 143.098 46.5982 143.098C46.7475 143.098 46.8642 143.131 46.9482 143.196C47.0322 143.261 47.1068 143.378 47.1722 143.546L49.4682 149.174H49.0902L51.4142 143.546C51.4888 143.378 51.5682 143.261 51.6522 143.196C51.7362 143.131 51.8575 143.098 52.0162 143.098C52.1655 143.098 52.2775 143.135 52.3522 143.21C52.4362 143.285 52.4828 143.383 52.4922 143.504C52.5108 143.616 52.4922 143.742 52.4362 143.882L48.8522 152.17C48.7775 152.338 48.6935 152.455 48.6002 152.52C48.5162 152.585 48.3948 152.618 48.2362 152.618ZM56.4099 150.126C55.8032 150.126 55.2712 149.981 54.8139 149.692C54.3659 149.403 54.0159 148.997 53.7639 148.474C53.5212 147.942 53.3999 147.317 53.3999 146.598C53.3999 145.87 53.5212 145.245 53.7639 144.722C54.0159 144.19 54.3659 143.784 54.8139 143.504C55.2712 143.215 55.8032 143.07 56.4099 143.07C57.0259 143.07 57.5532 143.224 57.9919 143.532C58.4305 143.84 58.7245 144.255 58.8739 144.778H58.7199V140.606C58.7199 140.419 58.7665 140.279 58.8599 140.186C58.9625 140.083 59.1072 140.032 59.2939 140.032C59.4712 140.032 59.6065 140.083 59.6999 140.186C59.8025 140.279 59.8539 140.419 59.8539 140.606V149.51C59.8539 149.697 59.8072 149.841 59.7139 149.944C59.6205 150.047 59.4805 150.098 59.2939 150.098C59.1165 150.098 58.9765 150.047 58.8739 149.944C58.7805 149.841 58.7339 149.697 58.7339 149.51V148.18L58.8879 148.376C58.7385 148.908 58.4399 149.333 57.9919 149.65C57.5532 149.967 57.0259 150.126 56.4099 150.126ZM56.6479 149.216C57.0679 149.216 57.4365 149.113 57.7539 148.908C58.0712 148.703 58.3139 148.404 58.4819 148.012C58.6592 147.62 58.7479 147.149 58.7479 146.598C58.7479 145.749 58.5565 145.1 58.1739 144.652C57.8005 144.204 57.2919 143.98 56.6479 143.98C56.2185 143.98 55.8452 144.083 55.5279 144.288C55.2199 144.484 54.9772 144.778 54.7999 145.17C54.6319 145.553 54.5479 146.029 54.5479 146.598C54.5479 147.438 54.7392 148.087 55.1219 148.544C55.5045 148.992 56.0132 149.216 56.6479 149.216ZM64.124 150.126C63.6573 150.126 63.2373 150.037 62.864 149.86C62.5 149.673 62.2106 149.421 61.996 149.104C61.7813 148.787 61.674 148.432 61.674 148.04C61.674 147.536 61.8 147.139 62.052 146.85C62.3133 146.561 62.738 146.355 63.326 146.234C63.9233 146.113 64.7353 146.052 65.762 146.052H66.392V146.794H65.776C65.02 146.794 64.4226 146.831 63.984 146.906C63.5546 146.971 63.2513 147.088 63.074 147.256C62.906 147.424 62.822 147.662 62.822 147.97C62.822 148.353 62.9526 148.665 63.214 148.908C63.4846 149.151 63.8486 149.272 64.306 149.272C64.6793 149.272 65.006 149.183 65.286 149.006C65.5753 148.829 65.7993 148.586 65.958 148.278C66.126 147.97 66.21 147.615 66.21 147.214V145.618C66.21 145.039 66.0933 144.624 65.86 144.372C65.6266 144.111 65.244 143.98 64.712 143.98C64.3853 143.98 64.0586 144.022 63.732 144.106C63.4053 144.19 63.06 144.325 62.696 144.512C62.5653 144.577 62.4533 144.601 62.36 144.582C62.2666 144.554 62.192 144.503 62.136 144.428C62.08 144.353 62.0473 144.269 62.038 144.176C62.0286 144.073 62.0473 143.975 62.094 143.882C62.15 143.789 62.234 143.714 62.346 143.658C62.7566 143.453 63.1626 143.303 63.564 143.21C63.9653 143.117 64.348 143.07 64.712 143.07C65.3 143.07 65.7853 143.168 66.168 143.364C66.5506 143.551 66.8353 143.84 67.022 144.232C67.2086 144.615 67.302 145.109 67.302 145.716V149.51C67.302 149.697 67.2553 149.841 67.162 149.944C67.078 150.047 66.952 150.098 66.784 150.098C66.6066 150.098 66.4713 150.047 66.378 149.944C66.2846 149.841 66.238 149.697 66.238 149.51V148.418H66.364C66.2893 148.773 66.1446 149.076 65.93 149.328C65.7246 149.58 65.468 149.776 65.16 149.916C64.852 150.056 64.5066 150.126 64.124 150.126ZM69.9658 152.618C69.7791 152.618 69.6391 152.567 69.5458 152.464C69.4525 152.371 69.4058 152.231 69.4058 152.044V143.672C69.4058 143.485 69.4525 143.345 69.5458 143.252C69.6391 143.149 69.7745 143.098 69.9518 143.098C70.1385 143.098 70.2785 143.149 70.3718 143.252C70.4745 143.345 70.5258 143.485 70.5258 143.672V145.002L70.3718 144.806C70.5211 144.274 70.8151 143.854 71.2538 143.546C71.7018 143.229 72.2338 143.07 72.8498 143.07C73.4565 143.07 73.9838 143.215 74.4318 143.504C74.8891 143.784 75.2391 144.19 75.4818 144.722C75.7338 145.245 75.8598 145.87 75.8598 146.598C75.8598 147.317 75.7338 147.942 75.4818 148.474C75.2391 148.997 74.8938 149.403 74.4458 149.692C73.9978 149.981 73.4658 150.126 72.8498 150.126C72.2338 150.126 71.7065 149.972 71.2678 149.664C70.8291 149.347 70.5305 148.927 70.3718 148.404H70.5398V152.044C70.5398 152.231 70.4885 152.371 70.3858 152.464C70.2831 152.567 70.1431 152.618 69.9658 152.618ZM72.6118 149.216C73.0411 149.216 73.4098 149.113 73.7178 148.908C74.0351 148.703 74.2778 148.404 74.4458 148.012C74.6231 147.62 74.7118 147.149 74.7118 146.598C74.7118 145.749 74.5205 145.1 74.1378 144.652C73.7645 144.204 73.2558 143.98 72.6118 143.98C72.1918 143.98 71.8231 144.083 71.5058 144.288C71.1885 144.484 70.9411 144.778 70.7638 145.17C70.5958 145.553 70.5118 146.029 70.5118 146.598C70.5118 147.438 70.7031 148.087 71.0858 148.544C71.4685 148.992 71.9771 149.216 72.6118 149.216ZM78.1279 152.618C77.9412 152.618 77.8012 152.567 77.7079 152.464C77.6146 152.371 77.5679 152.231 77.5679 152.044V143.672C77.5679 143.485 77.6146 143.345 77.7079 143.252C77.8012 143.149 77.9366 143.098 78.1139 143.098C78.3006 143.098 78.4406 143.149 78.5339 143.252C78.6366 143.345 78.6879 143.485 78.6879 143.672V145.002L78.5339 144.806C78.6832 144.274 78.9772 143.854 79.4159 143.546C79.8639 143.229 80.3959 143.07 81.0119 143.07C81.6186 143.07 82.1459 143.215 82.5939 143.504C83.0512 143.784 83.4012 144.19 83.6439 144.722C83.8959 145.245 84.0219 145.87 84.0219 146.598C84.0219 147.317 83.8959 147.942 83.6439 148.474C83.4012 148.997 83.0559 149.403 82.6079 149.692C82.1599 149.981 81.6279 150.126 81.0119 150.126C80.3959 150.126 79.8686 149.972 79.4299 149.664C78.9912 149.347 78.6926 148.927 78.5339 148.404H78.7019V152.044C78.7019 152.231 78.6506 152.371 78.5479 152.464C78.4452 152.567 78.3052 152.618 78.1279 152.618ZM80.7739 149.216C81.2032 149.216 81.5719 149.113 81.8799 148.908C82.1972 148.703 82.4399 148.404 82.6079 148.012C82.7852 147.62 82.8739 147.149 82.8739 146.598C82.8739 145.749 82.6826 145.1 82.2999 144.652C81.9266 144.204 81.4179 143.98 80.7739 143.98C80.3539 143.98 79.9852 144.083 79.6679 144.288C79.3506 144.484 79.1032 144.778 78.9259 145.17C78.7579 145.553 78.6739 146.029 78.6739 146.598C78.6739 147.438 78.8652 148.087 79.2479 148.544C79.6306 148.992 80.1392 149.216 80.7739 149.216ZM85.9616 150.056C85.7282 150.056 85.5416 149.986 85.4016 149.846C85.2616 149.697 85.1916 149.51 85.1916 149.286C85.1916 149.062 85.2616 148.88 85.4016 148.74C85.5416 148.591 85.7282 148.516 85.9616 148.516C86.1949 148.516 86.3769 148.591 86.5076 148.74C86.6476 148.88 86.7176 149.062 86.7176 149.286C86.7176 149.51 86.6476 149.697 86.5076 149.846C86.3769 149.986 86.1949 150.056 85.9616 150.056ZM89.1611 150.07C88.9744 150.07 88.8344 150.019 88.7411 149.916C88.6478 149.804 88.6011 149.65 88.6011 149.454V143.728C88.6011 143.532 88.6478 143.383 88.7411 143.28C88.8344 143.177 88.9744 143.126 89.1611 143.126C89.3384 143.126 89.4784 143.177 89.5811 143.28C89.6838 143.383 89.7351 143.532 89.7351 143.728V149.454C89.7351 149.65 89.6838 149.804 89.5811 149.916C89.4878 150.019 89.3478 150.07 89.1611 150.07ZM89.1611 141.558C88.9278 141.558 88.7458 141.497 88.6151 141.376C88.4844 141.245 88.4191 141.073 88.4191 140.858C88.4191 140.634 88.4844 140.466 88.6151 140.354C88.7458 140.233 88.9278 140.172 89.1611 140.172C89.4038 140.172 89.5858 140.233 89.7071 140.354C89.8378 140.466 89.9031 140.634 89.9031 140.858C89.9031 141.073 89.8378 141.245 89.7071 141.376C89.5858 141.497 89.4038 141.558 89.1611 141.558ZM94.683 150.126C94.0203 150.126 93.4463 149.981 92.961 149.692C92.4757 149.403 92.0977 148.997 91.827 148.474C91.5657 147.942 91.435 147.317 91.435 146.598C91.435 146.057 91.5097 145.571 91.659 145.142C91.8083 144.703 92.0277 144.33 92.317 144.022C92.6063 143.714 92.947 143.481 93.339 143.322C93.7403 143.154 94.1883 143.07 94.683 143.07C95.3457 143.07 95.9197 143.215 96.405 143.504C96.8903 143.793 97.2637 144.204 97.525 144.736C97.7957 145.259 97.931 145.879 97.931 146.598C97.931 147.139 97.8563 147.625 97.707 148.054C97.5577 148.483 97.3383 148.857 97.049 149.174C96.7597 149.482 96.4143 149.72 96.013 149.888C95.621 150.047 95.1777 150.126 94.683 150.126ZM94.683 149.216C95.103 149.216 95.4717 149.113 95.789 148.908C96.1063 148.703 96.349 148.404 96.517 148.012C96.6943 147.62 96.783 147.149 96.783 146.598C96.783 145.749 96.5917 145.1 96.209 144.652C95.8357 144.204 95.327 143.98 94.683 143.98C94.2537 143.98 93.8803 144.083 93.563 144.288C93.255 144.484 93.0123 144.778 92.835 145.17C92.667 145.553 92.583 146.029 92.583 146.598C92.583 147.438 92.7743 148.087 93.157 148.544C93.5397 148.992 94.0483 149.216 94.683 149.216Z" fill="#0B0514"/>
</g>
<defs>
<filter id="filter0_d_1633_7580" x="0" y="0" width="183" height="183" filterUnits="userSpaceOnUse" color-interpolation-filters="sRGB">
<feFlood flood-opacity="0" result="BackgroundImageFix"/>
<feColorMatrix in="SourceAlpha" type="matrix" values="0 0 0 0 0 0 0 0 0 0 0 0 0 0 0 0 0 0 127 0" result="hardAlpha"/>
<feOffset dy="2"/>
<feGaussianBlur stdDeviation="5"/>
<feComposite in2="hardAlpha" operator="out"/>
<feColorMatrix type="matrix" values="0 0 0 0 0 0 0 0 0 0 0 0 0 0 0 0 0 0 0.1 0"/>
<feBlend mode="normal" in2="BackgroundImageFix" result="effect1_dropShadow_1633_7580"/>
<feBlend mode="normal" in="SourceGraphic" in2="effect1_dropShadow_1633_7580" result="shape"/>
</filter>
<linearGradient id="paint0_linear_1633_7580" x1="10" y1="45.2571" x2="181.15" y2="165.761" gradientUnits="userSpaceOnUse">
<stop stop-color="#2BCAB0"/>
<stop offset="1" stop-color="#63E4CF"/>
</linearGradient>
<clipPath id="clip0_1633_7580">
<rect width="32" height="32" fill="white" transform="translate(40 38)"/>
</clipPath>
</defs>
</svg>
