<svg width="71" height="31" viewBox="0 0 71 31" fill="none" xmlns="http://www.w3.org/2000/svg">
<rect width="71" height="31" rx="4" fill="#F1EDF7"/>
<path d="M18.9965 19.304C18.837 16.3656 15.2871 15.03 14.9473 14.8928C14.9335 14.8856 14.9335 14.8712 14.9404 14.8567L18.6013 11.0304V10.6188C18.5992 10.5517 18.5479 10.4983 18.4834 10.4961H11.7371V8.19308V7.5L9.24802 8.04147V8.43132H9.38669C9.38669 8.43132 9.99684 8.43132 9.99684 9.06664V10.4889H8.06933C8.03189 10.4918 8.00277 10.5221 8 10.5611V11.4635H10.0038V16.3656C10.0038 17.9034 10.9537 18.9719 12.6177 18.8275C12.9602 18.7921 13.2895 18.6679 13.5745 18.4665C13.7 18.3827 13.7756 18.2391 13.7756 18.0839V17.6001C13.2348 17.9756 12.7772 17.9539 12.7772 17.9539C11.7233 17.9539 11.7441 16.5605 11.7441 16.5605V11.4635H16.5975L13.103 15.1311C13.0961 15.6148 13.0892 15.9902 13.0892 15.9974C13.0878 16.0082 13.0954 16.0176 13.1058 16.0191C13.1072 16.0191 13.1086 16.0191 13.11 16.0191C16.3132 16.5822 17.1799 18.7408 17.1799 19.3689C17.1799 19.3689 17.5266 22.4228 14.5937 22.6322C14.5937 22.6322 12.6731 22.7188 12.3334 21.9174C12.3209 21.8914 12.332 21.8597 12.357 21.8474C12.3584 21.8467 12.3598 21.846 12.3611 21.8452C12.6877 21.703 12.8992 21.3695 12.895 21.0005C12.895 20.4085 12.5483 19.9248 11.8203 19.9248C11.231 19.9248 10.7456 20.4085 10.7456 21.0005C10.7456 21.0005 10.4683 23.5707 14.5868 23.4985C19.2877 23.4119 18.9965 19.304 18.9965 19.304Z" fill="#0F62FF"/>
<path d="M31.214 20.598C31.0367 20.598 30.8967 20.5467 30.794 20.444C30.6913 20.332 30.64 20.1827 30.64 19.996V11.624H27.49C27.322 11.624 27.1913 11.5773 27.098 11.484C27.0047 11.3907 26.958 11.2693 26.958 11.12C26.958 10.9613 27.0047 10.84 27.098 10.756C27.1913 10.672 27.322 10.63 27.49 10.63H34.952C35.12 10.63 35.2507 10.672 35.344 10.756C35.4373 10.84 35.484 10.9613 35.484 11.12C35.484 11.2787 35.4373 11.4047 35.344 11.498C35.2507 11.582 35.12 11.624 34.952 11.624H31.802V19.996C31.802 20.1827 31.7507 20.332 31.648 20.444C31.5547 20.5467 31.41 20.598 31.214 20.598ZM38.4855 20.626C37.7668 20.626 37.1461 20.486 36.6235 20.206C36.1101 19.9167 35.7088 19.5107 35.4195 18.988C35.1395 18.4653 34.9995 17.84 34.9995 17.112C34.9995 16.4027 35.1395 15.7867 35.4195 15.264C35.6995 14.732 36.0821 14.3167 36.5675 14.018C37.0621 13.7193 37.6315 13.57 38.2755 13.57C38.7328 13.57 39.1435 13.6493 39.5075 13.808C39.8715 13.9573 40.1795 14.1767 40.4315 14.466C40.6928 14.7553 40.8888 15.1053 41.0195 15.516C41.1595 15.9267 41.2295 16.3887 41.2295 16.902C41.2295 17.0513 41.1875 17.1633 41.1035 17.238C41.0195 17.3033 40.8981 17.336 40.7395 17.336H35.8675V16.594H40.4735L40.2495 16.776C40.2495 16.272 40.1748 15.8473 40.0255 15.502C39.8761 15.1473 39.6568 14.8767 39.3675 14.69C39.0875 14.5033 38.7328 14.41 38.3035 14.41C37.8275 14.41 37.4215 14.522 37.0855 14.746C36.7588 14.9607 36.5115 15.264 36.3435 15.656C36.1755 16.0387 36.0915 16.4867 36.0915 17V17.084C36.0915 17.9427 36.2968 18.596 36.7075 19.044C37.1275 19.492 37.7201 19.716 38.4855 19.716C38.8028 19.716 39.1155 19.674 39.4235 19.59C39.7408 19.506 40.0488 19.366 40.3475 19.17C40.4781 19.086 40.5948 19.0487 40.6975 19.058C40.8095 19.058 40.8981 19.0907 40.9635 19.156C41.0288 19.212 41.0708 19.2867 41.0895 19.38C41.1175 19.464 41.1081 19.5573 41.0615 19.66C41.0241 19.7627 40.9448 19.8513 40.8235 19.926C40.5155 20.15 40.1515 20.3227 39.7315 20.444C39.3115 20.5653 38.8961 20.626 38.4855 20.626ZM42.9693 20.5C42.848 20.5 42.75 20.472 42.6753 20.416C42.6006 20.36 42.5493 20.2853 42.5213 20.192C42.4933 20.0987 42.4933 19.996 42.5213 19.884C42.5493 19.772 42.61 19.6647 42.7033 19.562L46.6513 14.284V14.578H42.9133C42.764 14.578 42.6473 14.5407 42.5633 14.466C42.4886 14.382 42.4513 14.27 42.4513 14.13C42.4513 13.99 42.4886 13.8827 42.5633 13.808C42.6473 13.7333 42.764 13.696 42.9133 13.696H47.2113C47.3513 13.696 47.4633 13.724 47.5473 13.78C47.6406 13.836 47.7013 13.9107 47.7293 14.004C47.7573 14.088 47.7573 14.186 47.7293 14.298C47.7106 14.4007 47.6593 14.5033 47.5753 14.606L43.5573 19.94V19.618H47.4913C47.7993 19.618 47.9533 19.7627 47.9533 20.052C47.9533 20.192 47.9113 20.304 47.8273 20.388C47.7526 20.4627 47.6406 20.5 47.4913 20.5H42.9693ZM52.015 20.626C51.3524 20.626 50.7784 20.4813 50.293 20.192C49.8077 19.9027 49.4297 19.4967 49.159 18.974C48.8977 18.442 48.767 17.8167 48.767 17.098C48.767 16.5567 48.8417 16.0713 48.991 15.642C49.1404 15.2033 49.3597 14.83 49.649 14.522C49.9384 14.214 50.279 13.9807 50.671 13.822C51.0724 13.654 51.5204 13.57 52.015 13.57C52.6777 13.57 53.2517 13.7147 53.737 14.004C54.2224 14.2933 54.5957 14.704 54.857 15.236C55.1277 15.7587 55.263 16.3793 55.263 17.098C55.263 17.6393 55.1884 18.1247 55.039 18.554C54.8897 18.9833 54.6704 19.3567 54.381 19.674C54.0917 19.982 53.7464 20.22 53.345 20.388C52.953 20.5467 52.5097 20.626 52.015 20.626ZM52.015 19.716C52.435 19.716 52.8037 19.6133 53.121 19.408C53.4384 19.2027 53.681 18.904 53.849 18.512C54.0264 18.12 54.115 17.6487 54.115 17.098C54.115 16.2487 53.9237 15.6 53.541 15.152C53.1677 14.704 52.659 14.48 52.015 14.48C51.5857 14.48 51.2124 14.5827 50.895 14.788C50.587 14.984 50.3444 15.278 50.167 15.67C49.999 16.0527 49.915 16.5287 49.915 17.098C49.915 17.938 50.1064 18.5867 50.489 19.044C50.8717 19.492 51.3804 19.716 52.015 19.716ZM59.2623 20.626C58.8423 20.626 58.4177 20.5747 57.9883 20.472C57.5683 20.3693 57.1763 20.192 56.8123 19.94C56.719 19.8747 56.6537 19.8 56.6163 19.716C56.579 19.6227 56.565 19.534 56.5743 19.45C56.593 19.3567 56.6303 19.2773 56.6863 19.212C56.7517 19.1467 56.8263 19.1093 56.9103 19.1C57.0037 19.0813 57.1063 19.1 57.2183 19.156C57.5823 19.38 57.9323 19.5387 58.2683 19.632C58.6137 19.716 58.9543 19.758 59.2903 19.758C59.8223 19.758 60.2237 19.66 60.4943 19.464C60.765 19.268 60.9003 19.002 60.9003 18.666C60.9003 18.4047 60.8117 18.1993 60.6343 18.05C60.457 17.8913 60.177 17.77 59.7943 17.686L58.5203 17.406C57.9323 17.2847 57.4937 17.0747 57.2043 16.776C56.9243 16.4773 56.7843 16.09 56.7843 15.614C56.7843 15.194 56.8917 14.8347 57.1063 14.536C57.3303 14.228 57.643 13.99 58.0443 13.822C58.4457 13.654 58.9123 13.57 59.4443 13.57C59.855 13.57 60.2423 13.626 60.6063 13.738C60.9797 13.8407 61.3157 14.0087 61.6143 14.242C61.7077 14.3073 61.7683 14.3867 61.7963 14.48C61.8337 14.564 61.8383 14.6527 61.8103 14.746C61.7917 14.83 61.7497 14.9047 61.6843 14.97C61.619 15.026 61.5397 15.0587 61.4463 15.068C61.353 15.0773 61.255 15.0493 61.1523 14.984C60.8723 14.7973 60.5877 14.662 60.2983 14.578C60.009 14.4847 59.7243 14.438 59.4443 14.438C58.9217 14.438 58.525 14.5407 58.2543 14.746C57.9837 14.9513 57.8483 15.222 57.8483 15.558C57.8483 15.8193 57.9323 16.034 58.1003 16.202C58.2683 16.37 58.5297 16.4913 58.8843 16.566L60.1583 16.832C60.765 16.9627 61.2177 17.1727 61.5163 17.462C61.8243 17.742 61.9783 18.1247 61.9783 18.61C61.9783 19.226 61.731 19.716 61.2363 20.08C60.7417 20.444 60.0837 20.626 59.2623 20.626Z" fill="#0B0514"/>
</svg>
