<svg width="109" height="35" viewBox="0 0 109 35" fill="none" xmlns="http://www.w3.org/2000/svg">
<rect width="109" height="34.8387" rx="4" fill="#F1EDF7"/>
<path d="M17.8067 23.6436V25.7562L15.9739 26.8387L14.1933 25.7562V23.6436L15.9739 24.7261L17.8067 23.6436ZM8 16.3369L9.78067 17.4194V21.0422L12.8469 22.8841V24.9967L8 22.1247V16.3369ZM23.9479 16.3369V22.1334L19.0489 25.0055V22.8929L22.1151 21.0509V17.4281L23.9479 16.3369ZM19.0402 13.4648L20.873 14.5473V16.6599L17.8067 18.5018V22.177L16.0261 23.2595L14.2541 22.177V18.4931L11.0749 16.6511V14.5385L12.9077 13.4561L15.9739 15.298L19.0402 13.4648ZM11.0749 18.1701L12.8556 19.2526V21.3652L11.0749 20.2827V18.1701ZM20.873 18.1701V20.2827L19.0923 21.3652V19.2526L20.873 18.1701ZM9.78067 11.6228L11.6135 12.7053L9.78067 13.7878V15.9004L8 14.8179V12.7053L9.78067 11.6228ZM22.1672 11.6228L24 12.7053V14.8179L22.1672 15.9004V13.7878L20.3865 12.7053L22.1672 11.6228ZM15.9739 11.6228L17.8067 12.7053L15.9739 13.7878L14.1933 12.7053L15.9739 11.6228ZM15.9739 8L20.873 10.8721L19.0923 11.9546L16.0261 10.1126L12.899 11.9546L11.1184 10.8721L15.9739 8Z" fill="#F3BA2F"/>
<path d="M33.848 22.4194C33.6427 22.4194 33.484 22.3681 33.372 22.2654C33.2693 22.1534 33.218 21.9948 33.218 21.7894V13.1794C33.218 12.9741 33.2693 12.8201 33.372 12.7174C33.484 12.6054 33.6427 12.5494 33.848 12.5494H37.166C37.8473 12.5494 38.4213 12.6521 38.888 12.8574C39.364 13.0534 39.728 13.3428 39.98 13.7254C40.232 14.1081 40.358 14.5748 40.358 15.1254C40.358 15.7414 40.176 16.2548 39.812 16.6654C39.4573 17.0761 38.972 17.3468 38.356 17.4774V17.2814C39.056 17.3654 39.602 17.6174 39.994 18.0374C40.3953 18.4574 40.596 19.0128 40.596 19.7034C40.596 20.5808 40.3113 21.2528 39.742 21.7194C39.1727 22.1861 38.37 22.4194 37.334 22.4194H33.848ZM34.338 21.4954H37.222C37.9687 21.4954 38.5287 21.3461 38.902 21.0474C39.2753 20.7488 39.462 20.2961 39.462 19.6894C39.462 19.0734 39.2753 18.6208 38.902 18.3314C38.5287 18.0328 37.9687 17.8834 37.222 17.8834H34.338V21.4954ZM34.338 16.9594H36.998C37.726 16.9594 38.2767 16.8101 38.65 16.5114C39.0327 16.2128 39.224 15.7834 39.224 15.2234C39.224 14.6448 39.0327 14.2108 38.65 13.9214C38.2767 13.6228 37.726 13.4734 36.998 13.4734H34.338V16.9594ZM43.2249 22.5174C43.0476 22.5174 42.9123 22.4708 42.8189 22.3774C42.7256 22.2748 42.6789 22.1301 42.6789 21.9434V13.0394C42.6789 12.8528 42.7256 12.7081 42.8189 12.6054C42.9123 12.5028 43.0336 12.4514 43.1829 12.4514C43.3323 12.4514 43.4396 12.4794 43.5049 12.5354C43.5796 12.5821 43.6636 12.6708 43.7569 12.8014L49.8609 20.9354H49.5249V13.0114C49.5249 12.8341 49.5716 12.6988 49.6649 12.6054C49.7583 12.5028 49.8936 12.4514 50.0709 12.4514C50.2389 12.4514 50.3649 12.5028 50.4489 12.6054C50.5423 12.6988 50.5889 12.8341 50.5889 13.0114V21.9574C50.5889 22.1348 50.5469 22.2748 50.4629 22.3774C50.3883 22.4708 50.2763 22.5174 50.1269 22.5174C49.9869 22.5174 49.8749 22.4894 49.7909 22.4334C49.7069 22.3774 49.6183 22.2888 49.5249 22.1674L43.4349 14.0334H43.7569V21.9434C43.7569 22.1301 43.7103 22.2748 43.6169 22.3774C43.5236 22.4708 43.3929 22.5174 43.2249 22.5174ZM53.6722 22.4194C53.4669 22.4194 53.3082 22.3681 53.1962 22.2654C53.0936 22.1534 53.0422 21.9948 53.0422 21.7894V13.1794C53.0422 12.9741 53.0936 12.8201 53.1962 12.7174C53.3082 12.6054 53.4669 12.5494 53.6722 12.5494H56.9902C57.6716 12.5494 58.2456 12.6521 58.7122 12.8574C59.1882 13.0534 59.5522 13.3428 59.8042 13.7254C60.0562 14.1081 60.1822 14.5748 60.1822 15.1254C60.1822 15.7414 60.0002 16.2548 59.6362 16.6654C59.2816 17.0761 58.7962 17.3468 58.1802 17.4774V17.2814C58.8802 17.3654 59.4262 17.6174 59.8182 18.0374C60.2196 18.4574 60.4202 19.0128 60.4202 19.7034C60.4202 20.5808 60.1356 21.2528 59.5662 21.7194C58.9969 22.1861 58.1942 22.4194 57.1582 22.4194H53.6722ZM54.1622 21.4954H57.0462C57.7929 21.4954 58.3529 21.3461 58.7262 21.0474C59.0996 20.7488 59.2862 20.2961 59.2862 19.6894C59.2862 19.0734 59.0996 18.6208 58.7262 18.3314C58.3529 18.0328 57.7929 17.8834 57.0462 17.8834H54.1622V21.4954ZM54.1622 16.9594H56.8222C57.5502 16.9594 58.1009 16.8101 58.4742 16.5114C58.8569 16.2128 59.0482 15.7834 59.0482 15.2234C59.0482 14.6448 58.8569 14.2108 58.4742 13.9214C58.1009 13.6228 57.5502 13.4734 56.8222 13.4734H54.1622V16.9594ZM70.3825 22.5454C69.4119 22.5454 68.5812 22.3401 67.8905 21.9294C67.1999 21.5188 66.6679 20.9354 66.2945 20.1794C65.9305 19.4234 65.7485 18.5228 65.7485 17.4774C65.7485 16.6934 65.8512 15.9934 66.0565 15.3774C66.2712 14.7521 66.5745 14.2248 66.9665 13.7954C67.3679 13.3568 67.8579 13.0208 68.4365 12.7874C69.0152 12.5448 69.6639 12.4234 70.3825 12.4234C70.9612 12.4234 71.5119 12.5074 72.0345 12.6754C72.5572 12.8341 73.0099 13.0721 73.3925 13.3894C73.5139 13.4828 73.5932 13.5901 73.6305 13.7114C73.6772 13.8234 73.6819 13.9354 73.6445 14.0474C73.6165 14.1501 73.5605 14.2388 73.4765 14.3134C73.4019 14.3788 73.3085 14.4114 73.1965 14.4114C73.0845 14.4114 72.9585 14.3648 72.8185 14.2714C72.4825 14.0008 72.1139 13.8001 71.7125 13.6694C71.3112 13.5388 70.8772 13.4734 70.4105 13.4734C69.6732 13.4734 69.0479 13.6321 68.5345 13.9494C68.0212 14.2574 67.6339 14.7101 67.3725 15.3074C67.1112 15.9048 66.9805 16.6281 66.9805 17.4774C66.9805 18.3268 67.1112 19.0548 67.3725 19.6614C67.6339 20.2588 68.0212 20.7161 68.5345 21.0334C69.0479 21.3414 69.6732 21.4954 70.4105 21.4954C70.8679 21.4954 71.3019 21.4301 71.7125 21.2994C72.1232 21.1594 72.5012 20.9541 72.8465 20.6834C72.9865 20.5901 73.1125 20.5481 73.2245 20.5574C73.3365 20.5574 73.4299 20.5901 73.5045 20.6554C73.5792 20.7208 73.6305 20.8048 73.6585 20.9074C73.6959 21.0101 73.6959 21.1174 73.6585 21.2294C73.6305 21.3414 73.5605 21.4394 73.4485 21.5234C73.0565 21.8594 72.5945 22.1161 72.0625 22.2934C71.5399 22.4614 70.9799 22.5454 70.3825 22.5454ZM75.9385 22.5174C75.7518 22.5174 75.6118 22.4661 75.5185 22.3634C75.4251 22.2608 75.3785 22.1161 75.3785 21.9294V13.0254C75.3785 12.8388 75.4251 12.6988 75.5185 12.6054C75.6118 12.5028 75.7518 12.4514 75.9385 12.4514C76.1158 12.4514 76.2558 12.5028 76.3585 12.6054C76.4611 12.6988 76.5125 12.8388 76.5125 13.0254V17.1274H76.3305C76.5265 16.5861 76.8438 16.1801 77.2825 15.9094C77.7305 15.6294 78.2438 15.4894 78.8225 15.4894C79.3638 15.4894 79.8118 15.5874 80.1665 15.7834C80.5305 15.9794 80.8011 16.2781 80.9785 16.6794C81.1558 17.0714 81.2445 17.5708 81.2445 18.1774V21.9294C81.2445 22.1161 81.1931 22.2608 81.0905 22.3634C80.9971 22.4661 80.8618 22.5174 80.6845 22.5174C80.4978 22.5174 80.3531 22.4661 80.2505 22.3634C80.1571 22.2608 80.1105 22.1161 80.1105 21.9294V18.2474C80.1105 17.6128 79.9845 17.1508 79.7325 16.8614C79.4898 16.5628 79.0978 16.4134 78.5565 16.4134C77.9311 16.4134 77.4318 16.6094 77.0585 17.0014C76.6945 17.3841 76.5125 17.8974 76.5125 18.5414V21.9294C76.5125 22.3214 76.3211 22.5174 75.9385 22.5174ZM85.4775 22.5454C85.0108 22.5454 84.5908 22.4568 84.2175 22.2794C83.8535 22.0928 83.5642 21.8408 83.3495 21.5234C83.1348 21.2061 83.0275 20.8514 83.0275 20.4594C83.0275 19.9554 83.1535 19.5588 83.4055 19.2694C83.6668 18.9801 84.0915 18.7748 84.6795 18.6534C85.2768 18.5321 86.0888 18.4714 87.1155 18.4714H87.7455V19.2134H87.1295C86.3735 19.2134 85.7762 19.2508 85.3375 19.3254C84.9082 19.3908 84.6048 19.5074 84.4275 19.6754C84.2595 19.8434 84.1755 20.0814 84.1755 20.3894C84.1755 20.7721 84.3062 21.0848 84.5675 21.3274C84.8382 21.5701 85.2022 21.6914 85.6595 21.6914C86.0328 21.6914 86.3595 21.6028 86.6395 21.4254C86.9288 21.2481 87.1528 21.0054 87.3115 20.6974C87.4795 20.3894 87.5635 20.0348 87.5635 19.6334V18.0374C87.5635 17.4588 87.4468 17.0434 87.2135 16.7914C86.9802 16.5301 86.5975 16.3994 86.0655 16.3994C85.7388 16.3994 85.4122 16.4414 85.0855 16.5254C84.7588 16.6094 84.4135 16.7448 84.0495 16.9314C83.9188 16.9968 83.8068 17.0201 83.7135 17.0014C83.6202 16.9734 83.5455 16.9221 83.4895 16.8474C83.4335 16.7728 83.4008 16.6888 83.3915 16.5954C83.3822 16.4928 83.4008 16.3948 83.4475 16.3014C83.5035 16.2081 83.5875 16.1334 83.6995 16.0774C84.1102 15.8721 84.5162 15.7228 84.9175 15.6294C85.3188 15.5361 85.7015 15.4894 86.0655 15.4894C86.6535 15.4894 87.1388 15.5874 87.5215 15.7834C87.9042 15.9701 88.1888 16.2594 88.3755 16.6514C88.5622 17.0341 88.6555 17.5288 88.6555 18.1354V21.9294C88.6555 22.1161 88.6088 22.2608 88.5155 22.3634C88.4315 22.4661 88.3055 22.5174 88.1375 22.5174C87.9602 22.5174 87.8248 22.4661 87.7315 22.3634C87.6382 22.2608 87.5915 22.1161 87.5915 21.9294V20.8374H87.7175C87.6428 21.1921 87.4982 21.4954 87.2835 21.7474C87.0782 21.9994 86.8215 22.1954 86.5135 22.3354C86.2055 22.4754 85.8602 22.5454 85.4775 22.5454ZM91.3193 22.4894C91.1326 22.4894 90.9926 22.4381 90.8993 22.3354C90.806 22.2234 90.7593 22.0694 90.7593 21.8734V16.1474C90.7593 15.9514 90.806 15.8021 90.8993 15.6994C90.9926 15.5968 91.1326 15.5454 91.3193 15.5454C91.4966 15.5454 91.6366 15.5968 91.7393 15.6994C91.842 15.8021 91.8933 15.9514 91.8933 16.1474V21.8734C91.8933 22.0694 91.842 22.2234 91.7393 22.3354C91.646 22.4381 91.506 22.4894 91.3193 22.4894ZM91.3193 13.9774C91.086 13.9774 90.904 13.9168 90.7733 13.7954C90.6426 13.6648 90.5773 13.4921 90.5773 13.2774C90.5773 13.0534 90.6426 12.8854 90.7733 12.7734C90.904 12.6521 91.086 12.5914 91.3193 12.5914C91.562 12.5914 91.744 12.6521 91.8653 12.7734C91.996 12.8854 92.0613 13.0534 92.0613 13.2774C92.0613 13.4921 91.996 13.6648 91.8653 13.7954C91.744 13.9168 91.562 13.9774 91.3193 13.9774ZM94.5732 22.5174C94.3866 22.5174 94.2466 22.4661 94.1532 22.3634C94.0599 22.2608 94.0132 22.1161 94.0132 21.9294V16.0914C94.0132 15.9048 94.0599 15.7648 94.1532 15.6714C94.2466 15.5688 94.3819 15.5174 94.5592 15.5174C94.7366 15.5174 94.8719 15.5688 94.9652 15.6714C95.0679 15.7648 95.1192 15.9048 95.1192 16.0914V17.2954L94.9652 17.1274C95.1612 16.5861 95.4786 16.1801 95.9172 15.9094C96.3652 15.6294 96.8786 15.4894 97.4572 15.4894C97.9986 15.4894 98.4466 15.5874 98.8012 15.7834C99.1652 15.9794 99.4359 16.2781 99.6132 16.6794C99.7906 17.0714 99.8792 17.5708 99.8792 18.1774V21.9294C99.8792 22.1161 99.8279 22.2608 99.7252 22.3634C99.6319 22.4661 99.4966 22.5174 99.3192 22.5174C99.1326 22.5174 98.9879 22.4661 98.8852 22.3634C98.7919 22.2608 98.7452 22.1161 98.7452 21.9294V18.2474C98.7452 17.6128 98.6192 17.1508 98.3672 16.8614C98.1246 16.5628 97.7326 16.4134 97.1912 16.4134C96.5659 16.4134 96.0666 16.6094 95.6932 17.0014C95.3292 17.3841 95.1472 17.8974 95.1472 18.5414V21.9294C95.1472 22.3214 94.9559 22.5174 94.5732 22.5174Z" fill="#0B0514"/>
</svg>
