<svg width="95" height="32" viewBox="0 0 95 32" fill="none" xmlns="http://www.w3.org/2000/svg">
<rect width="94.7062" height="31.728" rx="4" fill="#F1EDF7"/>
<path d="M12.8456 23.728V19.782L8.05566 16.9275L12.8456 23.728Z" fill="#F0CDC2" stroke="#1616B4" stroke-width="0.45" stroke-linejoin="round"/>
<path d="M12.8613 23.728V19.782L17.6512 16.9275L12.8613 23.728Z" fill="#C9B3F5" stroke="#1616B4" stroke-width="0.45" stroke-linejoin="round"/>
<path d="M12.8449 18.8013V13.7651L8 15.976L12.8449 18.8013Z" fill="#88AAF1" stroke="#1616B4" stroke-width="0.45" stroke-linejoin="round"/>
<path d="M12.8613 18.8013V13.7651L17.7062 15.976L12.8613 18.8013Z" fill="#C9B3F5" stroke="#1616B4" stroke-width="0.45" stroke-linejoin="round"/>
<path d="M8 15.9759L12.8449 8V13.7651L8 15.9759Z" fill="#F0CDC2" stroke="#1616B4" stroke-width="0.45" stroke-linejoin="round"/>
<path d="M17.7062 15.9759L12.8613 8V13.7651L17.7062 15.9759Z" fill="#B8FAF6" stroke="#1616B4" stroke-width="0.45" stroke-linejoin="round"/>
<path d="M27.5541 20.864C27.3487 20.864 27.1901 20.8127 27.0781 20.71C26.9754 20.598 26.9241 20.4393 26.9241 20.234V11.624C26.9241 11.4187 26.9754 11.2647 27.0781 11.162C27.1901 11.05 27.3487 10.994 27.5541 10.994H32.7621C32.9207 10.994 33.0421 11.036 33.1261 11.12C33.2101 11.204 33.2521 11.3207 33.2521 11.47C33.2521 11.6287 33.2101 11.75 33.1261 11.834C33.0421 11.918 32.9207 11.96 32.7621 11.96H28.0441V15.376H32.4681C32.6267 15.376 32.7481 15.418 32.8321 15.502C32.9161 15.5767 32.9581 15.6933 32.9581 15.852C32.9581 16.0107 32.9161 16.132 32.8321 16.216C32.7481 16.3 32.6267 16.342 32.4681 16.342H28.0441V19.898H32.7621C32.9207 19.898 33.0421 19.94 33.1261 20.024C33.2101 20.108 33.2521 20.2247 33.2521 20.374C33.2521 20.5327 33.2101 20.654 33.1261 20.738C33.0421 20.822 32.9207 20.864 32.7621 20.864H27.5541ZM37.6622 20.99C37.1302 20.99 36.6822 20.8967 36.3182 20.71C35.9635 20.514 35.6975 20.234 35.5202 19.87C35.3428 19.4967 35.2542 19.044 35.2542 18.512V14.942H34.3162C34.1575 14.942 34.0362 14.9047 33.9522 14.83C33.8682 14.746 33.8262 14.634 33.8262 14.494C33.8262 14.354 33.8682 14.2467 33.9522 14.172C34.0362 14.0973 34.1575 14.06 34.3162 14.06H35.2542V12.45C35.2542 12.2633 35.3055 12.1233 35.4082 12.03C35.5108 11.9273 35.6508 11.876 35.8282 11.876C36.0055 11.876 36.1408 11.9273 36.2342 12.03C36.3368 12.1233 36.3882 12.2633 36.3882 12.45V14.06H38.1522C38.3108 14.06 38.4322 14.0973 38.5162 14.172C38.6002 14.2467 38.6422 14.354 38.6422 14.494C38.6422 14.634 38.6002 14.746 38.5162 14.83C38.4322 14.9047 38.3108 14.942 38.1522 14.942H36.3882V18.4C36.3882 18.932 36.5002 19.338 36.7242 19.618C36.9482 19.8887 37.3122 20.024 37.8162 20.024C37.9935 20.024 38.1428 20.0053 38.2642 19.968C38.3948 19.9307 38.5022 19.912 38.5862 19.912C38.6702 19.9027 38.7402 19.9307 38.7962 19.996C38.8522 20.0613 38.8802 20.1733 38.8802 20.332C38.8802 20.444 38.8568 20.5467 38.8102 20.64C38.7728 20.7333 38.7028 20.7987 38.6002 20.836C38.4882 20.8733 38.3388 20.906 38.1522 20.934C37.9748 20.9713 37.8115 20.99 37.6622 20.99ZM40.4687 20.962C40.2821 20.962 40.1421 20.9107 40.0487 20.808C39.9554 20.7053 39.9087 20.5607 39.9087 20.374V11.47C39.9087 11.2833 39.9554 11.1433 40.0487 11.05C40.1421 10.9473 40.2821 10.896 40.4687 10.896C40.6461 10.896 40.7861 10.9473 40.8887 11.05C40.9914 11.1433 41.0427 11.2833 41.0427 11.47V15.572H40.8607C41.0567 15.0307 41.3741 14.6247 41.8127 14.354C42.2607 14.074 42.7741 13.934 43.3527 13.934C43.8941 13.934 44.3421 14.032 44.6967 14.228C45.0607 14.424 45.3314 14.7227 45.5087 15.124C45.6861 15.516 45.7747 16.0153 45.7747 16.622V20.374C45.7747 20.5607 45.7234 20.7053 45.6207 20.808C45.5274 20.9107 45.3921 20.962 45.2147 20.962C45.0281 20.962 44.8834 20.9107 44.7807 20.808C44.6874 20.7053 44.6407 20.5607 44.6407 20.374V16.692C44.6407 16.0573 44.5147 15.5953 44.2627 15.306C44.0201 15.0073 43.6281 14.858 43.0867 14.858C42.4614 14.858 41.9621 15.054 41.5887 15.446C41.2247 15.8287 41.0427 16.342 41.0427 16.986V20.374C41.0427 20.766 40.8514 20.962 40.4687 20.962ZM50.9318 20.99C50.2131 20.99 49.5924 20.85 49.0698 20.57C48.5564 20.2807 48.1551 19.8747 47.8658 19.352C47.5858 18.8293 47.4458 18.204 47.4458 17.476C47.4458 16.7667 47.5858 16.1507 47.8658 15.628C48.1458 15.096 48.5284 14.6807 49.0138 14.382C49.5084 14.0833 50.0778 13.934 50.7218 13.934C51.1791 13.934 51.5898 14.0133 51.9538 14.172C52.3178 14.3213 52.6258 14.5407 52.8778 14.83C53.1391 15.1193 53.3351 15.4693 53.4658 15.88C53.6058 16.2907 53.6758 16.7527 53.6758 17.266C53.6758 17.4153 53.6338 17.5273 53.5498 17.602C53.4658 17.6673 53.3444 17.7 53.1858 17.7H48.3138V16.958H52.9198L52.6958 17.14C52.6958 16.636 52.6211 16.2113 52.4718 15.866C52.3224 15.5113 52.1031 15.2407 51.8138 15.054C51.5338 14.8673 51.1791 14.774 50.7498 14.774C50.2738 14.774 49.8678 14.886 49.5318 15.11C49.2051 15.3247 48.9578 15.628 48.7898 16.02C48.6218 16.4027 48.5378 16.8507 48.5378 17.364V17.448C48.5378 18.3067 48.7431 18.96 49.1538 19.408C49.5738 19.856 50.1664 20.08 50.9318 20.08C51.2491 20.08 51.5618 20.038 51.8698 19.954C52.1871 19.87 52.4951 19.73 52.7938 19.534C52.9244 19.45 53.0411 19.4127 53.1438 19.422C53.2558 19.422 53.3444 19.4547 53.4098 19.52C53.4751 19.576 53.5171 19.6507 53.5358 19.744C53.5638 19.828 53.5544 19.9213 53.5078 20.024C53.4704 20.1267 53.3911 20.2153 53.2698 20.29C52.9618 20.514 52.5978 20.6867 52.1778 20.808C51.7578 20.9293 51.3424 20.99 50.9318 20.99ZM55.8909 20.962C55.7043 20.962 55.5596 20.9107 55.4569 20.808C55.3636 20.7053 55.3169 20.5607 55.3169 20.374V14.536C55.3169 14.3493 55.3636 14.2093 55.4569 14.116C55.5503 14.0133 55.6856 13.962 55.8629 13.962C56.0403 13.962 56.1756 14.0133 56.2689 14.116C56.3716 14.2093 56.4229 14.3493 56.4229 14.536V15.67H56.2829C56.4323 15.1193 56.7169 14.6947 57.1369 14.396C57.5569 14.0973 58.0749 13.9387 58.6909 13.92C58.8309 13.9107 58.9429 13.9433 59.0269 14.018C59.1109 14.0833 59.1576 14.2 59.1669 14.368C59.1763 14.5267 59.1389 14.6527 59.0549 14.746C58.9709 14.8393 58.8403 14.8953 58.6629 14.914L58.4389 14.942C57.8043 14.998 57.3143 15.2033 56.9689 15.558C56.6329 15.9033 56.4649 16.3793 56.4649 16.986V20.374C56.4649 20.5607 56.4136 20.7053 56.3109 20.808C56.2176 20.9107 56.0776 20.962 55.8909 20.962ZM63.3185 20.99C62.5998 20.99 61.9791 20.85 61.4565 20.57C60.9431 20.2807 60.5418 19.8747 60.2525 19.352C59.9725 18.8293 59.8325 18.204 59.8325 17.476C59.8325 16.7667 59.9725 16.1507 60.2525 15.628C60.5325 15.096 60.9151 14.6807 61.4005 14.382C61.8951 14.0833 62.4645 13.934 63.1085 13.934C63.5658 13.934 63.9765 14.0133 64.3405 14.172C64.7045 14.3213 65.0125 14.5407 65.2645 14.83C65.5258 15.1193 65.7218 15.4693 65.8525 15.88C65.9925 16.2907 66.0625 16.7527 66.0625 17.266C66.0625 17.4153 66.0205 17.5273 65.9365 17.602C65.8525 17.6673 65.7311 17.7 65.5725 17.7H60.7005V16.958H65.3065L65.0825 17.14C65.0825 16.636 65.0078 16.2113 64.8585 15.866C64.7091 15.5113 64.4898 15.2407 64.2005 15.054C63.9205 14.8673 63.5658 14.774 63.1365 14.774C62.6605 14.774 62.2545 14.886 61.9185 15.11C61.5918 15.3247 61.3445 15.628 61.1765 16.02C61.0085 16.4027 60.9245 16.8507 60.9245 17.364V17.448C60.9245 18.3067 61.1298 18.96 61.5405 19.408C61.9605 19.856 62.5531 20.08 63.3185 20.08C63.6358 20.08 63.9485 20.038 64.2565 19.954C64.5738 19.87 64.8818 19.73 65.1805 19.534C65.3111 19.45 65.4278 19.4127 65.5305 19.422C65.6425 19.422 65.7311 19.4547 65.7965 19.52C65.8618 19.576 65.9038 19.6507 65.9225 19.744C65.9505 19.828 65.9411 19.9213 65.8945 20.024C65.8571 20.1267 65.7778 20.2153 65.6565 20.29C65.3485 20.514 64.9845 20.6867 64.5645 20.808C64.1445 20.9293 63.7291 20.99 63.3185 20.99ZM70.1116 20.99C69.561 20.99 69.1036 20.892 68.7396 20.696C68.385 20.4907 68.1143 20.1873 67.9276 19.786C67.7503 19.3847 67.6616 18.8853 67.6616 18.288V14.536C67.6616 14.34 67.7083 14.1953 67.8016 14.102C67.9043 14.0087 68.0443 13.962 68.2216 13.962C68.4083 13.962 68.5483 14.0087 68.6416 14.102C68.7443 14.1953 68.7956 14.34 68.7956 14.536V18.274C68.7956 18.8713 68.917 19.3193 69.1596 19.618C69.4116 19.9073 69.8036 20.052 70.3356 20.052C70.9143 20.052 71.3856 19.856 71.7496 19.464C72.1136 19.072 72.2956 18.5587 72.2956 17.924V14.536C72.2956 14.34 72.3423 14.1953 72.4356 14.102C72.5383 14.0087 72.683 13.962 72.8696 13.962C73.047 13.962 73.1823 14.0087 73.2756 14.102C73.3783 14.1953 73.4296 14.34 73.4296 14.536V20.374C73.4296 20.766 73.2476 20.962 72.8836 20.962C72.7063 20.962 72.5663 20.9107 72.4636 20.808C72.3703 20.7053 72.3236 20.5607 72.3236 20.374V19.1L72.5056 19.296C72.319 19.8467 72.011 20.2667 71.5816 20.556C71.1616 20.8453 70.6716 20.99 70.1116 20.99ZM76.1393 20.962C75.9526 20.962 75.8126 20.9107 75.7193 20.808C75.626 20.7053 75.5793 20.5607 75.5793 20.374V14.536C75.5793 14.3493 75.626 14.2093 75.7193 14.116C75.8126 14.0133 75.948 13.962 76.1253 13.962C76.3026 13.962 76.438 14.0133 76.5313 14.116C76.634 14.2093 76.6853 14.3493 76.6853 14.536V15.768L76.5313 15.572C76.7086 15.0493 76.9933 14.648 77.3853 14.368C77.7866 14.0787 78.2626 13.934 78.8133 13.934C79.392 13.934 79.8586 14.074 80.2133 14.354C80.5773 14.6247 80.82 15.0493 80.9413 15.628H80.7313C80.8993 15.1053 81.198 14.6947 81.6273 14.396C82.066 14.088 82.5746 13.934 83.1533 13.934C83.6666 13.934 84.0866 14.032 84.4133 14.228C84.7493 14.424 85.0013 14.7227 85.1693 15.124C85.3373 15.516 85.4213 16.0153 85.4213 16.622V20.374C85.4213 20.5607 85.37 20.7053 85.2673 20.808C85.174 20.9107 85.034 20.962 84.8473 20.962C84.67 20.962 84.53 20.9107 84.4273 20.808C84.334 20.7053 84.2873 20.5607 84.2873 20.374V16.678C84.2873 16.0527 84.18 15.5953 83.9653 15.306C83.7506 15.0073 83.3866 14.858 82.8733 14.858C82.3133 14.858 81.87 15.054 81.5433 15.446C81.226 15.8287 81.0673 16.3513 81.0673 17.014V20.374C81.0673 20.5607 81.016 20.7053 80.9133 20.808C80.82 20.9107 80.68 20.962 80.4933 20.962C80.316 20.962 80.176 20.9107 80.0733 20.808C79.98 20.7053 79.9333 20.5607 79.9333 20.374V16.678C79.9333 16.0527 79.8213 15.5953 79.5973 15.306C79.3826 15.0073 79.0233 14.858 78.5193 14.858C77.9593 14.858 77.516 15.054 77.1893 15.446C76.872 15.8287 76.7133 16.3513 76.7133 17.014V20.374C76.7133 20.766 76.522 20.962 76.1393 20.962Z" fill="#0B0514"/>
<a href="https://issuer.talao.co/defi/nft/ethereum">
<rect fill="black" fill-opacity="0" x="8.16211" y="-4.284" width="52.6031" height="19.096"/>
</a>
</svg>
