<svg width="173" height="183" viewBox="0 0 173 183" fill="none" xmlns="http://www.w3.org/2000/svg">
<g filter="url(#filter0_d_1491_5555)">
<rect y="8" width="163" height="163" rx="8" fill="url(#paint0_linear_1491_5555)"/>
<rect x="16" y="24" width="60" height="60" rx="8" fill="#040405"/>
<path d="M46.2503 71.08L46.0034 71.1879L45.728 71.0701C32.8218 65.4494 34.0311 55.9185 34.0311 55.9185C34.0509 55.3982 34.1304 54.882 34.2681 54.3799C34.3135 54.2152 34.3604 54.0477 34.4101 53.876C34.8657 52.4396 35.6747 50.8145 36.6626 49.1609C36.7548 49.0105 36.8443 48.8572 36.9379 48.7067C40.4807 42.9157 46.0034 36.8125 46.0034 36.8125C46.0034 36.8125 48.1622 39.1928 50.6432 42.392C50.7469 42.5339 50.8533 42.6645 50.9612 42.8036C51.9774 44.1279 53.0377 45.5813 54.0142 47.0489C54.1107 47.1908 54.2115 47.3455 54.2981 47.4932C55.169 48.8046 55.956 50.1699 56.6542 51.5809C56.7365 51.7498 56.8146 51.9145 56.887 52.0791C57.5342 53.507 57.9387 54.8241 57.9671 55.9114C57.9728 55.9185 59.1864 65.4651 46.2503 71.08Z" fill="url(#paint1_linear_1491_5555)"/>
<path d="M50.9608 42.8037C50.8529 42.6618 50.7465 42.5283 50.6429 42.3921L47.9872 45.052C47.7489 44.888 47.4625 44.8085 47.1738 44.8263C46.885 44.8441 46.6106 44.9581 46.3942 45.1502C46.1778 45.3422 46.032 45.6012 45.98 45.8858C45.9281 46.1704 45.9729 46.4642 46.1075 46.7203C46.242 46.9764 46.4584 47.1801 46.7222 47.2988C46.9861 47.4175 47.282 47.4444 47.563 47.3752C47.8439 47.3061 48.0935 47.1448 48.272 46.9171C48.4505 46.6895 48.5477 46.4086 48.5479 46.1193C48.548 45.8742 48.4775 45.6343 48.3449 45.4281L50.9608 42.8037ZM47.2534 46.89C47.1001 46.8897 46.9503 46.844 46.823 46.7585C46.6957 46.6731 46.5966 46.5518 46.5382 46.41C46.4799 46.2682 46.4649 46.1123 46.4952 45.962C46.5255 45.8116 46.5997 45.6737 46.7084 45.5656C46.8171 45.4574 46.9555 45.384 47.1059 45.3545C47.2564 45.3251 47.4123 45.3409 47.5537 45.4C47.6952 45.4592 47.816 45.5589 47.9007 45.6867C47.9855 45.8145 48.0304 45.9646 48.0298 46.1179C48.0296 46.2196 48.0094 46.3203 47.9703 46.4141C47.9311 46.508 47.8739 46.5933 47.8018 46.665C47.7296 46.7367 47.6441 46.7935 47.55 46.8321C47.4559 46.8707 47.3551 46.8904 47.2534 46.89Z" fill="white"/>
<path d="M54.2984 47.4931C54.2061 47.3512 54.1054 47.1964 54.0145 47.0488L50.6932 50.5674C50.4649 50.3782 50.1779 50.2743 49.8814 50.2736C49.6256 50.2736 49.3755 50.3494 49.1628 50.4914C48.95 50.6334 48.7841 50.8352 48.686 51.0714C48.5879 51.3076 48.5619 51.5676 48.6114 51.8185C48.6609 52.0695 48.7836 52.3001 48.9641 52.4814C49.1445 52.6626 49.3746 52.7864 49.6254 52.8369C49.8761 52.8875 50.1362 52.8627 50.3728 52.7656C50.6094 52.6685 50.812 52.5035 50.9549 52.2913C51.0978 52.0792 51.1747 51.8295 51.1758 51.5737C51.1752 51.3658 51.1225 51.1613 51.0225 50.979L54.2984 47.4931ZM49.8757 52.343C49.7225 52.3427 49.5729 52.2971 49.4457 52.2118C49.3184 52.1266 49.2193 52.0055 49.1608 51.864C49.1024 51.7224 49.0871 51.5667 49.1171 51.4165C49.147 51.2663 49.2208 51.1284 49.3291 51.0201C49.4374 50.9118 49.5754 50.838 49.7256 50.8081C49.8758 50.7781 50.0315 50.7933 50.173 50.8518C50.3146 50.9103 50.4356 51.0094 50.5209 51.1366C50.6061 51.2639 50.6518 51.4135 50.6521 51.5666C50.6524 51.7717 50.5715 51.9685 50.4271 52.114C50.2826 52.2596 50.0864 52.3419 49.8814 52.343H49.8757Z" fill="white"/>
<path d="M52.737 56.2338L56.9 52.0822C56.8276 51.9175 56.7495 51.7529 56.6672 51.584L52.3793 55.8577C52.2634 55.7756 52.1349 55.7128 51.9989 55.6717C51.8336 55.6183 51.6592 55.5988 51.4861 55.6142C51.313 55.6296 51.1449 55.6798 50.9916 55.7616C50.8383 55.8434 50.703 55.9552 50.5939 56.0904C50.4848 56.2256 50.4039 56.3814 50.3563 56.5485C50.3086 56.7156 50.2951 56.8905 50.3165 57.063C50.3379 57.2354 50.3938 57.4018 50.4809 57.5521C50.5679 57.7025 50.6844 57.8338 50.8232 57.9382C50.9621 58.0426 51.1206 58.118 51.2892 58.1599C51.4053 58.1946 51.5258 58.2123 51.6469 58.2124C51.9282 58.2103 52.2013 58.1176 52.4258 57.9481C52.6502 57.7786 52.8141 57.5413 52.8931 57.2713C52.9395 57.1079 52.9533 56.9369 52.9335 56.7681C52.9138 56.5993 52.861 56.4361 52.7781 56.2877C52.754 56.2693 52.737 56.2579 52.737 56.2338ZM52.3864 57.128C52.3619 57.2296 52.3171 57.3251 52.2547 57.4089C52.1923 57.4927 52.1136 57.563 52.0233 57.6156C51.933 57.6683 51.833 57.7021 51.7294 57.715C51.6257 57.728 51.5205 57.7199 51.42 57.6912C51.3195 57.6624 51.2259 57.6137 51.1448 57.5479C51.0637 57.482 50.9967 57.4005 50.9479 57.3081C50.8991 57.2157 50.8694 57.1144 50.8608 57.0103C50.8521 56.9062 50.8646 56.8014 50.8975 56.7022C50.9247 56.604 50.9712 56.5123 51.0343 56.4323C51.0975 56.3524 51.1759 56.2859 51.2651 56.2366C51.3802 56.1729 51.5097 56.1397 51.6412 56.1401C51.7139 56.1404 51.7861 56.1514 51.8556 56.1728C51.9523 56.2008 52.0424 56.2479 52.1206 56.3113C52.1989 56.3746 52.2637 56.453 52.3112 56.5418C52.3606 56.6302 52.392 56.7275 52.4037 56.8281C52.4154 56.9287 52.4071 57.0306 52.3793 57.128H52.3864Z" fill="white"/>
<path d="M42.1593 52.6938C41.9958 52.395 41.7205 52.1732 41.3938 52.0771C41.067 51.9811 40.7155 52.0186 40.4163 52.1814L36.9375 48.6997C36.8395 48.8502 36.7544 49.0034 36.6621 49.161L40.016 52.5107C39.8827 52.6774 39.7927 52.8745 39.7539 53.0844C39.715 53.2943 39.7287 53.5105 39.7936 53.7139C39.8585 53.9173 39.9726 54.1014 40.1258 54.2501C40.279 54.3987 40.4666 54.5072 40.6718 54.5659C40.7883 54.5984 40.9086 54.6151 41.0295 54.6156C41.2494 54.6164 41.4656 54.5596 41.6568 54.4509C41.8063 54.3697 41.938 54.2594 42.0443 54.1266C42.1505 53.9938 42.2292 53.841 42.2757 53.6774C42.3219 53.5138 42.3355 53.3428 42.3155 53.174C42.2955 53.0052 42.2424 52.842 42.1593 52.6938ZM41.7732 53.5355C41.7155 53.7325 41.5823 53.8987 41.4025 53.9978C41.2228 54.097 41.0112 54.1211 40.8137 54.0649C40.6913 54.0297 40.5794 53.9649 40.488 53.8762C40.3966 53.7874 40.3284 53.6776 40.2896 53.5562C40.2508 53.4349 40.2424 53.3059 40.2654 53.1805C40.2883 53.0552 40.3418 52.9375 40.421 52.8378C40.5003 52.7381 40.603 52.6594 40.7199 52.6088C40.8368 52.5582 40.9644 52.5372 41.0913 52.5477C41.2183 52.5581 41.3407 52.5997 41.4478 52.6688C41.5548 52.7378 41.6432 52.8322 41.7051 52.9436C41.805 53.1242 41.8295 53.3369 41.7732 53.5355Z" fill="white"/>
<path d="M38.0479 58.2446C37.8771 58.444 37.7717 58.6911 37.7463 58.9525C37.721 59.2138 37.7767 59.4766 37.906 59.7051C38.0194 59.907 38.1842 60.0753 38.3836 60.193C38.583 60.3106 38.81 60.3734 39.0415 60.3751C39.2606 60.3731 39.4757 60.3165 39.6674 60.2104C39.891 60.0858 40.0728 59.8978 40.1896 59.6701C40.3065 59.4424 40.3533 59.1851 40.3242 58.9308C40.295 58.6765 40.1912 58.4365 40.0258 58.2412C39.8605 58.0458 39.6409 57.9038 39.3949 57.833C39.0835 57.7433 38.7497 57.7752 38.461 57.9224L34.4144 53.8716C34.3605 54.0433 34.3136 54.2108 34.2725 54.3755M39.7838 59.2864C39.7568 59.3847 39.7102 59.4765 39.6468 59.5562C39.5833 59.636 39.5044 59.7021 39.4148 59.7506C39.3259 59.8008 39.2279 59.8327 39.1265 59.8444C39.025 59.8561 38.9223 59.8474 38.8243 59.8187C38.6271 59.7613 38.4607 59.6281 38.3615 59.4483C38.2622 59.2685 38.2383 59.0566 38.2949 58.8592C38.3397 58.696 38.4369 58.552 38.5716 58.4494C38.7062 58.3468 38.8708 58.2913 39.0401 58.2915C39.1124 58.2919 39.1844 58.3015 39.2544 58.3198C39.353 58.3485 39.445 58.3964 39.5249 58.4609C39.6049 58.5253 39.6712 58.6051 39.7201 58.6954C39.769 58.7857 39.7994 58.8849 39.8096 58.9871C39.8198 59.0893 39.8096 59.1925 39.7796 59.2907L39.7838 59.2864Z" fill="white"/>
<path d="M47.1463 60.9968C46.9796 60.6957 46.7 60.4731 46.3691 60.3781C46.0383 60.283 45.6832 60.3233 45.3821 60.4901C45.0809 60.6569 44.8584 60.9364 44.7633 61.2673C44.6683 61.5982 44.7086 61.9532 44.8754 62.2544C44.9574 62.4038 45.0682 62.5354 45.2015 62.6416C45.3348 62.7479 45.4878 62.8266 45.6518 62.8732C45.6773 62.8732 45.7014 62.8732 45.7227 62.8874V71.07L45.9981 71.1878L46.245 71.0799V62.8973C46.4466 62.8596 46.6364 62.7745 46.7987 62.6491C46.961 62.5237 47.0913 62.3616 47.1787 62.176C47.2661 61.9905 47.3083 61.7868 47.3017 61.5818C47.295 61.3768 47.2399 61.1763 47.1407 60.9968H47.1463ZM46.7603 61.8385C46.7099 62.0193 46.5957 62.1757 46.4388 62.2787C46.2818 62.3816 46.0929 62.4241 45.907 62.3983C45.7211 62.3725 45.5509 62.28 45.428 62.1382C45.3051 61.9963 45.2378 61.8147 45.2387 61.627C45.2383 61.4873 45.2754 61.35 45.346 61.2294C45.4166 61.1089 45.5183 61.0094 45.6404 60.9415C45.756 60.8791 45.8852 60.846 46.0165 60.8449C46.1373 60.8445 46.2564 60.8723 46.3645 60.926C46.4727 60.9797 46.5668 61.0579 46.6394 61.1544C46.712 61.2508 46.7611 61.3629 46.7828 61.4816C46.8046 61.6004 46.7983 61.7226 46.7645 61.8385H46.7603Z" fill="white"/>
<path d="M27.45 121L20.725 113.225V121H17.875V103.625H20.725V111.55L27.475 103.625H31.05L23.5 112.325L31.175 121H27.45ZM32.7453 114.05C32.7453 112.667 33.0286 111.442 33.5953 110.375C34.1786 109.308 34.962 108.483 35.9453 107.9C36.9453 107.3 38.0453 107 39.2453 107C40.3286 107 41.2703 107.217 42.0703 107.65C42.887 108.067 43.537 108.592 44.0203 109.225V107.225H46.8953V121H44.0203V118.95C43.537 119.6 42.8786 120.142 42.0453 120.575C41.212 121.008 40.262 121.225 39.1953 121.225C38.012 121.225 36.9286 120.925 35.9453 120.325C34.962 119.708 34.1786 118.858 33.5953 117.775C33.0286 116.675 32.7453 115.433 32.7453 114.05ZM44.0203 114.1C44.0203 113.15 43.8203 112.325 43.4203 111.625C43.037 110.925 42.5286 110.392 41.8953 110.025C41.262 109.658 40.5786 109.475 39.8453 109.475C39.112 109.475 38.4286 109.658 37.7953 110.025C37.162 110.375 36.6453 110.9 36.2453 111.6C35.862 112.283 35.6703 113.1 35.6703 114.05C35.6703 115 35.862 115.833 36.2453 116.55C36.6453 117.267 37.162 117.817 37.7953 118.2C38.4453 118.567 39.1286 118.75 39.8453 118.75C40.5786 118.75 41.262 118.567 41.8953 118.2C42.5286 117.833 43.037 117.3 43.4203 116.6C43.8203 115.883 44.0203 115.05 44.0203 114.1ZM53.4887 102.5V121H50.6387V102.5H53.4887ZM56.2805 114.05C56.2805 112.667 56.5638 111.442 57.1305 110.375C57.7138 109.308 58.4971 108.483 59.4805 107.9C60.4805 107.3 61.5805 107 62.7805 107C63.8638 107 64.8055 107.217 65.6055 107.65C66.4221 108.067 67.0721 108.592 67.5555 109.225V107.225H70.4305V121H67.5555V118.95C67.0721 119.6 66.4138 120.142 65.5805 120.575C64.7471 121.008 63.7971 121.225 62.7305 121.225C61.5471 121.225 60.4638 120.925 59.4805 120.325C58.4971 119.708 57.7138 118.858 57.1305 117.775C56.5638 116.675 56.2805 115.433 56.2805 114.05ZM67.5555 114.1C67.5555 113.15 67.3555 112.325 66.9555 111.625C66.5721 110.925 66.0638 110.392 65.4305 110.025C64.7971 109.658 64.1138 109.475 63.3805 109.475C62.6471 109.475 61.9638 109.658 61.3305 110.025C60.6971 110.375 60.1805 110.9 59.7805 111.6C59.3971 112.283 59.2055 113.1 59.2055 114.05C59.2055 115 59.3971 115.833 59.7805 116.55C60.1805 117.267 60.6971 117.817 61.3305 118.2C61.9805 118.567 62.6638 118.75 63.3805 118.75C64.1138 118.75 64.7971 118.567 65.4305 118.2C66.0638 117.833 66.5721 117.3 66.9555 116.6C67.3555 115.883 67.5555 115.05 67.5555 114.1ZM90.8488 107C91.9322 107 92.8988 107.225 93.7488 107.675C94.6155 108.125 95.2905 108.792 95.7738 109.675C96.2738 110.558 96.5238 111.625 96.5238 112.875V121H93.6988V113.3C93.6988 112.067 93.3905 111.125 92.7738 110.475C92.1572 109.808 91.3155 109.475 90.2488 109.475C89.1822 109.475 88.3322 109.808 87.6988 110.475C87.0822 111.125 86.7738 112.067 86.7738 113.3V121H83.9488V113.3C83.9488 112.067 83.6405 111.125 83.0238 110.475C82.4072 109.808 81.5655 109.475 80.4988 109.475C79.4322 109.475 78.5822 109.808 77.9488 110.475C77.3322 111.125 77.0238 112.067 77.0238 113.3V121H74.1738V107.225H77.0238V108.8C77.4905 108.233 78.0822 107.792 78.7988 107.475C79.5155 107.158 80.2822 107 81.0988 107C82.1988 107 83.1822 107.233 84.0488 107.7C84.9155 108.167 85.5822 108.842 86.0488 109.725C86.4655 108.892 87.1155 108.233 87.9988 107.75C88.8822 107.25 89.8322 107 90.8488 107ZM101.6 105.4C101.084 105.4 100.65 105.225 100.3 104.875C99.9504 104.525 99.7754 104.092 99.7754 103.575C99.7754 103.058 99.9504 102.625 100.3 102.275C100.65 101.925 101.084 101.75 101.6 101.75C102.1 101.75 102.525 101.925 102.875 102.275C103.225 102.625 103.4 103.058 103.4 103.575C103.4 104.092 103.225 104.525 102.875 104.875C102.525 105.225 102.1 105.4 101.6 105.4ZM103 107.225V121H100.15V107.225H103ZM113.692 107C114.776 107 115.742 107.225 116.592 107.675C117.459 108.125 118.134 108.792 118.617 109.675C119.101 110.558 119.342 111.625 119.342 112.875V121H116.517V113.3C116.517 112.067 116.209 111.125 115.592 110.475C114.976 109.808 114.134 109.475 113.067 109.475C112.001 109.475 111.151 109.808 110.517 110.475C109.901 111.125 109.592 112.067 109.592 113.3V121H106.742V107.225H109.592V108.8C110.059 108.233 110.651 107.792 111.367 107.475C112.101 107.158 112.876 107 113.692 107ZM126.303 109.55V117.175C126.303 117.692 126.419 118.067 126.653 118.3C126.903 118.517 127.319 118.625 127.903 118.625H129.653V121H127.403C126.119 121 125.136 120.7 124.453 120.1C123.769 119.5 123.428 118.525 123.428 117.175V109.55H121.803V107.225H123.428V103.8H126.303V107.225H129.653V109.55H126.303Z" fill="#0B0514"/>
<path d="M17.078 151V140.64H18.352V146.73L21.306 143.328H23.084L19.472 147.15L23.098 151H21.362L18.352 147.612V151H17.078ZM23.8071 147.136C23.8071 144.742 25.3891 143.202 27.4471 143.202C28.8751 143.202 29.8551 143.93 30.3031 144.728V143.328H31.5911V151H30.3031V149.572C29.8411 150.398 28.8471 151.126 27.4331 151.126C25.3891 151.126 23.8071 149.516 23.8071 147.136ZM30.3031 147.15C30.3031 145.372 29.0991 144.308 27.6991 144.308C26.2991 144.308 25.1091 145.33 25.1091 147.136C25.1091 148.942 26.2991 150.006 27.6991 150.006C29.0991 150.006 30.3031 148.956 30.3031 147.15ZM33.744 151V140.64H35.018V151H33.744ZM36.7133 147.136C36.7133 144.742 38.2953 143.202 40.3533 143.202C41.7813 143.202 42.7613 143.93 43.2093 144.728V143.328H44.4973V151H43.2093V149.572C42.7473 150.398 41.7533 151.126 40.3393 151.126C38.2953 151.126 36.7133 149.516 36.7133 147.136ZM43.2093 147.15C43.2093 145.372 42.0053 144.308 40.6053 144.308C39.2053 144.308 38.0153 145.33 38.0153 147.136C38.0153 148.942 39.2053 150.006 40.6053 150.006C42.0053 150.006 43.2093 148.956 43.2093 147.15ZM57.7243 151V146.66C57.7243 145.092 56.8843 144.294 55.6243 144.294C54.3363 144.294 53.4543 145.12 53.4543 146.772V151H52.1943V146.66C52.1943 145.092 51.3543 144.294 50.0943 144.294C48.8063 144.294 47.9243 145.12 47.9243 146.772V151H46.6503V143.328H47.9243V144.434C48.4283 143.622 49.3383 143.188 50.3463 143.188C51.6063 143.188 52.6563 143.748 53.1603 144.896C53.6083 143.79 54.7003 143.188 55.8763 143.188C57.6263 143.188 58.9843 144.28 58.9843 146.478V151H57.7243ZM61.0741 151V143.328H62.3481V151H61.0741ZM61.7321 142.082C61.2421 142.082 60.8641 141.704 60.8641 141.214C60.8641 140.724 61.2421 140.346 61.7321 140.346C62.1941 140.346 62.5721 140.724 62.5721 141.214C62.5721 141.704 62.1941 142.082 61.7321 142.082ZM70.1334 151V146.66C70.1334 145.092 69.2794 144.294 67.9914 144.294C66.6894 144.294 65.7934 145.106 65.7934 146.758V151H64.5194V143.328H65.7934V144.42C66.2974 143.622 67.2214 143.188 68.2574 143.188C70.0354 143.188 71.3934 144.28 71.3934 146.478V151H70.1334ZM73.7545 148.9V144.378H72.7605V143.328H73.7545V141.396H75.0285V143.328H77.0305V144.378H75.0285V148.9C75.0285 149.656 75.3085 149.922 76.0925 149.922H77.0305V151H75.8825C74.5245 151 73.7545 150.44 73.7545 148.9ZM79.8201 150.216C79.8201 150.706 79.4421 151.084 78.9801 151.084C78.4901 151.084 78.1121 150.706 78.1121 150.216C78.1121 149.726 78.4901 149.348 78.9801 149.348C79.4421 149.348 79.8201 149.726 79.8201 150.216ZM81.5135 151V143.328H82.7875V151H81.5135ZM82.1715 142.082C81.6815 142.082 81.3035 141.704 81.3035 141.214C81.3035 140.724 81.6815 140.346 82.1715 140.346C82.6335 140.346 83.0115 140.724 83.0115 141.214C83.0115 141.704 82.6335 142.082 82.1715 142.082ZM92.2389 147.15C92.2389 149.586 90.4889 151.126 88.3049 151.126C86.1349 151.126 84.4829 149.586 84.4829 147.15C84.4829 144.728 86.1909 143.202 88.3609 143.202C90.5449 143.202 92.2389 144.728 92.2389 147.15ZM85.7849 147.15C85.7849 149.096 86.9749 150.006 88.3049 150.006C89.6349 150.006 90.9369 149.096 90.9369 147.15C90.9369 145.218 89.6629 144.308 88.3469 144.308C87.0029 144.308 85.7849 145.218 85.7849 147.15Z" fill="#0B0514"/>
</g>
<defs>
<filter id="filter0_d_1491_5555" x="-10" y="0" width="183" height="183" filterUnits="userSpaceOnUse" color-interpolation-filters="sRGB">
<feFlood flood-opacity="0" result="BackgroundImageFix"/>
<feColorMatrix in="SourceAlpha" type="matrix" values="0 0 0 0 0 0 0 0 0 0 0 0 0 0 0 0 0 0 127 0" result="hardAlpha"/>
<feOffset dy="2"/>
<feGaussianBlur stdDeviation="5"/>
<feComposite in2="hardAlpha" operator="out"/>
<feColorMatrix type="matrix" values="0 0 0 0 0 0 0 0 0 0 0 0 0 0 0 0 0 0 0.1 0"/>
<feBlend mode="normal" in2="BackgroundImageFix" result="effect1_dropShadow_1491_5555"/>
<feBlend mode="normal" in="SourceGraphic" in2="effect1_dropShadow_1491_5555" result="shape"/>
</filter>
<linearGradient id="paint0_linear_1491_5555" x1="1.86777e-06" y1="45.2571" x2="171.15" y2="165.761" gradientUnits="userSpaceOnUse">
<stop stop-color="#02B7A3"/>
<stop offset="1" stop-color="#28B9A9"/>
</linearGradient>
<linearGradient id="paint1_linear_1491_5555" x1="33.7657" y1="56.1583" x2="57.344" y2="52.001" gradientUnits="userSpaceOnUse">
<stop stop-color="#04B586"/>
<stop offset="1" stop-color="#00B8BF"/>
</linearGradient>
</defs>
</svg>
