<svg width="173" height="183" viewBox="0 0 173 183" fill="none" xmlns="http://www.w3.org/2000/svg">
<g filter="url(#filter0_d_1491_5552)">
<rect y="8" width="163" height="163" rx="8" fill="url(#paint0_linear_1491_5552)"/>
<rect x="16" y="24" width="60" height="60" rx="8" fill="black"/>
<path d="M28.733 59.67C28.0303 59.67 27.39 59.5 26.812 59.16C26.2453 58.8087 25.7977 58.3213 25.469 57.698C25.1403 57.0747 24.976 56.355 24.976 55.539C24.976 54.757 25.1403 54.0543 25.469 53.431C25.7977 52.8077 26.2453 52.3147 26.812 51.952C27.39 51.5893 28.0303 51.408 28.733 51.408C29.447 51.408 30.0873 51.5893 30.654 51.952C31.232 52.3147 31.6853 52.8077 32.014 53.431C32.354 54.0543 32.524 54.757 32.524 55.539C32.524 56.355 32.354 57.0747 32.014 57.698C31.6853 58.3213 31.232 58.8087 30.654 59.16C30.0873 59.5 29.447 59.67 28.733 59.67ZM28.733 58.14C29.107 58.14 29.43 58.0323 29.702 57.817C29.974 57.5903 30.1893 57.2843 30.348 56.899C30.518 56.5023 30.603 56.049 30.603 55.539C30.603 55.0063 30.518 54.5473 30.348 54.162C30.1893 53.7767 29.974 53.482 29.702 53.278C29.43 53.0627 29.107 52.955 28.733 52.955C28.393 52.955 28.0813 53.0627 27.798 53.278C27.526 53.482 27.305 53.7767 27.135 54.162C26.9763 54.5473 26.897 55.0063 26.897 55.539C26.897 56.049 26.9763 56.5023 27.135 56.899C27.2937 57.2843 27.509 57.5903 27.781 57.817C28.0643 58.0323 28.3817 58.14 28.733 58.14ZM37.743 59.704C37.4597 59.704 37.1877 59.6643 36.927 59.585C36.6663 59.5057 36.4227 59.3867 36.196 59.228C35.9807 59.058 35.7823 58.8597 35.601 58.633L35.278 59.5H33.816V48.093H35.737H35.907V48.246C35.839 48.314 35.7937 48.3877 35.771 48.467C35.7597 48.5463 35.754 48.6823 35.754 48.875V52.479C35.8787 52.3203 36.0147 52.173 36.162 52.037C36.3093 51.901 36.4737 51.7877 36.655 51.697C36.8363 51.595 37.0233 51.5213 37.216 51.476C37.42 51.4307 37.624 51.408 37.828 51.408C38.3153 51.408 38.7517 51.493 39.137 51.663C39.5337 51.833 39.868 52.088 40.14 52.428C40.4233 52.7567 40.6387 53.1703 40.786 53.669C40.9447 54.1677 41.024 54.7513 41.024 55.42C41.024 56.1453 40.9333 56.78 40.752 57.324C40.582 57.8567 40.344 58.2987 40.038 58.65C39.732 59.0013 39.3807 59.2677 38.984 59.449C38.5987 59.619 38.185 59.704 37.743 59.704ZM37.352 58.208C37.59 58.208 37.8167 58.1627 38.032 58.072C38.2473 57.97 38.4343 57.817 38.593 57.613C38.7517 57.409 38.8763 57.1427 38.967 56.814C39.0577 56.474 39.103 56.066 39.103 55.59C39.103 55.1593 39.0633 54.774 38.984 54.434C38.9047 54.094 38.7913 53.8107 38.644 53.584C38.4967 53.346 38.3153 53.1647 38.1 53.04C37.896 52.9153 37.658 52.853 37.386 52.853C37.0573 52.853 36.7683 52.9607 36.519 53.176C36.281 53.38 36.0997 53.6803 35.975 54.077C35.8503 54.4737 35.7823 54.9497 35.771 55.505C35.771 55.9357 35.7993 56.321 35.856 56.661C35.924 56.9897 36.0203 57.273 36.145 57.511C36.281 57.7377 36.4453 57.9133 36.638 58.038C36.842 58.1513 37.08 58.208 37.352 58.208ZM44.747 62.492C44.2143 62.492 43.727 62.39 43.285 62.186C42.843 61.982 42.4463 61.6817 42.095 61.285L43.132 59.891L43.234 59.772L43.37 59.857C43.3927 59.9477 43.4153 60.0383 43.438 60.129C43.4607 60.2197 43.5343 60.3387 43.659 60.486C43.795 60.6107 43.948 60.707 44.118 60.775C44.2993 60.8543 44.509 60.894 44.747 60.894C45.0303 60.894 45.2683 60.8317 45.461 60.707C45.6537 60.5823 45.7953 60.3897 45.886 60.129C45.9767 59.8797 46.022 59.5623 46.022 59.177V53.108H43.268V51.595H47.977V59.007C47.977 59.8343 47.824 60.503 47.518 61.013C47.212 61.5343 46.8153 61.9083 46.328 62.135C45.8407 62.373 45.3137 62.492 44.747 62.492ZM46.872 50.286C46.5433 50.286 46.26 50.1727 46.022 49.946C45.784 49.7193 45.665 49.4473 45.665 49.13C45.665 48.79 45.7783 48.5123 46.005 48.297C46.2317 48.0817 46.5207 47.974 46.872 47.974C47.1893 47.974 47.467 48.0873 47.705 48.314C47.9543 48.5407 48.079 48.8127 48.079 49.13C48.079 49.4473 47.9543 49.7193 47.705 49.946C47.467 50.1727 47.1893 50.286 46.872 50.286ZM53.468 55.913L52.839 56.542V59.5H50.884V48.093H52.822H52.975V48.246C52.9183 48.314 52.8787 48.3877 52.856 48.467C52.8447 48.5463 52.839 48.6823 52.839 48.875V54.451L55.865 51.527C55.9557 51.5383 56.052 51.5553 56.154 51.578C56.256 51.5893 56.358 51.6007 56.46 51.612C56.562 51.6233 56.664 51.6347 56.766 51.646C56.868 51.646 56.953 51.646 57.021 51.646H57.939L54.794 54.723L58.364 59.483L56.171 59.568L53.468 55.913ZM63.583 59.67C63.1297 59.67 62.733 59.5963 62.393 59.449C62.0643 59.3017 61.7867 59.0637 61.56 58.735C61.3447 58.4063 61.186 57.97 61.084 57.426C60.9933 56.882 60.965 56.2077 60.999 55.403L61.22 49.725L63.209 49.47L63.362 49.453L63.379 49.606C63.3337 49.6853 63.2883 49.7647 63.243 49.844C63.1977 49.9233 63.1693 50.0593 63.158 50.252L62.971 52.598L63.056 52.717L62.92 55.369C62.886 56.1057 62.9087 56.678 62.988 57.086C63.0787 57.4827 63.209 57.7547 63.379 57.902C63.5603 58.0493 63.7757 58.123 64.025 58.123C64.3877 58.123 64.7107 58.0493 64.994 57.902C65.2887 57.7547 65.5607 57.5847 65.81 57.392L66.218 58.786C65.8327 59.0693 65.419 59.2903 64.977 59.449C64.5463 59.5963 64.0817 59.67 63.583 59.67ZM59.503 51.595H65.589L65.572 53.108H59.469L59.503 51.595Z" fill="white"/>
<path d="M23.47 123.3C22.23 123.3 21.1 123 20.08 122.4C19.08 121.78 18.29 120.92 17.71 119.82C17.13 118.72 16.84 117.45 16.84 116.01C16.84 114.63 17.13 113.39 17.71 112.29C18.29 111.19 19.08 110.32 20.08 109.68C21.1 109.04 22.23 108.72 23.47 108.72C24.73 108.72 25.86 109.04 26.86 109.68C27.88 110.32 28.68 111.19 29.26 112.29C29.86 113.39 30.16 114.63 30.16 116.01C30.16 117.45 29.86 118.72 29.26 119.82C28.68 120.92 27.88 121.78 26.86 122.4C25.86 123 24.73 123.3 23.47 123.3ZM23.47 120.6C24.13 120.6 24.7 120.41 25.18 120.03C25.66 119.63 26.04 119.09 26.32 118.41C26.62 117.71 26.77 116.91 26.77 116.01C26.77 115.07 26.62 114.26 26.32 113.58C26.04 112.9 25.66 112.38 25.18 112.02C24.7 111.64 24.13 111.45 23.47 111.45C22.87 111.45 22.32 111.64 21.82 112.02C21.34 112.38 20.95 112.9 20.65 113.58C20.37 114.26 20.23 115.07 20.23 116.01C20.23 116.91 20.37 117.71 20.65 118.41C20.93 119.09 21.31 119.63 21.79 120.03C22.29 120.41 22.85 120.6 23.47 120.6ZM39.37 123.36C38.87 123.36 38.39 123.29 37.93 123.15C37.47 123.01 37.04 122.8 36.64 122.52C36.26 122.22 35.91 121.87 35.59 121.47L35.02 123H32.44V102.87H35.83H36.13V103.14C36.01 103.26 35.93 103.39 35.89 103.53C35.87 103.67 35.86 103.91 35.86 104.25V110.61C36.08 110.33 36.32 110.07 36.58 109.83C36.84 109.59 37.13 109.39 37.45 109.23C37.77 109.05 38.1 108.92 38.44 108.84C38.8 108.76 39.16 108.72 39.52 108.72C40.38 108.72 41.15 108.87 41.83 109.17C42.53 109.47 43.12 109.92 43.6 110.52C44.1 111.1 44.48 111.83 44.74 112.71C45.02 113.59 45.16 114.62 45.16 115.8C45.16 117.08 45 118.2 44.68 119.16C44.38 120.1 43.96 120.88 43.42 121.5C42.88 122.12 42.26 122.59 41.56 122.91C40.88 123.21 40.15 123.36 39.37 123.36ZM38.68 120.72C39.1 120.72 39.5 120.64 39.88 120.48C40.26 120.3 40.59 120.03 40.87 119.67C41.15 119.31 41.37 118.84 41.53 118.26C41.69 117.66 41.77 116.94 41.77 116.1C41.77 115.34 41.7 114.66 41.56 114.06C41.42 113.46 41.22 112.96 40.96 112.56C40.7 112.14 40.38 111.82 40 111.6C39.64 111.38 39.22 111.27 38.74 111.27C38.16 111.27 37.65 111.46 37.21 111.84C36.79 112.2 36.47 112.73 36.25 113.43C36.03 114.13 35.91 114.97 35.89 115.95C35.89 116.71 35.94 117.39 36.04 117.99C36.16 118.57 36.33 119.07 36.55 119.49C36.79 119.89 37.08 120.2 37.42 120.42C37.78 120.62 38.2 120.72 38.68 120.72ZM51.73 128.28C50.79 128.28 49.93 128.1 49.15 127.74C48.37 127.38 47.67 126.85 47.05 126.15L48.88 123.69L49.06 123.48L49.3 123.63C49.34 123.79 49.38 123.95 49.42 124.11C49.46 124.27 49.59 124.48 49.81 124.74C50.05 124.96 50.32 125.13 50.62 125.25C50.94 125.39 51.31 125.46 51.73 125.46C52.23 125.46 52.65 125.35 52.99 125.13C53.33 124.91 53.58 124.57 53.74 124.11C53.9 123.67 53.98 123.11 53.98 122.43V111.72H49.12V109.05H57.43V122.13C57.43 123.59 57.16 124.77 56.62 125.67C56.08 126.59 55.38 127.25 54.52 127.65C53.66 128.07 52.73 128.28 51.73 128.28ZM55.48 106.74C54.9 106.74 54.4 106.54 53.98 106.14C53.56 105.74 53.35 105.26 53.35 104.7C53.35 104.1 53.55 103.61 53.95 103.23C54.35 102.85 54.86 102.66 55.48 102.66C56.04 102.66 56.53 102.86 56.95 103.26C57.39 103.66 57.61 104.14 57.61 104.7C57.61 105.26 57.39 105.74 56.95 106.14C56.53 106.54 56.04 106.74 55.48 106.74ZM67.12 116.67L66.01 117.78V123H62.56V102.87H65.98H66.25V103.14C66.15 103.26 66.08 103.39 66.04 103.53C66.02 103.67 66.01 103.91 66.01 104.25V114.09L71.35 108.93C71.51 108.95 71.68 108.98 71.86 109.02C72.04 109.04 72.22 109.06 72.4 109.08C72.58 109.1 72.76 109.12 72.94 109.14C73.12 109.14 73.27 109.14 73.39 109.14H75.01L69.46 114.57L75.76 122.97L71.89 123.12L67.12 116.67ZM84.97 123.3C84.17 123.3 83.47 123.17 82.87 122.91C82.29 122.65 81.8 122.23 81.4 121.65C81.02 121.07 80.74 120.3 80.56 119.34C80.4 118.38 80.35 117.19 80.41 115.77L80.8 105.75L84.31 105.3L84.58 105.27L84.61 105.54C84.53 105.68 84.45 105.82 84.37 105.96C84.29 106.1 84.24 106.34 84.22 106.68L83.89 110.82L84.04 111.03L83.8 115.71C83.74 117.01 83.78 118.02 83.92 118.74C84.08 119.44 84.31 119.92 84.61 120.18C84.93 120.44 85.31 120.57 85.75 120.57C86.39 120.57 86.96 120.44 87.46 120.18C87.98 119.92 88.46 119.62 88.9 119.28L89.62 121.74C88.94 122.24 88.21 122.63 87.43 122.91C86.67 123.17 85.85 123.3 84.97 123.3ZM77.77 109.05H88.51L88.48 111.72H77.71L77.77 109.05Z" fill="#0B0514"/>
<path d="M19.892 153.126C19.2293 153.126 18.6553 152.981 18.17 152.692C17.6847 152.403 17.3067 151.997 17.036 151.474C16.7747 150.942 16.644 150.317 16.644 149.598C16.644 149.057 16.7187 148.571 16.868 148.142C17.0173 147.703 17.2367 147.33 17.526 147.022C17.8153 146.714 18.156 146.481 18.548 146.322C18.9493 146.154 19.3973 146.07 19.892 146.07C20.5547 146.07 21.1287 146.215 21.614 146.504C22.0993 146.793 22.4727 147.204 22.734 147.736C23.0047 148.259 23.14 148.879 23.14 149.598C23.14 150.139 23.0653 150.625 22.916 151.054C22.7667 151.483 22.5473 151.857 22.258 152.174C21.9687 152.482 21.6233 152.72 21.222 152.888C20.83 153.047 20.3867 153.126 19.892 153.126ZM19.892 152.216C20.312 152.216 20.6807 152.113 20.998 151.908C21.3153 151.703 21.558 151.404 21.726 151.012C21.9033 150.62 21.992 150.149 21.992 149.598C21.992 148.749 21.8007 148.1 21.418 147.652C21.0447 147.204 20.536 146.98 19.892 146.98C19.4627 146.98 19.0893 147.083 18.772 147.288C18.464 147.484 18.2213 147.778 18.044 148.17C17.876 148.553 17.792 149.029 17.792 149.598C17.792 150.438 17.9833 151.087 18.366 151.544C18.7487 151.992 19.2573 152.216 19.892 152.216ZM28.2873 153.126C27.6713 153.126 27.1393 152.967 26.6913 152.65C26.2526 152.333 25.9586 151.908 25.8093 151.376L25.9633 151.222V152.51C25.9633 152.697 25.912 152.841 25.8093 152.944C25.716 153.047 25.5806 153.098 25.4033 153.098C25.2166 153.098 25.0766 153.047 24.9833 152.944C24.89 152.841 24.8433 152.697 24.8433 152.51V143.606C24.8433 143.419 24.89 143.279 24.9833 143.186C25.0766 143.083 25.2166 143.032 25.4033 143.032C25.5806 143.032 25.7206 143.083 25.8233 143.186C25.926 143.279 25.9773 143.419 25.9773 143.606V147.778H25.8093C25.968 147.255 26.2666 146.84 26.7053 146.532C27.144 146.224 27.6713 146.07 28.2873 146.07C28.9033 146.07 29.4353 146.215 29.8833 146.504C30.3313 146.784 30.6766 147.19 30.9193 147.722C31.1713 148.245 31.2973 148.87 31.2973 149.598C31.2973 150.317 31.1713 150.942 30.9193 151.474C30.6766 151.997 30.3266 152.403 29.8693 152.692C29.4213 152.981 28.894 153.126 28.2873 153.126ZM28.0493 152.216C28.4786 152.216 28.8473 152.113 29.1553 151.908C29.4726 151.703 29.7153 151.404 29.8833 151.012C30.0606 150.62 30.1493 150.149 30.1493 149.598C30.1493 148.749 29.958 148.1 29.5753 147.652C29.202 147.204 28.6933 146.98 28.0493 146.98C27.6293 146.98 27.2606 147.083 26.9433 147.288C26.626 147.484 26.3786 147.778 26.2013 148.17C26.0333 148.553 25.9493 149.029 25.9493 149.598C25.9493 150.438 26.1406 151.087 26.5233 151.544C26.906 151.992 27.4146 152.216 28.0493 152.216ZM31.7034 155.674C31.5634 155.683 31.4514 155.66 31.3674 155.604C31.2741 155.548 31.2134 155.473 31.1854 155.38C31.1481 155.296 31.1387 155.207 31.1574 155.114C31.1667 155.03 31.2041 154.955 31.2694 154.89C31.3347 154.825 31.4234 154.792 31.5354 154.792C32.0487 154.764 32.4267 154.624 32.6694 154.372C32.9214 154.129 33.0474 153.742 33.0474 153.21V146.672C33.0474 146.485 33.0941 146.345 33.1874 146.252C33.2901 146.149 33.4347 146.098 33.6214 146.098C33.7987 146.098 33.9341 146.149 34.0274 146.252C34.1301 146.345 34.1814 146.485 34.1814 146.672V153.126C34.1814 153.695 34.0834 154.162 33.8874 154.526C33.7007 154.899 33.4254 155.175 33.0614 155.352C32.6974 155.539 32.2447 155.646 31.7034 155.674ZM33.6074 144.558C33.3741 144.558 33.1921 144.497 33.0614 144.376C32.9307 144.245 32.8654 144.073 32.8654 143.858C32.8654 143.634 32.9307 143.466 33.0614 143.354C33.1921 143.233 33.3741 143.172 33.6074 143.172C33.8501 143.172 34.0367 143.233 34.1674 143.354C34.2981 143.466 34.3634 143.634 34.3634 143.858C34.3634 144.073 34.2981 144.245 34.1674 144.376C34.0367 144.497 33.8501 144.558 33.6074 144.558ZM36.874 153.098C36.6873 153.098 36.5473 153.047 36.454 152.944C36.3607 152.841 36.314 152.697 36.314 152.51V143.606C36.314 143.419 36.3607 143.279 36.454 143.186C36.5473 143.083 36.6873 143.032 36.874 143.032C37.0513 143.032 37.1913 143.083 37.294 143.186C37.3967 143.279 37.448 143.419 37.448 143.606V149.22H37.476L40.346 146.476C40.4767 146.355 40.5887 146.261 40.682 146.196C40.7847 146.131 40.92 146.098 41.088 146.098C41.2373 146.098 41.354 146.14 41.438 146.224C41.522 146.299 41.5593 146.397 41.55 146.518C41.55 146.63 41.494 146.751 41.382 146.882L38.33 149.78V149.164L41.648 152.286C41.7787 152.417 41.844 152.543 41.844 152.664C41.844 152.785 41.7973 152.888 41.704 152.972C41.62 153.056 41.508 153.098 41.368 153.098C41.2 153.098 41.0647 153.065 40.962 153C40.8593 152.925 40.7333 152.818 40.584 152.678L37.476 149.808H37.448V152.51C37.448 152.902 37.2567 153.098 36.874 153.098ZM45.8799 153.126C45.3479 153.126 44.8999 153.033 44.5359 152.846C44.1813 152.65 43.9153 152.37 43.7379 152.006C43.5606 151.633 43.4719 151.18 43.4719 150.648V147.078H42.5339C42.3753 147.078 42.2539 147.041 42.1699 146.966C42.0859 146.882 42.0439 146.77 42.0439 146.63C42.0439 146.49 42.0859 146.383 42.1699 146.308C42.2539 146.233 42.3753 146.196 42.5339 146.196H43.4719V144.586C43.4719 144.399 43.5233 144.259 43.6259 144.166C43.7286 144.063 43.8686 144.012 44.0459 144.012C44.2233 144.012 44.3586 144.063 44.4519 144.166C44.5546 144.259 44.6059 144.399 44.6059 144.586V146.196H46.3699C46.5286 146.196 46.6499 146.233 46.7339 146.308C46.8179 146.383 46.8599 146.49 46.8599 146.63C46.8599 146.77 46.8179 146.882 46.7339 146.966C46.6499 147.041 46.5286 147.078 46.3699 147.078H44.6059V150.536C44.6059 151.068 44.7179 151.474 44.9419 151.754C45.1659 152.025 45.5299 152.16 46.0339 152.16C46.2113 152.16 46.3606 152.141 46.4819 152.104C46.6126 152.067 46.7199 152.048 46.8039 152.048C46.8879 152.039 46.9579 152.067 47.0139 152.132C47.0699 152.197 47.0979 152.309 47.0979 152.468C47.0979 152.58 47.0746 152.683 47.0279 152.776C46.9906 152.869 46.9206 152.935 46.8179 152.972C46.7059 153.009 46.5566 153.042 46.3699 153.07C46.1926 153.107 46.0293 153.126 45.8799 153.126ZM48.7819 153.056C48.5485 153.056 48.3619 152.986 48.2219 152.846C48.0819 152.697 48.0119 152.51 48.0119 152.286C48.0119 152.062 48.0819 151.88 48.2219 151.74C48.3619 151.591 48.5485 151.516 48.7819 151.516C49.0152 151.516 49.1972 151.591 49.3279 151.74C49.4679 151.88 49.5379 152.062 49.5379 152.286C49.5379 152.51 49.4679 152.697 49.3279 152.846C49.1972 152.986 49.0152 153.056 48.7819 153.056ZM53.991 153.126C53.3096 153.126 52.7216 152.977 52.227 152.678C51.7323 152.379 51.3496 151.964 51.079 151.432C50.8176 150.891 50.687 150.265 50.687 149.556C50.687 149.015 50.7616 148.529 50.911 148.1C51.0603 147.671 51.2796 147.307 51.569 147.008C51.8583 146.7 52.2036 146.467 52.605 146.308C53.0156 146.149 53.4776 146.07 53.991 146.07C54.327 146.07 54.677 146.121 55.041 146.224C55.405 146.327 55.7363 146.504 56.035 146.756C56.1283 146.821 56.189 146.901 56.217 146.994C56.245 147.087 56.245 147.181 56.217 147.274C56.189 147.358 56.1423 147.433 56.077 147.498C56.0116 147.554 55.9276 147.587 55.825 147.596C55.7316 147.605 55.6336 147.573 55.531 147.498C55.2883 147.311 55.041 147.181 54.789 147.106C54.537 147.031 54.2943 146.994 54.061 146.994C53.697 146.994 53.3796 147.055 53.109 147.176C52.8383 147.288 52.6096 147.451 52.423 147.666C52.2363 147.881 52.0916 148.147 51.989 148.464C51.8956 148.781 51.849 149.15 51.849 149.57C51.849 150.382 52.0403 151.026 52.423 151.502C52.8056 151.969 53.3516 152.202 54.061 152.202C54.2943 152.202 54.5323 152.165 54.775 152.09C55.027 152.015 55.279 151.885 55.531 151.698C55.6336 151.623 55.7316 151.591 55.825 151.6C55.9183 151.609 55.9976 151.647 56.063 151.712C56.1283 151.768 56.1703 151.843 56.189 151.936C56.217 152.029 56.217 152.123 56.189 152.216C56.161 152.3 56.1003 152.375 56.007 152.44C55.7083 152.683 55.3816 152.86 55.027 152.972C54.6723 153.075 54.327 153.126 53.991 153.126ZM60.2787 153.126C59.6161 153.126 59.0421 152.981 58.5567 152.692C58.0714 152.403 57.6934 151.997 57.4227 151.474C57.1614 150.942 57.0307 150.317 57.0307 149.598C57.0307 149.057 57.1054 148.571 57.2547 148.142C57.4041 147.703 57.6234 147.33 57.9127 147.022C58.2021 146.714 58.5427 146.481 58.9347 146.322C59.3361 146.154 59.7841 146.07 60.2787 146.07C60.9414 146.07 61.5154 146.215 62.0007 146.504C62.4861 146.793 62.8594 147.204 63.1207 147.736C63.3914 148.259 63.5267 148.879 63.5267 149.598C63.5267 150.139 63.4521 150.625 63.3027 151.054C63.1534 151.483 62.9341 151.857 62.6447 152.174C62.3554 152.482 62.0101 152.72 61.6087 152.888C61.2167 153.047 60.7734 153.126 60.2787 153.126ZM60.2787 152.216C60.6987 152.216 61.0674 152.113 61.3847 151.908C61.7021 151.703 61.9447 151.404 62.1127 151.012C62.2901 150.62 62.3787 150.149 62.3787 149.598C62.3787 148.749 62.1874 148.1 61.8047 147.652C61.4314 147.204 60.9227 146.98 60.2787 146.98C59.8494 146.98 59.4761 147.083 59.1587 147.288C58.8507 147.484 58.6081 147.778 58.4307 148.17C58.2627 148.553 58.1787 149.029 58.1787 149.598C58.1787 150.438 58.3701 151.087 58.7527 151.544C59.1354 151.992 59.6441 152.216 60.2787 152.216ZM65.818 153.098C65.6313 153.098 65.4913 153.047 65.398 152.944C65.3047 152.841 65.258 152.697 65.258 152.51V146.672C65.258 146.485 65.3047 146.345 65.398 146.252C65.4913 146.149 65.6267 146.098 65.804 146.098C65.9813 146.098 66.1167 146.149 66.21 146.252C66.3127 146.345 66.364 146.485 66.364 146.672V147.904L66.21 147.708C66.3873 147.185 66.672 146.784 67.064 146.504C67.4653 146.215 67.9413 146.07 68.492 146.07C69.0707 146.07 69.5373 146.21 69.892 146.49C70.256 146.761 70.4987 147.185 70.62 147.764H70.41C70.578 147.241 70.8767 146.831 71.306 146.532C71.7447 146.224 72.2533 146.07 72.832 146.07C73.3453 146.07 73.7653 146.168 74.092 146.364C74.428 146.56 74.68 146.859 74.848 147.26C75.016 147.652 75.1 148.151 75.1 148.758V152.51C75.1 152.697 75.0487 152.841 74.946 152.944C74.8527 153.047 74.7127 153.098 74.526 153.098C74.3487 153.098 74.2087 153.047 74.106 152.944C74.0127 152.841 73.966 152.697 73.966 152.51V148.814C73.966 148.189 73.8587 147.731 73.644 147.442C73.4293 147.143 73.0653 146.994 72.552 146.994C71.992 146.994 71.5487 147.19 71.222 147.582C70.9047 147.965 70.746 148.487 70.746 149.15V152.51C70.746 152.697 70.6947 152.841 70.592 152.944C70.4987 153.047 70.3587 153.098 70.172 153.098C69.9947 153.098 69.8547 153.047 69.752 152.944C69.6587 152.841 69.612 152.697 69.612 152.51V148.814C69.612 148.189 69.5 147.731 69.276 147.442C69.0613 147.143 68.702 146.994 68.198 146.994C67.638 146.994 67.1947 147.19 66.868 147.582C66.5507 147.965 66.392 148.487 66.392 149.15V152.51C66.392 152.902 66.2007 153.098 65.818 153.098Z" fill="#0B0514"/>
</g>
<defs>
<filter id="filter0_d_1491_5552" x="-10" y="0" width="183" height="183" filterUnits="userSpaceOnUse" color-interpolation-filters="sRGB">
<feFlood flood-opacity="0" result="BackgroundImageFix"/>
<feColorMatrix in="SourceAlpha" type="matrix" values="0 0 0 0 0 0 0 0 0 0 0 0 0 0 0 0 0 0 127 0" result="hardAlpha"/>
<feOffset dy="2"/>
<feGaussianBlur stdDeviation="5"/>
<feComposite in2="hardAlpha" operator="out"/>
<feColorMatrix type="matrix" values="0 0 0 0 0 0 0 0 0 0 0 0 0 0 0 0 0 0 0.1 0"/>
<feBlend mode="normal" in2="BackgroundImageFix" result="effect1_dropShadow_1491_5552"/>
<feBlend mode="normal" in="SourceGraphic" in2="effect1_dropShadow_1491_5552" result="shape"/>
</filter>
<linearGradient id="paint0_linear_1491_5552" x1="1.86777e-06" y1="45.2571" x2="171.15" y2="165.761" gradientUnits="userSpaceOnUse">
<stop stop-color="#008DDD"/>
<stop offset="1" stop-color="#52B8F1"/>
</linearGradient>
</defs>
</svg>
