<svg width="183" height="183" viewBox="0 0 183 183" fill="none" xmlns="http://www.w3.org/2000/svg">
<g filter="url(#filter0_d_1021_5532)">
<rect x="10" y="8" width="163" height="163" rx="8" fill="url(#paint0_linear_1021_5532)"/>
<rect x="26" y="24" width="60" height="60" rx="8" fill="#040405"/>
<path d="M66.361 53.9305C68.125 53.4721 69.6944 52.1527 69.6944 49.4999C69.6944 45.0833 65.9443 44.0554 61.1388 44.0554H42V63.9444H50.0555V57.1944H59.611C61.0833 57.1944 61.9444 57.7777 61.9444 59.2222V63.9444H70V58.9721C70 56.2638 68.4722 54.5554 66.361 53.9305ZM59.7499 51.8333H50.0555V49.8888H59.7499C60.8055 49.8888 61.4443 50.0277 61.4443 50.8611C61.4443 51.6944 60.8055 51.8333 59.7499 51.8333Z" fill="#F9D602"/>
<path fill-rule="evenodd" clip-rule="evenodd" d="M88.339 116.634C88.339 120.621 86.0279 123.365 82.1068 123.365C80.4968 123.365 79.0167 122.692 78.3675 121.657V123.158H75.0957V104.827H78.3675V111.559C79.1206 110.575 80.5228 109.902 82.1587 109.902C86.0279 109.902 88.339 112.647 88.339 116.634ZM78.1598 116.634C78.1598 118.99 79.5361 120.543 81.6394 120.543C83.7168 120.543 85.0931 118.99 85.0931 116.634C85.0931 114.278 83.7168 112.724 81.6394 112.724C79.5361 112.724 78.1598 114.278 78.1598 116.634Z" fill="#040405"/>
<path fill-rule="evenodd" clip-rule="evenodd" d="M41.6866 123.158L37.69 115.054C39.4817 114.174 40.5464 112.439 40.5464 110.394C40.5464 107.132 38.2353 105.034 34.6778 105.034H26L26.026 123.158H29.5575V115.727H34.0806L37.5838 123.158H41.6866ZM29.5575 108.064H34.1325C35.9502 108.064 36.9889 108.944 36.9889 110.394C36.9889 111.844 35.9502 112.698 34.1325 112.698H29.5575V108.064Z" fill="#040405"/>
<path fill-rule="evenodd" clip-rule="evenodd" d="M52.4323 110.109H55.7042V123.158H52.4323V121.657C51.7831 122.692 50.3289 123.366 48.693 123.366C44.772 123.366 42.4609 120.621 42.4609 116.634C42.4609 112.647 44.772 109.902 48.6411 109.902C50.277 109.902 51.6792 110.575 52.4323 111.559V110.109ZM45.7068 116.634C45.7068 118.99 47.083 120.543 49.1604 120.543C51.2638 120.543 52.64 118.99 52.64 116.634C52.64 114.278 51.2638 112.724 49.1604 112.724C47.083 112.724 45.7068 114.278 45.7068 116.634Z" fill="#040405"/>
<path d="M67.272 110.109L67.0643 113.268C66.5969 113.061 65.9737 112.957 65.4024 112.957C63.5587 112.957 61.8968 114.485 61.8968 118.369V123.158H58.625V110.109H61.8968V112.491C62.546 111.015 64.2598 109.902 65.8438 109.902C66.3112 109.902 66.8825 109.98 67.272 110.109Z" fill="#040405"/>
<path d="M72.1868 123.158H68.915V110.109H72.1868V123.158Z" fill="#040405"/>
<path d="M90.5586 123.158H93.8305V104.827H90.5586V123.158Z" fill="#040405"/>
<path fill-rule="evenodd" clip-rule="evenodd" d="M109.075 116.194C109.075 113.164 106.919 109.902 102.505 109.902C98.1685 109.902 96.0391 113.242 96.0391 116.634C96.0391 120.026 98.3502 123.366 102.687 123.366C105.751 123.366 108.036 121.916 108.763 119.456L105.699 118.627C105.361 119.896 104.271 120.621 102.739 120.621C100.869 120.621 99.5966 119.456 99.311 117.488H109.023C109.049 117.229 109.075 116.66 109.075 116.194ZM99.3889 115.106C99.7524 113.346 100.895 112.388 102.505 112.388C104.401 112.388 105.413 113.553 105.569 115.106H99.3889Z" fill="#040405"/>
<path d="M68.5273 105.5C68.5273 104.672 69.1989 104 70.0273 104H71.1006C71.929 104 72.6006 104.672 72.6006 105.5V106.573C72.6006 107.402 71.929 108.073 71.1006 108.073H70.0273C69.1989 108.073 68.5273 107.402 68.5273 106.573V105.5Z" fill="#040405"/>
<path d="M27.0739 153.365V145.729H28.2074V146.883H28.2869C28.4261 146.505 28.678 146.198 29.0426 145.963C29.4072 145.727 29.8182 145.61 30.2756 145.61C30.3617 145.61 30.4695 145.611 30.5987 145.615C30.728 145.618 30.8258 145.623 30.892 145.63V146.823C30.8523 146.813 30.7611 146.798 30.6186 146.778C30.4794 146.755 30.3319 146.743 30.1761 146.743C29.8049 146.743 29.4735 146.821 29.1818 146.977C28.8935 147.129 28.6648 147.342 28.4957 147.613C28.33 147.882 28.2472 148.188 28.2472 148.533V153.365H27.0739ZM34.53 153.544C34.0461 153.544 33.6069 153.453 33.2125 153.271C32.8181 153.085 32.5049 152.819 32.2729 152.471C32.0409 152.119 31.9249 151.695 31.9249 151.198C31.9249 150.76 32.0111 150.406 32.1834 150.134C32.3558 149.859 32.5861 149.643 32.8745 149.488C33.1628 149.332 33.481 149.216 33.829 149.14C34.1803 149.06 34.5333 148.997 34.888 148.951C35.352 148.891 35.7282 148.846 36.0165 148.816C36.3082 148.783 36.5203 148.729 36.6529 148.652C36.7888 148.576 36.8567 148.444 36.8567 148.255V148.215C36.8567 147.724 36.7225 147.343 36.454 147.071C36.1889 146.8 35.7862 146.664 35.2459 146.664C34.6858 146.664 34.2466 146.786 33.9284 147.032C33.6103 147.277 33.3865 147.539 33.2573 147.817L32.1436 147.419C32.3425 146.955 32.6077 146.594 32.9391 146.336C33.2739 146.074 33.6384 145.892 34.0328 145.789C34.4306 145.683 34.8217 145.63 35.2061 145.63C35.4514 145.63 35.7331 145.66 36.0513 145.719C36.3728 145.776 36.6827 145.893 36.981 146.072C37.2826 146.251 37.5328 146.521 37.7317 146.883C37.9306 147.244 38.03 147.728 38.03 148.334V153.365H36.8567V152.331H36.7971C36.7175 152.497 36.5849 152.674 36.3993 152.863C36.2137 153.052 35.9668 153.213 35.6586 153.346C35.3503 153.478 34.9741 153.544 34.53 153.544ZM34.709 152.49C35.173 152.49 35.5641 152.399 35.8823 152.217C36.2038 152.035 36.4457 151.799 36.6081 151.511C36.7739 151.223 36.8567 150.919 36.8567 150.601V149.527C36.807 149.587 36.6976 149.642 36.5286 149.691C36.3629 149.738 36.1706 149.779 35.9519 149.816C35.7364 149.849 35.526 149.879 35.3205 149.905C35.1183 149.928 34.9542 149.948 34.8283 149.965C34.5234 150.005 34.2383 150.069 33.9732 150.159C33.7114 150.245 33.4992 150.376 33.3368 150.552C33.1777 150.724 33.0982 150.959 33.0982 151.258C33.0982 151.665 33.249 151.973 33.5506 152.182C33.8555 152.388 34.2417 152.49 34.709 152.49ZM40.1715 153.365V145.729H41.305V146.883H41.3846C41.5238 146.505 41.7757 146.198 42.1403 145.963C42.5049 145.727 42.9158 145.61 43.3732 145.61C43.4594 145.61 43.5671 145.611 43.6964 145.615C43.8256 145.618 43.9234 145.623 43.9897 145.63V146.823C43.9499 146.813 43.8588 146.798 43.7163 146.778C43.5771 146.755 43.4296 146.743 43.2738 146.743C42.9026 146.743 42.5711 146.821 42.2795 146.977C41.9911 147.129 41.7624 147.342 41.5934 147.613C41.4277 147.882 41.3448 148.188 41.3448 148.533V153.365H40.1715ZM45.3805 153.365V145.729H46.5538V153.365H45.3805ZM45.9771 144.456C45.7484 144.456 45.5512 144.378 45.3855 144.223C45.2231 144.067 45.1419 143.88 45.1419 143.661C45.1419 143.442 45.2231 143.255 45.3855 143.099C45.5512 142.943 45.7484 142.865 45.9771 142.865C46.2058 142.865 46.4013 142.943 46.5637 143.099C46.7295 143.255 46.8123 143.442 46.8123 143.661C46.8123 143.88 46.7295 144.067 46.5637 144.223C46.4013 144.378 46.2058 144.456 45.9771 144.456ZM48.8619 153.365V143.184H50.0352V146.942H50.1346C50.2208 146.81 50.3401 146.641 50.4925 146.435C50.6483 146.226 50.8704 146.041 51.1587 145.878C51.4504 145.713 51.8448 145.63 52.342 145.63C52.985 145.63 53.5517 145.79 54.0423 146.112C54.5328 146.433 54.9156 146.889 55.1907 147.479C55.4658 148.069 55.6033 148.765 55.6033 149.567C55.6033 150.376 55.4658 151.077 55.1907 151.67C54.9156 152.26 54.5344 152.718 54.0472 153.042C53.56 153.364 52.9982 153.525 52.3619 153.525C51.8713 153.525 51.4786 153.443 51.1836 153.281C50.8886 153.115 50.6616 152.928 50.5025 152.719C50.3434 152.507 50.2208 152.331 50.1346 152.192H49.9954V153.365H48.8619ZM50.0153 149.547C50.0153 150.124 50.0998 150.633 50.2688 151.074C50.4379 151.511 50.6848 151.854 51.0096 152.103C51.3344 152.348 51.7321 152.471 52.2028 152.471C52.6933 152.471 53.1026 152.341 53.4308 152.083C53.7622 151.821 54.0108 151.47 54.1765 151.029C54.3455 150.585 54.43 150.091 54.43 149.547C54.43 149.01 54.3472 148.526 54.1815 148.096C54.0191 147.661 53.7721 147.318 53.4407 147.066C53.1126 146.811 52.6999 146.684 52.2028 146.684C51.7255 146.684 51.3245 146.805 50.9996 147.047C50.6748 147.285 50.4296 147.62 50.2638 148.051C50.0981 148.478 50.0153 148.977 50.0153 149.547ZM58.5714 143.184V153.365H57.3981V143.184H58.5714ZM63.9221 153.525C63.1863 153.525 62.5516 153.362 62.0179 153.037C61.4876 152.709 61.0783 152.252 60.79 151.665C60.5049 151.075 60.3624 150.389 60.3624 149.607C60.3624 148.825 60.5049 148.135 60.79 147.539C61.0783 146.939 61.4793 146.472 61.9931 146.137C62.5101 145.799 63.1133 145.63 63.8027 145.63C64.2005 145.63 64.5932 145.696 64.981 145.829C65.3688 145.961 65.7218 146.177 66.04 146.475C66.3581 146.77 66.6117 147.161 66.8006 147.648C66.9895 148.135 67.084 148.735 67.084 149.448V149.945H61.1976V148.931H65.8908C65.8908 148.5 65.8046 148.115 65.6323 147.777C65.4632 147.439 65.2213 147.173 64.9064 146.977C64.5949 146.781 64.227 146.684 63.8027 146.684C63.3354 146.684 62.931 146.8 62.5897 147.032C62.2516 147.26 61.9914 147.559 61.8091 147.927C61.6268 148.294 61.5357 148.689 61.5357 149.11V149.786C61.5357 150.363 61.6351 150.852 61.834 151.253C62.0362 151.65 62.3162 151.954 62.6742 152.162C63.0321 152.368 63.4481 152.471 63.9221 152.471C64.2303 152.471 64.5087 152.428 64.7573 152.341C65.0092 152.252 65.2263 152.119 65.4086 151.944C65.5909 151.765 65.7317 151.543 65.8311 151.277L66.9647 151.596C66.8453 151.98 66.6448 152.318 66.3631 152.61C66.0814 152.898 65.7334 153.124 65.3191 153.286C64.9048 153.445 64.4391 153.525 63.9221 153.525ZM69.7239 153.445C69.4786 153.445 69.2682 153.357 69.0925 153.182C68.9168 153.006 68.829 152.795 68.829 152.55C68.829 152.305 68.9168 152.094 69.0925 151.919C69.2682 151.743 69.4786 151.655 69.7239 151.655C69.9692 151.655 70.1796 151.743 70.3553 151.919C70.531 152.094 70.6188 152.305 70.6188 152.55C70.6188 152.713 70.5774 152.862 70.4945 152.998C70.415 153.133 70.3072 153.243 70.1713 153.326C70.0388 153.405 69.8896 153.445 69.7239 153.445ZM75.8265 153.525C75.1106 153.525 74.4941 153.356 73.9771 153.017C73.46 152.679 73.0623 152.214 72.7839 151.62C72.5055 151.027 72.3663 150.349 72.3663 149.587C72.3663 148.812 72.5088 148.127 72.7939 147.534C73.0822 146.937 73.4833 146.472 73.997 146.137C74.514 145.799 75.1172 145.63 75.8066 145.63C76.3436 145.63 76.8275 145.729 77.2583 145.928C77.6892 146.127 78.0422 146.405 78.3173 146.763C78.5924 147.121 78.7631 147.539 78.8294 148.016H77.6561C77.5666 147.668 77.3677 147.36 77.0595 147.091C76.7546 146.82 76.3436 146.684 75.8265 146.684C75.3691 146.684 74.9681 146.803 74.6234 147.042C74.282 147.277 74.0152 147.61 73.823 148.041C73.6341 148.468 73.5396 148.971 73.5396 149.547C73.5396 150.137 73.6324 150.651 73.818 151.088C74.0069 151.526 74.2721 151.866 74.6135 152.108C74.9582 152.35 75.3625 152.471 75.8265 152.471C76.1315 152.471 76.4082 152.418 76.6568 152.312C76.9054 152.205 77.1158 152.053 77.2882 151.854C77.4605 151.655 77.5832 151.417 77.6561 151.138H78.8294C78.7631 151.589 78.599 151.995 78.3372 152.356C78.0787 152.714 77.7356 152.999 77.3081 153.211C76.8838 153.42 76.39 153.525 75.8265 153.525ZM83.6468 153.525C82.9574 153.525 82.3526 153.361 81.8322 153.032C81.3152 152.704 80.9108 152.245 80.6191 151.655C80.3308 151.065 80.1866 150.376 80.1866 149.587C80.1866 148.792 80.3308 148.097 80.6191 147.504C80.9108 146.911 81.3152 146.45 81.8322 146.122C82.3526 145.794 82.9574 145.63 83.6468 145.63C84.3362 145.63 84.9395 145.794 85.4565 146.122C85.9769 146.45 86.3812 146.911 86.6696 147.504C86.9612 148.097 87.1071 148.792 87.1071 149.587C87.1071 150.376 86.9612 151.065 86.6696 151.655C86.3812 152.245 85.9769 152.704 85.4565 153.032C84.9395 153.361 84.3362 153.525 83.6468 153.525ZM83.6468 152.471C84.1705 152.471 84.6014 152.336 84.9395 152.068C85.2775 151.799 85.5278 151.446 85.6902 151.009C85.8526 150.571 85.9338 150.097 85.9338 149.587C85.9338 149.077 85.8526 148.601 85.6902 148.16C85.5278 147.719 85.2775 147.363 84.9395 147.091C84.6014 146.82 84.1705 146.684 83.6468 146.684C83.1232 146.684 82.6923 146.82 82.3542 147.091C82.0162 147.363 81.7659 147.719 81.6035 148.16C81.4411 148.601 81.3599 149.077 81.3599 149.587C81.3599 150.097 81.4411 150.571 81.6035 151.009C81.7659 151.446 82.0162 151.799 82.3542 152.068C82.6923 152.336 83.1232 152.471 83.6468 152.471ZM88.8981 153.365V145.729H90.0316V146.922H90.131C90.2901 146.515 90.547 146.198 90.9016 145.973C91.2563 145.744 91.6822 145.63 92.1793 145.63C92.6831 145.63 93.1024 145.744 93.4371 145.973C93.7752 146.198 94.0387 146.515 94.2276 146.922H94.3072C94.5027 146.528 94.796 146.215 95.1871 145.983C95.5782 145.747 96.0472 145.63 96.5941 145.63C97.2769 145.63 97.8353 145.843 98.2695 146.271C98.7037 146.695 98.9208 147.356 98.9208 148.255V153.365H97.7475V148.255C97.7475 147.691 97.5934 147.289 97.2852 147.047C96.9769 146.805 96.614 146.684 96.1964 146.684C95.6594 146.684 95.2435 146.846 94.9485 147.171C94.6535 147.492 94.506 147.9 94.506 148.394V153.365H93.3129V148.135C93.3129 147.701 93.172 147.352 92.8903 147.086C92.6085 146.818 92.2456 146.684 91.8015 146.684C91.4966 146.684 91.2115 146.765 90.9464 146.927C90.6845 147.09 90.4724 147.315 90.31 147.603C90.1509 147.888 90.0714 148.218 90.0714 148.593V153.365H88.8981Z" fill="#0B0514"/>
</g>
<defs>
<filter id="filter0_d_1021_5532" x="0" y="0" width="183" height="183" filterUnits="userSpaceOnUse" color-interpolation-filters="sRGB">
<feFlood flood-opacity="0" result="BackgroundImageFix"/>
<feColorMatrix in="SourceAlpha" type="matrix" values="0 0 0 0 0 0 0 0 0 0 0 0 0 0 0 0 0 0 127 0" result="hardAlpha"/>
<feOffset dy="2"/>
<feGaussianBlur stdDeviation="5"/>
<feComposite in2="hardAlpha" operator="out"/>
<feColorMatrix type="matrix" values="0 0 0 0 0 0 0 0 0 0 0 0 0 0 0 0 0 0 0.1 0"/>
<feBlend mode="normal" in2="BackgroundImageFix" result="effect1_dropShadow_1021_5532"/>
<feBlend mode="normal" in="SourceGraphic" in2="effect1_dropShadow_1021_5532" result="shape"/>
</filter>
<linearGradient id="paint0_linear_1021_5532" x1="10" y1="45.2571" x2="181.15" y2="165.761" gradientUnits="userSpaceOnUse">
<stop stop-color="#EDCB00"/>
<stop offset="1" stop-color="#FEDA03"/>
</linearGradient>
</defs>
</svg>
