<svg width="40" height="40" viewBox="0 0 40 40" fill="none" xmlns="http://www.w3.org/2000/svg">
<rect width="40" height="40" rx="4" fill="black"/>
<g clip-path="url(#clip0_1696_113555)">
<path d="M20.6738 7.51469C20.0683 7.28029 19.4334 7.16309 18.7692 7.16309C18.1051 7.16309 17.4654 7.28029 16.8501 7.51469C16.2445 7.73933 15.7024 8.07141 15.2238 8.51092C14.9559 8.757 14.7186 9.0337 14.5119 9.34101V7.38284H6V9.80015H8.88612V17.1546H11.6257V9.80015H14.2377C14.1826 9.90463 14.1304 10.0121 14.0812 10.1225C13.8077 10.7573 13.6709 11.4801 13.6709 12.2907C13.6709 13.1014 13.8077 13.8241 14.0812 14.459C14.3644 15.0938 14.7453 15.631 15.2238 16.0705C15.7024 16.51 16.2445 16.847 16.8501 17.0814C17.4654 17.3061 18.1051 17.4183 18.7692 17.4183C19.4334 17.4183 20.0683 17.3061 20.6738 17.0814C21.2891 16.847 21.8361 16.51 22.3147 16.0705C22.7933 15.631 23.1692 15.0938 23.4427 14.459C23.7259 13.8241 23.8676 13.1014 23.8676 12.2907C23.8676 11.4801 23.7259 10.7573 23.4427 10.1225C23.1692 9.48761 22.7933 8.95043 22.3147 8.51092C21.8361 8.07141 21.2891 7.73933 20.6738 7.51469ZM17.5972 10.0639C17.9391 9.83922 18.3298 9.7269 18.7692 9.7269C19.2087 9.7269 19.5995 9.83922 19.9413 10.0639C20.2929 10.2885 20.5664 10.5962 20.7617 10.9868C20.957 11.3677 21.0547 11.8024 21.0547 12.2907C21.0547 12.7791 20.957 13.2186 20.7617 13.6092C20.5664 13.9902 20.2929 14.2929 19.9413 14.5175C19.5995 14.7422 19.2087 14.8545 18.7692 14.8545C18.3298 14.8545 17.9391 14.7422 17.5972 14.5175C17.2554 14.2929 16.9819 13.9902 16.7768 13.6092C16.5815 13.2186 16.4838 12.7791 16.4838 12.2907C16.4838 11.8024 16.5815 11.3677 16.7768 10.9868C16.9819 10.5962 17.2554 10.2885 17.5972 10.0639Z" fill="white"/>
<path d="M23.4865 23.596V17.6333H20.7469V23.4055C20.7469 23.9134 20.6102 24.3285 20.3367 24.6508C20.0632 24.9633 19.6335 25.1245 19.0475 25.1343C18.4614 25.1441 18.0317 24.9878 17.7582 24.6655C17.4847 24.3334 17.348 23.9134 17.348 23.4055V17.6333H14.6084V23.596C14.6084 24.4457 14.8086 25.1782 15.209 25.7936C15.6095 26.4089 16.1467 26.8826 16.8206 27.2146C17.4945 27.537 18.2368 27.6981 19.0475 27.6981C19.8679 27.6981 20.6102 27.537 21.2743 27.2146C21.9482 26.8826 22.4854 26.4089 22.8858 25.7936C23.2863 25.1782 23.4865 24.4457 23.4865 23.596Z" fill="white"/>
<path d="M13.1786 24.1674V21.75H9.69177V20.0799H13.9111V17.6626H6.95215V27.4783H9.69177V24.1674H13.1786Z" fill="white"/>
<path d="M29.8933 23.8731H27.4761V20.3863H24.165V17.6467H33.9808V33.0091H31.5635V30.123H24.209V27.3833H31.5635V20.3863H29.8933V23.8731Z" fill="white"/>
<path d="M24.1641 16.3479H33.981V13.8718H28.9266L33.981 8.34876V7.38184H24.1641V9.91625H28.8387L24.1641 15.3809V16.3479Z" fill="white"/>
</g>
<defs>
<clipPath id="clip0_1696_113555">
<rect width="28" height="25.8462" fill="white" transform="translate(6 7.0769)"/>
</clipPath>
</defs>
</svg>
